<?xml version="1.0" encoding="us-ascii" standalone="no"?><svg xmlns="http://www.w3.org/2000/svg" xmlns:xlink="http://www.w3.org/1999/xlink" contentStyleType="text/css" height="863px" preserveAspectRatio="none" style="width:434px;height:863px;background:#FFFFFF;" version="1.1" viewBox="0 0 434 863" width="434px" zoomAndPan="magnify"><defs/><g><text fill="#000000" font-family="Verdana" font-size="22" font-weight="bold" lengthAdjust="spacing" textLength="220" x="102.5" y="38.5181">Multi Round Hasher</text><!--cluster RUNNING--><g id="cluster_RUNNING"><path d="M24.5,270.9641 L387.5,270.9641 A12.5,12.5 0 0 1 400,283.4641 L400,295.032 L12,295.032 L12,283.4641 A12.5,12.5 0 0 1 24.5,270.9641 " fill="#FFFFFF" style="stroke:#FFFFFF;stroke-width:1.0;"/><path d="M12,295.032 L400,295.032 L400,837.4641 A12.5,12.5 0 0 1 387.5,849.9641 L24.5,849.9641 A12.5,12.5 0 0 1 12,837.4641 L12,295.032 " fill="#FFFFFF" style="stroke:#FFFFFF;stroke-width:1.0;"/><rect fill="none" height="579" rx="12.5" ry="12.5" style="stroke:#000000;stroke-width:1.0;" width="388" x="12" y="270.9641"/><line style="stroke:#000000;stroke-width:1.0;" x1="12" x2="400" y1="295.032" y2="295.032"/><text fill="#000000" font-family="Verdana" font-size="14" lengthAdjust="spacing" textLength="67" x="172.5" y="289.93">RUNNING</text></g><g id="RUNNING.START_CORE"><rect fill="#FFFFFF" height="55.412" rx="12.5" ry="12.5" style="stroke:#000000;stroke-width:1.0;" width="105" x="36.5" y="316.9641"/><line style="stroke:#000000;stroke-width:1.0;" x1="36.5" x2="141.5" y1="346.032" y2="346.032"/><text fill="#000000" font-family="Verdana" font-size="14" lengthAdjust="spacing" textLength="85" x="46.5" y="336.93">START_CORE</text><text fill="#000000" font-family="Verdana" font-size="12" lengthAdjust="spacing" textLength="3" x="41.5" y="363.8601">&#160;</text></g><g id="RUNNING.RUNNING_CORE_READY"><rect fill="#FFFFFF" height="55.412" rx="12.5" ry="12.5" style="stroke:#000000;stroke-width:1.0;" width="180" x="177" y="316.9641"/><line style="stroke:#000000;stroke-width:1.0;" x1="177" x2="357" y1="346.032" y2="346.032"/><text fill="#000000" font-family="Verdana" font-size="14" lengthAdjust="spacing" textLength="160" x="187" y="336.93">RUNNING_CORE_READY</text><text fill="#000000" font-family="Verdana" font-size="12" lengthAdjust="spacing" textLength="67" x="182" y="363.8601">Intiate core.</text></g><g id="RUNNING.RUNNING_CORE_WAIT"><rect fill="#FFFFFF" height="71.7561" rx="12.5" ry="12.5" style="stroke:#000000;stroke-width:1.0;" width="242" x="56" y="468.9641"/><line style="stroke:#000000;stroke-width:1.0;" x1="56" x2="298" y1="498.032" y2="498.032"/><text fill="#000000" font-family="Verdana" font-size="14" lengthAdjust="spacing" textLength="151" x="101.5" y="488.93">RUNNING_CORE_WAIT</text><text fill="#000000" font-family="Verdana" font-size="12" lengthAdjust="spacing" textLength="222" x="61" y="515.8601">Increment wait counter until overflow to</text><text fill="#000000" font-family="Verdana" font-size="12" lengthAdjust="spacing" textLength="122" x="61" y="532.2042">introduce small delay.</text></g><g id="RUNNING.DONE"><rect fill="#FFFFFF" height="55.412" rx="12.5" ry="12.5" style="stroke:#000000;stroke-width:1.0;" width="60" x="132" y="770.9641"/><line style="stroke:#000000;stroke-width:1.0;" x1="132" x2="192" y1="800.032" y2="800.032"/><text fill="#000000" font-family="Verdana" font-size="14" lengthAdjust="spacing" textLength="40" x="142" y="790.93">DONE</text><text fill="#000000" font-family="Verdana" font-size="12" lengthAdjust="spacing" textLength="3" x="137" y="817.8601">&#160;</text></g><g id="RUNNING.DONE_CORE_WAIT"><rect fill="#FFFFFF" height="71.7561" rx="12.5" ry="12.5" style="stroke:#000000;stroke-width:1.0;" width="242" x="45" y="619.9641"/><line style="stroke:#000000;stroke-width:1.0;" x1="45" x2="287" y1="649.032" y2="649.032"/><text fill="#000000" font-family="Verdana" font-size="14" lengthAdjust="spacing" textLength="124" x="104" y="639.93">DONE_CORE_WAIT</text><text fill="#000000" font-family="Verdana" font-size="12" lengthAdjust="spacing" textLength="222" x="50" y="666.8601">Increment wait counter until overflow to</text><text fill="#000000" font-family="Verdana" font-size="12" lengthAdjust="spacing" textLength="122" x="50" y="683.2042">introduce small delay.</text></g><g id="IDLE_RESET"><rect fill="#FFFFFF" height="55.412" rx="12.5" ry="12.5" style="stroke:#000000;stroke-width:1.0;" width="97" x="191.5" y="142.9641"/><line style="stroke:#000000;stroke-width:1.0;" x1="191.5" x2="288.5" y1="172.032" y2="172.032"/><text fill="#000000" font-family="Verdana" font-size="14" lengthAdjust="spacing" textLength="77" x="201.5" y="162.93">IDLE_RESET</text><text fill="#000000" font-family="Verdana" font-size="12" lengthAdjust="spacing" textLength="3" x="196.5" y="189.8601">&#160;</text></g><ellipse cx="240" cy="71.9641" fill="#FFFFFF" rx="10" ry="10" style="stroke:#000000;stroke-width:1.0;"/><!--reverse link IDLE_RESET to IDLE_RESET--><g id="link_IDLE_RESET_IDLE_RESET"><path d="M294.8881,159.4818 C313.7881,159.0018 323.5,162.7641 323.5,170.4641 C323.5,178.1641 307.79,181.7741 288.89,181.2941 " fill="none" id="IDLE_RESET-backto-IDLE_RESET" style="stroke:#000000;stroke-width:1.0;"/><polygon fill="#000000" points="288.89,159.6341,297.9887,163.4043,293.8884,159.5072,297.7855,155.4069,288.89,159.6341" style="stroke:#000000;stroke-width:1.0;"/><text fill="#000000" font-family="Verdana" font-size="13" lengthAdjust="spacing" textLength="23" x="329.5" y="175.8611">else</text></g><!--link START_CORE to RUNNING_CORE_WAIT--><g id="link_START_CORE_RUNNING_CORE_WAIT"><path d="M103.73,371.9941 C118.46,398.5241 138.2775,434.2184 154.5175,463.4684 " fill="none" id="START_CORE-to-RUNNING_CORE_WAIT" style="stroke:#000000;stroke-width:1.0;"/><polygon fill="#000000" points="157.43,468.7141,156.5584,458.9039,155.0029,464.3427,149.5641,462.7872,157.43,468.7141" style="stroke:#000000;stroke-width:1.0;"/></g><!--link RUNNING_CORE_WAIT to DONE_CORE_WAIT--><g id="link_RUNNING_CORE_WAIT_DONE_CORE_WAIT"><path d="M174.39,541.2741 C172.64,565.0241 170.7818,590.2204 169.0318,613.9204 " fill="none" id="RUNNING_CORE_WAIT-to-DONE_CORE_WAIT" style="stroke:#000000;stroke-width:1.0;"/><polygon fill="#000000" points="168.59,619.9041,173.2419,611.2231,168.9582,614.9177,165.2636,610.634,168.59,619.9041" style="stroke:#000000;stroke-width:1.0;"/><text fill="#000000" font-family="Verdana" font-size="13" lengthAdjust="spacing" textLength="183" x="173" y="585.8611">if rounds_internal = rounds_ctr</text></g><!--link RUNNING_CORE_WAIT to RUNNING_CORE_READY--><g id="link_RUNNING_CORE_WAIT_RUNNING_CORE_READY"><path d="M197.02,468.7141 C213.62,439.4641 233.9065,403.7412 248.9765,377.2112 " fill="none" id="RUNNING_CORE_WAIT-to-RUNNING_CORE_READY" style="stroke:#000000;stroke-width:1.0;"/><polygon fill="#000000" points="251.94,371.9941,244.0167,377.844,249.4704,376.3417,250.9728,381.7954,251.94,371.9941" style="stroke:#000000;stroke-width:1.0;"/><text fill="#000000" font-family="Verdana" font-size="13" lengthAdjust="spacing" textLength="99" x="242" y="416.8611">elsif core_done =</text><text fill="#000000" font-family="Verdana" font-size="13" lengthAdjust="spacing" textLength="117" x="233" y="434.5671">1 and wait_ctr = 000</text></g><!--link RUNNING_CORE_READY to RUNNING_CORE_WAIT--><g id="link_RUNNING_CORE_READY_RUNNING_CORE_WAIT"><path d="M220.7,372.2041 C210.06,380.4441 199.86,390.4341 193,401.9641 C181.08,421.9841 177.4261,441.9809 176.4361,462.7209 " fill="none" id="RUNNING_CORE_READY-to-RUNNING_CORE_WAIT" style="stroke:#000000;stroke-width:1.0;"/><polygon fill="#000000" points="176.15,468.7141,180.5746,459.9151,176.3884,463.7198,172.5837,459.5336,176.15,468.7141" style="stroke:#000000;stroke-width:1.0;"/></g><!--reverse link RUNNING_CORE_WAIT to RUNNING_CORE_WAIT--><g id="link_RUNNING_CORE_WAIT_RUNNING_CORE_WAIT"><path d="M303.9881,492.526 C324.6581,494.296 333,498.0941 333,504.9641 C333,511.8341 318.68,516.1441 298.01,517.9141 " fill="none" id="RUNNING_CORE_WAIT-backto-RUNNING_CORE_WAIT" style="stroke:#000000;stroke-width:1.0;"/><polygon fill="#000000" points="298.01,492.0141,306.6359,496.7674,302.9918,492.4407,307.3185,488.7966,298.01,492.0141" style="stroke:#000000;stroke-width:1.0;"/><text fill="#000000" font-family="Verdana" font-size="13" lengthAdjust="spacing" textLength="23" x="339" y="510.3611">else</text></g><!--link DONE_CORE_WAIT to DONE--><g id="link_DONE_CORE_WAIT_DONE"><path d="M165,692.0541 C164.31,716.4441 163.572,742.4366 162.932,764.7566 " fill="none" id="DONE_CORE_WAIT-to-DONE" style="stroke:#000000;stroke-width:1.0;"/><polygon fill="#000000" points="162.76,770.7541,167.0163,761.8724,162.9033,765.7562,159.0196,761.6432,162.76,770.7541" style="stroke:#000000;stroke-width:1.0;"/><text fill="#000000" font-family="Verdana" font-size="13" lengthAdjust="spacing" textLength="193" x="165" y="736.8611">if core_done = 1 and wait_ctr 000</text></g><!--reverse link DONE_CORE_WAIT to DONE_CORE_WAIT--><g id="link_DONE_CORE_WAIT_DONE_CORE_WAIT"><path d="M292.9881,643.526 C313.6581,645.296 322,649.0941 322,655.9641 C322,662.8341 307.68,667.1441 287.01,668.9141 " fill="none" id="DONE_CORE_WAIT-backto-DONE_CORE_WAIT" style="stroke:#000000;stroke-width:1.0;"/><polygon fill="#000000" points="287.01,643.0141,295.6359,647.7674,291.9918,643.4407,296.3185,639.7966,287.01,643.0141" style="stroke:#000000;stroke-width:1.0;"/><text fill="#000000" font-family="Verdana" font-size="13" lengthAdjust="spacing" textLength="23" x="328" y="661.3611">else</text></g><!--link DONE to DONE--><g id="link_DONE_DONE"><path d="M192.09,786.8641 C210.07,784.2841 227,788.1541 227,798.4641 C227,808.7741 216.0092,813.4963 198.0292,810.9163 " fill="none" id="DONE-to-DONE" style="stroke:#000000;stroke-width:1.0;"/><polygon fill="#000000" points="192.09,810.0641,200.4306,815.3019,197.0393,810.7743,201.5669,807.383,192.09,810.0641" style="stroke:#000000;stroke-width:1.0;"/></g><!--link *start* to IDLE_RESET--><g id="link_*start*_IDLE_RESET"><path d="M240,82.2141 C240,95.9941 240,116.4341 240,136.6141 " fill="none" id="*start*-to-IDLE_RESET" style="stroke:#000000;stroke-width:1.0;"/><polygon fill="#000000" points="240,142.6141,244,133.6141,240,137.6141,236,133.6141,240,142.6141" style="stroke:#000000;stroke-width:1.0;"/></g><!--link IDLE_RESET to START_CORE--><g id="link_IDLE_RESET_START_CORE"><path d="M213.44,197.9741 C197.57,214.1141 177.21,235.3441 160,254.9641 C142.33,275.1041 127.0866,294.0903 113.2166,311.9003 " fill="none" id="IDLE_RESET-to-START_CORE" style="stroke:#000000;stroke-width:1.0;"/><polygon fill="#000000" points="109.53,316.6341,118.2158,311.9911,112.6022,312.6892,111.904,307.0756,109.53,316.6341" style="stroke:#000000;stroke-width:1.0;"/><text fill="#000000" font-family="Verdana" font-size="13" lengthAdjust="spacing" textLength="58" x="184" y="242.8611">if start = 1</text></g><!--link RUNNING to IDLE_RESET--><g id="link_RUNNING_IDLE_RESET"><path d="M381.5416,270.7814 C381.482,270.6379 381.4221,270.4945 381.3619,270.3513 C381.2415,270.065 381.1198,269.7792 380.9968,269.4942 C380.7507,268.9241 380.4994,268.3568 380.2428,267.7924 C378.1895,263.2777 375.7938,258.9554 373,254.9641 C352.28,225.3741 322.8007,206.6163 293.9507,192.9263 " fill="none" id="RUNNING-to-IDLE_RESET" style="stroke:#000000;stroke-width:1.0;"/><polygon fill="#000000" points="288.53,190.3541,294.9462,197.8262,293.0472,192.4976,298.3758,190.5987,288.53,190.3541" style="stroke:#000000;stroke-width:1.0;"/><text fill="#000000" font-family="Verdana" font-size="13" lengthAdjust="spacing" textLength="60" x="366" y="242.8611">if reset = 1</text></g><!--SRC=[hPBHIyCm4CRVyrUShyB6V2rE6AveGJleAY9EIcXlB9WbabmT8lxlNgfRkww- -HB8vVBb-tsNCzhW5k5DIsM4yA_AWBCUXI156k6-rgGWixMfu5Rw3JgHpE_Y8ekNSHu9Jv8GieSqJT8R-1JBV9RbnVKYYoFnMsrst3-RFqM98HKkbDRX-BZXSPRa4IIcT6p74Eoa8kwh3Q43NfK6-uvkhUqEoAwCCkHiLPS8VYkrXWgr_1YB-IBbfyFwhx8jCroEe9C0eEQmMcmOZQxW1EmKjUdhsrHhpfwJzeKA_epKCDrNId9_g0pa75onM8YvgAn1cAxC1KYUOU0FMYmycKm651blO2uDvUb3C0XxZ7KWRVWwbg3dAFZfNMKp_OmQ9w5uq1LVuldyfTcsW-bEB9nqFcQmmV_MKR2mX-fT_va5UcoQlW40]--></g></svg>