<?xml version="1.0" encoding="us-ascii" standalone="no"?><svg xmlns="http://www.w3.org/2000/svg" xmlns:xlink="http://www.w3.org/1999/xlink" contentStyleType="text/css" height="228px" preserveAspectRatio="none" style="width:574px;height:228px;background:#FFFFFF;" version="1.1" viewBox="0 0 574 228" width="574px" zoomAndPan="magnify"><defs/><g><line style="stroke:#000000;stroke-width:1.0;" x1="5" x2="5" y1="5" y2="202.2038"/><line style="stroke:#000000;stroke-width:1.0;" x1="562" x2="562" y1="5" y2="202.2038"/><line style="stroke:#000000;stroke-width:0.5;stroke-dasharray:3.0,5.0;" x1="107" x2="107" y1="5" y2="202.2038"/><line style="stroke:#000000;stroke-width:0.5;stroke-dasharray:3.0,5.0;" x1="157" x2="157" y1="5" y2="202.2038"/><line style="stroke:#000000;stroke-width:0.5;stroke-dasharray:3.0,5.0;" x1="207" x2="207" y1="5" y2="202.2038"/><line style="stroke:#000000;stroke-width:0.5;stroke-dasharray:3.0,5.0;" x1="257" x2="257" y1="5" y2="202.2038"/><line style="stroke:#000000;stroke-width:0.5;stroke-dasharray:3.0,5.0;" x1="307" x2="307" y1="5" y2="202.2038"/><line style="stroke:#000000;stroke-width:0.5;stroke-dasharray:3.0,5.0;" x1="357" x2="357" y1="5" y2="202.2038"/><line style="stroke:#000000;stroke-width:0.5;stroke-dasharray:3.0,5.0;" x1="407" x2="407" y1="5" y2="202.2038"/><line style="stroke:#000000;stroke-width:0.5;stroke-dasharray:3.0,5.0;" x1="457" x2="457" y1="5" y2="202.2038"/><line style="stroke:#000000;stroke-width:0.5;stroke-dasharray:3.0,5.0;" x1="507" x2="507" y1="5" y2="202.2038"/><line style="stroke:#000000;stroke-width:0.5;stroke-dasharray:3.0,5.0;" x1="557" x2="557" y1="5" y2="202.2038"/><line style="stroke:#000000;stroke-width:1.0;" x1="5" x2="562" y1="5" y2="5"/><text fill="#000000" font-family="Verdana" font-size="14" font-weight="bold" lengthAdjust="spacing" textLength="97" x="10" y="19.9659">PlusBUS clock</text><line style="stroke:#000000;stroke-width:1.0;" x1="5" x2="108" y1="25.0679" y2="25.0679"/><line style="stroke:#000000;stroke-width:1.0;" x1="108" x2="118" y1="25.0679" y2="5"/><line style="stroke:#000000;stroke-width:1.0;" x1="107" x2="107" y1="32.0679" y2="46.0679"/><line style="stroke:#000000;stroke-width:1.0;" x1="107" x2="157" y1="32.0679" y2="32.0679"/><line style="stroke:#000000;stroke-width:1.0;" x1="157" x2="157" y1="32.0679" y2="46.0679"/><line style="stroke:#000000;stroke-width:1.0;" x1="157" x2="207" y1="46.0679" y2="46.0679"/><line style="stroke:#000000;stroke-width:1.0;" x1="207" x2="207" y1="32.0679" y2="46.0679"/><line style="stroke:#000000;stroke-width:1.0;" x1="207" x2="257" y1="32.0679" y2="32.0679"/><line style="stroke:#000000;stroke-width:1.0;" x1="257" x2="257" y1="32.0679" y2="46.0679"/><line style="stroke:#000000;stroke-width:1.0;" x1="257" x2="307" y1="46.0679" y2="46.0679"/><line style="stroke:#000000;stroke-width:1.0;" x1="307" x2="307" y1="32.0679" y2="46.0679"/><line style="stroke:#000000;stroke-width:1.0;" x1="307" x2="357" y1="32.0679" y2="32.0679"/><line style="stroke:#000000;stroke-width:1.0;" x1="357" x2="357" y1="32.0679" y2="46.0679"/><line style="stroke:#000000;stroke-width:1.0;" x1="357" x2="407" y1="46.0679" y2="46.0679"/><line style="stroke:#000000;stroke-width:1.0;" x1="407" x2="407" y1="32.0679" y2="46.0679"/><line style="stroke:#000000;stroke-width:1.0;" x1="407" x2="457" y1="32.0679" y2="32.0679"/><line style="stroke:#000000;stroke-width:1.0;" x1="457" x2="457" y1="32.0679" y2="46.0679"/><line style="stroke:#000000;stroke-width:1.0;" x1="457" x2="507" y1="46.0679" y2="46.0679"/><line style="stroke:#000000;stroke-width:1.0;" x1="507" x2="507" y1="32.0679" y2="46.0679"/><line style="stroke:#000000;stroke-width:1.0;" x1="507" x2="557" y1="32.0679" y2="32.0679"/><line style="stroke:#000000;stroke-width:1.0;" x1="557" x2="557" y1="32.0679" y2="46.0679"/><line style="stroke:#000000;stroke-width:1.0;" x1="557" x2="557" y1="46.0679" y2="46.0679"/><line style="stroke:#000000;stroke-width:1.0;" x1="5" x2="562" y1="54.0679" y2="54.0679"/><text fill="#000000" font-family="Verdana" font-size="14" font-weight="bold" lengthAdjust="spacing" textLength="59" x="10" y="74.4999">R/not_W</text><line style="stroke:#000000;stroke-width:1.0;" x1="107" x2="107" y1="76.0679" y2="76.0679"/><line style="stroke:#000000;stroke-width:1.0;" x1="107" x2="257" y1="76.0679" y2="76.0679"/><line style="stroke:#000000;stroke-width:1.0;" x1="257" x2="357" y1="76.0679" y2="76.0679"/><line style="stroke:#000000;stroke-width:1.0;" x1="357" x2="357" y1="62.0679" y2="76.0679"/><line style="stroke:#000000;stroke-width:1.0;" x1="357" x2="557" y1="62.0679" y2="62.0679"/><line style="stroke:#000000;stroke-width:1.0;" x1="5" x2="562" y1="84.0679" y2="84.0679"/><text fill="#000000" font-family="Verdana" font-size="14" font-weight="bold" lengthAdjust="spacing" textLength="85" x="10" y="99.0339">Address bus</text><line style="stroke:#000000;stroke-width:1.0;" x1="5" x2="96" y1="104.1358" y2="104.1358"/><line style="stroke:#000000;stroke-width:1.0;" x1="96" x2="106" y1="104.1358" y2="84.0679"/><polygon fill="#FFFFFF" points="119,109.1358,245,109.1358,257,121.1358,245,133.1358,119,133.1358,107,121.1358" style="stroke:#000000;stroke-width:1.0;"/><polygon fill="#FFFFFF" points="269,109.1358,445,109.1358,457,121.1358,445,133.1358,269,133.1358,257,121.1358" style="stroke:#000000;stroke-width:1.0;"/><polygon fill="#FFFFFF" points="469,109.1358,557,109.1358,557,133.1358,469,133.1358,457,121.1358" style="stroke:#FFFFFF;stroke-width:1.0;"/><path d="M557,109.1358 L469,109.1358 L457,121.1358 L469,133.1358 L557,133.1358 " fill="#FFFFFF" style="stroke:#000000;stroke-width:1.0;"/><text fill="#000000" font-family="Verdana" font-size="12" font-weight="bold" lengthAdjust="spacing" textLength="54" x="155" y="125.7919">0x0/NOP</text><text fill="#000000" font-family="Verdana" font-size="12" font-weight="bold" lengthAdjust="spacing" textLength="21" x="346.5" y="125.7919">0x2</text><text fill="#000000" font-family="Verdana" font-size="12" font-weight="bold" lengthAdjust="spacing" textLength="54" x="469" y="125.7919">0x0/NOP</text><line style="stroke:#000000;stroke-width:1.0;" x1="5" x2="562" y1="143.1358" y2="143.1358"/><text fill="#000000" font-family="Verdana" font-size="14" font-weight="bold" lengthAdjust="spacing" textLength="61" x="10" y="158.1018">Data bus</text><line style="stroke:#000000;stroke-width:1.0;" x1="5" x2="72" y1="163.2038" y2="163.2038"/><line style="stroke:#000000;stroke-width:1.0;" x1="72" x2="82" y1="163.2038" y2="143.1358"/><polygon fill="#FFFFFF" points="119,168.2038,295,168.2038,307,180.2038,295,192.2038,119,192.2038,107,180.2038" style="stroke:#000000;stroke-width:1.0;"/><polygon fill="#FFFFFF" points="319,168.2038,395,168.2038,407,180.2038,395,192.2038,319,192.2038,307,180.2038" style="stroke:#000000;stroke-width:1.0;"/><polygon fill="#FFFFFF" points="419,168.2038,495,168.2038,507,180.2038,495,192.2038,419,192.2038,407,180.2038" style="stroke:#000000;stroke-width:1.0;"/><polygon fill="#FFFFFF" points="519,168.2038,557,168.2038,557,192.2038,519,192.2038,507,180.2038" style="stroke:#FFFFFF;stroke-width:1.0;"/><path d="M557,168.2038 L519,168.2038 L507,180.2038 L519,192.2038 L557,192.2038 " fill="#FFFFFF" style="stroke:#000000;stroke-width:1.0;"/><text fill="#000000" font-family="Verdana" font-size="12" font-weight="bold" lengthAdjust="spacing" textLength="28" x="193" y="184.8598">0xFF</text><text fill="#000000" font-family="Verdana" font-size="12" font-weight="bold" lengthAdjust="spacing" textLength="28" x="343" y="184.8598">0x41</text><text fill="#000000" font-family="Verdana" font-size="12" font-weight="bold" lengthAdjust="spacing" textLength="28" x="443" y="184.8598">0x55</text><text fill="#000000" font-family="Verdana" font-size="12" font-weight="bold" lengthAdjust="spacing" textLength="28" x="519" y="184.8598">0xFF</text><line style="stroke:#000000;stroke-width:1.0;" x1="107" x2="107" y1="202.2038" y2="207.2038"/><line style="stroke:#000000;stroke-width:1.0;" x1="157" x2="157" y1="202.2038" y2="207.2038"/><line style="stroke:#000000;stroke-width:1.0;" x1="207" x2="207" y1="202.2038" y2="207.2038"/><line style="stroke:#000000;stroke-width:1.0;" x1="257" x2="257" y1="202.2038" y2="207.2038"/><line style="stroke:#000000;stroke-width:1.0;" x1="307" x2="307" y1="202.2038" y2="207.2038"/><line style="stroke:#000000;stroke-width:1.0;" x1="357" x2="357" y1="202.2038" y2="207.2038"/><line style="stroke:#000000;stroke-width:1.0;" x1="407" x2="407" y1="202.2038" y2="207.2038"/><line style="stroke:#000000;stroke-width:1.0;" x1="457" x2="457" y1="202.2038" y2="207.2038"/><line style="stroke:#000000;stroke-width:1.0;" x1="507" x2="507" y1="202.2038" y2="207.2038"/><line style="stroke:#000000;stroke-width:1.0;" x1="557" x2="557" y1="202.2038" y2="207.2038"/><line style="stroke:#000000;stroke-width:1.0;" x1="107" x2="557" y1="202.2038" y2="202.2038"/><text fill="#000000" font-family="Verdana" font-size="11" lengthAdjust="spacing" textLength="6" x="104" y="219.9627">0</text><text fill="#000000" font-family="Verdana" font-size="11" lengthAdjust="spacing" textLength="6" x="204" y="219.9627">2</text><text fill="#000000" font-family="Verdana" font-size="11" lengthAdjust="spacing" textLength="6" x="254" y="219.9627">3</text><text fill="#000000" font-family="Verdana" font-size="11" lengthAdjust="spacing" textLength="6" x="304" y="219.9627">4</text><text fill="#000000" font-family="Verdana" font-size="11" lengthAdjust="spacing" textLength="6" x="354" y="219.9627">5</text><text fill="#000000" font-family="Verdana" font-size="11" lengthAdjust="spacing" textLength="6" x="404" y="219.9627">6</text><text fill="#000000" font-family="Verdana" font-size="11" lengthAdjust="spacing" textLength="6" x="454" y="219.9627">7</text><text fill="#000000" font-family="Verdana" font-size="11" lengthAdjust="spacing" textLength="6" x="504" y="219.9627">8</text><line style="stroke:#000000;stroke-width:1.0;" x1="307" x2="357" y1="62.0679" y2="168.2038"/><polygon fill="#000000" points="351.321,162.5691,356.2715,160.237,357,168.2038" style="stroke:#000000;stroke-width:1.0;"/><text fill="#000000" font-family="Serif" font-size="14" lengthAdjust="spacing" textLength="35" x="353.7962" y="157.3011">write</text><line style="stroke:#000000;stroke-width:1.0;" x1="407" x2="457" y1="62.0679" y2="168.2038"/><polygon fill="#000000" points="451.321,162.5691,456.2715,160.237,457,168.2038" style="stroke:#000000;stroke-width:1.0;"/><text fill="#000000" font-family="Serif" font-size="14" lengthAdjust="spacing" textLength="31" x="453.7962" y="157.3011">read</text><!--SRC=[POxB2i8m44NtynLZjYAsQbLSI1LngQA8ov8NDBHD98bK_zwqgAMul9npP-x0vxAIU2-fqW2yDBn0SYeVRdkzO1i9KeVSL1al2woLp_4khJ829y2KflQ5v3pMncUtrhIPhe4RpPMJI3P2MEaSieThAMKTsr5FVq0m04WZe0oLGn8ze_7XU28Wldc_9z3SRc8Kr6cdJlfarfLcyGUDrk53EennXRLLNWOj-PNYaEPTAKd-IrPI4Qp5tpv8b_sDRm00]--></g></svg>