<?xml version="1.0" encoding="us-ascii" standalone="no"?><svg xmlns="http://www.w3.org/2000/svg" xmlns:xlink="http://www.w3.org/1999/xlink" contentStyleType="text/css" height="230px" preserveAspectRatio="none" style="width:754px;height:230px;background:#FFFFFF;" version="1.1" viewBox="0 0 754 230" width="754px" zoomAndPan="magnify"><defs/><g><line style="stroke:#000000;stroke-width:1.0;" x1="5" x2="5" y1="5" y2="204.0679"/><line style="stroke:#000000;stroke-width:1.0;" x1="747" x2="747" y1="5" y2="204.0679"/><line style="stroke:#000000;stroke-width:0.5;stroke-dasharray:3.0,5.0;" x1="92" x2="92" y1="5" y2="204.0679"/><line style="stroke:#000000;stroke-width:0.5;stroke-dasharray:3.0,5.0;" x1="142" x2="142" y1="5" y2="204.0679"/><line style="stroke:#000000;stroke-width:0.5;stroke-dasharray:3.0,5.0;" x1="192" x2="192" y1="5" y2="204.0679"/><line style="stroke:#000000;stroke-width:0.5;stroke-dasharray:3.0,5.0;" x1="242" x2="242" y1="5" y2="204.0679"/><line style="stroke:#000000;stroke-width:0.5;stroke-dasharray:3.0,5.0;" x1="292" x2="292" y1="5" y2="204.0679"/><line style="stroke:#000000;stroke-width:0.5;stroke-dasharray:3.0,5.0;" x1="342" x2="342" y1="5" y2="204.0679"/><line style="stroke:#000000;stroke-width:0.5;stroke-dasharray:3.0,5.0;" x1="392" x2="392" y1="5" y2="204.0679"/><line style="stroke:#000000;stroke-width:0.5;stroke-dasharray:3.0,5.0;" x1="442" x2="442" y1="5" y2="204.0679"/><line style="stroke:#000000;stroke-width:0.5;stroke-dasharray:3.0,5.0;" x1="492" x2="492" y1="5" y2="204.0679"/><line style="stroke:#000000;stroke-width:0.5;stroke-dasharray:3.0,5.0;" x1="542" x2="542" y1="5" y2="204.0679"/><line style="stroke:#000000;stroke-width:0.5;stroke-dasharray:3.0,5.0;" x1="592" x2="592" y1="5" y2="204.0679"/><line style="stroke:#000000;stroke-width:0.5;stroke-dasharray:3.0,5.0;" x1="642" x2="642" y1="5" y2="204.0679"/><line style="stroke:#000000;stroke-width:0.5;stroke-dasharray:3.0,5.0;" x1="692" x2="692" y1="5" y2="204.0679"/><line style="stroke:#000000;stroke-width:0.5;stroke-dasharray:3.0,5.0;" x1="742" x2="742" y1="5" y2="204.0679"/><line style="stroke:#000000;stroke-width:1.0;" x1="5" x2="747" y1="5" y2="5"/><text fill="#000000" font-family="Verdana" font-size="14" font-weight="bold" lengthAdjust="spacing" textLength="48" x="10" y="19.9659">sys_clk</text><line style="stroke:#000000;stroke-width:1.0;" x1="5" x2="59" y1="25.0679" y2="25.0679"/><line style="stroke:#000000;stroke-width:1.0;" x1="59" x2="69" y1="25.0679" y2="5"/><line style="stroke:#000000;stroke-width:1.0;" x1="92" x2="92" y1="32.0679" y2="46.0679"/><line style="stroke:#000000;stroke-width:1.0;" x1="92" x2="142" y1="32.0679" y2="32.0679"/><line style="stroke:#000000;stroke-width:1.0;" x1="142" x2="142" y1="32.0679" y2="46.0679"/><line style="stroke:#000000;stroke-width:1.0;" x1="142" x2="192" y1="46.0679" y2="46.0679"/><line style="stroke:#000000;stroke-width:1.0;" x1="192" x2="192" y1="32.0679" y2="46.0679"/><line style="stroke:#000000;stroke-width:1.0;" x1="192" x2="242" y1="32.0679" y2="32.0679"/><line style="stroke:#000000;stroke-width:1.0;" x1="242" x2="242" y1="32.0679" y2="46.0679"/><line style="stroke:#000000;stroke-width:1.0;" x1="242" x2="292" y1="46.0679" y2="46.0679"/><line style="stroke:#000000;stroke-width:1.0;" x1="292" x2="292" y1="32.0679" y2="46.0679"/><line style="stroke:#000000;stroke-width:1.0;" x1="292" x2="342" y1="32.0679" y2="32.0679"/><line style="stroke:#000000;stroke-width:1.0;" x1="342" x2="342" y1="32.0679" y2="46.0679"/><line style="stroke:#000000;stroke-width:1.0;" x1="342" x2="392" y1="46.0679" y2="46.0679"/><line style="stroke:#000000;stroke-width:1.0;" x1="392" x2="392" y1="32.0679" y2="46.0679"/><line style="stroke:#000000;stroke-width:1.0;" x1="392" x2="442" y1="32.0679" y2="32.0679"/><line style="stroke:#000000;stroke-width:1.0;" x1="442" x2="442" y1="32.0679" y2="46.0679"/><line style="stroke:#000000;stroke-width:1.0;" x1="442" x2="492" y1="46.0679" y2="46.0679"/><line style="stroke:#000000;stroke-width:1.0;" x1="492" x2="492" y1="32.0679" y2="46.0679"/><line style="stroke:#000000;stroke-width:1.0;" x1="492" x2="542" y1="32.0679" y2="32.0679"/><line style="stroke:#000000;stroke-width:1.0;" x1="542" x2="542" y1="32.0679" y2="46.0679"/><line style="stroke:#000000;stroke-width:1.0;" x1="542" x2="592" y1="46.0679" y2="46.0679"/><line style="stroke:#000000;stroke-width:1.0;" x1="592" x2="592" y1="32.0679" y2="46.0679"/><line style="stroke:#000000;stroke-width:1.0;" x1="592" x2="642" y1="32.0679" y2="32.0679"/><line style="stroke:#000000;stroke-width:1.0;" x1="642" x2="642" y1="32.0679" y2="46.0679"/><line style="stroke:#000000;stroke-width:1.0;" x1="642" x2="692" y1="46.0679" y2="46.0679"/><line style="stroke:#000000;stroke-width:1.0;" x1="692" x2="692" y1="32.0679" y2="46.0679"/><line style="stroke:#000000;stroke-width:1.0;" x1="692" x2="742" y1="32.0679" y2="32.0679"/><line style="stroke:#000000;stroke-width:1.0;" x1="742" x2="742" y1="32.0679" y2="46.0679"/><line style="stroke:#000000;stroke-width:1.0;" x1="742" x2="742" y1="46.0679" y2="46.0679"/><line style="stroke:#000000;stroke-width:1.0;" x1="5" x2="747" y1="54.0679" y2="54.0679"/><text fill="#000000" font-family="Verdana" font-size="14" font-weight="bold" lengthAdjust="spacing" textLength="57" x="10" y="74.4999">sync_clk</text><line style="stroke:#000000;stroke-width:1.0;" x1="92" x2="92" y1="76.0679" y2="76.0679"/><line style="stroke:#000000;stroke-width:1.0;" x1="92" x2="92" y1="62.0679" y2="76.0679"/><line style="stroke:#000000;stroke-width:1.0;" x1="92" x2="242" y1="62.0679" y2="62.0679"/><line style="stroke:#000000;stroke-width:1.0;" x1="242" x2="242" y1="62.0679" y2="76.0679"/><line style="stroke:#000000;stroke-width:1.0;" x1="242" x2="742" y1="76.0679" y2="76.0679"/><line style="stroke:#000000;stroke-width:1.0;" x1="5" x2="747" y1="84.0679" y2="84.0679"/><text fill="#000000" font-family="Verdana" font-size="14" font-weight="bold" lengthAdjust="spacing" textLength="77" x="10" y="104.4999">r1_sync_clk</text><line style="stroke:#000000;stroke-width:1.0;" x1="92" x2="92" y1="106.0679" y2="106.0679"/><line style="stroke:#000000;stroke-width:1.0;" x1="92" x2="92" y1="92.0679" y2="106.0679"/><line style="stroke:#000000;stroke-width:1.0;" x1="92" x2="292" y1="92.0679" y2="92.0679"/><line style="stroke:#000000;stroke-width:1.0;" x1="292" x2="292" y1="92.0679" y2="106.0679"/><line style="stroke:#000000;stroke-width:1.0;" x1="292" x2="742" y1="106.0679" y2="106.0679"/><line style="stroke:#000000;stroke-width:1.0;" x1="5" x2="747" y1="114.0679" y2="114.0679"/><text fill="#000000" font-family="Verdana" font-size="14" font-weight="bold" lengthAdjust="spacing" textLength="77" x="10" y="134.4999">r2_sync_clk</text><line style="stroke:#000000;stroke-width:1.0;" x1="92" x2="92" y1="136.0679" y2="136.0679"/><line style="stroke:#000000;stroke-width:1.0;" x1="92" x2="92" y1="122.0679" y2="136.0679"/><line style="stroke:#000000;stroke-width:1.0;" x1="92" x2="392" y1="122.0679" y2="122.0679"/><line style="stroke:#000000;stroke-width:1.0;" x1="392" x2="392" y1="122.0679" y2="136.0679"/><line style="stroke:#000000;stroke-width:1.0;" x1="392" x2="742" y1="136.0679" y2="136.0679"/><line style="stroke:#000000;stroke-width:1.0;" x1="5" x2="747" y1="144.0679" y2="144.0679"/><text fill="#000000" font-family="Verdana" font-size="14" font-weight="bold" lengthAdjust="spacing" textLength="77" x="10" y="164.4999">r3_sync_clk</text><line style="stroke:#000000;stroke-width:1.0;" x1="92" x2="92" y1="166.0679" y2="166.0679"/><line style="stroke:#000000;stroke-width:1.0;" x1="92" x2="92" y1="152.0679" y2="166.0679"/><line style="stroke:#000000;stroke-width:1.0;" x1="92" x2="492" y1="152.0679" y2="152.0679"/><line style="stroke:#000000;stroke-width:1.0;" x1="492" x2="492" y1="152.0679" y2="166.0679"/><line style="stroke:#000000;stroke-width:1.0;" x1="492" x2="742" y1="166.0679" y2="166.0679"/><line style="stroke:#000000;stroke-width:1.0;" x1="5" x2="747" y1="174.0679" y2="174.0679"/><text fill="#000000" font-family="Verdana" font-size="14" font-weight="bold" lengthAdjust="spacing" textLength="74" x="10" y="194.4999">falling_trig</text><line style="stroke:#000000;stroke-width:1.0;" x1="92" x2="492" y1="196.0679" y2="196.0679"/><line style="stroke:#000000;stroke-width:1.0;" x1="492" x2="492" y1="182.0679" y2="196.0679"/><line style="stroke:#000000;stroke-width:1.0;" x1="492" x2="592" y1="182.0679" y2="182.0679"/><line style="stroke:#000000;stroke-width:1.0;" x1="592" x2="592" y1="182.0679" y2="196.0679"/><line style="stroke:#000000;stroke-width:1.0;" x1="592" x2="742" y1="196.0679" y2="196.0679"/><line style="stroke:#000000;stroke-width:1.0;" x1="92" x2="92" y1="204.0679" y2="209.0679"/><line style="stroke:#000000;stroke-width:1.0;" x1="142" x2="142" y1="204.0679" y2="209.0679"/><line style="stroke:#000000;stroke-width:1.0;" x1="192" x2="192" y1="204.0679" y2="209.0679"/><line style="stroke:#000000;stroke-width:1.0;" x1="242" x2="242" y1="204.0679" y2="209.0679"/><line style="stroke:#000000;stroke-width:1.0;" x1="292" x2="292" y1="204.0679" y2="209.0679"/><line style="stroke:#000000;stroke-width:1.0;" x1="342" x2="342" y1="204.0679" y2="209.0679"/><line style="stroke:#000000;stroke-width:1.0;" x1="392" x2="392" y1="204.0679" y2="209.0679"/><line style="stroke:#000000;stroke-width:1.0;" x1="442" x2="442" y1="204.0679" y2="209.0679"/><line style="stroke:#000000;stroke-width:1.0;" x1="492" x2="492" y1="204.0679" y2="209.0679"/><line style="stroke:#000000;stroke-width:1.0;" x1="542" x2="542" y1="204.0679" y2="209.0679"/><line style="stroke:#000000;stroke-width:1.0;" x1="592" x2="592" y1="204.0679" y2="209.0679"/><line style="stroke:#000000;stroke-width:1.0;" x1="642" x2="642" y1="204.0679" y2="209.0679"/><line style="stroke:#000000;stroke-width:1.0;" x1="692" x2="692" y1="204.0679" y2="209.0679"/><line style="stroke:#000000;stroke-width:1.0;" x1="742" x2="742" y1="204.0679" y2="209.0679"/><line style="stroke:#000000;stroke-width:1.0;" x1="92" x2="742" y1="204.0679" y2="204.0679"/><text fill="#000000" font-family="Verdana" font-size="11" lengthAdjust="spacing" textLength="6" x="89" y="221.8268">0</text><text fill="#000000" font-family="Verdana" font-size="11" lengthAdjust="spacing" textLength="6" x="189" y="221.8268">2</text><text fill="#000000" font-family="Verdana" font-size="11" lengthAdjust="spacing" textLength="6" x="239" y="221.8268">3</text><text fill="#000000" font-family="Verdana" font-size="11" lengthAdjust="spacing" textLength="6" x="289" y="221.8268">4</text><text fill="#000000" font-family="Verdana" font-size="11" lengthAdjust="spacing" textLength="6" x="389" y="221.8268">6</text><text fill="#000000" font-family="Verdana" font-size="11" lengthAdjust="spacing" textLength="6" x="489" y="221.8268">8</text><text fill="#000000" font-family="Verdana" font-size="11" lengthAdjust="spacing" textLength="12" x="586" y="221.8268">10</text><text fill="#000000" font-family="Verdana" font-size="11" lengthAdjust="spacing" textLength="12" x="686" y="221.8268">12</text><!--SRC=[ROx13eCW38RlVOhE9r1ObXqzxh1tC8mvR6HeWCJuzjCH5T5JqwzV__RYc_fROwy56G2fEzbYvaPNITrcA1nE5GVo3VQrfUwD35vaX1rdoyXLMvfrQejg9qJzvh34OISEJnn-T3v2QpAgyfRKNue1G9d3ieBay46gWUYTZR4JneyCIhuBV7R3nAvfPi2tD3RWUveyu_Zjw5gH7oOXf63m0m00]--></g></svg>