<?xml version="1.0" encoding="us-ascii" standalone="no"?><svg xmlns="http://www.w3.org/2000/svg" xmlns:xlink="http://www.w3.org/1999/xlink" contentStyleType="text/css" height="240px" preserveAspectRatio="none" style="width:764px;height:240px;background:#FFFFFF;" version="1.1" viewBox="0 0 764 240" width="764px" zoomAndPan="magnify"><defs/><g><line style="stroke:#333333;stroke-width:0.5;" x1="10" x2="10" y1="10" y2="209.0679"/><line style="stroke:#333333;stroke-width:0.5;" x1="752" x2="752" y1="10" y2="209.0679"/><line style="stroke:#333333;stroke-width:0.5;stroke-dasharray:3.0,5.0;" x1="97" x2="97" y1="10" y2="209.0679"/><line style="stroke:#333333;stroke-width:0.5;stroke-dasharray:3.0,5.0;" x1="147" x2="147" y1="10" y2="209.0679"/><line style="stroke:#333333;stroke-width:0.5;stroke-dasharray:3.0,5.0;" x1="197" x2="197" y1="10" y2="209.0679"/><line style="stroke:#333333;stroke-width:0.5;stroke-dasharray:3.0,5.0;" x1="247" x2="247" y1="10" y2="209.0679"/><line style="stroke:#333333;stroke-width:0.5;stroke-dasharray:3.0,5.0;" x1="297" x2="297" y1="10" y2="209.0679"/><line style="stroke:#333333;stroke-width:0.5;stroke-dasharray:3.0,5.0;" x1="347" x2="347" y1="10" y2="209.0679"/><line style="stroke:#333333;stroke-width:0.5;stroke-dasharray:3.0,5.0;" x1="397" x2="397" y1="10" y2="209.0679"/><line style="stroke:#333333;stroke-width:0.5;stroke-dasharray:3.0,5.0;" x1="447" x2="447" y1="10" y2="209.0679"/><line style="stroke:#333333;stroke-width:0.5;stroke-dasharray:3.0,5.0;" x1="497" x2="497" y1="10" y2="209.0679"/><line style="stroke:#333333;stroke-width:0.5;stroke-dasharray:3.0,5.0;" x1="547" x2="547" y1="10" y2="209.0679"/><line style="stroke:#333333;stroke-width:0.5;stroke-dasharray:3.0,5.0;" x1="597" x2="597" y1="10" y2="209.0679"/><line style="stroke:#333333;stroke-width:0.5;stroke-dasharray:3.0,5.0;" x1="647" x2="647" y1="10" y2="209.0679"/><line style="stroke:#333333;stroke-width:0.5;stroke-dasharray:3.0,5.0;" x1="697" x2="697" y1="10" y2="209.0679"/><line style="stroke:#333333;stroke-width:0.5;stroke-dasharray:3.0,5.0;" x1="747" x2="747" y1="10" y2="209.0679"/><line style="stroke:#333333;stroke-width:0.5;" x1="10" x2="752" y1="10" y2="10"/><text fill="#333333" font-family="sans-serif" font-size="14" font-weight="bold" lengthAdjust="spacing" textLength="48" x="15" y="24.9659">sys_clk</text><line style="stroke:#333333;stroke-width:0.5;" x1="10" x2="64" y1="30.0679" y2="30.0679"/><line style="stroke:#333333;stroke-width:0.5;" x1="64" x2="74" y1="30.0679" y2="10"/><line style="stroke:#006400;stroke-width:1.5;" x1="97" x2="97" y1="37.0679" y2="51.0679"/><line style="stroke:#006400;stroke-width:1.5;" x1="97" x2="147" y1="37.0679" y2="37.0679"/><line style="stroke:#006400;stroke-width:1.5;" x1="147" x2="147" y1="37.0679" y2="51.0679"/><line style="stroke:#006400;stroke-width:1.5;" x1="147" x2="197" y1="51.0679" y2="51.0679"/><line style="stroke:#006400;stroke-width:1.5;" x1="197" x2="197" y1="37.0679" y2="51.0679"/><line style="stroke:#006400;stroke-width:1.5;" x1="197" x2="247" y1="37.0679" y2="37.0679"/><line style="stroke:#006400;stroke-width:1.5;" x1="247" x2="247" y1="37.0679" y2="51.0679"/><line style="stroke:#006400;stroke-width:1.5;" x1="247" x2="297" y1="51.0679" y2="51.0679"/><line style="stroke:#006400;stroke-width:1.5;" x1="297" x2="297" y1="37.0679" y2="51.0679"/><line style="stroke:#006400;stroke-width:1.5;" x1="297" x2="347" y1="37.0679" y2="37.0679"/><line style="stroke:#006400;stroke-width:1.5;" x1="347" x2="347" y1="37.0679" y2="51.0679"/><line style="stroke:#006400;stroke-width:1.5;" x1="347" x2="397" y1="51.0679" y2="51.0679"/><line style="stroke:#006400;stroke-width:1.5;" x1="397" x2="397" y1="37.0679" y2="51.0679"/><line style="stroke:#006400;stroke-width:1.5;" x1="397" x2="447" y1="37.0679" y2="37.0679"/><line style="stroke:#006400;stroke-width:1.5;" x1="447" x2="447" y1="37.0679" y2="51.0679"/><line style="stroke:#006400;stroke-width:1.5;" x1="447" x2="497" y1="51.0679" y2="51.0679"/><line style="stroke:#006400;stroke-width:1.5;" x1="497" x2="497" y1="37.0679" y2="51.0679"/><line style="stroke:#006400;stroke-width:1.5;" x1="497" x2="547" y1="37.0679" y2="37.0679"/><line style="stroke:#006400;stroke-width:1.5;" x1="547" x2="547" y1="37.0679" y2="51.0679"/><line style="stroke:#006400;stroke-width:1.5;" x1="547" x2="597" y1="51.0679" y2="51.0679"/><line style="stroke:#006400;stroke-width:1.5;" x1="597" x2="597" y1="37.0679" y2="51.0679"/><line style="stroke:#006400;stroke-width:1.5;" x1="597" x2="647" y1="37.0679" y2="37.0679"/><line style="stroke:#006400;stroke-width:1.5;" x1="647" x2="647" y1="37.0679" y2="51.0679"/><line style="stroke:#006400;stroke-width:1.5;" x1="647" x2="697" y1="51.0679" y2="51.0679"/><line style="stroke:#006400;stroke-width:1.5;" x1="697" x2="697" y1="37.0679" y2="51.0679"/><line style="stroke:#006400;stroke-width:1.5;" x1="697" x2="747" y1="37.0679" y2="37.0679"/><line style="stroke:#006400;stroke-width:1.5;" x1="747" x2="747" y1="37.0679" y2="51.0679"/><line style="stroke:#006400;stroke-width:1.5;" x1="747" x2="747" y1="51.0679" y2="51.0679"/><line style="stroke:#333333;stroke-width:0.5;" x1="10" x2="752" y1="59.0679" y2="59.0679"/><text fill="#333333" font-family="sans-serif" font-size="14" font-weight="bold" lengthAdjust="spacing" textLength="57" x="15" y="79.4999">sync_clk</text><line style="stroke:#006400;stroke-width:2.0;" x1="97" x2="97" y1="81.0679" y2="81.0679"/><line style="stroke:#006400;stroke-width:2.0;" x1="97" x2="97" y1="67.0679" y2="81.0679"/><line style="stroke:#006400;stroke-width:2.0;" x1="97" x2="247" y1="67.0679" y2="67.0679"/><line style="stroke:#006400;stroke-width:2.0;" x1="247" x2="247" y1="67.0679" y2="81.0679"/><line style="stroke:#006400;stroke-width:2.0;" x1="247" x2="747" y1="81.0679" y2="81.0679"/><line style="stroke:#333333;stroke-width:0.5;" x1="10" x2="752" y1="89.0679" y2="89.0679"/><text fill="#333333" font-family="sans-serif" font-size="14" font-weight="bold" lengthAdjust="spacing" textLength="77" x="15" y="109.4999">r1_sync_clk</text><line style="stroke:#006400;stroke-width:2.0;" x1="97" x2="97" y1="111.0679" y2="111.0679"/><line style="stroke:#006400;stroke-width:2.0;" x1="97" x2="97" y1="97.0679" y2="111.0679"/><line style="stroke:#006400;stroke-width:2.0;" x1="97" x2="297" y1="97.0679" y2="97.0679"/><line style="stroke:#006400;stroke-width:2.0;" x1="297" x2="297" y1="97.0679" y2="111.0679"/><line style="stroke:#006400;stroke-width:2.0;" x1="297" x2="747" y1="111.0679" y2="111.0679"/><line style="stroke:#333333;stroke-width:0.5;" x1="10" x2="752" y1="119.0679" y2="119.0679"/><text fill="#333333" font-family="sans-serif" font-size="14" font-weight="bold" lengthAdjust="spacing" textLength="77" x="15" y="139.4999">r2_sync_clk</text><line style="stroke:#006400;stroke-width:2.0;" x1="97" x2="97" y1="141.0679" y2="141.0679"/><line style="stroke:#006400;stroke-width:2.0;" x1="97" x2="97" y1="127.0679" y2="141.0679"/><line style="stroke:#006400;stroke-width:2.0;" x1="97" x2="397" y1="127.0679" y2="127.0679"/><line style="stroke:#006400;stroke-width:2.0;" x1="397" x2="397" y1="127.0679" y2="141.0679"/><line style="stroke:#006400;stroke-width:2.0;" x1="397" x2="747" y1="141.0679" y2="141.0679"/><line style="stroke:#333333;stroke-width:0.5;" x1="10" x2="752" y1="149.0679" y2="149.0679"/><text fill="#333333" font-family="sans-serif" font-size="14" font-weight="bold" lengthAdjust="spacing" textLength="77" x="15" y="169.4999">r3_sync_clk</text><line style="stroke:#006400;stroke-width:2.0;" x1="97" x2="97" y1="171.0679" y2="171.0679"/><line style="stroke:#006400;stroke-width:2.0;" x1="97" x2="97" y1="157.0679" y2="171.0679"/><line style="stroke:#006400;stroke-width:2.0;" x1="97" x2="497" y1="157.0679" y2="157.0679"/><line style="stroke:#006400;stroke-width:2.0;" x1="497" x2="497" y1="157.0679" y2="171.0679"/><line style="stroke:#006400;stroke-width:2.0;" x1="497" x2="747" y1="171.0679" y2="171.0679"/><line style="stroke:#333333;stroke-width:0.5;" x1="10" x2="752" y1="179.0679" y2="179.0679"/><text fill="#333333" font-family="sans-serif" font-size="14" font-weight="bold" lengthAdjust="spacing" textLength="74" x="15" y="199.4999">falling_trig</text><line style="stroke:#006400;stroke-width:2.0;" x1="97" x2="497" y1="201.0679" y2="201.0679"/><line style="stroke:#006400;stroke-width:2.0;" x1="497" x2="497" y1="187.0679" y2="201.0679"/><line style="stroke:#006400;stroke-width:2.0;" x1="497" x2="597" y1="187.0679" y2="187.0679"/><line style="stroke:#006400;stroke-width:2.0;" x1="597" x2="597" y1="187.0679" y2="201.0679"/><line style="stroke:#006400;stroke-width:2.0;" x1="597" x2="747" y1="201.0679" y2="201.0679"/><line style="stroke:#333333;stroke-width:2.0;" x1="97" x2="97" y1="209.0679" y2="214.0679"/><line style="stroke:#333333;stroke-width:2.0;" x1="147" x2="147" y1="209.0679" y2="214.0679"/><line style="stroke:#333333;stroke-width:2.0;" x1="197" x2="197" y1="209.0679" y2="214.0679"/><line style="stroke:#333333;stroke-width:2.0;" x1="247" x2="247" y1="209.0679" y2="214.0679"/><line style="stroke:#333333;stroke-width:2.0;" x1="297" x2="297" y1="209.0679" y2="214.0679"/><line style="stroke:#333333;stroke-width:2.0;" x1="347" x2="347" y1="209.0679" y2="214.0679"/><line style="stroke:#333333;stroke-width:2.0;" x1="397" x2="397" y1="209.0679" y2="214.0679"/><line style="stroke:#333333;stroke-width:2.0;" x1="447" x2="447" y1="209.0679" y2="214.0679"/><line style="stroke:#333333;stroke-width:2.0;" x1="497" x2="497" y1="209.0679" y2="214.0679"/><line style="stroke:#333333;stroke-width:2.0;" x1="547" x2="547" y1="209.0679" y2="214.0679"/><line style="stroke:#333333;stroke-width:2.0;" x1="597" x2="597" y1="209.0679" y2="214.0679"/><line style="stroke:#333333;stroke-width:2.0;" x1="647" x2="647" y1="209.0679" y2="214.0679"/><line style="stroke:#333333;stroke-width:2.0;" x1="697" x2="697" y1="209.0679" y2="214.0679"/><line style="stroke:#333333;stroke-width:2.0;" x1="747" x2="747" y1="209.0679" y2="214.0679"/><line style="stroke:#333333;stroke-width:2.0;" x1="97" x2="747" y1="209.0679" y2="209.0679"/><text fill="#333333" font-family="sans-serif" font-size="11" lengthAdjust="spacing" textLength="6" x="94" y="226.8268">0</text><text fill="#333333" font-family="sans-serif" font-size="11" lengthAdjust="spacing" textLength="6" x="194" y="226.8268">2</text><text fill="#333333" font-family="sans-serif" font-size="11" lengthAdjust="spacing" textLength="6" x="244" y="226.8268">3</text><text fill="#333333" font-family="sans-serif" font-size="11" lengthAdjust="spacing" textLength="6" x="294" y="226.8268">4</text><text fill="#333333" font-family="sans-serif" font-size="11" lengthAdjust="spacing" textLength="6" x="394" y="226.8268">6</text><text fill="#333333" font-family="sans-serif" font-size="11" lengthAdjust="spacing" textLength="6" x="494" y="226.8268">8</text><text fill="#333333" font-family="sans-serif" font-size="11" lengthAdjust="spacing" textLength="12" x="591" y="226.8268">10</text><text fill="#333333" font-family="sans-serif" font-size="11" lengthAdjust="spacing" textLength="12" x="691" y="226.8268">12</text><!--SRC=[ROx13eCW38RlVOh69n1ObXqzxh1t88vjs4XW0HFZsqz7L0HFJRz-_LjbdEgn2bEGolGLjW7dYYCD7NxVdjmBEJp9jdvQBAisRMssgMVo82Jzxl3CuIUEo1nHEf_M6B9Q3fxqNqe1G5F3ke8Ky4wwW-ITdV4J9ae6ZJW4FjmuiqkU6V4rZutubYSlE7qxkSRgOX9368SV]--></g></svg>