<?xml version="1.0" encoding="us-ascii" standalone="no"?><svg xmlns="http://www.w3.org/2000/svg" xmlns:xlink="http://www.w3.org/1999/xlink" contentStyleType="text/css" height="810px" preserveAspectRatio="none" style="width:525px;height:810px;background:#FFFFFF;" version="1.1" viewBox="0 0 525 810" width="525px" zoomAndPan="magnify"><defs/><g><text fill="#000000" font-family="Verdana" font-size="22" font-weight="bold" lengthAdjust="spacing" textLength="71" x="222.5" y="38.5181">Parser</text><!--cluster RUNNING--><g id="cluster_RUNNING"><path d="M24.5,136.9641 L418.5,136.9641 A12.5,12.5 0 0 1 431,149.4641 L431,161.032 L12,161.032 L12,149.4641 A12.5,12.5 0 0 1 24.5,136.9641 " fill="#FFFFFF" style="stroke:#FFFFFF;stroke-width:1.0;"/><path d="M12,161.032 L431,161.032 L431,784.4641 A12.5,12.5 0 0 1 418.5,796.9641 L24.5,796.9641 A12.5,12.5 0 0 1 12,784.4641 L12,161.032 " fill="#FFFFFF" style="stroke:#FFFFFF;stroke-width:1.0;"/><rect fill="none" height="660" rx="12.5" ry="12.5" style="stroke:#000000;stroke-width:1.0;" width="419" x="12" y="136.9641"/><line style="stroke:#000000;stroke-width:1.0;" x1="12" x2="431" y1="161.032" y2="161.032"/><text fill="#000000" font-family="Verdana" font-size="14" lengthAdjust="spacing" textLength="67" x="188" y="155.93">RUNNING</text></g><g id="RUNNING.IDLE"><rect fill="#FFFFFF" height="55.412" rx="12.5" ry="12.5" style="stroke:#000000;stroke-width:1.0;" width="50" x="285" y="182.9641"/><line style="stroke:#000000;stroke-width:1.0;" x1="285" x2="335" y1="212.032" y2="212.032"/><text fill="#000000" font-family="Verdana" font-size="14" lengthAdjust="spacing" textLength="30" x="295" y="202.93">IDLE</text><text fill="#000000" font-family="Verdana" font-size="12" lengthAdjust="spacing" textLength="3" x="290" y="229.8601">&#160;</text></g><g id="RUNNING.STOP"><rect fill="#FFFFFF" height="71.7561" rx="12.5" ry="12.5" style="stroke:#000000;stroke-width:1.0;" width="153" x="36.5" y="316.9641"/><line style="stroke:#000000;stroke-width:1.0;" x1="36.5" x2="189.5" y1="346.032" y2="346.032"/><text fill="#000000" font-family="Verdana" font-size="14" lengthAdjust="spacing" textLength="35" x="95.5" y="336.93">STOP</text><text fill="#000000" font-family="Verdana" font-size="12" lengthAdjust="spacing" textLength="130" x="41.5" y="363.8601">Stop delimiter reached.</text><text fill="#000000" font-family="Verdana" font-size="12" lengthAdjust="spacing" textLength="133" x="41.5" y="380.2042">Awaiting start delimiter.</text></g><g id="RUNNING.START"><rect fill="#FFFFFF" height="55.412" rx="12.5" ry="12.5" style="stroke:#000000;stroke-width:1.0;" width="62" x="233" y="467.9641"/><line style="stroke:#000000;stroke-width:1.0;" x1="233" x2="295" y1="497.032" y2="497.032"/><text fill="#000000" font-family="Verdana" font-size="14" lengthAdjust="spacing" textLength="42" x="243" y="487.93">START</text><text fill="#000000" font-family="Verdana" font-size="12" lengthAdjust="spacing" textLength="3" x="238" y="514.8601">&#160;</text></g><g id="RUNNING.ESCAPE"><rect fill="#FFFFFF" height="55.412" rx="12.5" ry="12.5" style="stroke:#000000;stroke-width:1.0;" width="153" x="113.5" y="717.9641"/><line style="stroke:#000000;stroke-width:1.0;" x1="113.5" x2="266.5" y1="747.032" y2="747.032"/><text fill="#000000" font-family="Verdana" font-size="14" lengthAdjust="spacing" textLength="50" x="165" y="737.93">ESCAPE</text><text fill="#000000" font-family="Verdana" font-size="12" lengthAdjust="spacing" textLength="133" x="118.5" y="764.8601">Store escape character.</text></g><g id="RUNNING.DATA"><rect fill="#FFFFFF" height="55.412" rx="12.5" ry="12.5" style="stroke:#000000;stroke-width:1.0;" width="110" x="93" y="583.9641"/><line style="stroke:#000000;stroke-width:1.0;" x1="93" x2="203" y1="613.032" y2="613.032"/><text fill="#000000" font-family="Verdana" font-size="14" lengthAdjust="spacing" textLength="36" x="130" y="603.93">DATA</text><text fill="#000000" font-family="Verdana" font-size="12" lengthAdjust="spacing" textLength="90" x="98" y="630.8601">Store character.</text></g><ellipse cx="310" cy="71.9641" fill="#FFFFFF" rx="10" ry="10" style="stroke:#000000;stroke-width:1.0;"/><g id="RESET"><rect fill="#FFFFFF" height="55.412" rx="12.5" ry="12.5" style="stroke:#000000;stroke-width:1.0;" width="61" x="455.5" y="325.4641"/><line style="stroke:#000000;stroke-width:1.0;" x1="455.5" x2="516.5" y1="354.532" y2="354.532"/><text fill="#000000" font-family="Verdana" font-size="14" lengthAdjust="spacing" textLength="41" x="465.5" y="345.43">RESET</text><text fill="#000000" font-family="Verdana" font-size="12" lengthAdjust="spacing" textLength="3" x="460.5" y="372.3601">&#160;</text></g><!--reverse link IDLE to IDLE--><g id="link_IDLE_IDLE"><path d="M341.171,198.1556 C358.661,194.7756 370,199.6341 370,210.4641 C370,221.2941 352.77,225.0141 335.28,221.6341 " fill="none" id="IDLE-backto-IDLE" style="stroke:#000000;stroke-width:1.0;"/><polygon fill="#000000" points="335.28,199.2941,344.8755,201.5138,340.1892,198.3454,343.3575,193.6591,335.28,199.2941" style="stroke:#000000;stroke-width:1.0;"/><text fill="#000000" font-family="Verdana" font-size="13" lengthAdjust="spacing" textLength="23" x="376" y="215.8611">else</text></g><!--link IDLE to START--><g id="link_IDLE_START"><path d="M315.15,238.2141 C322.32,281.5741 331.93,369.2641 308,437.9641 C304.24,448.7641 301.2676,454.4345 294.1676,463.2345 " fill="none" id="IDLE-to-START" style="stroke:#000000;stroke-width:1.0;"/><polygon fill="#000000" points="290.4,467.9041,299.1644,463.4113,293.5396,464.0127,292.9382,458.3879,290.4,467.9041" style="stroke:#000000;stroke-width:1.0;"/><text fill="#000000" font-family="Verdana" font-size="13" lengthAdjust="spacing" textLength="64" x="332.5" y="349.3611">if data_in =</text><text fill="#000000" font-family="Verdana" font-size="13" lengthAdjust="spacing" textLength="84" x="324" y="367.0671">start delimiter</text></g><!--link STOP to START--><g id="link_STOP_START"><path d="M122.81,389.0141 C128.81,405.4441 137.91,424.3541 151,437.9641 C157.22,444.4241 196.1377,463.1579 227.3977,477.6679 " fill="none" id="STOP-to-START" style="stroke:#000000;stroke-width:1.0;"/><polygon fill="#000000" points="232.84,480.1941,226.3607,472.7767,228.3048,478.089,222.9925,480.0331,232.84,480.1941" style="stroke:#000000;stroke-width:1.0;"/><text fill="#000000" font-family="Verdana" font-size="13" lengthAdjust="spacing" textLength="151" x="152" y="433.8611">if data_in = start delimiter</text></g><!--reverse link STOP to STOP--><g id="link_STOP_STOP"><path d="M195.6047,339.4873 C215.4947,340.3273 224.5,344.6541 224.5,352.9641 C224.5,361.2741 209.5,365.8541 189.61,366.6941 " fill="none" id="STOP-backto-STOP" style="stroke:#000000;stroke-width:1.0;"/><polygon fill="#000000" points="189.61,339.2341,198.4332,343.6103,194.6055,339.4451,198.7708,335.6174,189.61,339.2341" style="stroke:#000000;stroke-width:1.0;"/><text fill="#000000" font-family="Verdana" font-size="13" lengthAdjust="spacing" textLength="23" x="230.5" y="358.3611">else</text></g><!--link START to DATA--><g id="link_START_DATA"><path d="M236.8,523.1941 C218.19,541.4841 197.8893,561.4385 179.3093,579.6985 " fill="none" id="START-to-DATA" style="stroke:#000000;stroke-width:1.0;"/><polygon fill="#000000" points="175.03,583.9041,184.2528,580.4485,178.5961,580.3994,178.6452,574.7428,175.03,583.9041" style="stroke:#000000;stroke-width:1.0;"/></g><!--link ESCAPE to DATA--><g id="link_ESCAPE_DATA"><path d="M240.51,717.7841 C259.09,704.2841 273.17,686.9741 262,668.9641 C248.96,647.9441 231.1169,636.6401 208.8569,628.1601 " fill="none" id="ESCAPE-to-DATA" style="stroke:#000000;stroke-width:1.0;"/><polygon fill="#000000" points="203.25,626.0241,210.2364,632.966,207.9224,627.8041,213.0844,625.4901,203.25,626.0241" style="stroke:#000000;stroke-width:1.0;"/></g><!--link DATA to ESCAPE--><g id="link_DATA_ESCAPE"><path d="M104.23,639.2041 C87.46,652.9841 74.58,670.5241 85,687.9641 C92.38,700.3141 98.4153,706.9229 110.6853,714.6629 " fill="none" id="DATA-to-ESCAPE" style="stroke:#000000;stroke-width:1.0;"/><polygon fill="#000000" points="115.76,717.8641,110.2821,709.6792,111.5311,715.1965,106.0138,716.4455,115.76,717.8641" style="stroke:#000000;stroke-width:1.0;"/><text fill="#000000" font-family="Verdana" font-size="13" lengthAdjust="spacing" textLength="167" x="86" y="683.8611">if data_in = escape character</text></g><!--reverse link STOP to DATA--><g id="link_STOP_DATA"><path d="M116.3717,395.0114 C119.3617,429.2714 124.08,476.8641 131,522.9641 C134.08,543.4741 138.59,566.4841 142.19,583.7641 " fill="none" id="STOP-backto-DATA" style="stroke:#000000;stroke-width:1.0;"/><polygon fill="#000000" points="115.85,389.0341,112.6476,398.3478,116.2847,394.0152,120.6173,397.6522,115.85,389.0341" style="stroke:#000000;stroke-width:1.0;"/><text fill="#000000" font-family="Verdana" font-size="13" lengthAdjust="spacing" textLength="80" x="133.5" y="491.8611">elsif data_in =</text><text fill="#000000" font-family="Verdana" font-size="13" lengthAdjust="spacing" textLength="83" x="132" y="509.5671">stop delimiter</text></g><!--reverse link DATA to DATA--><g id="link_DATA_DATA"><path d="M209.3699,600.5565 C228.5299,600.4365 238,604.1041 238,611.4641 C238,618.8241 222.53,622.4541 203.37,622.3341 " fill="none" id="DATA-backto-DATA" style="stroke:#000000;stroke-width:1.0;"/><polygon fill="#000000" points="203.37,600.5941,212.3949,604.5377,208.3699,600.5628,212.3448,596.5378,203.37,600.5941" style="stroke:#000000;stroke-width:1.0;"/><text fill="#000000" font-family="Verdana" font-size="13" lengthAdjust="spacing" textLength="23" x="244" y="616.8611">else</text></g><!--link *start* to IDLE--><g id="link_*start*_IDLE"><path d="M310,82.3441 C310,102.7641 310,145.8741 310,176.7241 " fill="none" id="*start*-to-IDLE" style="stroke:#000000;stroke-width:1.0;"/><polygon fill="#000000" points="310,182.7241,314,173.7241,310,177.7241,306,173.7241,310,182.7241" style="stroke:#000000;stroke-width:1.0;"/></g><!--link RUNNING to RESET--><g id="link_RUNNING_RESET"><path d="M431.1403,229.6159 C431.3826,230.1563 431.6291,230.7061 431.8796,231.265 C432.8818,233.5003 433.9487,235.8798 435.0694,238.3794 C437.3109,243.3786 439.7678,248.8582 442.3538,254.6254 C452.6975,277.6941 462.6505,299.8891 471.5855,319.8191 " fill="none" id="RUNNING-to-RESET" style="stroke:#000000;stroke-width:1.0;"/><polygon fill="#000000" points="474.04,325.2941,474.0082,315.4453,471.9946,320.7316,466.7082,318.718,474.04,325.2941" style="stroke:#000000;stroke-width:1.0;"/><text fill="#000000" font-family="Verdana" font-size="13" lengthAdjust="spacing" textLength="60" x="457" y="282.8611">if reset = 1</text></g><!--reverse link IDLE to RESET--><g id="link_IDLE_RESET"><path d="M339.733,238.645 C378.883,271.625 425.17,306.7841 455.31,329.3041 " fill="none" id="IDLE-backto-RESET" style="stroke:#000000;stroke-width:1.0;"/><polygon fill="#000000" points="335.2,234.7141,339.3788,243.6325,338.9775,237.9899,344.6201,237.5885,335.2,234.7141" style="stroke:#000000;stroke-width:1.0;"/></g><!--SRC=[TL71IiD05BplLunN8GMleGh1XbAG699uiY9ByZIBQHesJpo8_-xRpSQc1KyRvisycNcvufOEXA7JfbTg_30zx74afTXmHyYr7SdAW3KJYgSissLRVAlTvY6DLLazvd79nm4DTUPWc2miwRgbPhNlaozjsFJl4B7b4sKbkgIeOfMMzqcUkWMMG6Ej1qBTQgjhpzeaLHA62nHmtbX7_er1dQGDO1H5TvYMcpSqclMhzBd5lh-880AN7IS-pWJ_qCNKLvvDlTGlSLa5c1hX1BZ74qBNSvlBpd-2JvyhE2qbhidotBDYBHB_5RBzgEVh5s_i3gDKaPQfN7p-WMumGIwGfP5OujnCD4HTqFq2]--></g></svg>