<?xml version="1.0" encoding="us-ascii" standalone="no"?><svg xmlns="http://www.w3.org/2000/svg" xmlns:xlink="http://www.w3.org/1999/xlink" contentStyleType="text/css" height="624px" preserveAspectRatio="none" style="width:737px;height:624px;background:#FFFFFF;" version="1.1" viewBox="0 0 737 624" width="737px" zoomAndPan="magnify"><defs/><g><text fill="#000000" font-family="Verdana" font-size="22" font-weight="bold" lengthAdjust="spacing" textLength="147" x="290.75" y="38.5181">SHA-256 Core</text><g id="IDLE"><rect fill="#FFFFFF" height="55.412" rx="12.5" ry="12.5" style="stroke:#000000;stroke-width:1.0;" width="50" x="113" y="276.9641"/><line style="stroke:#000000;stroke-width:1.0;" x1="113" x2="163" y1="306.032" y2="306.032"/><text fill="#000000" font-family="Verdana" font-size="14" lengthAdjust="spacing" textLength="30" x="123" y="296.93">IDLE</text><text fill="#000000" font-family="Verdana" font-size="12" lengthAdjust="spacing" textLength="3" x="118" y="323.8601">&#160;</text></g><ellipse cx="222" cy="71.9641" fill="#FFFFFF" rx="10" ry="10" style="stroke:#000000;stroke-width:1.0;"/><g id="READ_MSG"><rect fill="#FFFFFF" height="55.412" rx="12.5" ry="12.5" style="stroke:#000000;stroke-width:1.0;" width="93" x="273.5" y="276.9641"/><line style="stroke:#000000;stroke-width:1.0;" x1="273.5" x2="366.5" y1="306.032" y2="306.032"/><text fill="#000000" font-family="Verdana" font-size="14" lengthAdjust="spacing" textLength="73" x="283.5" y="296.93">READ_MSG</text><text fill="#000000" font-family="Verdana" font-size="12" lengthAdjust="spacing" textLength="3" x="278.5" y="323.8601">&#160;</text></g><g id="PREP_MSG_0"><rect fill="#FFFFFF" height="55.412" rx="12.5" ry="12.5" style="stroke:#000000;stroke-width:1.0;" width="104" x="402" y="276.9641"/><line style="stroke:#000000;stroke-width:1.0;" x1="402" x2="506" y1="306.032" y2="306.032"/><text fill="#000000" font-family="Verdana" font-size="14" lengthAdjust="spacing" textLength="84" x="412" y="296.93">PREP_MSG_0</text><text fill="#000000" font-family="Verdana" font-size="12" lengthAdjust="spacing" textLength="3" x="407" y="323.8601">&#160;</text></g><g id="PREP_MSG_1"><rect fill="#FFFFFF" height="55.412" rx="12.5" ry="12.5" style="stroke:#000000;stroke-width:1.0;" width="104" x="387" y="392.9641"/><line style="stroke:#000000;stroke-width:1.0;" x1="387" x2="491" y1="422.032" y2="422.032"/><text fill="#000000" font-family="Verdana" font-size="14" lengthAdjust="spacing" textLength="84" x="397" y="412.93">PREP_MSG_1</text><text fill="#000000" font-family="Verdana" font-size="12" lengthAdjust="spacing" textLength="3" x="392" y="439.8601">&#160;</text></g><g id="PREP_MSG_2"><rect fill="#FFFFFF" height="55.412" rx="12.5" ry="12.5" style="stroke:#000000;stroke-width:1.0;" width="104" x="382" y="477.9641"/><line style="stroke:#000000;stroke-width:1.0;" x1="382" x2="486" y1="507.032" y2="507.032"/><text fill="#000000" font-family="Verdana" font-size="14" lengthAdjust="spacing" textLength="84" x="392" y="497.93">PREP_MSG_2</text><text fill="#000000" font-family="Verdana" font-size="12" lengthAdjust="spacing" textLength="3" x="387" y="524.8601">&#160;</text></g><g id="PREP_MSG_3"><rect fill="#FFFFFF" height="55.412" rx="12.5" ry="12.5" style="stroke:#000000;stroke-width:1.0;" width="104" x="521" y="477.9641"/><line style="stroke:#000000;stroke-width:1.0;" x1="521" x2="625" y1="507.032" y2="507.032"/><text fill="#000000" font-family="Verdana" font-size="14" lengthAdjust="spacing" textLength="84" x="531" y="497.93">PREP_MSG_3</text><text fill="#000000" font-family="Verdana" font-size="12" lengthAdjust="spacing" textLength="3" x="526" y="524.8601">&#160;</text></g><g id="HASH_0"><rect fill="#FFFFFF" height="55.412" rx="12.5" ry="12.5" style="stroke:#000000;stroke-width:1.0;" width="71" x="659.5" y="477.9641"/><line style="stroke:#000000;stroke-width:1.0;" x1="659.5" x2="730.5" y1="507.032" y2="507.032"/><text fill="#000000" font-family="Verdana" font-size="14" lengthAdjust="spacing" textLength="51" x="669.5" y="497.93">HASH_0</text><text fill="#000000" font-family="Verdana" font-size="12" lengthAdjust="spacing" textLength="3" x="664.5" y="524.8601">&#160;</text></g><g id="HASH_1"><rect fill="#FFFFFF" height="55.412" rx="12.5" ry="12.5" style="stroke:#000000;stroke-width:1.0;" width="71" x="438.5" y="562.9641"/><line style="stroke:#000000;stroke-width:1.0;" x1="438.5" x2="509.5" y1="592.032" y2="592.032"/><text fill="#000000" font-family="Verdana" font-size="14" lengthAdjust="spacing" textLength="51" x="448.5" y="582.93">HASH_1</text><text fill="#000000" font-family="Verdana" font-size="12" lengthAdjust="spacing" textLength="3" x="443.5" y="609.8601">&#160;</text></g><g id="HASH_2"><rect fill="#FFFFFF" height="55.412" rx="12.5" ry="12.5" style="stroke:#000000;stroke-width:1.0;" width="71" x="105.5" y="392.9641"/><line style="stroke:#000000;stroke-width:1.0;" x1="105.5" x2="176.5" y1="422.032" y2="422.032"/><text fill="#000000" font-family="Verdana" font-size="14" lengthAdjust="spacing" textLength="51" x="115.5" y="412.93">HASH_2</text><text fill="#000000" font-family="Verdana" font-size="12" lengthAdjust="spacing" textLength="3" x="110.5" y="439.8601">&#160;</text></g><g id="DONE"><rect fill="#FFFFFF" height="55.412" rx="12.5" ry="12.5" style="stroke:#000000;stroke-width:1.0;" width="60" x="12" y="276.9641"/><line style="stroke:#000000;stroke-width:1.0;" x1="12" x2="72" y1="306.032" y2="306.032"/><text fill="#000000" font-family="Verdana" font-size="14" lengthAdjust="spacing" textLength="40" x="22" y="296.93">DONE</text><text fill="#000000" font-family="Verdana" font-size="12" lengthAdjust="spacing" textLength="3" x="17" y="323.8601">&#160;</text></g><g id="RESET"><rect fill="#FFFFFF" height="55.412" rx="12.5" ry="12.5" style="stroke:#000000;stroke-width:1.0;" width="61" x="65.5" y="142.9641"/><line style="stroke:#000000;stroke-width:1.0;" x1="65.5" x2="126.5" y1="172.032" y2="172.032"/><text fill="#000000" font-family="Verdana" font-size="14" lengthAdjust="spacing" textLength="41" x="75.5" y="162.93">RESET</text><text fill="#000000" font-family="Verdana" font-size="12" lengthAdjust="spacing" textLength="3" x="70.5" y="189.8601">&#160;</text></g><!--link *start* to IDLE--><g id="link_*start*_IDLE"><path d="M221.78,82.1741 C220.8,109.0041 215.52,188.8841 187,246.9641 C181.05,259.0841 175.9373,266.2916 167.0973,275.7916 " fill="none" id="*start*-to-IDLE" style="stroke:#000000;stroke-width:1.0;"/><polygon fill="#000000" points="163.01,280.1841,172.0693,276.3203,166.4161,276.5237,166.2127,270.8705,163.01,280.1841" style="stroke:#000000;stroke-width:1.0;"/></g><!--link IDLE to READ_MSG--><g id="link_IDLE_READ_MSG"><path d="M163.31,304.4641 C191.63,304.4641 232.14,304.4641 267.15,304.4641 " fill="none" id="IDLE-to-READ_MSG" style="stroke:#000000;stroke-width:1.0;"/><polygon fill="#000000" points="273.15,304.4641,264.15,300.4641,268.15,304.4641,264.15,308.4641,273.15,304.4641" style="stroke:#000000;stroke-width:1.0;"/><text fill="#000000" font-family="Verdana" font-size="13" lengthAdjust="spacing" textLength="74" x="181.25" y="297.3611">elsif start = 1</text></g><!--link READ_MSG to PREP_MSG_0--><g id="link_READ_MSG_PREP_MSG_0"><path d="M366.59,304.4641 C378.31,304.4641 384.03,304.4641 395.76,304.4641 " fill="none" id="READ_MSG-to-PREP_MSG_0" style="stroke:#000000;stroke-width:1.0;"/><polygon fill="#000000" points="401.76,304.4641,392.76,300.4641,396.76,304.4641,392.76,308.4641,401.76,304.4641" style="stroke:#000000;stroke-width:1.0;"/></g><!--link PREP_MSG_0 to PREP_MSG_1--><g id="link_PREP_MSG_0_PREP_MSG_1"><path d="M450.48,332.1941 C448.08,350.4841 445.6851,368.6957 443.2751,386.9557 " fill="none" id="PREP_MSG_0-to-PREP_MSG_1" style="stroke:#000000;stroke-width:1.0;"/><polygon fill="#000000" points="442.49,392.9041,447.6332,384.5049,443.1442,387.9471,439.702,383.4581,442.49,392.9041" style="stroke:#000000;stroke-width:1.0;"/></g><!--link PREP_MSG_1 to PREP_MSG_2--><g id="link_PREP_MSG_1_PREP_MSG_2"><path d="M437.39,448.1841 C436.82,457.6641 436.5405,462.3349 435.9705,471.8049 " fill="none" id="PREP_MSG_1-to-PREP_MSG_2" style="stroke:#000000;stroke-width:1.0;"/><polygon fill="#000000" points="435.61,477.7941,440.1435,469.0507,435.9104,472.8031,432.158,468.57,435.61,477.7941" style="stroke:#000000;stroke-width:1.0;"/></g><!--link PREP_MSG_2 to PREP_MSG_3--><g id="link_PREP_MSG_2_PREP_MSG_3"><path d="M486.12,505.4641 C497.66,505.4641 503.2,505.4641 514.74,505.4641 " fill="none" id="PREP_MSG_2-to-PREP_MSG_3" style="stroke:#000000;stroke-width:1.0;"/><polygon fill="#000000" points="520.74,505.4641,511.74,501.4641,515.74,505.4641,511.74,509.4641,520.74,505.4641" style="stroke:#000000;stroke-width:1.0;"/></g><!--link PREP_MSG_3 to HASH_0--><g id="link_PREP_MSG_3_HASH_0"><path d="M625.42,505.4641 C636.75,505.4641 642.07,505.4641 653.4,505.4641 " fill="none" id="PREP_MSG_3-to-HASH_0" style="stroke:#000000;stroke-width:1.0;"/><polygon fill="#000000" points="659.4,505.4641,650.4,501.4641,654.4,505.4641,650.4,509.4641,659.4,505.4641" style="stroke:#000000;stroke-width:1.0;"/></g><!--link HASH_0 to HASH_1--><g id="link_HASH_0_HASH_1"><path d="M659.24,525.5641 C653.86,528.1741 648.33,530.7341 643,532.9641 C597.92,551.8641 549.8596,567.2387 515.2696,577.5587 " fill="none" id="HASH_0-to-HASH_1" style="stroke:#000000;stroke-width:1.0;"/><polygon fill="#000000" points="509.52,579.2741,519.2879,580.5341,514.3113,577.8446,517.0007,572.868,509.52,579.2741" style="stroke:#000000;stroke-width:1.0;"/></g><!--link HASH_1 to HASH_1--><g id="link_HASH_1_HASH_1"><path d="M509.55,575.2641 C527.93,572.9341 544.5,577.9941 544.5,590.4641 C544.5,602.9341 533.8824,608.7487 515.5024,606.4187 " fill="none" id="HASH_1-to-HASH_1" style="stroke:#000000;stroke-width:1.0;"/><polygon fill="#000000" points="509.55,605.6641,517.9755,610.7642,514.5103,606.2929,518.9816,602.8277,509.55,605.6641" style="stroke:#000000;stroke-width:1.0;"/><text fill="#000000" font-family="Verdana" font-size="13" lengthAdjust="spacing" textLength="127" x="550.5" y="595.8611">counter = counter + 1</text></g><!--reverse link HASH_2 to HASH_1--><g id="link_HASH_2_HASH_1"><path d="M171.5436,452.2342 C197.7236,477.4242 235.85,510.4541 279,532.9641 C331.03,560.1041 397.87,575.8441 438.24,583.5241 " fill="none" id="HASH_2-backto-HASH_1" style="stroke:#000000;stroke-width:1.0;"/><polygon fill="#000000" points="167.22,448.0741,170.932,457.1967,170.823,451.5409,176.4788,451.4319,167.22,448.0741" style="stroke:#000000;stroke-width:1.0;"/><text fill="#000000" font-family="Verdana" font-size="13" lengthAdjust="spacing" textLength="84" x="280" y="510.8611">if counter = 63</text></g><!--reverse link DONE to HASH_2--><g id="link_DONE_HASH_2"><path d="M69.145,336.7235 C85.035,355.0135 102.08,374.6441 117.93,392.9041 " fill="none" id="DONE-backto-HASH_2" style="stroke:#000000;stroke-width:1.0;"/><polygon fill="#000000" points="65.21,332.1941,68.093,341.6116,68.4892,335.9686,74.1322,336.3648,65.21,332.1941" style="stroke:#000000;stroke-width:1.0;"/></g><!--reverse link RESET to DONE--><g id="link_RESET_DONE"><path d="M60.2518,188.3379 C43.5218,197.7579 29.53,209.0141 20,227.9641 C12.27,243.3341 17.48,261.8641 24.77,276.7241 " fill="none" id="RESET-backto-DONE" style="stroke:#000000;stroke-width:1.0;"/><polygon fill="#000000" points="65.48,185.3941,55.6752,186.3243,61.1232,187.8473,59.6002,193.2953,65.48,185.3941" style="stroke:#000000;stroke-width:1.0;"/><text fill="#000000" font-family="Verdana" font-size="13" lengthAdjust="spacing" textLength="60" x="21" y="242.8611">if reset = 1</text></g><!--link RESET to IDLE--><g id="link_RESET_IDLE"><path d="M126.68,190.4641 C139.16,200.0241 152.23,212.8041 159,227.9641 C165.99,243.6141 163.5346,256.7111 156.6746,271.5011 " fill="none" id="RESET-to-IDLE" style="stroke:#000000;stroke-width:1.0;"/><polygon fill="#000000" points="154.15,276.9441,161.5656,270.4627,156.2538,272.4083,154.3082,267.0965,154.15,276.9441" style="stroke:#000000;stroke-width:1.0;"/></g><!--reverse link RESET to IDLE--><g id="link_RESET_IDLE"><path d="M89.4228,203.9668 C87.3628,218.7668 87.55,231.3641 93,246.9641 C97.14,258.8041 104.91,270.0141 112.84,279.2841 " fill="none" id="RESET-backto-IDLE" style="stroke:#000000;stroke-width:1.0;"/><polygon fill="#000000" points="90.25,198.0241,85.0475,206.3867,89.5607,202.9764,92.9711,207.4896,90.25,198.0241" style="stroke:#000000;stroke-width:1.0;"/><text fill="#000000" font-family="Verdana" font-size="13" lengthAdjust="spacing" textLength="60" x="94" y="242.8611">if reset = 1</text></g><!--SRC=[LP51QyCm38Nl-XNQTSCmEwm7qnL2OvP1jvPcjr9AAIeDov9Xk_-_Tfp4patllKz2bf_iZVu8_vjptGAOtxf5tHa2iBLj2AioP-9jWUjE4tmM6oNXy7n4njWAlOIzoelJL_KXORTNEr-TNcLFeaEc5AanzHMDFMkBxyYdFa_5pZY4fmEHfHIFYKWeFXibOf0ba9X16PHvLVg5e-M1u8RGBHBa5F1WY27W_NO3YvVktbhIxerZzO9y0kyZAL2YkqUa5naKssyrp1G1zOwxLAL-P9y6DnY-NPEXyPpEm-HNl5ooNitH1m00]--></g></svg>