<?xml version="1.0" encoding="us-ascii" standalone="no"?><svg xmlns="http://www.w3.org/2000/svg" xmlns:xlink="http://www.w3.org/1999/xlink" contentStyleType="text/css" height="810px" preserveAspectRatio="none" style="width:555px;height:810px;background:#FFFFFF;" version="1.1" viewBox="0 0 555 810" width="555px" zoomAndPan="magnify"><defs/><g><text fill="#000000" font-family="Verdana" font-size="22" font-weight="bold" lengthAdjust="spacing" textLength="132" x="207" y="38.5181">Hash Parser</text><!--cluster RUNNING--><g id="cluster_RUNNING"><path d="M24.5,136.9641 L448.5,136.9641 A12.5,12.5 0 0 1 461,149.4641 L461,161.032 L12,161.032 L12,149.4641 A12.5,12.5 0 0 1 24.5,136.9641 " fill="#FFFFFF" style="stroke:#FFFFFF;stroke-width:1.0;"/><path d="M12,161.032 L461,161.032 L461,784.4641 A12.5,12.5 0 0 1 448.5,796.9641 L24.5,796.9641 A12.5,12.5 0 0 1 12,784.4641 L12,161.032 " fill="#FFFFFF" style="stroke:#FFFFFF;stroke-width:1.0;"/><rect fill="none" height="660" rx="12.5" ry="12.5" style="stroke:#000000;stroke-width:1.0;" width="449" x="12" y="136.9641"/><line style="stroke:#000000;stroke-width:1.0;" x1="12" x2="461" y1="161.032" y2="161.032"/><text fill="#000000" font-family="Verdana" font-size="14" lengthAdjust="spacing" textLength="67" x="203" y="155.93">RUNNING</text></g><g id="RUNNING.IDLE"><rect fill="#FFFFFF" height="55.412" rx="12.5" ry="12.5" style="stroke:#000000;stroke-width:1.0;" width="98" x="267" y="182.9641"/><line style="stroke:#000000;stroke-width:1.0;" x1="267" x2="365" y1="212.032" y2="212.032"/><text fill="#000000" font-family="Verdana" font-size="14" lengthAdjust="spacing" textLength="30" x="301" y="202.93">IDLE</text><text fill="#000000" font-family="Verdana" font-size="12" lengthAdjust="spacing" textLength="78" x="272" y="229.8601">Pending hash.</text></g><g id="RUNNING.STOP"><rect fill="#FFFFFF" height="71.7561" rx="12.5" ry="12.5" style="stroke:#000000;stroke-width:1.0;" width="183" x="36.5" y="316.9641"/><line style="stroke:#000000;stroke-width:1.0;" x1="36.5" x2="219.5" y1="346.032" y2="346.032"/><text fill="#000000" font-family="Verdana" font-size="14" lengthAdjust="spacing" textLength="35" x="110.5" y="336.93">STOP</text><text fill="#000000" font-family="Verdana" font-size="12" lengthAdjust="spacing" textLength="130" x="41.5" y="363.8601">Stop delimiter reached.</text><text fill="#000000" font-family="Verdana" font-size="12" lengthAdjust="spacing" textLength="163" x="41.5" y="380.2042">Awaiting hash start delimiter.</text></g><g id="RUNNING.START"><rect fill="#FFFFFF" height="55.412" rx="12.5" ry="12.5" style="stroke:#000000;stroke-width:1.0;" width="62" x="248" y="467.9641"/><line style="stroke:#000000;stroke-width:1.0;" x1="248" x2="310" y1="497.032" y2="497.032"/><text fill="#000000" font-family="Verdana" font-size="14" lengthAdjust="spacing" textLength="42" x="258" y="487.93">START</text><text fill="#000000" font-family="Verdana" font-size="12" lengthAdjust="spacing" textLength="3" x="253" y="514.8601">&#160;</text></g><g id="RUNNING.ESPACE"><rect fill="#FFFFFF" height="55.412" rx="12.5" ry="12.5" style="stroke:#000000;stroke-width:1.0;" width="153" x="83.5" y="717.9641"/><line style="stroke:#000000;stroke-width:1.0;" x1="83.5" x2="236.5" y1="747.032" y2="747.032"/><text fill="#000000" font-family="Verdana" font-size="14" lengthAdjust="spacing" textLength="50" x="135" y="737.93">ESPACE</text><text fill="#000000" font-family="Verdana" font-size="12" lengthAdjust="spacing" textLength="133" x="88.5" y="764.8601">Store escape character.</text></g><g id="RUNNING.DATA"><rect fill="#FFFFFF" height="55.412" rx="12.5" ry="12.5" style="stroke:#000000;stroke-width:1.0;" width="140" x="75" y="583.9641"/><line style="stroke:#000000;stroke-width:1.0;" x1="75" x2="215" y1="613.032" y2="613.032"/><text fill="#000000" font-family="Verdana" font-size="14" lengthAdjust="spacing" textLength="36" x="127" y="603.93">DATA</text><text fill="#000000" font-family="Verdana" font-size="12" lengthAdjust="spacing" textLength="120" x="80" y="630.8601">Store hash character.</text></g><ellipse cx="316" cy="71.9641" fill="#FFFFFF" rx="10" ry="10" style="stroke:#000000;stroke-width:1.0;"/><g id="RESET"><rect fill="#FFFFFF" height="55.412" rx="12.5" ry="12.5" style="stroke:#000000;stroke-width:1.0;" width="61" x="485.5" y="325.4641"/><line style="stroke:#000000;stroke-width:1.0;" x1="485.5" x2="546.5" y1="354.532" y2="354.532"/><text fill="#000000" font-family="Verdana" font-size="14" lengthAdjust="spacing" textLength="41" x="495.5" y="345.43">RESET</text><text fill="#000000" font-family="Verdana" font-size="12" lengthAdjust="spacing" textLength="3" x="490.5" y="372.3601">&#160;</text></g><!--reverse link IDLE to IDLE--><g id="link_IDLE_IDLE"><path d="M371.1776,197.9638 C390.1976,197.4238 400,201.6941 400,210.4641 C400,219.2341 384.2,223.3341 365.18,222.7941 " fill="none" id="IDLE-backto-IDLE" style="stroke:#000000;stroke-width:1.0;"/><polygon fill="#000000" points="365.18,198.1341,374.2899,201.8771,370.178,197.9922,374.0629,193.8803,365.18,198.1341" style="stroke:#000000;stroke-width:1.0;"/><text fill="#000000" font-family="Verdana" font-size="13" lengthAdjust="spacing" textLength="23" x="406" y="215.8611">else</text></g><!--link IDLE to START--><g id="link_IDLE_START"><path d="M326.63,238.2041 C342.3,281.9141 366.78,370.5641 338,437.9641 C332.15,451.6641 325.7376,459.7218 314.8176,469.0718 " fill="none" id="IDLE-to-START" style="stroke:#000000;stroke-width:1.0;"/><polygon fill="#000000" points="310.26,472.9741,319.698,470.159,314.058,469.7222,314.4948,464.0822,310.26,472.9741" style="stroke:#000000;stroke-width:1.0;"/><text fill="#000000" font-family="Verdana" font-size="13" lengthAdjust="spacing" textLength="64" x="360.5" y="349.3611">if data_in =</text><text fill="#000000" font-family="Verdana" font-size="13" lengthAdjust="spacing" textLength="84" x="352" y="367.0671">start delimiter</text></g><!--link STOP to START--><g id="link_STOP_START"><path d="M145.04,389.0041 C154.13,405.2341 166.45,423.9841 181,437.9641 C200.4,456.6041 221.6799,468.9006 242.3199,478.7006 " fill="none" id="STOP-to-START" style="stroke:#000000;stroke-width:1.0;"/><polygon fill="#000000" points="247.74,481.2741,241.3255,473.8005,243.2233,479.1295,237.8942,481.0273,247.74,481.2741" style="stroke:#000000;stroke-width:1.0;"/><text fill="#000000" font-family="Verdana" font-size="13" lengthAdjust="spacing" textLength="151" x="182" y="433.8611">if data_in = start delimiter</text></g><!--reverse link STOP to STOP--><g id="link_STOP_STOP"><path d="M225.5282,339.84 C245.7582,341.11 254.5,345.2341 254.5,352.9641 C254.5,360.6941 239.77,365.1941 219.54,366.4641 " fill="none" id="STOP-backto-STOP" style="stroke:#000000;stroke-width:1.0;"/><polygon fill="#000000" points="219.54,339.4641,228.2717,344.0201,224.5302,339.7774,228.7729,336.0359,219.54,339.4641" style="stroke:#000000;stroke-width:1.0;"/><text fill="#000000" font-family="Verdana" font-size="13" lengthAdjust="spacing" textLength="23" x="260.5" y="358.3611">else</text></g><!--link START to DATA--><g id="link_START_DATA"><path d="M247.92,522.9041 C226.43,541.1941 202.5002,561.5465 180.9402,579.8865 " fill="none" id="START-to-DATA" style="stroke:#000000;stroke-width:1.0;"/><polygon fill="#000000" points="176.37,583.7741,185.817,580.9895,180.1785,580.5344,180.6335,574.8959,176.37,583.7741" style="stroke:#000000;stroke-width:1.0;"/></g><!--link ESPACE to DATA--><g id="link_ESPACE_DATA"><path d="M189.18,717.6541 C200.88,703.5641 210.1,685.7841 203,668.9641 C198.25,657.6941 194.3382,651.7298 185.5582,643.2598 " fill="none" id="ESPACE-to-DATA" style="stroke:#000000;stroke-width:1.0;"/><polygon fill="#000000" points="181.24,639.0941,184.9401,648.2215,184.8385,642.5655,190.4944,642.4639,181.24,639.0941" style="stroke:#000000;stroke-width:1.0;"/></g><!--link DATA to ESPACE--><g id="link_DATA_ESPACE"><path d="M103.81,639.2141 C88.24,652.8641 76.18,670.2841 85,687.9641 C90.89,699.7841 95.8236,706.0908 106.3036,714.2408 " fill="none" id="DATA-to-ESPACE" style="stroke:#000000;stroke-width:1.0;"/><polygon fill="#000000" points="111.04,717.9241,106.391,709.2415,107.093,714.8547,101.4799,715.5567,111.04,717.9241" style="stroke:#000000;stroke-width:1.0;"/><text fill="#000000" font-family="Verdana" font-size="13" lengthAdjust="spacing" textLength="108" x="86" y="683.8611">if data_in = escape</text></g><!--reverse link STOP to DATA--><g id="link_STOP_DATA"><path d="M130.7261,395.081 C134.1661,447.081 140.16,537.4041 143.24,583.9341 " fill="none" id="STOP-backto-DATA" style="stroke:#000000;stroke-width:1.0;"/><polygon fill="#000000" points="130.33,389.0941,126.9328,398.3385,130.66,394.0832,134.9154,397.8104,130.33,389.0941" style="stroke:#000000;stroke-width:1.0;"/><text fill="#000000" font-family="Verdana" font-size="13" lengthAdjust="spacing" textLength="80" x="141.5" y="491.8611">elsif data_in =</text><text fill="#000000" font-family="Verdana" font-size="13" lengthAdjust="spacing" textLength="83" x="140" y="509.5671">stop delimiter</text></g><!--reverse link DATA to DATA--><g id="link_DATA_DATA"><path d="M221.1683,600.7872 C240.8683,601.2572 250,604.7241 250,611.4641 C250,618.2041 234.87,621.8141 215.17,622.2841 " fill="none" id="DATA-backto-DATA" style="stroke:#000000;stroke-width:1.0;"/><polygon fill="#000000" points="215.17,600.6441,224.072,604.8576,220.1686,600.7634,224.2628,596.8599,215.17,600.6441" style="stroke:#000000;stroke-width:1.0;"/><text fill="#000000" font-family="Verdana" font-size="13" lengthAdjust="spacing" textLength="23" x="256" y="616.8611">else</text></g><!--link *start* to IDLE--><g id="link_*start*_IDLE"><path d="M316,82.3441 C316,102.7641 316,145.8741 316,176.7241 " fill="none" id="*start*-to-IDLE" style="stroke:#000000;stroke-width:1.0;"/><polygon fill="#000000" points="316,182.7241,320,173.7241,316,177.7241,312,173.7241,316,182.7241" style="stroke:#000000;stroke-width:1.0;"/></g><!--link RUNNING to RESET--><g id="link_RUNNING_RESET"><path d="M461.1403,229.6159 C461.3826,230.1563 461.6291,230.7061 461.8796,231.265 C462.8818,233.5003 463.9487,235.8798 465.0694,238.3794 C467.3109,243.3786 469.7678,248.8582 472.3538,254.6254 C482.6975,277.6941 492.6505,299.8891 501.5855,319.8191 " fill="none" id="RUNNING-to-RESET" style="stroke:#000000;stroke-width:1.0;"/><polygon fill="#000000" points="504.04,325.2941,504.0082,315.4453,501.9946,320.7316,496.7082,318.718,504.04,325.2941" style="stroke:#000000;stroke-width:1.0;"/><text fill="#000000" font-family="Verdana" font-size="13" lengthAdjust="spacing" textLength="60" x="487" y="282.8611">if reset = 1</text></g><!--reverse link IDLE to RESET--><g id="link_IDLE_RESET"><path d="M358.9997,241.673 C397.0797,268.423 450,305.5941 485.26,330.3641 " fill="none" id="IDLE-backto-RESET" style="stroke:#000000;stroke-width:1.0;"/><polygon fill="#000000" points="354.09,238.2241,359.1553,246.6706,358.1814,241.0982,363.7538,240.1243,354.09,238.2241" style="stroke:#000000;stroke-width:1.0;"/></g><!--SRC=[TL5DIyGm4BtdLpolGXUybbKeRj45gQMj9rSajACDThCbYNWG_xkJD7MxmfvIPjxdzCBrj2UCWrHQ2FkXDCp1aX1EkO5mBssFKXfBXhTEEaBrL1JRuWxVOhjvoDEITAVqEtf6haJTF9PfxGuZEXhKNZaoC2JRdhhLJcTVKhaP39OpxeZpvAngKf7NPNQRUnL38DlAaT3sqiWse3PPayLba5ci01y9woIyAMZW9d6O9CaD9WVrXauw-SfThx7J_t8mmRV04OyJmXaucuRoiscW1X4Vc0TJBHm7_Wc0MFZKPYh-1_iCQQB-4kZpByyzCzPC2LynqOzuldm9TluSGbHvdVEnvx_f5zF8np1aoN68gmc6P8YyNm00]--></g></svg>