<?xml version="1.0" encoding="us-ascii" standalone="no"?><svg xmlns="http://www.w3.org/2000/svg" xmlns:xlink="http://www.w3.org/1999/xlink" contentStyleType="text/css" height="676px" preserveAspectRatio="none" style="width:775px;height:676px;background:#FFFFFF;" version="1.1" viewBox="0 0 775 676" width="775px" zoomAndPan="magnify"><defs/><g><text fill="#000000" font-family="Verdana" font-size="22" font-weight="bold" lengthAdjust="spacing" textLength="183" x="288.25" y="38.5181">Password Parser</text><!--cluster RUNNING--><g id="cluster_RUNNING"><path d="M174,136.9641 L749,136.9641 A12.5,12.5 0 0 1 761.5,149.4641 L761.5,161.032 L161.5,161.032 L161.5,149.4641 A12.5,12.5 0 0 1 174,136.9641 " fill="#FFFFFF" style="stroke:#FFFFFF;stroke-width:1.0;"/><path d="M161.5,161.032 L761.5,161.032 L761.5,650.4641 A12.5,12.5 0 0 1 749,662.9641 L174,662.9641 A12.5,12.5 0 0 1 161.5,650.4641 L161.5,161.032 " fill="#FFFFFF" style="stroke:#FFFFFF;stroke-width:1.0;"/><rect fill="none" height="526" rx="12.5" ry="12.5" style="stroke:#000000;stroke-width:1.0;" width="600" x="161.5" y="136.9641"/><line style="stroke:#000000;stroke-width:1.0;" x1="161.5" x2="761.5" y1="161.032" y2="161.032"/><text fill="#000000" font-family="Verdana" font-size="14" lengthAdjust="spacing" textLength="67" x="428" y="155.93">RUNNING</text></g><g id="RUNNING.IDLE"><rect fill="#FFFFFF" height="55.412" rx="12.5" ry="12.5" style="stroke:#000000;stroke-width:1.0;" width="122" x="349.5" y="182.9641"/><line style="stroke:#000000;stroke-width:1.0;" x1="349.5" x2="471.5" y1="212.032" y2="212.032"/><text fill="#000000" font-family="Verdana" font-size="14" lengthAdjust="spacing" textLength="30" x="395.5" y="202.93">IDLE</text><text fill="#000000" font-family="Verdana" font-size="12" lengthAdjust="spacing" textLength="102" x="354.5" y="229.8601">Pending password</text></g><g id="RUNNING.STOP"><rect fill="#FFFFFF" height="71.7561" rx="12.5" ry="12.5" style="stroke:#000000;stroke-width:1.0;" width="237" x="194" y="298.9641"/><line style="stroke:#000000;stroke-width:1.0;" x1="194" x2="431" y1="328.032" y2="328.032"/><text fill="#000000" font-family="Verdana" font-size="14" lengthAdjust="spacing" textLength="35" x="295" y="318.93">STOP</text><text fill="#000000" font-family="Verdana" font-size="12" lengthAdjust="spacing" textLength="157" x="199" y="345.8601">Stop delimiter byte reached.</text><text fill="#000000" font-family="Verdana" font-size="12" lengthAdjust="spacing" textLength="217" x="199" y="362.2042">Awaiting password start delimiter byte.</text></g><g id="RUNNING.START"><rect fill="#FFFFFF" height="55.412" rx="12.5" ry="12.5" style="stroke:#000000;stroke-width:1.0;" width="62" x="622.5" y="449.9641"/><line style="stroke:#000000;stroke-width:1.0;" x1="622.5" x2="684.5" y1="479.032" y2="479.032"/><text fill="#000000" font-family="Verdana" font-size="14" lengthAdjust="spacing" textLength="42" x="632.5" y="469.93">START</text><text fill="#000000" font-family="Verdana" font-size="12" lengthAdjust="spacing" textLength="3" x="627.5" y="496.8601">&#160;</text></g><g id="RUNNING.ESPACE"><rect fill="#FFFFFF" height="55.412" rx="12.5" ry="12.5" style="stroke:#000000;stroke-width:1.0;" width="126" x="193.5" y="449.9641"/><line style="stroke:#000000;stroke-width:1.0;" x1="193.5" x2="319.5" y1="479.032" y2="479.032"/><text fill="#000000" font-family="Verdana" font-size="14" lengthAdjust="spacing" textLength="50" x="231.5" y="469.93">ESPACE</text><text fill="#000000" font-family="Verdana" font-size="12" lengthAdjust="spacing" textLength="106" x="198.5" y="496.8601">Store escape bytes</text></g><g id="RUNNING.DATA"><rect fill="#FFFFFF" height="55.412" rx="12.5" ry="12.5" style="stroke:#000000;stroke-width:1.0;" width="143" x="256" y="583.9641"/><line style="stroke:#000000;stroke-width:1.0;" x1="256" x2="399" y1="613.032" y2="613.032"/><text fill="#000000" font-family="Verdana" font-size="14" lengthAdjust="spacing" textLength="36" x="309.5" y="603.93">DATA</text><text fill="#000000" font-family="Verdana" font-size="12" lengthAdjust="spacing" textLength="123" x="261" y="630.8601">Store password bytes.</text></g><ellipse cx="410.5" cy="71.9641" fill="#FFFFFF" rx="10" ry="10" style="stroke:#000000;stroke-width:1.0;"/><g id="RESET"><rect fill="#FFFFFF" height="55.412" rx="12.5" ry="12.5" style="stroke:#000000;stroke-width:1.0;" width="61" x="12" y="182.9641"/><line style="stroke:#000000;stroke-width:1.0;" x1="12" x2="73" y1="212.032" y2="212.032"/><text fill="#000000" font-family="Verdana" font-size="14" lengthAdjust="spacing" textLength="41" x="22" y="202.93">RESET</text><text fill="#000000" font-family="Verdana" font-size="12" lengthAdjust="spacing" textLength="3" x="17" y="229.8601">&#160;</text></g><!--reverse link IDLE to IDLE--><g id="link_IDLE_IDLE"><path d="M477.8998,199.6468 C497.2398,199.8168 506.5,203.3841 506.5,210.4641 C506.5,217.5441 491.24,221.1641 471.9,221.3341 " fill="none" id="IDLE-backto-IDLE" style="stroke:#000000;stroke-width:1.0;"/><polygon fill="#000000" points="471.9,199.5941,480.8645,203.6731,476.8998,199.6381,480.9348,195.6734,471.9,199.5941" style="stroke:#000000;stroke-width:1.0;"/><text fill="#000000" font-family="Verdana" font-size="13" lengthAdjust="spacing" textLength="23" x="512.5" y="215.8611">else</text></g><!--link IDLE to START--><g id="link_IDLE_START"><path d="M439.48,237.9741 C457.71,254.9741 481.49,277.7641 501.5,298.9641 C550.24,350.5941 599.5823,409.9308 628.3323,445.2508 " fill="none" id="IDLE-to-START" style="stroke:#000000;stroke-width:1.0;"/><polygon fill="#000000" points="632.12,449.9041,629.5406,440.399,628.9636,446.0264,623.3362,445.4493,632.12,449.9041" style="stroke:#000000;stroke-width:1.0;"/><text fill="#000000" font-family="Verdana" font-size="13" lengthAdjust="spacing" textLength="181" x="566.5" y="340.3611">if data_in = start delimiter byte</text></g><!--link STOP to START--><g id="link_STOP_START"><path d="M337.83,371.1841 C352.38,388.7141 372.18,408.5441 394.5,419.9641 C474.91,461.0941 508.91,424.2741 595.5,449.9641 C604.42,452.6041 608.258,453.8908 616.748,457.7508 " fill="none" id="STOP-to-START" style="stroke:#000000;stroke-width:1.0;"/><polygon fill="#000000" points="622.21,460.2341,615.6726,452.8678,617.6584,458.1647,612.3615,460.1505,622.21,460.2341" style="stroke:#000000;stroke-width:1.0;"/><text fill="#000000" font-family="Verdana" font-size="13" lengthAdjust="spacing" textLength="181" x="395.5" y="415.8611">if data_in = start delimiter byte</text></g><!--reverse link STOP to STOP--><g id="link_STOP_STOP"><path d="M437.2325,323.8421 C457.7425,325.4121 466,328.8041 466,334.9641 C466,341.1241 451.76,344.9741 431.25,346.5441 " fill="none" id="STOP-backto-STOP" style="stroke:#000000;stroke-width:1.0;"/><polygon fill="#000000" points="431.25,323.3841,439.9184,328.0594,436.2354,323.7657,440.529,320.0827,431.25,323.3841" style="stroke:#000000;stroke-width:1.0;"/><text fill="#000000" font-family="Verdana" font-size="13" lengthAdjust="spacing" textLength="23" x="472" y="340.3611">else</text></g><!--link START to DATA--><g id="link_START_DATA"><path d="M622.33,493.0741 C613.68,497.0241 604.26,501.2441 595.5,504.9641 C529,533.2241 457.7951,561.0532 403.4951,581.7932 " fill="none" id="START-to-DATA" style="stroke:#000000;stroke-width:1.0;"/><polygon fill="#000000" points="397.89,583.9341,407.7248,584.4595,402.5609,582.15,404.8703,576.9861,397.89,583.9341" style="stroke:#000000;stroke-width:1.0;"/></g><!--link ESPACE to DATA--><g id="link_ESPACE_DATA"><path d="M218.23,505.2141 C202.73,519.4341 190.75,537.3541 201.5,553.9641 C213.94,573.1841 229.0688,583.6967 250.1288,592.1167 " fill="none" id="ESPACE-to-DATA" style="stroke:#000000;stroke-width:1.0;"/><polygon fill="#000000" points="255.7,594.3441,248.8281,587.2888,251.0573,592.4879,245.8582,594.7171,255.7,594.3441" style="stroke:#000000;stroke-width:1.0;"/></g><!--reverse link ESPACE to DATA--><g id="link_ESPACE_DATA"><path d="M236.2039,510.5042 C228.6539,525.5142 226,538.8541 234.5,553.9641 C241.35,566.1441 252.02,576.0141 263.71,583.8741 " fill="none" id="ESPACE-backto-DATA" style="stroke:#000000;stroke-width:1.0;"/><polygon fill="#000000" points="238.9,505.1441,231.2824,511.3869,236.6532,509.6109,238.4292,514.9817,238.9,505.1441" style="stroke:#000000;stroke-width:1.0;"/><text fill="#000000" font-family="Verdana" font-size="13" lengthAdjust="spacing" textLength="144" x="235.5" y="549.8611">if data_in = escape bytes</text></g><!--reverse link STOP to DATA--><g id="link_STOP_DATA"><path d="M332.0101,376.703 C349.8001,415.703 374.06,475.4341 384.5,534.9641 C385.96,543.2841 387.75,546.1741 384.5,553.9641 C379.84,565.1541 371.76,575.2641 363.13,583.7341 " fill="none" id="STOP-backto-DATA" style="stroke:#000000;stroke-width:1.0;"/><polygon fill="#000000" points="329.52,371.2441,329.6159,381.0925,331.5951,375.7932,336.8944,377.7724,329.52,371.2441" style="stroke:#000000;stroke-width:1.0;"/><text fill="#000000" font-family="Verdana" font-size="13" lengthAdjust="spacing" textLength="196" x="378.5" y="482.8611">elsif data_in = stop delimiter byte</text></g><!--reverse link DATA to DATA--><g id="link_DATA_DATA"><path d="M405.1773,599.3434 C424.9173,599.9334 434,603.8541 434,611.4641 C434,619.0741 418.92,623.1741 399.18,623.7641 " fill="none" id="DATA-backto-DATA" style="stroke:#000000;stroke-width:1.0;"/><polygon fill="#000000" points="399.18,599.1641,408.0565,603.4312,404.1778,599.3135,408.2955,595.4348,399.18,599.1641" style="stroke:#000000;stroke-width:1.0;"/><text fill="#000000" font-family="Verdana" font-size="13" lengthAdjust="spacing" textLength="23" x="440" y="616.8611">else</text></g><!--link *start* to IDLE--><g id="link_*start*_IDLE"><path d="M410.5,82.3441 C410.5,102.7641 410.5,145.8741 410.5,176.7241 " fill="none" id="*start*-to-IDLE" style="stroke:#000000;stroke-width:1.0;"/><polygon fill="#000000" points="410.5,182.7241,414.5,173.7241,410.5,177.7241,406.5,173.7241,410.5,182.7241" style="stroke:#000000;stroke-width:1.0;"/></g><!--reverse link RESET to RUNNING--><g id="link_RESET_RUNNING"><path d="M79.24,210.4641 C96.86,210.4641 113.1125,210.4641 131.7825,210.4641 C141.1175,210.4641 149.5569,210.4641 156.0738,210.4641 C157.703,210.4641 159.212,210.4641 160.5849,210.4641 C160.7565,210.4641 160.926,210.4641 161.0933,210.4641 C161.177,210.4641 161.2601,210.4641 161.3427,210.4641 " fill="none" id="RESET-backto-RUNNING" style="stroke:#000000;stroke-width:1.0;"/><polygon fill="#000000" points="73.24,210.4641,82.24,214.4641,78.24,210.4641,82.24,206.4641,73.24,210.4641" style="stroke:#000000;stroke-width:1.0;"/><text fill="#000000" font-family="Verdana" font-size="13" lengthAdjust="spacing" textLength="60" x="91.07" y="203.3611">if reset = 1</text></g><!--reverse link IDLE to RESET--><g id="link_IDLE_RESET"><path d="M396.4488,177.0877 C383.6488,150.2277 362.68,116.9341 328,101.4641 C296.14,87.2441 203.75,89.4441 171,101.4641 C127.06,117.5941 87.85,156.1341 64.62,182.7741 " fill="none" id="IDLE-backto-RESET" style="stroke:#000000;stroke-width:1.0;"/><polygon fill="#000000" points="399.03,182.5041,398.7692,172.6587,396.879,177.9904,391.5473,176.1003,399.03,182.5041" style="stroke:#000000;stroke-width:1.0;"/></g><!--SRC=[ZL5DIyD04BtFhnYlXGru3LK8DaX1OaZYIKNMPhHBqoJiZXGH_xkpcwHVUl2qmvjvRzwRlU0rRGdxHfiMm6rCYxPp1C266y9SExVhR2s5TMHbWZKJ5WzPjinkyGkMYxiqpgcjJVkE_JWDPNMVnoLtFTRKcArXilZwAKHBUhMcEdfgavqsV4n2aRPyHeX4AYcg6D8oJsvIhsa9oQrqJs70mIAfaX7VIuLE18ZU7ivLU6EaHfADe5Bg6WTnyuQrPlqYsQ_-T24SdmWF5FmtHvQ7QqpB0pyeUUC23Cdm0FW7rOS0O-ZJPSVXyMHyl-VCtAzlc5XpeOLgTFSDZxFduCsV2A18orHkF_ssQgGpODwI9KSi2ow7kQ7jYJy0]--></g></svg>