<?xml version="1.0" encoding="us-ascii" standalone="no"?><svg xmlns="http://www.w3.org/2000/svg" xmlns:xlink="http://www.w3.org/1999/xlink" contentStyleType="text/css" height="748px" preserveAspectRatio="none" style="width:569px;height:748px;background:#FFFFFF;" version="1.1" viewBox="0 0 569 748" width="569px" zoomAndPan="magnify"><defs/><g><text fill="#000000" font-family="Verdana" font-size="22" font-weight="bold" lengthAdjust="spacing" textLength="183" x="185.5" y="38.5181">Password Parser</text><!--cluster RUNNING--><g id="cluster_RUNNING"><path d="M24.5,190.9641 L543.5,190.9641 A12.5,12.5 0 0 1 556,203.4641 L556,215.032 L12,215.032 L12,203.4641 A12.5,12.5 0 0 1 24.5,190.9641 " fill="#FFFFFF" style="stroke:#FFFFFF;stroke-width:1.0;"/><path d="M12,215.032 L556,215.032 L556,722.4641 A12.5,12.5 0 0 1 543.5,734.9641 L24.5,734.9641 A12.5,12.5 0 0 1 12,722.4641 L12,215.032 " fill="#FFFFFF" style="stroke:#FFFFFF;stroke-width:1.0;"/><rect fill="none" height="544" rx="12.5" ry="12.5" style="stroke:#000000;stroke-width:1.0;" width="544" x="12" y="190.9641"/><line style="stroke:#000000;stroke-width:1.0;" x1="12" x2="556" y1="215.032" y2="215.032"/><text fill="#000000" font-family="Verdana" font-size="14" lengthAdjust="spacing" textLength="67" x="250.5" y="209.93">RUNNING</text></g><g id="RUNNING.IDLE"><rect fill="#FFFFFF" height="55.412" rx="12.5" ry="12.5" style="stroke:#000000;stroke-width:1.0;" width="125" x="353.5" y="245.4641"/><line style="stroke:#000000;stroke-width:1.0;" x1="353.5" x2="478.5" y1="274.532" y2="274.532"/><text fill="#000000" font-family="Verdana" font-size="14" lengthAdjust="spacing" textLength="30" x="401" y="265.43">IDLE</text><text fill="#000000" font-family="Verdana" font-size="12" lengthAdjust="spacing" textLength="105" x="358.5" y="292.3601">Pending password.</text></g><g id="RUNNING.STOP"><rect fill="#FFFFFF" height="71.7561" rx="12.5" ry="12.5" style="stroke:#000000;stroke-width:1.0;" width="210" x="55" y="236.9641"/><line style="stroke:#000000;stroke-width:1.0;" x1="55" x2="265" y1="266.032" y2="266.032"/><text fill="#000000" font-family="Verdana" font-size="14" lengthAdjust="spacing" textLength="35" x="142.5" y="256.93">STOP</text><text fill="#000000" font-family="Verdana" font-size="12" lengthAdjust="spacing" textLength="130" x="60" y="283.8601">Stop delimiter reached.</text><text fill="#000000" font-family="Verdana" font-size="12" lengthAdjust="spacing" textLength="190" x="60" y="300.2042">Awaiting password start delimiter.</text></g><g id="RUNNING.START"><rect fill="#FFFFFF" height="55.412" rx="12.5" ry="12.5" style="stroke:#000000;stroke-width:1.0;" width="62" x="280" y="405.9641"/><line style="stroke:#000000;stroke-width:1.0;" x1="280" x2="342" y1="435.032" y2="435.032"/><text fill="#000000" font-family="Verdana" font-size="14" lengthAdjust="spacing" textLength="42" x="290" y="425.93">START</text><text fill="#000000" font-family="Verdana" font-size="12" lengthAdjust="spacing" textLength="3" x="285" y="452.8601">&#160;</text></g><g id="RUNNING.ESPACE"><rect fill="#FFFFFF" height="55.412" rx="12.5" ry="12.5" style="stroke:#000000;stroke-width:1.0;" width="96" x="151" y="655.9641"/><line style="stroke:#000000;stroke-width:1.0;" x1="151" x2="247" y1="685.032" y2="685.032"/><text fill="#000000" font-family="Verdana" font-size="14" lengthAdjust="spacing" textLength="50" x="174" y="675.93">ESPACE</text><text fill="#000000" font-family="Verdana" font-size="12" lengthAdjust="spacing" textLength="76" x="156" y="702.8601">Store escape.</text></g><g id="RUNNING.DATA"><rect fill="#FFFFFF" height="55.412" rx="12.5" ry="12.5" style="stroke:#000000;stroke-width:1.0;" width="110" x="144" y="521.9641"/><line style="stroke:#000000;stroke-width:1.0;" x1="144" x2="254" y1="551.032" y2="551.032"/><text fill="#000000" font-family="Verdana" font-size="14" lengthAdjust="spacing" textLength="36" x="181" y="541.93">DATA</text><text fill="#000000" font-family="Verdana" font-size="12" lengthAdjust="spacing" textLength="90" x="149" y="568.8601">Store password.</text></g><ellipse cx="416" cy="90.4641" fill="#FFFFFF" rx="10" ry="10" style="stroke:#000000;stroke-width:1.0;"/><g id="RESET"><rect fill="#FFFFFF" height="55.412" rx="12.5" ry="12.5" style="stroke:#000000;stroke-width:1.0;" width="61" x="284.5" y="62.9641"/><line style="stroke:#000000;stroke-width:1.0;" x1="284.5" x2="345.5" y1="92.032" y2="92.032"/><text fill="#000000" font-family="Verdana" font-size="14" lengthAdjust="spacing" textLength="41" x="294.5" y="82.93">RESET</text><text fill="#000000" font-family="Verdana" font-size="12" lengthAdjust="spacing" textLength="3" x="289.5" y="109.8601">&#160;</text></g><!--reverse link IDLE to IDLE--><g id="link_IDLE_IDLE"><path d="M484.8292,257.3299 C504.2492,257.6399 513.5,262.7941 513.5,272.9641 C513.5,283.1341 498.25,288.3841 478.83,288.6941 " fill="none" id="IDLE-backto-IDLE" style="stroke:#000000;stroke-width:1.0;"/><polygon fill="#000000" points="478.83,257.2341,487.765,261.3772,483.8294,257.3139,487.8927,253.3783,478.83,257.2341" style="stroke:#000000;stroke-width:1.0;"/><text fill="#000000" font-family="Verdana" font-size="13" lengthAdjust="spacing" textLength="23" x="519.5" y="278.3611">else</text></g><!--link IDLE to START--><g id="link_IDLE_START"><path d="M405.97,300.8541 C397.33,322.2341 383.65,352.3641 367,375.9641 C359.6,386.4641 354.4439,392.5629 345.4539,401.4629 " fill="none" id="IDLE-to-START" style="stroke:#000000;stroke-width:1.0;"/><polygon fill="#000000" points="341.19,405.6841,350.4001,402.1949,344.7433,402.1664,344.7717,396.5096,341.19,405.6841" style="stroke:#000000;stroke-width:1.0;"/><text fill="#000000" font-family="Verdana" font-size="13" lengthAdjust="spacing" textLength="64" x="396.5" y="353.8611">if data_in =</text><text fill="#000000" font-family="Verdana" font-size="13" lengthAdjust="spacing" textLength="84" x="388" y="371.5671">start delimiter</text></g><!--link STOP to START--><g id="link_STOP_START"><path d="M169.61,309.3741 C176.83,330.6741 188.51,357.2141 206,375.9641 C216.94,387.6941 247.686,403.3901 274.536,415.9601 " fill="none" id="STOP-to-START" style="stroke:#000000;stroke-width:1.0;"/><polygon fill="#000000" points="279.97,418.5041,273.515,411.0655,275.4417,416.3841,270.123,418.3108,279.97,418.5041" style="stroke:#000000;stroke-width:1.0;"/><text fill="#000000" font-family="Verdana" font-size="13" lengthAdjust="spacing" textLength="151" x="207" y="362.8611">if data_in = start delimiter</text></g><!--reverse link STOP to STOP--><g id="link_STOP_STOP"><path d="M270.9882,258.4254 C291.4482,260.1754 300,264.6741 300,272.9641 C300,281.2541 285.47,286.2641 265.01,288.0141 " fill="none" id="STOP-backto-STOP" style="stroke:#000000;stroke-width:1.0;"/><polygon fill="#000000" points="265.01,257.9141,273.6364,262.6665,269.9918,258.3402,274.3181,254.6956,265.01,257.9141" style="stroke:#000000;stroke-width:1.0;"/><text fill="#000000" font-family="Verdana" font-size="13" lengthAdjust="spacing" textLength="23" x="306" y="278.3611">else</text></g><!--link START to DATA--><g id="link_START_DATA"><path d="M284.74,461.1941 C266.77,479.4841 247.235,499.3641 229.295,517.6241 " fill="none" id="START-to-DATA" style="stroke:#000000;stroke-width:1.0;"/><polygon fill="#000000" points="225.09,521.9041,234.2508,518.2875,228.5941,518.3375,228.5441,512.6808,225.09,521.9041" style="stroke:#000000;stroke-width:1.0;"/></g><!--reverse link DATA to ESPACE--><g id="link_DATA_ESPACE"><path d="M186.958,582.9456 C182.598,597.3156 180.73,609.6441 183,625.9641 C184.37,635.8641 187.04,646.4641 189.81,655.7741 " fill="none" id="DATA-backto-ESPACE" style="stroke:#000000;stroke-width:1.0;"/><polygon fill="#000000" points="188.7,577.2041,182.2592,584.6551,187.2483,581.9887,189.9146,586.9778,188.7,577.2041" style="stroke:#000000;stroke-width:1.0;"/></g><!--link DATA to ESPACE--><g id="link_DATA_ESPACE"><path d="M199,577.1741 C199,600.0741 199,626.9041 199,649.7941 " fill="none" id="DATA-to-ESPACE" style="stroke:#000000;stroke-width:1.0;"/><polygon fill="#000000" points="199,655.7941,203,646.7941,199,650.7941,195,646.7941,199,655.7941" style="stroke:#000000;stroke-width:1.0;"/><text fill="#000000" font-family="Verdana" font-size="13" lengthAdjust="spacing" textLength="167" x="200" y="621.8611">if data_in = escape character</text></g><!--reverse link STOP to DATA--><g id="link_STOP_DATA"><path d="M162.3108,315.302 C164.7108,353.042 169.23,408.5341 178,460.9641 C181.45,481.6141 187.05,504.6141 191.59,521.8541 " fill="none" id="STOP-backto-DATA" style="stroke:#000000;stroke-width:1.0;"/><polygon fill="#000000" points="161.93,309.3141,158.5092,318.5498,162.2473,314.304,166.4931,318.0421,161.93,309.3141" style="stroke:#000000;stroke-width:1.0;"/><text fill="#000000" font-family="Verdana" font-size="13" lengthAdjust="spacing" textLength="80" x="180.5" y="429.8611">elsif data_in =</text><text fill="#000000" font-family="Verdana" font-size="13" lengthAdjust="spacing" textLength="83" x="179" y="447.5671">stop delimiter</text></g><!--reverse link DATA to DATA--><g id="link_DATA_DATA"><path d="M260.3699,538.5565 C279.5299,538.4365 289,542.1041 289,549.4641 C289,556.8241 273.53,560.4541 254.37,560.3341 " fill="none" id="DATA-backto-DATA" style="stroke:#000000;stroke-width:1.0;"/><polygon fill="#000000" points="254.37,538.5941,263.3949,542.5377,259.3699,538.5628,263.3448,534.5378,254.37,538.5941" style="stroke:#000000;stroke-width:1.0;"/><text fill="#000000" font-family="Verdana" font-size="13" lengthAdjust="spacing" textLength="23" x="295" y="554.8611">else</text></g><!--link *start* to IDLE--><g id="link_*start*_IDLE"><path d="M416,100.6641 C416,127.1041 416,198.0241 416,239.2141 " fill="none" id="*start*-to-IDLE" style="stroke:#000000;stroke-width:1.0;"/><polygon fill="#000000" points="416,245.2141,420,236.2141,416,240.2141,412,236.2141,416,245.2141" style="stroke:#000000;stroke-width:1.0;"/></g><!--reverse link RESET to RUNNING--><g id="link_RESET_RUNNING"><path d="M278.4112,91.2556 C221.1312,92.4156 103.64,103.4941 39,174.9641 C35.3738,178.9729 32.3522,183.4636 29.8414,188.2571 C29.5276,188.8563 29.2217,189.4602 28.9236,190.0685 C28.8491,190.2206 28.7751,190.373 28.7015,190.5256 " fill="none" id="RESET-backto-RUNNING" style="stroke:#000000;stroke-width:1.0;"/><polygon fill="#000000" points="284.41,91.1341,275.3309,87.3171,279.411,91.2353,275.4928,95.3155,284.41,91.1341" style="stroke:#000000;stroke-width:1.0;"/><text fill="#000000" font-family="Verdana" font-size="13" lengthAdjust="spacing" textLength="60" x="69" y="162.8611">if reset = 1</text></g><!--reverse link IDLE to RESET--><g id="link_IDLE_RESET"><path d="M398.1096,239.9884 C378.9796,205.8084 349,152.2241 329.9,118.0941 " fill="none" id="IDLE-backto-RESET" style="stroke:#000000;stroke-width:1.0;"/><polygon fill="#000000" points="401.04,245.2241,400.135,235.4169,398.598,240.861,393.154,239.3241,401.04,245.2241" style="stroke:#000000;stroke-width:1.0;"/></g><!--SRC=[TL5BIyGm4BxFhnYl2obuBQjGtB8iIBUqzUIAX7QqmMvQaiWUnFzkNhLLs5E6uNjERanFPy9fu482w0yXKOsQ08mm0s79jRwCghE3qgGimd13M3qLnQ7OunSSTezvMfBiX7p7AQ8Jg9jZcTPcdB2ZGPo58OMAUDjJbvnaTk72h0bePPLPi4uWgveKyhhC7dAdf0X9jtoY17PPayNLueZeek2M-JT56coBk6Ji7eCWYZVikE6ljkSTdkG_NqjmoQyIhi2jgIyyctgg5t5HxIBKG3OiA_TuIApuroXKnRRdYhVkUFXB-VJPejkQvDgi3pupjepv8SRxXkVDYtTsjm6eyZgtbvw_rEk7dOkaI9EnWMu3BbHmn1y0]--></g></svg>