<?xml version="1.0" encoding="us-ascii" standalone="no"?><svg xmlns="http://www.w3.org/2000/svg" xmlns:xlink="http://www.w3.org/1999/xlink" contentStyleType="text/css" height="509px" preserveAspectRatio="none" style="width:461px;height:509px;background:#FFFFFF;" version="1.1" viewBox="0 0 461 509" width="461px" zoomAndPan="magnify"><defs/><g><!--class Orchestrator--><g id="elem_Orchestrator"><rect codeLine="4" fill="#FFFFFF" height="483.63" id="Orchestrator" rx="2.5" ry="2.5" style="stroke:#000000;stroke-width:1.0;" width="435" x="12" y="12"/><ellipse cx="182.75" cy="26.534" fill="#FFFFFF" rx="9" ry="9" style="stroke:#000000;stroke-width:1.0;"/><path d="M186.1563,28.5027 C185.4375,29.1746 184.1406,30.3465 182.3906,30.3465 C180.1719,30.3465 179.2031,28.409 179.2031,26.4558 C179.2031,24.0652 180.6875,22.7996 182.3281,22.7996 C184.3438,22.7996 184.5625,24.3152 184.7344,25.409 L186.1563,25.2215 C186.0625,24.6433 185.9844,24.0652 185.9844,23.0965 C185.9844,22.4246 186.0313,21.8777 186.0625,21.4558 L184.6563,21.4558 L184.5469,22.409 C183.9531,21.8777 183.3125,21.3308 182.0938,21.3308 C180.0469,21.3308 177.6406,23.159 177.6406,26.4715 C177.6406,29.409 179.4063,31.7996 182.4063,31.7996 C184.8438,31.7996 186.5469,30.1746 187.1406,29.5965 L186.1563,28.5027 Z " fill="#000000"/><text fill="#000000" font-family="Verdana" font-size="14" lengthAdjust="spacing" textLength="86" x="200.25" y="31.9659">Orchestrator</text><line style="stroke:#000000;stroke-width:1.0;" x1="13" x2="446" y1="41.0679" y2="41.0679"/><ellipse cx="23" cy="56.1019" fill="none" rx="3" ry="3" style="stroke:#000000;stroke-width:1.0;"/><text fill="#000000" font-family="Verdana" font-size="14" lengthAdjust="spacing" textLength="83" x="30" y="60.0339">serial: Serial</text><ellipse cx="23" cy="75.1698" fill="none" rx="3" ry="3" style="stroke:#000000;stroke-width:1.0;"/><text fill="#000000" font-family="Verdana" font-size="14" lengthAdjust="spacing" textLength="106" x="30" y="79.1018">proto_spec: dict</text><ellipse cx="23" cy="94.2377" fill="none" rx="3" ry="3" style="stroke:#000000;stroke-width:1.0;"/><text fill="#000000" font-family="Verdana" font-size="14" lengthAdjust="spacing" textLength="86" x="30" y="98.1697">passwds: list</text><ellipse cx="23" cy="113.3056" fill="none" rx="3" ry="3" style="stroke:#000000;stroke-width:1.0;"/><text fill="#000000" font-family="Verdana" font-size="14" lengthAdjust="spacing" textLength="76" x="30" y="117.2376">hashes: list</text><ellipse cx="23" cy="132.3735" fill="none" rx="3" ry="3" style="stroke:#000000;stroke-width:1.0;"/><text fill="#000000" font-family="Verdana" font-size="14" lengthAdjust="spacing" textLength="59" x="30" y="136.3055">salts: list</text><ellipse cx="23" cy="151.4415" fill="none" rx="3" ry="3" style="stroke:#000000;stroke-width:1.0;"/><text fill="#000000" font-family="Verdana" font-size="14" lengthAdjust="spacing" textLength="69" x="30" y="155.3734">nodes: list</text><line style="stroke:#000000;stroke-width:1.0;" x1="13" x2="446" y1="163.4754" y2="163.4754"/><ellipse cx="23" cy="178.5094" fill="#FFFFFF" rx="3" ry="3" style="stroke:#000000;stroke-width:1.0;"/><text fill="#000000" font-family="Verdana" font-size="14" lengthAdjust="spacing" textLength="125" x="30" y="182.4414">reset_nodes(): void</text><ellipse cx="23" cy="197.5773" fill="#FFFFFF" rx="3" ry="3" style="stroke:#000000;stroke-width:1.0;"/><text fill="#000000" font-family="Verdana" font-size="14" lengthAdjust="spacing" textLength="288" x="30" y="201.5093">setup_nodes(rounds: int, hash: bytes): void</text><ellipse cx="23" cy="216.6452" fill="#FFFFFF" rx="3" ry="3" style="stroke:#000000;stroke-width:1.0;"/><text fill="#000000" font-family="Verdana" font-size="14" lengthAdjust="spacing" textLength="205" x="30" y="220.5772">read_hashlist(hashlist: str): list</text><ellipse cx="23" cy="235.7131" fill="#FFFFFF" rx="3" ry="3" style="stroke:#000000;stroke-width:1.0;"/><text fill="#000000" font-family="Verdana" font-size="14" lengthAdjust="spacing" textLength="207" x="30" y="239.6451">read_wordlist(wordlist: str): list</text><ellipse cx="23" cy="254.781" fill="#FFFFFF" rx="3" ry="3" style="stroke:#000000;stroke-width:1.0;"/><text fill="#000000" font-family="Verdana" font-size="14" lengthAdjust="spacing" textLength="362" x="30" y="258.713">prep_pkt(action: bytes, addr: bytes, data: bytes): bytes</text><ellipse cx="23" cy="273.849" fill="#FFFFFF" rx="3" ry="3" style="stroke:#000000;stroke-width:1.0;"/><text fill="#000000" font-family="Verdana" font-size="14" lengthAdjust="spacing" textLength="316" x="30" y="277.7809">send_to_node(node_addr: int, data: bytes): void</text><ellipse cx="23" cy="292.9169" fill="#FFFFFF" rx="3" ry="3" style="stroke:#000000;stroke-width:1.0;"/><text fill="#000000" font-family="Verdana" font-size="14" lengthAdjust="spacing" textLength="259" x="30" y="296.8489">read_from_node(node_addr: int): bytes</text><ellipse cx="23" cy="311.9848" fill="#FFFFFF" rx="3" ry="3" style="stroke:#000000;stroke-width:1.0;"/><text fill="#000000" font-family="Verdana" font-size="14" lengthAdjust="spacing" textLength="227" x="30" y="315.9168">sha256_pad(passwd: bytes): bytes</text><ellipse cx="23" cy="331.0527" fill="#FFFFFF" rx="3" ry="3" style="stroke:#000000;stroke-width:1.0;"/><text fill="#000000" font-family="Verdana" font-size="14" lengthAdjust="spacing" textLength="290" x="30" y="334.9847">cmp_byte_with_data(x: bytes, y: bytes): bool</text><ellipse cx="23" cy="350.1206" fill="#FFFFFF" rx="3" ry="3" style="stroke:#000000;stroke-width:1.0;"/><text fill="#000000" font-family="Verdana" font-size="14" lengthAdjust="spacing" textLength="233" x="30" y="354.0526">escape_plusbus(data: bytes): bytes</text><ellipse cx="23" cy="369.1885" fill="#FFFFFF" rx="3" ry="3" style="stroke:#000000;stroke-width:1.0;"/><text fill="#000000" font-family="Verdana" font-size="14" lengthAdjust="spacing" textLength="411" x="30" y="373.1205">send_passwd(node_addr: int, passwd: bytes, salt: bytes): void</text><ellipse cx="23" cy="388.2565" fill="#FFFFFF" rx="3" ry="3" style="stroke:#000000;stroke-width:1.0;"/><text fill="#000000" font-family="Verdana" font-size="14" lengthAdjust="spacing" textLength="299" x="30" y="392.1884">send_hash(node_addr: int, hash: bytes): void</text><ellipse cx="23" cy="407.3244" fill="#FFFFFF" rx="3" ry="3" style="stroke:#000000;stroke-width:1.0;"/><text fill="#000000" font-family="Verdana" font-size="14" lengthAdjust="spacing" textLength="311" x="30" y="411.2564">send_rounds(node_addr: int, rounds: int): void</text><ellipse cx="23" cy="426.3923" fill="#FFFFFF" rx="3" ry="3" style="stroke:#000000;stroke-width:1.0;"/><text fill="#000000" font-family="Verdana" font-size="14" lengthAdjust="spacing" textLength="260" x="30" y="430.3243">check_flags_and_find_ready_node(): int</text><ellipse cx="23" cy="445.4602" fill="#FFFFFF" rx="3" ry="3" style="stroke:#000000;stroke-width:1.0;"/><text fill="#000000" font-family="Verdana" font-size="14" lengthAdjust="spacing" textLength="175" x="30" y="449.3922">wait_for_nodes(t: int): void</text><ellipse cx="23" cy="464.5281" fill="#FFFFFF" rx="3" ry="3" style="stroke:#000000;stroke-width:1.0;"/><text fill="#000000" font-family="Verdana" font-size="14" lengthAdjust="spacing" textLength="255" x="30" y="468.4601">receive_passwd(node_addr: int): bytes</text><ellipse cx="23" cy="483.596" fill="#FFFFFF" rx="3" ry="3" style="stroke:#000000;stroke-width:1.0;"/><text fill="#000000" font-family="Verdana" font-size="14" lengthAdjust="spacing" textLength="68" x="30" y="487.528">run(): void</text></g><!--SRC=[VL9BJiGm3DtFASAk8sQ518jUWWK7Y3o9IwFf997jJXaXxawJbDAgXKqIl_ZPpvy7QV6AAdRW_84lpYiAZ8U3wO1PlP9faOL00gdFWrAFYf4STBLwotU68WK9cYEQMbbdf80ZVx1SgyvnGLhWCTW2OEXaQVjWv_yC43AApd1rhDKjE3jfa3vEE8NUfpJEoocdgDNvBiXBVqAmElsbqDNFerPZPST5_kms1BBPxUUnSOk4KSUBL6341J_bEocmbcR3Wi2ladnFqhtLOxUI-2eTkj2o_3LfBR-XSDrZhQEtyFJyeYFOglH_JuAvHfqiFJXfTSfPVSowxmj626M-o0OYwjZrVEwv-hUqadPJsKhDAKz-fz0S8Ordm_zZi9bGDc13MIp6aZ8kjBdefeDtrZ2o6vT2Z1s-b-uUCoEx3k14Du6cJPDDB4A3xeRxHQzwGxsVD_Zh6m00]--></g></svg>