<?xml version="1.0" encoding="us-ascii" standalone="no"?><svg xmlns="http://www.w3.org/2000/svg" xmlns:xlink="http://www.w3.org/1999/xlink" contentStyleType="text/css" height="630px" preserveAspectRatio="none" style="width:429px;height:630px;background:#FFFFFF;" version="1.1" viewBox="0 0 429 630" width="429px" zoomAndPan="magnify"><defs/><g><text fill="#000000" font-family="Verdana" font-size="22" font-weight="bold" lengthAdjust="spacing" textLength="144" x="141" y="38.5181">Orchestrator</text><ellipse cx="240" cy="65.9641" fill="#FFFFFF" rx="10" ry="10" style="stroke:#000000;stroke-width:1.0;"/><rect fill="#FFFFFF" height="36.3441" rx="12.5" ry="12.5" style="stroke:#000000;stroke-width:1.0;" width="142" x="169" y="95.9641"/><text fill="#000000" font-family="Verdana" font-size="12" lengthAdjust="spacing" textLength="122" x="179" y="118.7922">Initialize Orchestrator</text><rect fill="#FFFFFF" height="36.3441" rx="12.5" ry="12.5" style="stroke:#000000;stroke-width:1.0;" width="91" x="194.5" y="215.2901"/><text fill="#000000" font-family="Verdana" font-size="12" lengthAdjust="spacing" textLength="71" x="204.5" y="238.1182">Setup Nodes</text><rect fill="#FFFFFF" height="36.3441" rx="12.5" ry="12.5" style="stroke:#000000;stroke-width:1.0;" width="194" x="143" y="386.152"/><text fill="#000000" font-family="Verdana" font-size="12" lengthAdjust="spacing" textLength="174" x="153" y="408.9801">Check Flags &amp; Find Ready Node</text><polygon fill="#FFFFFF" points="169.5,457.4962,310.5,457.4962,322.5,469.4962,310.5,481.4962,169.5,481.4962,157.5,469.4962,169.5,457.4962" style="stroke:#000000;stroke-width:1.0;"/><text fill="#000000" font-family="Verdana" font-size="11" lengthAdjust="spacing" textLength="141" x="169.5" y="473.7641">Node Ready for Password?</text><text fill="#000000" font-family="Verdana" font-size="11" lengthAdjust="spacing" textLength="17" x="140.5" y="466.2732">yes</text><text fill="#000000" font-family="Verdana" font-size="11" lengthAdjust="spacing" textLength="14" x="322.5" y="466.2732">no</text><rect fill="#FFFFFF" height="36.3441" rx="12.5" ry="12.5" style="stroke:#000000;stroke-width:1.0;" width="143" x="76" y="491.4962"/><text fill="#000000" font-family="Verdana" font-size="12" lengthAdjust="spacing" textLength="123" x="86" y="514.3242">Send Salted Password</text><rect fill="#FFFFFF" height="36.3441" rx="12.5" ry="12.5" style="stroke:#000000;stroke-width:1.0;" width="103" x="281" y="491.4962"/><text fill="#000000" font-family="Verdana" font-size="12" lengthAdjust="spacing" textLength="83" x="291" y="514.3242">Wait for Nodes</text><polygon fill="#FFFFFF" points="240,533.8403,252,545.8403,240,557.8403,228,545.8403,240,533.8403" style="stroke:#000000;stroke-width:1.0;"/><polygon fill="#FFFFFF" points="196,328.8931,284,328.8931,296,340.8931,284,352.8931,196,352.8931,184,340.8931,196,328.8931" style="stroke:#000000;stroke-width:1.0;"/><text fill="#000000" font-family="Verdana" font-size="11" lengthAdjust="spacing" textLength="17" x="244" y="364.652">yes</text><text fill="#000000" font-family="Verdana" font-size="11" lengthAdjust="spacing" textLength="88" x="196" y="345.1611">Passwords Exist?</text><text fill="#000000" font-family="Verdana" font-size="11" lengthAdjust="spacing" textLength="14" x="170" y="337.6702">no</text><polygon fill="#FFFFFF" points="212,271.6342,268,271.6342,280,283.6342,268,295.6342,212,295.6342,200,283.6342,212,271.6342" style="stroke:#000000;stroke-width:1.0;"/><text fill="#000000" font-family="Verdana" font-size="11" lengthAdjust="spacing" textLength="17" x="244" y="307.3931">yes</text><text fill="#000000" font-family="Verdana" font-size="11" lengthAdjust="spacing" textLength="56" x="212" y="287.9022">Salts Exist?</text><text fill="#000000" font-family="Verdana" font-size="11" lengthAdjust="spacing" textLength="14" x="186" y="280.4112">no</text><polygon fill="#FFFFFF" points="182.5,152.3082,297.5,152.3082,309.5,164.3082,297.5,176.3082,182.5,176.3082,170.5,164.3082,182.5,152.3082" style="stroke:#000000;stroke-width:1.0;"/><text fill="#000000" font-family="Verdana" font-size="11" lengthAdjust="spacing" textLength="17" x="244" y="188.0671">yes</text><text fill="#000000" font-family="Verdana" font-size="11" lengthAdjust="spacing" textLength="115" x="182.5" y="168.5762">Hashes to Crack Exist?</text><text fill="#000000" font-family="Verdana" font-size="11" lengthAdjust="spacing" textLength="14" x="156.5" y="161.0852">no</text><ellipse cx="19" cy="211.3082" fill="none" rx="11" ry="11" style="stroke:#000000;stroke-width:1.0;"/><ellipse cx="19" cy="211.3082" fill="#FFFFFF" rx="6" ry="6" style="stroke:#000000;stroke-width:1.0;"/><line style="stroke:#000000;stroke-width:1.0;" x1="240" x2="240" y1="75.9641" y2="95.9641"/><polygon fill="#000000" points="236,85.9641,240,95.9641,244,85.9641,240,89.9641" style="stroke:#000000;stroke-width:1.0;"/><line style="stroke:#000000;stroke-width:1.0;" x1="157.5" x2="147.5" y1="469.4962" y2="469.4962"/><line style="stroke:#000000;stroke-width:1.0;" x1="147.5" x2="147.5" y1="469.4962" y2="491.4962"/><polygon fill="#000000" points="143.5,481.4962,147.5,491.4962,151.5,481.4962,147.5,485.4962" style="stroke:#000000;stroke-width:1.0;"/><line style="stroke:#000000;stroke-width:1.0;" x1="322.5" x2="332.5" y1="469.4962" y2="469.4962"/><line style="stroke:#000000;stroke-width:1.0;" x1="332.5" x2="332.5" y1="469.4962" y2="491.4962"/><polygon fill="#000000" points="328.5,481.4962,332.5,491.4962,336.5,481.4962,332.5,485.4962" style="stroke:#000000;stroke-width:1.0;"/><line style="stroke:#000000;stroke-width:1.0;" x1="147.5" x2="147.5" y1="527.8403" y2="545.8403"/><line style="stroke:#000000;stroke-width:1.0;" x1="147.5" x2="228" y1="545.8403" y2="545.8403"/><polygon fill="#000000" points="218,541.8403,228,545.8403,218,549.8403,222,545.8403" style="stroke:#000000;stroke-width:1.0;"/><line style="stroke:#000000;stroke-width:1.0;" x1="332.5" x2="332.5" y1="527.8403" y2="545.8403"/><line style="stroke:#000000;stroke-width:1.0;" x1="332.5" x2="252" y1="545.8403" y2="545.8403"/><polygon fill="#000000" points="262,541.8403,252,545.8403,262,549.8403,258,545.8403" style="stroke:#000000;stroke-width:1.0;"/><line style="stroke:#000000;stroke-width:1.0;" x1="240" x2="240" y1="422.4962" y2="457.4962"/><polygon fill="#000000" points="236,447.4962,240,457.4962,244,447.4962,240,451.4962" style="stroke:#000000;stroke-width:1.0;"/><line style="stroke:#000000;stroke-width:1.0;" x1="240" x2="240" y1="352.8931" y2="386.152"/><polygon fill="#000000" points="236,376.152,240,386.152,244,376.152,240,380.152" style="stroke:#000000;stroke-width:1.0;"/><line style="stroke:#000000;stroke-width:1.0;" x1="240" x2="240" y1="557.8403" y2="567.8403"/><line style="stroke:#000000;stroke-width:1.0;" x1="240" x2="398" y1="567.8403" y2="567.8403"/><polygon fill="#000000" points="394,462.5052,398,452.5052,402,462.5052,398,458.5052" style="stroke:#000000;stroke-width:1.0;"/><line style="stroke:#000000;stroke-width:1.0;" x1="398" x2="398" y1="340.8931" y2="567.8403"/><line style="stroke:#000000;stroke-width:1.0;" x1="398" x2="296" y1="340.8931" y2="340.8931"/><polygon fill="#000000" points="306,336.8931,296,340.8931,306,344.8931,302,340.8931" style="stroke:#000000;stroke-width:1.0;"/><line style="stroke:#000000;stroke-width:1.0;" x1="184" x2="62" y1="340.8931" y2="340.8931"/><polygon fill="#000000" points="58,448.5052,62,458.5052,66,448.5052,62,452.5052" style="stroke:#000000;stroke-width:1.0;"/><line style="stroke:#000000;stroke-width:1.0;" x1="62" x2="62" y1="340.8931" y2="579.8403"/><line style="stroke:#000000;stroke-width:1.0;" x1="62" x2="410" y1="579.8403" y2="579.8403"/><line style="stroke:#000000;stroke-width:1.0;" x1="410" x2="410" y1="283.6342" y2="579.8403"/><line style="stroke:#000000;stroke-width:1.0;" x1="410" x2="280" y1="283.6342" y2="283.6342"/><polygon fill="#000000" points="290,279.6342,280,283.6342,290,287.6342,286,283.6342" style="stroke:#000000;stroke-width:1.0;"/><line style="stroke:#000000;stroke-width:1.0;" x1="240" x2="240" y1="295.6342" y2="328.8931"/><polygon fill="#000000" points="236,318.8931,240,328.8931,244,318.8931,240,322.8931" style="stroke:#000000;stroke-width:1.0;"/><line style="stroke:#000000;stroke-width:1.0;" x1="200" x2="44" y1="283.6342" y2="283.6342"/><polygon fill="#000000" points="40,429.0143,44,439.0143,48,429.0143,44,433.0143" style="stroke:#000000;stroke-width:1.0;"/><line style="stroke:#000000;stroke-width:1.0;" x1="44" x2="44" y1="283.6342" y2="601.8403"/><line style="stroke:#000000;stroke-width:1.0;" x1="44" x2="422" y1="601.8403" y2="601.8403"/><line style="stroke:#000000;stroke-width:1.0;" x1="422" x2="422" y1="164.3082" y2="601.8403"/><line style="stroke:#000000;stroke-width:1.0;" x1="422" x2="309.5" y1="164.3082" y2="164.3082"/><polygon fill="#000000" points="319.5,160.3082,309.5,164.3082,319.5,168.3082,315.5,164.3082" style="stroke:#000000;stroke-width:1.0;"/><line style="stroke:#000000;stroke-width:1.0;" x1="240" x2="240" y1="251.6342" y2="271.6342"/><polygon fill="#000000" points="236,261.6342,240,271.6342,244,261.6342,240,265.6342" style="stroke:#000000;stroke-width:1.0;"/><line style="stroke:#000000;stroke-width:1.0;" x1="240" x2="240" y1="176.3082" y2="215.2901"/><polygon fill="#000000" points="236,205.2901,240,215.2901,244,205.2901,240,209.2901" style="stroke:#000000;stroke-width:1.0;"/><line style="stroke:#000000;stroke-width:1.0;" x1="170.5" x2="19" y1="164.3082" y2="164.3082"/><line style="stroke:#000000;stroke-width:1.0;" x1="19" x2="19" y1="164.3082" y2="200.3082"/><polygon fill="#000000" points="15,190.3082,19,200.3082,23,190.3082,19,194.3082" style="stroke:#000000;stroke-width:1.0;"/><line style="stroke:#000000;stroke-width:1.0;" x1="240" x2="240" y1="132.3082" y2="152.3082"/><polygon fill="#000000" points="236,142.3082,240,152.3082,244,142.3082,240,146.3082" style="stroke:#000000;stroke-width:1.0;"/><!--SRC=[TP3FRi8m38VlUGh3OIglq1vsG4FZiY4uSBQ8kreBIHKRyUVfPxfGKMcxvHT__knafXqT2Vg079so1eBvPpvq99fHKvuxKSpgwdLaPGny8tYkD-xSiJLLxoXs2PfWcV7m3MyN5drT00jKLvA50wXtfASUFf8dQIoNpXq6bR_uaTYWo3bb_mzbvcL7DdCLy4lW1LOSFMm9_NKOrXIAMwZkkPJQbE5XDgLzH9n8XuLDTD-F_8W-R1J4Lelf2TyZww0TdpY0qNFhogcywBTjcgT9DFK_]--></g></svg>