<?xml version="1.0" encoding="us-ascii" standalone="no"?><svg xmlns="http://www.w3.org/2000/svg" xmlns:xlink="http://www.w3.org/1999/xlink" contentStyleType="text/css" height="579px" preserveAspectRatio="none" style="width:429px;height:579px;background:#FFFFFF;" version="1.1" viewBox="0 0 429 579" width="429px" zoomAndPan="magnify"><defs/><g><ellipse cx="240" cy="15" fill="#FFFFFF" rx="10" ry="10" style="stroke:#000000;stroke-width:1.0;"/><rect fill="#FFFFFF" height="36.3441" rx="12.5" ry="12.5" style="stroke:#000000;stroke-width:1.0;" width="142" x="169" y="45"/><text fill="#000000" font-family="Verdana" font-size="12" lengthAdjust="spacing" textLength="122" x="179" y="67.8281">Initialize Orchestrator</text><rect fill="#FFFFFF" height="36.3441" rx="12.5" ry="12.5" style="stroke:#000000;stroke-width:1.0;" width="91" x="194.5" y="164.326"/><text fill="#000000" font-family="Verdana" font-size="12" lengthAdjust="spacing" textLength="71" x="204.5" y="187.1541">Setup Nodes</text><rect fill="#FFFFFF" height="36.3441" rx="12.5" ry="12.5" style="stroke:#000000;stroke-width:1.0;" width="194" x="143" y="335.1879"/><text fill="#000000" font-family="Verdana" font-size="12" lengthAdjust="spacing" textLength="174" x="153" y="358.016">Check Flags &amp; Find Ready Node</text><polygon fill="#FFFFFF" points="169.5,406.5321,310.5,406.5321,322.5,418.5321,310.5,430.5321,169.5,430.5321,157.5,418.5321,169.5,406.5321" style="stroke:#000000;stroke-width:1.0;"/><text fill="#000000" font-family="Verdana" font-size="11" lengthAdjust="spacing" textLength="141" x="169.5" y="422.8">Node Ready for Password?</text><text fill="#000000" font-family="Verdana" font-size="11" lengthAdjust="spacing" textLength="17" x="140.5" y="415.3091">yes</text><text fill="#000000" font-family="Verdana" font-size="11" lengthAdjust="spacing" textLength="14" x="322.5" y="415.3091">no</text><rect fill="#FFFFFF" height="36.3441" rx="12.5" ry="12.5" style="stroke:#000000;stroke-width:1.0;" width="143" x="76" y="440.5321"/><text fill="#000000" font-family="Verdana" font-size="12" lengthAdjust="spacing" textLength="123" x="86" y="463.3601">Send Salted Password</text><rect fill="#FFFFFF" height="36.3441" rx="12.5" ry="12.5" style="stroke:#000000;stroke-width:1.0;" width="103" x="281" y="440.5321"/><text fill="#000000" font-family="Verdana" font-size="12" lengthAdjust="spacing" textLength="83" x="291" y="463.3601">Wait for Nodes</text><polygon fill="#FFFFFF" points="240,482.8762,252,494.8762,240,506.8762,228,494.8762,240,482.8762" style="stroke:#000000;stroke-width:1.0;"/><polygon fill="#FFFFFF" points="196,277.929,284,277.929,296,289.929,284,301.929,196,301.929,184,289.929,196,277.929" style="stroke:#000000;stroke-width:1.0;"/><text fill="#000000" font-family="Verdana" font-size="11" lengthAdjust="spacing" textLength="17" x="244" y="313.6879">yes</text><text fill="#000000" font-family="Verdana" font-size="11" lengthAdjust="spacing" textLength="88" x="196" y="294.197">Passwords Exist?</text><text fill="#000000" font-family="Verdana" font-size="11" lengthAdjust="spacing" textLength="14" x="170" y="286.7061">no</text><polygon fill="#FFFFFF" points="212,220.6701,268,220.6701,280,232.6701,268,244.6701,212,244.6701,200,232.6701,212,220.6701" style="stroke:#000000;stroke-width:1.0;"/><text fill="#000000" font-family="Verdana" font-size="11" lengthAdjust="spacing" textLength="17" x="244" y="256.429">yes</text><text fill="#000000" font-family="Verdana" font-size="11" lengthAdjust="spacing" textLength="56" x="212" y="236.9381">Salts Exist?</text><text fill="#000000" font-family="Verdana" font-size="11" lengthAdjust="spacing" textLength="14" x="186" y="229.4471">no</text><polygon fill="#FFFFFF" points="182.5,101.3441,297.5,101.3441,309.5,113.3441,297.5,125.3441,182.5,125.3441,170.5,113.3441,182.5,101.3441" style="stroke:#000000;stroke-width:1.0;"/><text fill="#000000" font-family="Verdana" font-size="11" lengthAdjust="spacing" textLength="17" x="244" y="137.103">yes</text><text fill="#000000" font-family="Verdana" font-size="11" lengthAdjust="spacing" textLength="115" x="182.5" y="117.6121">Hashes to Crack Exist?</text><text fill="#000000" font-family="Verdana" font-size="11" lengthAdjust="spacing" textLength="14" x="156.5" y="110.1211">no</text><ellipse cx="19" cy="160.3441" fill="none" rx="11" ry="11" style="stroke:#000000;stroke-width:1.0;"/><ellipse cx="19" cy="160.3441" fill="#FFFFFF" rx="6" ry="6" style="stroke:#000000;stroke-width:1.0;"/><line style="stroke:#000000;stroke-width:1.0;" x1="240" x2="240" y1="25" y2="45"/><polygon fill="#000000" points="236,35,240,45,244,35,240,39" style="stroke:#000000;stroke-width:1.0;"/><line style="stroke:#000000;stroke-width:1.0;" x1="157.5" x2="147.5" y1="418.5321" y2="418.5321"/><line style="stroke:#000000;stroke-width:1.0;" x1="147.5" x2="147.5" y1="418.5321" y2="440.5321"/><polygon fill="#000000" points="143.5,430.5321,147.5,440.5321,151.5,430.5321,147.5,434.5321" style="stroke:#000000;stroke-width:1.0;"/><line style="stroke:#000000;stroke-width:1.0;" x1="322.5" x2="332.5" y1="418.5321" y2="418.5321"/><line style="stroke:#000000;stroke-width:1.0;" x1="332.5" x2="332.5" y1="418.5321" y2="440.5321"/><polygon fill="#000000" points="328.5,430.5321,332.5,440.5321,336.5,430.5321,332.5,434.5321" style="stroke:#000000;stroke-width:1.0;"/><line style="stroke:#000000;stroke-width:1.0;" x1="147.5" x2="147.5" y1="476.8762" y2="494.8762"/><line style="stroke:#000000;stroke-width:1.0;" x1="147.5" x2="228" y1="494.8762" y2="494.8762"/><polygon fill="#000000" points="218,490.8762,228,494.8762,218,498.8762,222,494.8762" style="stroke:#000000;stroke-width:1.0;"/><line style="stroke:#000000;stroke-width:1.0;" x1="332.5" x2="332.5" y1="476.8762" y2="494.8762"/><line style="stroke:#000000;stroke-width:1.0;" x1="332.5" x2="252" y1="494.8762" y2="494.8762"/><polygon fill="#000000" points="262,490.8762,252,494.8762,262,498.8762,258,494.8762" style="stroke:#000000;stroke-width:1.0;"/><line style="stroke:#000000;stroke-width:1.0;" x1="240" x2="240" y1="371.5321" y2="406.5321"/><polygon fill="#000000" points="236,396.5321,240,406.5321,244,396.5321,240,400.5321" style="stroke:#000000;stroke-width:1.0;"/><line style="stroke:#000000;stroke-width:1.0;" x1="240" x2="240" y1="301.929" y2="335.1879"/><polygon fill="#000000" points="236,325.1879,240,335.1879,244,325.1879,240,329.1879" style="stroke:#000000;stroke-width:1.0;"/><line style="stroke:#000000;stroke-width:1.0;" x1="240" x2="240" y1="506.8762" y2="516.8762"/><line style="stroke:#000000;stroke-width:1.0;" x1="240" x2="398" y1="516.8762" y2="516.8762"/><polygon fill="#000000" points="394,411.5411,398,401.5411,402,411.5411,398,407.5411" style="stroke:#000000;stroke-width:1.0;"/><line style="stroke:#000000;stroke-width:1.0;" x1="398" x2="398" y1="289.929" y2="516.8762"/><line style="stroke:#000000;stroke-width:1.0;" x1="398" x2="296" y1="289.929" y2="289.929"/><polygon fill="#000000" points="306,285.929,296,289.929,306,293.929,302,289.929" style="stroke:#000000;stroke-width:1.0;"/><line style="stroke:#000000;stroke-width:1.0;" x1="184" x2="62" y1="289.929" y2="289.929"/><polygon fill="#000000" points="58,397.5411,62,407.5411,66,397.5411,62,401.5411" style="stroke:#000000;stroke-width:1.0;"/><line style="stroke:#000000;stroke-width:1.0;" x1="62" x2="62" y1="289.929" y2="528.8762"/><line style="stroke:#000000;stroke-width:1.0;" x1="62" x2="410" y1="528.8762" y2="528.8762"/><line style="stroke:#000000;stroke-width:1.0;" x1="410" x2="410" y1="232.6701" y2="528.8762"/><line style="stroke:#000000;stroke-width:1.0;" x1="410" x2="280" y1="232.6701" y2="232.6701"/><polygon fill="#000000" points="290,228.6701,280,232.6701,290,236.6701,286,232.6701" style="stroke:#000000;stroke-width:1.0;"/><line style="stroke:#000000;stroke-width:1.0;" x1="240" x2="240" y1="244.6701" y2="277.929"/><polygon fill="#000000" points="236,267.929,240,277.929,244,267.929,240,271.929" style="stroke:#000000;stroke-width:1.0;"/><line style="stroke:#000000;stroke-width:1.0;" x1="200" x2="44" y1="232.6701" y2="232.6701"/><polygon fill="#000000" points="40,378.0502,44,388.0502,48,378.0502,44,382.0502" style="stroke:#000000;stroke-width:1.0;"/><line style="stroke:#000000;stroke-width:1.0;" x1="44" x2="44" y1="232.6701" y2="550.8762"/><line style="stroke:#000000;stroke-width:1.0;" x1="44" x2="422" y1="550.8762" y2="550.8762"/><line style="stroke:#000000;stroke-width:1.0;" x1="422" x2="422" y1="113.3441" y2="550.8762"/><line style="stroke:#000000;stroke-width:1.0;" x1="422" x2="309.5" y1="113.3441" y2="113.3441"/><polygon fill="#000000" points="319.5,109.3441,309.5,113.3441,319.5,117.3441,315.5,113.3441" style="stroke:#000000;stroke-width:1.0;"/><line style="stroke:#000000;stroke-width:1.0;" x1="240" x2="240" y1="200.6701" y2="220.6701"/><polygon fill="#000000" points="236,210.6701,240,220.6701,244,210.6701,240,214.6701" style="stroke:#000000;stroke-width:1.0;"/><line style="stroke:#000000;stroke-width:1.0;" x1="240" x2="240" y1="125.3441" y2="164.326"/><polygon fill="#000000" points="236,154.326,240,164.326,244,154.326,240,158.326" style="stroke:#000000;stroke-width:1.0;"/><line style="stroke:#000000;stroke-width:1.0;" x1="170.5" x2="19" y1="113.3441" y2="113.3441"/><line style="stroke:#000000;stroke-width:1.0;" x1="19" x2="19" y1="113.3441" y2="149.3441"/><polygon fill="#000000" points="15,139.3441,19,149.3441,23,139.3441,19,143.3441" style="stroke:#000000;stroke-width:1.0;"/><line style="stroke:#000000;stroke-width:1.0;" x1="240" x2="240" y1="81.3441" y2="101.3441"/><polygon fill="#000000" points="236,91.3441,240,101.3441,244,91.3441,240,95.3441" style="stroke:#000000;stroke-width:1.0;"/><!--SRC=[TOyz3i8m34RtdC8ig5o13Wm810iW69WjubABa5In4J-d9vHGKGcsVF7piptGciu4ZKFsHXIZcl7Iip8wVX2iuw4cqOWQOcckDJk2Oe6IFa43J2CUJZ2xiUXa12nGt4b61c2y8xqqi0gMf4mvT-xGgVpYEsA38jSGxHygcQSrfPbpXqU18SpPMzWIsdixhCmKLr2ySYvL8SB7d9JfPj-JjWidqMi_iXtwiP6Jj9eFN_WUMLjjTs8BUikLoQzyqRkjd_j9D3HF]--></g></svg>