<?xml version="1.0" encoding="us-ascii" standalone="no"?><svg xmlns="http://www.w3.org/2000/svg" xmlns:xlink="http://www.w3.org/1999/xlink" contentStyleType="text/css" height="415px" preserveAspectRatio="none" style="width:611px;height:415px;background:#FFFFFF;" version="1.1" viewBox="0 0 611 415" width="611px" zoomAndPan="magnify"><defs/><g><text fill="#000000" font-family="Verdana" font-size="22" font-weight="bold" lengthAdjust="spacing" textLength="296" x="156" y="38.5181">Clock event task flowchart</text><ellipse cx="324.5" cy="65.9641" fill="#FFFFFF" rx="10" ry="10" style="stroke:#000000;stroke-width:1.0;"/><polygon fill="#FFFFFF" points="271.5,95.9641,377.5,95.9641,389.5,107.9641,377.5,119.9641,271.5,119.9641,259.5,107.9641,271.5,95.9641" style="stroke:#000000;stroke-width:1.0;"/><text fill="#000000" font-family="Verdana" font-size="11" lengthAdjust="spacing" textLength="106" x="271.5" y="112.2321">PlusBUS clock Edge?</text><text fill="#000000" font-family="Verdana" font-size="11" lengthAdjust="spacing" textLength="32" x="227.5" y="104.7411">Rising</text><text fill="#000000" font-family="Verdana" font-size="11" lengthAdjust="spacing" textLength="35" x="389.5" y="104.7411">Falling</text><polygon fill="#FFFFFF" points="150,129.9641,208,129.9641,220,141.9641,208,153.9641,150,153.9641,138,141.9641,150,129.9641" style="stroke:#000000;stroke-width:1.0;"/><text fill="#000000" font-family="Verdana" font-size="11" lengthAdjust="spacing" textLength="58" x="150" y="146.2321">Read/Write</text><text fill="#000000" font-family="Verdana" font-size="11" lengthAdjust="spacing" textLength="26" x="112" y="138.7411">Read</text><text fill="#000000" font-family="Verdana" font-size="11" lengthAdjust="spacing" textLength="28" x="220" y="138.7411">Write</text><rect fill="#FFFFFF" height="52.6882" rx="12.5" ry="12.5" style="stroke:#000000;stroke-width:1.0;" width="179" x="6" y="163.9641"/><text fill="#000000" font-family="Verdana" font-size="12" lengthAdjust="spacing" textLength="159" x="16" y="186.7922">Set data bus to passive state</text><text fill="#000000" font-family="Verdana" font-size="12" lengthAdjust="spacing" textLength="95" x="16" y="203.1363">(external pull-up)</text><rect fill="#FFFFFF" height="36.3441" rx="12.5" ry="12.5" style="stroke:#000000;stroke-width:1.0;" width="115" x="205" y="163.9641"/><text fill="#000000" font-family="Verdana" font-size="12" lengthAdjust="spacing" textLength="95" x="215" y="186.7922">Write to data bus</text><polygon fill="#FFFFFF" points="179,222.6523,191,234.6523,179,246.6523,167,234.6523,179,222.6523" style="stroke:#000000;stroke-width:1.0;"/><rect fill="#FFFFFF" height="36.3441" rx="12.5" ry="12.5" style="stroke:#000000;stroke-width:1.0;" width="220" x="360" y="179.455"/><text fill="#000000" font-family="Verdana" font-size="12" lengthAdjust="spacing" textLength="200" x="370" y="202.2831">Latch data bus and send to rxQueue</text><polygon fill="#FFFFFF" points="441,129.9641,499,129.9641,511,141.9641,499,153.9641,441,153.9641,429,141.9641,441,129.9641" style="stroke:#000000;stroke-width:1.0;"/><text fill="#000000" font-family="Verdana" font-size="11" lengthAdjust="spacing" textLength="26" x="474" y="165.723">Read</text><text fill="#000000" font-family="Verdana" font-size="11" lengthAdjust="spacing" textLength="58" x="441" y="146.2321">Read/Write</text><text fill="#000000" font-family="Verdana" font-size="11" lengthAdjust="spacing" textLength="28" x="511" y="138.7411">Write</text><polygon fill="#FFFFFF" points="470,241.2901,482,253.2901,470,265.2901,458,253.2901,470,241.2901" style="stroke:#000000;stroke-width:1.0;"/><rect fill="#FFFFFF" height="52.6882" rx="12.5" ry="12.5" style="stroke:#000000;stroke-width:1.0;" width="218" x="361" y="285.2901"/><text fill="#000000" font-family="Verdana" font-size="12" lengthAdjust="spacing" textLength="198" x="371" y="308.1182">Setup control lines and address bus</text><text fill="#000000" font-family="Verdana" font-size="12" lengthAdjust="spacing" textLength="105" x="371" y="324.4623">for next clock cycle</text><polygon fill="#FFFFFF" points="324.5,343.9783,336.5,355.9783,324.5,367.9783,312.5,355.9783,324.5,343.9783" style="stroke:#000000;stroke-width:1.0;"/><ellipse cx="324.5" cy="398.9783" fill="none" rx="11" ry="11" style="stroke:#000000;stroke-width:1.0;"/><ellipse cx="324.5" cy="398.9783" fill="#FFFFFF" rx="6" ry="6" style="stroke:#000000;stroke-width:1.0;"/><line style="stroke:#000000;stroke-width:1.0;" x1="138" x2="95.5" y1="141.9641" y2="141.9641"/><line style="stroke:#000000;stroke-width:1.0;" x1="95.5" x2="95.5" y1="141.9641" y2="163.9641"/><polygon fill="#000000" points="91.5,153.9641,95.5,163.9641,99.5,153.9641,95.5,157.9641" style="stroke:#000000;stroke-width:1.0;"/><line style="stroke:#000000;stroke-width:1.0;" x1="220" x2="262.5" y1="141.9641" y2="141.9641"/><line style="stroke:#000000;stroke-width:1.0;" x1="262.5" x2="262.5" y1="141.9641" y2="163.9641"/><polygon fill="#000000" points="258.5,153.9641,262.5,163.9641,266.5,153.9641,262.5,157.9641" style="stroke:#000000;stroke-width:1.0;"/><line style="stroke:#000000;stroke-width:1.0;" x1="95.5" x2="95.5" y1="216.6523" y2="234.6523"/><line style="stroke:#000000;stroke-width:1.0;" x1="95.5" x2="167" y1="234.6523" y2="234.6523"/><polygon fill="#000000" points="157,230.6523,167,234.6523,157,238.6523,161,234.6523" style="stroke:#000000;stroke-width:1.0;"/><line style="stroke:#000000;stroke-width:1.0;" x1="262.5" x2="262.5" y1="200.3082" y2="234.6523"/><line style="stroke:#000000;stroke-width:1.0;" x1="262.5" x2="191" y1="234.6523" y2="234.6523"/><polygon fill="#000000" points="201,230.6523,191,234.6523,201,238.6523,197,234.6523" style="stroke:#000000;stroke-width:1.0;"/><line style="stroke:#000000;stroke-width:1.0;" x1="470" x2="470" y1="153.9641" y2="179.455"/><polygon fill="#000000" points="466,169.455,470,179.455,474,169.455,470,173.455" style="stroke:#000000;stroke-width:1.0;"/><line style="stroke:#000000;stroke-width:1.0;" x1="511" x2="590" y1="141.9641" y2="141.9641"/><polygon fill="#000000" points="586,187.6271,590,197.6271,594,187.6271,590,191.6271" style="stroke:#000000;stroke-width:1.0;"/><line style="stroke:#000000;stroke-width:1.0;" x1="590" x2="590" y1="141.9641" y2="253.2901"/><line style="stroke:#000000;stroke-width:1.0;" x1="590" x2="482" y1="253.2901" y2="253.2901"/><polygon fill="#000000" points="492,249.2901,482,253.2901,492,257.2901,488,253.2901" style="stroke:#000000;stroke-width:1.0;"/><line style="stroke:#000000;stroke-width:1.0;" x1="470" x2="470" y1="215.7992" y2="241.2901"/><polygon fill="#000000" points="466,231.2901,470,241.2901,474,231.2901,470,235.2901" style="stroke:#000000;stroke-width:1.0;"/><line style="stroke:#000000;stroke-width:1.0;" x1="470" x2="470" y1="265.2901" y2="285.2901"/><polygon fill="#000000" points="466,275.2901,470,285.2901,474,275.2901,470,279.2901" style="stroke:#000000;stroke-width:1.0;"/><line style="stroke:#000000;stroke-width:1.0;" x1="259.5" x2="179" y1="107.9641" y2="107.9641"/><line style="stroke:#000000;stroke-width:1.0;" x1="179" x2="179" y1="107.9641" y2="129.9641"/><polygon fill="#000000" points="175,119.9641,179,129.9641,183,119.9641,179,123.9641" style="stroke:#000000;stroke-width:1.0;"/><line style="stroke:#000000;stroke-width:1.0;" x1="389.5" x2="470" y1="107.9641" y2="107.9641"/><line style="stroke:#000000;stroke-width:1.0;" x1="470" x2="470" y1="107.9641" y2="129.9641"/><polygon fill="#000000" points="466,119.9641,470,129.9641,474,119.9641,470,123.9641" style="stroke:#000000;stroke-width:1.0;"/><line style="stroke:#000000;stroke-width:1.0;" x1="179" x2="179" y1="246.6523" y2="355.9783"/><line style="stroke:#000000;stroke-width:1.0;" x1="179" x2="312.5" y1="355.9783" y2="355.9783"/><polygon fill="#000000" points="302.5,351.9783,312.5,355.9783,302.5,359.9783,306.5,355.9783" style="stroke:#000000;stroke-width:1.0;"/><line style="stroke:#000000;stroke-width:1.0;" x1="470" x2="470" y1="337.9783" y2="355.9783"/><line style="stroke:#000000;stroke-width:1.0;" x1="470" x2="336.5" y1="355.9783" y2="355.9783"/><polygon fill="#000000" points="346.5,351.9783,336.5,355.9783,346.5,359.9783,342.5,355.9783" style="stroke:#000000;stroke-width:1.0;"/><line style="stroke:#000000;stroke-width:1.0;" x1="324.5" x2="324.5" y1="75.9641" y2="95.9641"/><polygon fill="#000000" points="320.5,85.9641,324.5,95.9641,328.5,85.9641,324.5,89.9641" style="stroke:#000000;stroke-width:1.0;"/><line style="stroke:#000000;stroke-width:1.0;" x1="324.5" x2="324.5" y1="367.9783" y2="387.9783"/><polygon fill="#000000" points="320.5,377.9783,324.5,387.9783,328.5,377.9783,324.5,381.9783" style="stroke:#000000;stroke-width:1.0;"/><!--SRC=[ZP0_JmCn3CNt-nIFJdS3OeS12GGJ0xH2B5rCuckZckGKEwLyUt8N_YmCJ8xivzzxpfdj-Oqn2ONOMJ1Xh6ubkGFuoD5Wf0UCajxTdhAjEhLQkZ2YVvIYDyyRk4LzvtTyFQ3I8lfrq11tGmVCmZMJltZ9mVXdNZlp5BZSiC6J4LwBmX8cKWr7HlKntiQUJyOvac0g8kTb6gxg7eio-ePicEKzxt-p5bdqOUoQ-9v4_flfWSpjVrDHzD3Acl7vz5Iuy1yXcbcxg4nmALfEWchA3K7UPrQTaTiufenOR_lwFVVXf48RGorDdm00]--></g></svg>