<?xml version="1.0" encoding="us-ascii" standalone="no"?><svg xmlns="http://www.w3.org/2000/svg" xmlns:xlink="http://www.w3.org/1999/xlink" contentStyleType="text/css" height="717px" preserveAspectRatio="none" style="width:419px;height:717px;background:#FFFFFF;" version="1.1" viewBox="0 0 419 717" width="419px" zoomAndPan="magnify"><defs/><g><text fill="#000000" font-family="Verdana" font-size="22" font-weight="bold" lengthAdjust="spacing" textLength="290" x="60.165" y="38.5181">Bridge task state machine</text><g id="Idle"><rect fill="#FFFFFF" height="50" rx="12.5" ry="12.5" style="stroke:#000000;stroke-width:1.0;" width="50" x="178.83" y="142.9641"/><line style="stroke:#000000;stroke-width:1.0;" x1="178.83" x2="228.83" y1="172.032" y2="172.032"/><text fill="#000000" font-family="Verdana" font-size="14" lengthAdjust="spacing" textLength="26" x="190.83" y="162.93">Idle</text></g><g id="RW"><rect fill="#FFFFFF" height="55.412" rx="12.5" ry="12.5" style="stroke:#000000;stroke-width:1.0;" width="132" x="47.83" y="271.9641"/><line style="stroke:#000000;stroke-width:1.0;" x1="47.83" x2="179.83" y1="301.032" y2="301.032"/><text fill="#000000" font-family="Verdana" font-size="14" lengthAdjust="spacing" textLength="75" x="76.33" y="291.93">Read/Write</text><text fill="#000000" font-family="Verdana" font-size="12" lengthAdjust="spacing" textLength="112" x="52.83" y="318.8601">Get Read/Write byte</text></g><g id="Address"><rect fill="#FFFFFF" height="55.412" rx="12.5" ry="12.5" style="stroke:#000000;stroke-width:1.0;" width="119" x="190.33" y="405.9641"/><line style="stroke:#000000;stroke-width:1.0;" x1="190.33" x2="309.33" y1="435.032" y2="435.032"/><text fill="#000000" font-family="Verdana" font-size="14" lengthAdjust="spacing" textLength="55" x="222.33" y="425.93">Address</text><text fill="#000000" font-family="Verdana" font-size="12" lengthAdjust="spacing" textLength="99" x="195.33" y="452.8601">Get node address</text></g><g id="Data"><rect fill="#FFFFFF" height="55.412" rx="12.5" ry="12.5" style="stroke:#000000;stroke-width:1.0;" width="95" x="244.33" y="539.9641"/><line style="stroke:#000000;stroke-width:1.0;" x1="244.33" x2="339.33" y1="569.032" y2="569.032"/><text fill="#000000" font-family="Verdana" font-size="14" lengthAdjust="spacing" textLength="31" x="276.33" y="559.93">Data</text><text fill="#000000" font-family="Verdana" font-size="12" lengthAdjust="spacing" textLength="75" x="249.33" y="586.8601">Get data byte</text></g><g id="Stop"><rect fill="#FFFFFF" height="55.412" rx="12.5" ry="12.5" style="stroke:#000000;stroke-width:1.0;" width="139" x="273.33" y="655.9641"/><line style="stroke:#000000;stroke-width:1.0;" x1="273.33" x2="412.33" y1="685.032" y2="685.032"/><text fill="#000000" font-family="Verdana" font-size="14" lengthAdjust="spacing" textLength="30" x="327.83" y="675.93">Stop</text><text fill="#000000" font-family="Verdana" font-size="12" lengthAdjust="spacing" textLength="119" x="278.33" y="702.8601">Send byte to txQueue</text></g><ellipse cx="203.83" cy="71.9641" fill="#FFFFFF" rx="10" ry="10" style="stroke:#000000;stroke-width:1.0;"/><!--link *start* to Idle--><g id="link_*start*_Idle"><path d="M203.83,81.9741 C203.83,95.8541 203.83,116.9341 203.83,136.8041 " fill="none" id="*start*-to-Idle" style="stroke:#000000;stroke-width:1.0;"/><polygon fill="#000000" points="203.83,142.8041,207.83,133.8041,203.83,137.8041,199.83,133.8041,203.83,142.8041" style="stroke:#000000;stroke-width:1.0;"/></g><!--link Idle to RW--><g id="link_Idle_RW"><path d="M178.75,167.9941 C138.59,167.9841 60.74,174.6241 24.83,222.9641 C11,241.5841 22.1747,255.6013 44.4747,268.7813 " fill="none" id="Idle-to-RW" style="stroke:#000000;stroke-width:1.0;"/><polygon fill="#000000" points="49.64,271.8341,43.9273,263.8113,45.3356,269.2901,39.8568,270.6984,49.64,271.8341" style="stroke:#000000;stroke-width:1.0;"/><text fill="#000000" font-family="Verdana" font-size="13" lengthAdjust="spacing" textLength="88" x="25.83" y="237.8611">start condition</text></g><!--link RW to Idle--><g id="link_RW_Idle"><path d="M126.4,271.6841 C133.85,256.8241 143.95,238.2941 154.83,222.9641 C162.16,212.6441 167.152,206.536 175.492,197.576 " fill="none" id="RW-to-Idle" style="stroke:#000000;stroke-width:1.0;"/><polygon fill="#000000" points="179.58,193.1841,170.5201,197.0466,176.1734,196.844,176.376,202.4972,179.58,193.1841" style="stroke:#000000;stroke-width:1.0;"/><text fill="#000000" font-family="Verdana" font-size="13" lengthAdjust="spacing" textLength="67" x="155.83" y="237.8611">invalid R/W</text></g><!--link RW to Address--><g id="link_RW_Address"><path d="M128.75,327.1141 C138.14,342.4641 151.23,361.5241 165.83,375.9641 C176.95,386.9641 185.493,393.823 198.433,402.423 " fill="none" id="RW-to-Address" style="stroke:#000000;stroke-width:1.0;"/><polygon fill="#000000" points="203.43,405.7441,198.1485,397.4311,199.2658,402.9765,193.7204,404.0939,203.43,405.7441" style="stroke:#000000;stroke-width:1.0;"/><text fill="#000000" font-family="Verdana" font-size="13" lengthAdjust="spacing" textLength="56" x="166.83" y="371.8611">valid R/W</text></g><!--link Address to Data--><g id="link_Address_Data"><path d="M258.33,461.1741 C265.62,484.0741 274.2415,511.1863 281.5215,534.0763 " fill="none" id="Address-to-Data" style="stroke:#000000;stroke-width:1.0;"/><polygon fill="#000000" points="283.34,539.7941,284.4241,530.0051,281.8246,535.0293,276.8004,532.4298,283.34,539.7941" style="stroke:#000000;stroke-width:1.0;"/><text fill="#000000" font-family="Verdana" font-size="13" lengthAdjust="spacing" textLength="78" x="274.83" y="505.8611">valid address</text></g><!--link Address to Idle--><g id="link_Address_Idle"><path d="M249.68,405.8541 C248.87,365.5941 244.99,287.0841 227.83,222.9641 C225.13,212.8541 223.3119,207.6691 219.0419,198.5391 " fill="none" id="Address-to-Idle" style="stroke:#000000;stroke-width:1.0;"/><polygon fill="#000000" points="216.5,193.1041,216.6895,202.9511,218.6182,197.6332,223.9361,199.562,216.5,193.1041" style="stroke:#000000;stroke-width:1.0;"/><text fill="#000000" font-family="Verdana" font-size="13" lengthAdjust="spacing" textLength="89" x="246.83" y="304.8611">invalid address</text></g><!--link Data to Stop--><g id="link_Data_Stop"><path d="M303.79,595.1941 C311.97,613.4841 320.3295,632.1673 328.4995,650.4273 " fill="none" id="Data-to-Stop" style="stroke:#000000;stroke-width:1.0;"/><polygon fill="#000000" points="330.95,655.9041,330.9255,646.0553,328.908,651.3401,323.6231,649.3226,330.95,655.9041" style="stroke:#000000;stroke-width:1.0;"/></g><!--link Stop to Idle--><g id="link_Stop_Idle"><path d="M362.4,655.8441 C376.78,633.6441 393.83,600.5541 393.83,568.4641 C393.83,298.4641 393.83,298.4641 393.83,298.4641 C393.83,219.6241 286.5958,186.6617 234.9158,175.1217 " fill="none" id="Stop-to-Idle" style="stroke:#000000;stroke-width:1.0;"/><polygon fill="#000000" points="229.06,173.8141,236.972,179.6793,233.9398,174.9038,238.7154,171.8716,229.06,173.8141" style="stroke:#000000;stroke-width:1.0;"/></g><!--link Idle to Idle--><g id="link_Idle_Idle"><path d="M229.11,158.8241 C246.6,156.0641 263.83,159.1041 263.83,167.9641 C263.83,176.8241 252.5267,180.7994 235.0367,178.0394 " fill="none" id="Idle-to-Idle" style="stroke:#000000;stroke-width:1.0;"/><polygon fill="#000000" points="229.11,177.1041,237.3765,182.4581,234.0489,177.8835,238.6235,174.5559,229.11,177.1041" style="stroke:#000000;stroke-width:1.0;"/></g><!--SRC=[ROz1ImD138Nl-HNFFGgbznu4HH2FRWzx40-n2JQudIaxgUY_TsTsXYtY9IJlUmzURloe9yLvP0j4RZugkeV9v4FXd3wHd5rnuiFHWdP4o_qiezQrwvLbEqpcse4J-W4xFAbZrV7-uyr-Bp9fIjKJeYXuaQhXaPqhbRnUPVSUppFQQv0YmoFy- -MY5oLwlNt3PdEtLACyordgpF79SOX1p2q6ciNCrYvVF9gWtmuDbVmE5bRIt1dNaWji_QyDV_BDKdAPvrUe_FDFvtB-0W00]--></g></svg>