<?xml version="1.0" encoding="us-ascii" standalone="no"?><svg xmlns="http://www.w3.org/2000/svg" xmlns:xlink="http://www.w3.org/1999/xlink" contentStyleType="text/css" height="421px" preserveAspectRatio="none" style="width:611px;height:421px;background:#FFFFFF;" version="1.1" viewBox="0 0 611 421" width="611px" zoomAndPan="magnify"><defs/><g><ellipse cx="324.5" cy="15" fill="#FFFFFF" rx="10" ry="10" style="stroke:#000000;stroke-width:1.0;"/><rect fill="#FFFFFF" height="36.3441" rx="12.5" ry="12.5" style="stroke:#000000;stroke-width:1.0;" width="92" x="278.5" y="45"/><text fill="#000000" font-family="Verdana" font-size="12" lengthAdjust="spacing" textLength="72" x="288.5" y="67.8281">clkEventTask</text><polygon fill="#FFFFFF" points="271.5,101.3441,377.5,101.3441,389.5,113.3441,377.5,125.3441,271.5,125.3441,259.5,113.3441,271.5,101.3441" style="stroke:#000000;stroke-width:1.0;"/><text fill="#000000" font-family="Verdana" font-size="11" lengthAdjust="spacing" textLength="106" x="271.5" y="117.6121">PlusBUS clock Edge?</text><text fill="#000000" font-family="Verdana" font-size="11" lengthAdjust="spacing" textLength="32" x="227.5" y="110.1211">Rising</text><text fill="#000000" font-family="Verdana" font-size="11" lengthAdjust="spacing" textLength="35" x="389.5" y="110.1211">Falling</text><polygon fill="#FFFFFF" points="150,135.3441,208,135.3441,220,147.3441,208,159.3441,150,159.3441,138,147.3441,150,135.3441" style="stroke:#000000;stroke-width:1.0;"/><text fill="#000000" font-family="Verdana" font-size="11" lengthAdjust="spacing" textLength="58" x="150" y="151.6121">Read/Write</text><text fill="#000000" font-family="Verdana" font-size="11" lengthAdjust="spacing" textLength="26" x="112" y="144.1211">Read</text><text fill="#000000" font-family="Verdana" font-size="11" lengthAdjust="spacing" textLength="28" x="220" y="144.1211">Write</text><rect fill="#FFFFFF" height="52.6882" rx="12.5" ry="12.5" style="stroke:#000000;stroke-width:1.0;" width="179" x="6" y="169.3441"/><text fill="#000000" font-family="Verdana" font-size="12" lengthAdjust="spacing" textLength="159" x="16" y="192.1722">Set data bus to passive state</text><text fill="#000000" font-family="Verdana" font-size="12" lengthAdjust="spacing" textLength="95" x="16" y="208.5163">(external pull-up)</text><rect fill="#FFFFFF" height="36.3441" rx="12.5" ry="12.5" style="stroke:#000000;stroke-width:1.0;" width="115" x="205" y="169.3441"/><text fill="#000000" font-family="Verdana" font-size="12" lengthAdjust="spacing" textLength="95" x="215" y="192.1722">Write to data bus</text><polygon fill="#FFFFFF" points="179,228.0323,191,240.0323,179,252.0323,167,240.0323,179,228.0323" style="stroke:#000000;stroke-width:1.0;"/><rect fill="#FFFFFF" height="36.3441" rx="12.5" ry="12.5" style="stroke:#000000;stroke-width:1.0;" width="220" x="360" y="184.8351"/><text fill="#000000" font-family="Verdana" font-size="12" lengthAdjust="spacing" textLength="200" x="370" y="207.6631">Latch data bus and send to rxQueue</text><polygon fill="#FFFFFF" points="441,135.3441,499,135.3441,511,147.3441,499,159.3441,441,159.3441,429,147.3441,441,135.3441" style="stroke:#000000;stroke-width:1.0;"/><text fill="#000000" font-family="Verdana" font-size="11" lengthAdjust="spacing" textLength="26" x="474" y="171.103">Read</text><text fill="#000000" font-family="Verdana" font-size="11" lengthAdjust="spacing" textLength="58" x="441" y="151.6121">Read/Write</text><text fill="#000000" font-family="Verdana" font-size="11" lengthAdjust="spacing" textLength="28" x="511" y="144.1211">Write</text><polygon fill="#FFFFFF" points="470,246.6701,482,258.6701,470,270.6701,458,258.6701,470,246.6701" style="stroke:#000000;stroke-width:1.0;"/><rect fill="#FFFFFF" height="52.6882" rx="12.5" ry="12.5" style="stroke:#000000;stroke-width:1.0;" width="218" x="361" y="290.6701"/><text fill="#000000" font-family="Verdana" font-size="12" lengthAdjust="spacing" textLength="198" x="371" y="313.4982">Setup control lines and address bus</text><text fill="#000000" font-family="Verdana" font-size="12" lengthAdjust="spacing" textLength="105" x="371" y="329.8423">for next clock cycle</text><polygon fill="#FFFFFF" points="324.5,349.3583,336.5,361.3583,324.5,373.3583,312.5,361.3583,324.5,349.3583" style="stroke:#000000;stroke-width:1.0;"/><ellipse cx="324.5" cy="404.3583" fill="none" rx="11" ry="11" style="stroke:#000000;stroke-width:1.0;"/><ellipse cx="324.5" cy="404.3583" fill="#FFFFFF" rx="6" ry="6" style="stroke:#000000;stroke-width:1.0;"/><line style="stroke:#000000;stroke-width:1.0;" x1="324.5" x2="324.5" y1="25" y2="45"/><polygon fill="#000000" points="320.5,35,324.5,45,328.5,35,324.5,39" style="stroke:#000000;stroke-width:1.0;"/><line style="stroke:#000000;stroke-width:1.0;" x1="138" x2="95.5" y1="147.3441" y2="147.3441"/><line style="stroke:#000000;stroke-width:1.0;" x1="95.5" x2="95.5" y1="147.3441" y2="169.3441"/><polygon fill="#000000" points="91.5,159.3441,95.5,169.3441,99.5,159.3441,95.5,163.3441" style="stroke:#000000;stroke-width:1.0;"/><line style="stroke:#000000;stroke-width:1.0;" x1="220" x2="262.5" y1="147.3441" y2="147.3441"/><line style="stroke:#000000;stroke-width:1.0;" x1="262.5" x2="262.5" y1="147.3441" y2="169.3441"/><polygon fill="#000000" points="258.5,159.3441,262.5,169.3441,266.5,159.3441,262.5,163.3441" style="stroke:#000000;stroke-width:1.0;"/><line style="stroke:#000000;stroke-width:1.0;" x1="95.5" x2="95.5" y1="222.0323" y2="240.0323"/><line style="stroke:#000000;stroke-width:1.0;" x1="95.5" x2="167" y1="240.0323" y2="240.0323"/><polygon fill="#000000" points="157,236.0323,167,240.0323,157,244.0323,161,240.0323" style="stroke:#000000;stroke-width:1.0;"/><line style="stroke:#000000;stroke-width:1.0;" x1="262.5" x2="262.5" y1="205.6882" y2="240.0323"/><line style="stroke:#000000;stroke-width:1.0;" x1="262.5" x2="191" y1="240.0323" y2="240.0323"/><polygon fill="#000000" points="201,236.0323,191,240.0323,201,244.0323,197,240.0323" style="stroke:#000000;stroke-width:1.0;"/><line style="stroke:#000000;stroke-width:1.0;" x1="470" x2="470" y1="159.3441" y2="184.8351"/><polygon fill="#000000" points="466,174.8351,470,184.8351,474,174.8351,470,178.8351" style="stroke:#000000;stroke-width:1.0;"/><line style="stroke:#000000;stroke-width:1.0;" x1="511" x2="590" y1="147.3441" y2="147.3441"/><polygon fill="#000000" points="586,193.0071,590,203.0071,594,193.0071,590,197.0071" style="stroke:#000000;stroke-width:1.0;"/><line style="stroke:#000000;stroke-width:1.0;" x1="590" x2="590" y1="147.3441" y2="258.6701"/><line style="stroke:#000000;stroke-width:1.0;" x1="590" x2="482" y1="258.6701" y2="258.6701"/><polygon fill="#000000" points="492,254.6701,482,258.6701,492,262.6701,488,258.6701" style="stroke:#000000;stroke-width:1.0;"/><line style="stroke:#000000;stroke-width:1.0;" x1="470" x2="470" y1="221.1792" y2="246.6701"/><polygon fill="#000000" points="466,236.6701,470,246.6701,474,236.6701,470,240.6701" style="stroke:#000000;stroke-width:1.0;"/><line style="stroke:#000000;stroke-width:1.0;" x1="470" x2="470" y1="270.6701" y2="290.6701"/><polygon fill="#000000" points="466,280.6701,470,290.6701,474,280.6701,470,284.6701" style="stroke:#000000;stroke-width:1.0;"/><line style="stroke:#000000;stroke-width:1.0;" x1="259.5" x2="179" y1="113.3441" y2="113.3441"/><line style="stroke:#000000;stroke-width:1.0;" x1="179" x2="179" y1="113.3441" y2="135.3441"/><polygon fill="#000000" points="175,125.3441,179,135.3441,183,125.3441,179,129.3441" style="stroke:#000000;stroke-width:1.0;"/><line style="stroke:#000000;stroke-width:1.0;" x1="389.5" x2="470" y1="113.3441" y2="113.3441"/><line style="stroke:#000000;stroke-width:1.0;" x1="470" x2="470" y1="113.3441" y2="135.3441"/><polygon fill="#000000" points="466,125.3441,470,135.3441,474,125.3441,470,129.3441" style="stroke:#000000;stroke-width:1.0;"/><line style="stroke:#000000;stroke-width:1.0;" x1="179" x2="179" y1="252.0323" y2="361.3583"/><line style="stroke:#000000;stroke-width:1.0;" x1="179" x2="312.5" y1="361.3583" y2="361.3583"/><polygon fill="#000000" points="302.5,357.3583,312.5,361.3583,302.5,365.3583,306.5,361.3583" style="stroke:#000000;stroke-width:1.0;"/><line style="stroke:#000000;stroke-width:1.0;" x1="470" x2="470" y1="343.3583" y2="361.3583"/><line style="stroke:#000000;stroke-width:1.0;" x1="470" x2="336.5" y1="361.3583" y2="361.3583"/><polygon fill="#000000" points="346.5,357.3583,336.5,361.3583,346.5,365.3583,342.5,361.3583" style="stroke:#000000;stroke-width:1.0;"/><line style="stroke:#000000;stroke-width:1.0;" x1="324.5" x2="324.5" y1="81.3441" y2="101.3441"/><polygon fill="#000000" points="320.5,91.3441,324.5,101.3441,328.5,91.3441,324.5,95.3441" style="stroke:#000000;stroke-width:1.0;"/><line style="stroke:#000000;stroke-width:1.0;" x1="324.5" x2="324.5" y1="373.3583" y2="393.3583"/><polygon fill="#000000" points="320.5,383.3583,324.5,393.3583,328.5,383.3583,324.5,387.3583" style="stroke:#000000;stroke-width:1.0;"/><!--SRC=[ZP0_JmCn3CNt-nHckniGUpiW8PM90LeGInUJ-DheZ1F5JbM-FKd3duM1BOhV-xrdNzcHtWaIOv113RCDAyVBvaHYpwZBUWWpZ8zSzEvb1uwZMs3Z3tGxGNKAZDkWGGxJ0D24Mq9_yvg3qS-y_hGfm6f71XuDuQqeM8I4gk54K6EDzZBIsIWBCgJ2V5tIjAu-OYKOEx9ZBk_c_sPTPEB3F7JnFJB_jzC3cZl-jaBne9NLyFdyLAZG7oLwMD-e971HB4U66aeTWTvdKct8lSmnWzJTlgxdFXnNQ6UenVG9]--></g></svg>