<?xml version="1.0" encoding="us-ascii" standalone="no"?><svg xmlns="http://www.w3.org/2000/svg" xmlns:xlink="http://www.w3.org/1999/xlink" contentStyleType="text/css" height="717px" preserveAspectRatio="none" style="width:673px;height:717px;background:#FFFFFF;" version="1.1" viewBox="0 0 673 717" width="673px" zoomAndPan="magnify"><defs/><g><text fill="#000000" font-family="Verdana" font-size="22" font-weight="bold" lengthAdjust="spacing" textLength="290" x="187.245" y="38.5181">Bridge task state machine</text><g id="Idle"><rect fill="#FFFFFF" height="50" rx="12.5" ry="12.5" style="stroke:#000000;stroke-width:1.0;" width="50" x="225.49" y="142.9641"/><line style="stroke:#000000;stroke-width:1.0;" x1="225.49" x2="275.49" y1="172.032" y2="172.032"/><text fill="#000000" font-family="Verdana" font-size="14" lengthAdjust="spacing" textLength="26" x="237.49" y="162.93">Idle</text></g><g id="RW"><rect fill="#FFFFFF" height="55.412" rx="12.5" ry="12.5" style="stroke:#000000;stroke-width:1.0;" width="132" x="48.49" y="271.9641"/><line style="stroke:#000000;stroke-width:1.0;" x1="48.49" x2="180.49" y1="301.032" y2="301.032"/><text fill="#000000" font-family="Verdana" font-size="14" lengthAdjust="spacing" textLength="75" x="76.99" y="291.93">Read/Write</text><text fill="#000000" font-family="Verdana" font-size="12" lengthAdjust="spacing" textLength="112" x="53.49" y="318.8601">Get Read/Write byte</text></g><g id="Address"><rect fill="#FFFFFF" height="55.412" rx="12.5" ry="12.5" style="stroke:#000000;stroke-width:1.0;" width="119" x="190.99" y="405.9641"/><line style="stroke:#000000;stroke-width:1.0;" x1="190.99" x2="309.99" y1="435.032" y2="435.032"/><text fill="#000000" font-family="Verdana" font-size="14" lengthAdjust="spacing" textLength="55" x="222.99" y="425.93">Address</text><text fill="#000000" font-family="Verdana" font-size="12" lengthAdjust="spacing" textLength="99" x="195.99" y="452.8601">Get node address</text></g><g id="Data"><rect fill="#FFFFFF" height="55.412" rx="12.5" ry="12.5" style="stroke:#000000;stroke-width:1.0;" width="95" x="234.99" y="539.9641"/><line style="stroke:#000000;stroke-width:1.0;" x1="234.99" x2="329.99" y1="569.032" y2="569.032"/><text fill="#000000" font-family="Verdana" font-size="14" lengthAdjust="spacing" textLength="31" x="266.99" y="559.93">Data</text><text fill="#000000" font-family="Verdana" font-size="12" lengthAdjust="spacing" textLength="75" x="239.99" y="586.8601">Get data byte</text></g><g id="Stop"><rect fill="#FFFFFF" height="55.412" rx="12.5" ry="12.5" style="stroke:#000000;stroke-width:1.0;" width="139" x="324.99" y="655.9641"/><line style="stroke:#000000;stroke-width:1.0;" x1="324.99" x2="463.99" y1="685.032" y2="685.032"/><text fill="#000000" font-family="Verdana" font-size="14" lengthAdjust="spacing" textLength="30" x="379.49" y="675.93">Stop</text><text fill="#000000" font-family="Verdana" font-size="12" lengthAdjust="spacing" textLength="119" x="329.99" y="702.8601">Send byte to txQueue</text></g><ellipse cx="250.49" cy="71.9641" fill="#FFFFFF" rx="10" ry="10" style="stroke:#000000;stroke-width:1.0;"/><!--link *start* to Idle--><g id="link_*start*_Idle"><path d="M250.49,81.9741 C250.49,95.8541 250.49,116.9341 250.49,136.8041 " fill="none" id="*start*-to-Idle" style="stroke:#000000;stroke-width:1.0;"/><polygon fill="#000000" points="250.49,142.8041,254.49,133.8041,250.49,137.8041,246.49,133.8041,250.49,142.8041" style="stroke:#000000;stroke-width:1.0;"/></g><!--link Idle to RW--><g id="link_Idle_RW"><path d="M225.27,171.1741 C171.86,176.4341 50.17,191.6541 25.49,222.9641 C11,241.3441 22.5231,255.471 45.2231,268.771 " fill="none" id="Idle-to-RW" style="stroke:#000000;stroke-width:1.0;"/><polygon fill="#000000" points="50.4,271.8041,44.6568,263.8031,46.0859,269.2765,40.6126,270.7056,50.4,271.8041" style="stroke:#000000;stroke-width:1.0;"/><text fill="#000000" font-family="Verdana" font-size="13" lengthAdjust="spacing" textLength="88" x="26.49" y="237.8611">start condition</text></g><!--link RW to Idle--><g id="link_RW_Idle"><path d="M124.64,271.6641 C131.55,256.0641 141.91,236.8041 155.49,222.9641 C175.42,202.6441 199.1035,189.9871 219.8535,181.0071 " fill="none" id="RW-to-Idle" style="stroke:#000000;stroke-width:1.0;"/><polygon fill="#000000" points="225.36,178.6241,215.5116,178.5277,220.7713,180.61,218.689,185.8696,225.36,178.6241" style="stroke:#000000;stroke-width:1.0;"/><text fill="#000000" font-family="Verdana" font-size="13" lengthAdjust="spacing" textLength="67" x="156.49" y="237.8611">invalid R/W</text></g><!--link RW to Address--><g id="link_RW_Address"><path d="M129.41,327.1141 C138.8,342.4641 151.89,361.5241 166.49,375.9641 C177.61,386.9641 186.153,393.823 199.093,402.423 " fill="none" id="RW-to-Address" style="stroke:#000000;stroke-width:1.0;"/><polygon fill="#000000" points="204.09,405.7441,198.8085,397.4311,199.9258,402.9765,194.3804,404.0939,204.09,405.7441" style="stroke:#000000;stroke-width:1.0;"/><text fill="#000000" font-family="Verdana" font-size="13" lengthAdjust="spacing" textLength="56" x="167.49" y="371.8611">valid R/W</text></g><!--link Address to Data--><g id="link_Address_Data"><path d="M256.97,461.1741 C262.52,484.0741 269.0562,511.0731 274.6062,533.9631 " fill="none" id="Address-to-Data" style="stroke:#000000;stroke-width:1.0;"/><polygon fill="#000000" points="276.02,539.7941,277.7866,530.105,274.8418,534.9349,270.0119,531.9901,276.02,539.7941" style="stroke:#000000;stroke-width:1.0;"/><text fill="#000000" font-family="Verdana" font-size="13" lengthAdjust="spacing" textLength="78" x="269.49" y="505.8611">valid address</text></g><!--link Address to Idle--><g id="link_Address_Idle"><path d="M250.49,405.8741 C250.49,354.5841 250.49,248.7141 250.49,199.2841 " fill="none" id="Address-to-Idle" style="stroke:#000000;stroke-width:1.0;"/><polygon fill="#000000" points="250.49,193.2841,246.49,202.2841,250.49,198.2841,254.49,202.2841,250.49,193.2841" style="stroke:#000000;stroke-width:1.0;"/><text fill="#000000" font-family="Verdana" font-size="13" lengthAdjust="spacing" textLength="89" x="251.49" y="304.8611">invalid address</text></g><!--link Data to Stop--><g id="link_Data_Stop"><path d="M308.75,595.1941 C326.72,613.4841 346.2562,633.363 364.1862,651.623 " fill="none" id="Data-to-Stop" style="stroke:#000000;stroke-width:1.0;"/><polygon fill="#000000" points="368.39,655.9041,364.9384,646.6799,364.8869,652.3365,359.2302,652.2849,368.39,655.9041" style="stroke:#000000;stroke-width:1.0;"/></g><!--link Stop to Idle--><g id="link_Stop_Idle"><path d="M394.49,655.7441 C394.49,632.6441 394.49,598.3541 394.49,568.4641 C394.49,298.4641 394.49,298.4641 394.49,298.4641 C394.49,235.2541 322.3823,197.3183 281.1223,180.4183 " fill="none" id="Stop-to-Idle" style="stroke:#000000;stroke-width:1.0;"/><polygon fill="#000000" points="275.57,178.1441,282.3823,185.2569,280.1969,180.0393,285.4146,177.8539,275.57,178.1441" style="stroke:#000000;stroke-width:1.0;"/><text fill="#000000" font-family="Verdana" font-size="13" lengthAdjust="spacing" textLength="87" x="395.49" y="438.8611">stop condition</text></g><!--link Stop to Idle--><g id="link_Stop_Idle"><path d="M464.23,662.1941 C506.95,645.0141 553.49,615.5041 553.49,568.4641 C553.49,298.4641 553.49,298.4641 553.49,298.4641 C553.49,177.9041 354.1399,168.0493 281.5399,168.3493 " fill="none" id="Stop-to-Idle-1" style="stroke:#000000;stroke-width:1.0;"/><polygon fill="#000000" points="275.54,168.3741,284.5565,172.3369,280.54,168.3534,284.5234,164.3369,275.54,168.3741" style="stroke:#000000;stroke-width:1.0;"/><text fill="#000000" font-family="Verdana" font-size="13" lengthAdjust="spacing" textLength="111" x="554.49" y="438.8611">not stop condition</text></g><!--link Idle to Idle--><g id="link_Idle_Idle"><path d="M275.77,158.8241 C293.26,156.0641 310.49,159.1041 310.49,167.9641 C310.49,176.8241 299.1867,180.7994 281.6967,178.0394 " fill="none" id="Idle-to-Idle" style="stroke:#000000;stroke-width:1.0;"/><polygon fill="#000000" points="275.77,177.1041,284.0365,182.4581,280.7089,177.8835,285.2835,174.5559,275.77,177.1041" style="stroke:#000000;stroke-width:1.0;"/></g><!--SRC=[NO-nQiGm44HxVSN4PU2u_ef0GY2aZAzm4L9iRfVS4fzqM7iX-VjOieIC6w6TDmCpTtQMY-0wadhdJ6qKT4-JyfV0A7uZ6fdWGgUpUkcSM-vN7gLykrw8zyEa9XqeeXzmm8iOcexFFwlsH-P9OYmU7rX0YrGCpsHKAAVlAdkqS9tHKJnd6HPWlsytkObpx_SVsEqUbceklVdCTURuP3W5pseQl9l5n5gN7ngLqU-7YdB-0FMDL7V2fUG2Q_-rOPElbfnBF4rnUS_A7TFTMcwn3xQrj9rvzZy0]--></g></svg>