<?xml version="1.0" encoding="UTF-8" standalone="no"?>
<!-- Created with Inkscape (http://www.inkscape.org/) -->

<svg
   version="1.1"
   id="svg2"
   width="506.55997"
   height="296"
   viewBox="0 0 506.55997 296"
   sodipodi:docname="reqspec_figure.pdf"
   xmlns:inkscape="http://www.inkscape.org/namespaces/inkscape"
   xmlns:sodipodi="http://sodipodi.sourceforge.net/DTD/sodipodi-0.dtd"
   xmlns="http://www.w3.org/2000/svg"
   xmlns:svg="http://www.w3.org/2000/svg">
  <defs
     id="defs6">
    <clipPath
       clipPathUnits="userSpaceOnUse"
       id="clipPath16">
      <path
         d="M 0,0 H 1583.3333 V 922.12854 H 0 Z"
         clip-rule="evenodd"
         id="path14" />
    </clipPath>
    <clipPath
       clipPathUnits="userSpaceOnUse"
       id="clipPath28">
      <path
         d="M 0,0 H 1583.3333 V 922.12854 H 0 Z"
         clip-rule="evenodd"
         id="path26" />
    </clipPath>
  </defs>
  <sodipodi:namedview
     id="namedview4"
     pagecolor="#ffffff"
     bordercolor="#000000"
     borderopacity="0.25"
     inkscape:showpageshadow="2"
     inkscape:pageopacity="0.0"
     inkscape:pagecheckerboard="0"
     inkscape:deskcolor="#d1d1d1" />
  <g
     id="g8"
     inkscape:groupmode="layer"
     inkscape:label="reqspec_figure"
     transform="matrix(0.31999998,0,0,0.31999998,0,7.4e-6)">
    <g
       id="g10">
      <g
         id="g12"
         clip-path="url(#clipPath16)">
        <g
           id="g18"
           transform="scale(2.9650435)">
          <path
             d="M 0,0 H 534 V 313 H 0 Z"
             style="fill:#ffffff;fill-opacity:1;fill-rule:nonzero;stroke:none"
             id="path20" />
        </g>
      </g>
    </g>
    <g
       id="g22">
      <g
         id="g24"
         clip-path="url(#clipPath28)">
        <g
           id="g30"
           transform="matrix(2.9650435,0,0,2.9650435,1.4825218,1.4825218)">
          <path
             d="m 255,256 h 90.29999 v -61.2 l 83.84002,-0.04"
             style="fill:none;stroke:#000000;stroke-width:1;stroke-linecap:butt;stroke-linejoin:miter;stroke-miterlimit:10;stroke-dasharray:none;stroke-opacity:1"
             id="path32" />
          <path
             d="m 434.39001,194.75 -7,3.50999 1.75,-3.5 -1.76001,-3.5 z"
             style="fill:#000000;fill-opacity:1;fill-rule:nonzero;stroke:none"
             id="path34" />
          <path
             d="m 434.39001,194.75 -7,3.50999 1.75,-3.5 -1.76001,-3.5 z"
             style="fill:none;stroke:#000000;stroke-width:1;stroke-linecap:butt;stroke-linejoin:miter;stroke-miterlimit:10;stroke-dasharray:none;stroke-opacity:1"
             id="path36" />
          <path
             d="m 135,226 h 120 v 60 H 135 Z"
             style="fill:#ffffff;fill-opacity:1;fill-rule:nonzero;stroke:none"
             id="path38" />
          <path
             d="m 135,226 h 120 v 60 H 135 Z"
             style="fill:none;stroke:#000000;stroke-width:1;stroke-linecap:butt;stroke-linejoin:miter;stroke-miterlimit:10;stroke-dasharray:none;stroke-opacity:1"
             id="path40" />
        </g>
        <g
           id="g42"
           transform="scale(2.9650733)">
          <text
             xml:space="preserve"
             transform="translate(139.625,253)"
             style="font-variant:normal;font-weight:normal;font-size:12px;font-family:'Liberation Sans';-inkscape-font-specification:LiberationSans;writing-mode:lr-tb;fill:#000000;fill-opacity:1;fill-rule:nonzero;stroke:none"
             id="text46"><tspan
               x="0 6.6738281 9.3398438 15.339844 18.673828 22.007812 30.673828 33.339844 36.673828 43.347656 46.681641 55.347656 62.021484 68.021484 74.695312 81.369141 87.369141 90.703125 97.376953 104.05078"
               y="0"
               sodipodi:role="line"
               id="tspan44">List with Hashes and</tspan></text>
          <text
             xml:space="preserve"
             transform="translate(181.65625,268)"
             style="font-variant:normal;font-weight:normal;font-size:12px;font-family:'Liberation Sans';-inkscape-font-specification:LiberationSans;writing-mode:lr-tb;fill:#000000;fill-opacity:1;fill-rule:nonzero;stroke:none"
             id="text50"><tspan
               x="0 8.0039062 14.677734 17.34375 20.677734"
               y="0"
               sodipodi:role="line"
               id="tspan48">Salts</tspan></text>
        </g>
        <g
           id="g52"
           transform="matrix(2.9650435,0,0,2.9650435,1.4825218,1.4825218)">
          <path
             d="m 261.37,56 h 83.92999 v 61.2 L 435.5,117.25"
             style="fill:none;stroke:#000000;stroke-width:1;stroke-linecap:butt;stroke-linejoin:miter;stroke-miterlimit:10;stroke-dasharray:none;stroke-opacity:1"
             id="path54" />
          <path
             d="m 256.12,56 7,-3.5 -1.75,3.5 1.75,3.5 z"
             style="fill:#000000;fill-opacity:1;fill-rule:nonzero;stroke:none"
             id="path56" />
          <path
             d="m 256.12,56 7,-3.5 -1.75,3.5 1.75,3.5 z"
             style="fill:none;stroke:#000000;stroke-width:1;stroke-linecap:butt;stroke-linejoin:miter;stroke-miterlimit:10;stroke-dasharray:none;stroke-opacity:1"
             id="path58" />
          <path
             d="M 135,26 H 255 V 86 H 135 Z"
             style="fill:#ffffff;fill-opacity:1;fill-rule:nonzero;stroke:none"
             id="path60" />
          <path
             d="M 135,26 H 255 V 86 H 135 Z"
             style="fill:none;stroke:#000000;stroke-width:1;stroke-linecap:butt;stroke-linejoin:miter;stroke-miterlimit:10;stroke-dasharray:none;stroke-opacity:1"
             id="path62" />
        </g>
        <g
           id="g64"
           transform="scale(2.9650733)">
          <text
             xml:space="preserve"
             transform="translate(141.64062,60)"
             style="font-variant:normal;font-weight:normal;font-size:12px;font-family:'Liberation Sans';-inkscape-font-specification:LiberationSans;writing-mode:lr-tb;fill:#000000;fill-opacity:1;fill-rule:nonzero;stroke:none"
             id="text68"><tspan
               x="0 8.6660156 12.662109 19.335938 25.335938 31.335938 38.009766 44.683594 48.017578 56.021484 62.695312 68.695312 74.695312 83.361328 90.035156 94.03125 100.70508"
               y="0"
               sodipodi:role="line"
               id="tspan66">Cracked Passwords</tspan></text>
        </g>
        <g
           id="g70"
           transform="matrix(2.9650435,0,0,2.9650435,1.4825218,1.4825218)">
          <path
             d="M 255,156 H 429.14001"
             style="fill:none;stroke:#000000;stroke-width:1;stroke-linecap:butt;stroke-linejoin:miter;stroke-miterlimit:10;stroke-dasharray:none;stroke-opacity:1"
             id="path72" />
          <path
             d="m 434.39001,156 -7,3.5 1.75,-3.5 -1.75,-3.5 z"
             style="fill:#000000;fill-opacity:1;fill-rule:nonzero;stroke:none"
             id="path74" />
          <path
             d="m 434.39001,156 -7,3.5 1.75,-3.5 -1.75,-3.5 z"
             style="fill:none;stroke:#000000;stroke-width:1;stroke-linecap:butt;stroke-linejoin:miter;stroke-miterlimit:10;stroke-dasharray:none;stroke-opacity:1"
             id="path76" />
          <path
             d="m 135,126 h 120 v 60 H 135 Z"
             style="fill:#ffffff;fill-opacity:1;fill-rule:nonzero;stroke:none"
             id="path78" />
          <path
             d="m 135,126 h 120 v 60 H 135 Z"
             style="fill:none;stroke:#000000;stroke-width:1;stroke-linecap:butt;stroke-linejoin:miter;stroke-miterlimit:10;stroke-dasharray:none;stroke-opacity:1"
             id="path80" />
        </g>
        <g
           id="g82"
           transform="scale(2.9650733)">
          <text
             xml:space="preserve"
             transform="translate(173.4375,160)"
             style="font-variant:normal;font-weight:normal;font-size:12px;font-family:'Liberation Sans';-inkscape-font-specification:LiberationSans;writing-mode:lr-tb;fill:#000000;fill-opacity:1;fill-rule:nonzero;stroke:none"
             id="text86"><tspan
               x="0 11.109375 17.783203 21.779297 28.453125 31.119141 33.785156 39.785156"
               y="0"
               sodipodi:role="line"
               id="tspan84">Wordlist</tspan></text>
        </g>
        <g
           id="g88"
           transform="matrix(0,2.9650435,-2.9650435,0,1888.7328,-960.67413)">
          <path
             d="m 403,111 h 155 v 90 H 403 Z"
             style="fill:#ffffff;fill-opacity:1;fill-rule:nonzero;stroke:none"
             id="path90" />
          <path
             d="m 403,111 h 155 v 90 H 403 Z"
             style="fill:none;stroke:#000000;stroke-width:1;stroke-linecap:butt;stroke-linejoin:miter;stroke-miterlimit:10;stroke-dasharray:none;stroke-opacity:1"
             id="path92" />
        </g>
        <g
           id="g94"
           transform="scale(2.9650733)">
          <text
             xml:space="preserve"
             transform="translate(441.64063,153)"
             style="font-variant:normal;font-weight:normal;font-size:12px;font-family:'Liberation Sans';-inkscape-font-specification:LiberationSans;writing-mode:lr-tb;fill:#000000;fill-opacity:1;fill-rule:nonzero;stroke:none"
             id="text98"><tspan
               x="0 8.6660156 15.339844 21.339844 28.013672 31.347656 40.013672 44.009766 50.683594 56.683594 62.683594 65.349609 72.023438"
               y="0"
               sodipodi:role="line"
               id="tspan96">Hash Cracking</tspan></text>
          <text
             xml:space="preserve"
             transform="translate(461.98438,168)"
             style="font-variant:normal;font-weight:normal;font-size:12px;font-family:'Liberation Sans';-inkscape-font-specification:LiberationSans;writing-mode:lr-tb;fill:#000000;fill-opacity:1;fill-rule:nonzero;stroke:none"
             id="text102"><tspan
               x="0 8.6660156 11.332031 18.005859 24.005859 27.339844 34.013672"
               y="0"
               sodipodi:role="line"
               id="tspan100">Cluster</tspan></text>
        </g>
        <g
           id="g104"
           transform="matrix(0,-2.9650435,2.9650435,0,117.11922,1042.2128)">
          <path
             d="m 61.220161,76.25 h 8.000084 v 1 h -8.000084 z m 16.000161,0 h 8.000076 v 1 h -8.000076 z m 16.00016,0 h 8.000088 v 1 h -8.000088 z m 16.000158,0 h 8.00008 v 1 h -8.00008 z m 16.00016,0 h 8.00009 v 1 h -8.00009 z m 16.00016,0 h 8.00008 v 1 h -8.00008 z m 16.00017,0 h 8.00008 v 1 h -8.00008 z m 16.00015,0 h 8.00008 v 1 h -8.00008 z m 16.00016,0 h 8.00009 v 1 h -8.00009 z m 16.00016,0 h 8.00008 v 1 h -8.00008 z m 16.00017,0 h 8.00009 v 1 h -8.00009 z m 16.00015,0 h 8.00008 v 1 h -8.00008 z m 16.00016,0 h 8.00009 v 1 h -8.00009 z m 16.00015,0 h 8.00009 v 1 h -8.00009 z m 16.00018,0 h 8.00006 v 1 h -8.00006 z m 16.00015,0 h 8.0001 v 1 h -8.0001 z m 16.00016,0 h 8.00009 v 1 h -8.00009 z m 16.00015,0 h 8.00009 v 1 h -8.00009 z M 345.28,81.193054 v 8.000061 h -1 v -8.000061 z m 0,16.000153 v 8.000093 h -1 v -8.000093 z m 0,16.000153 v 8.00009 h -1 v -8.00009 z m 0,16.00018 v 8.00006 h -1 v -8.00006 z m 0,16.00015 v 8.00007 h -1 v -8.00007 z m 0,16.00016 v 8.00009 h -1 v -8.00009 z m 0,16.00015 v 8.00009 h -1 V 177.194 Z m 0,16.00015 v 8.00009 h -1 v -8.00009 z m 0,16.00019 v 8.00006 h -1 v -8.00006 z m 0,16.00015 v 8.00009 h -1 v -8.00009 z M 338.83536,235.75 h -8.00009 v -1 h 8.00009 z m -16.00019,0 h -8.00006 v -1 h 8.00006 z m -16.00015,0 h -8.00006 v -1 h 8.00006 z m -16.00015,0 h -8.00006 v -1 h 8.00006 z m -16.00018,0 h -8.00006 v -1 h 8.00006 z m -16.00013,0 h -8.00012 v -1 h 8.00012 z m -16.00018,0 h -8.00006 v -1 h 8.00006 z m -16.00012,0 h -8.00012 v -1 h 8.00012 z m -16.00018,0 h -8.00007 v -1 h 8.00007 z m -16.00019,0 h -8.00006 v -1 h 8.00006 z m -16.00012,0 h -8.00012 v -1 h 8.00012 z m -16.00018,0 h -8.00006 v -1 h 8.00006 z m -16.00019,0 h -8.00006 v -1 h 8.00006 z m -16.00012,0 h -8.00012 v -1 h 8.00012 z m -16.00018,0 h -8.00006 v -1 h 8.00006 z m -16.000199,0 H 90.83284 v -1 h 8.000061 z m -16.000107,0 h -8.000061 v -1 h 8.000061 z m -16.000183,0 H 58.83255 v -1 h 8.000061 z m -16.000122,0 h -6.112488 v -2.88763 h 1 V 235.25 h -0.5 v -0.5 h 5.612488 z m -6.112488,-10.8877 v -8.00006 h 1 v 8.00006 z m 0,-16.00018 v -8.00006 h 1 v 8.00006 z m 0,-16.00012 v -8.00012 h 1 v 8.00012 z m 0,-16.00018 v -8.00006 h 1 v 8.00006 z m 0,-16.00013 v -8.00012 h 1 v 8.00012 z m 0,-16.00018 v -8.00006 h 1 v 8.00006 z m 0,-16.00018 v -8.00006 h 1 v 8.00006 z m 0,-16.00012 v -8.00013 h 1 v 8.00013 z m 0,-16.000187 v -8.000061 h 1 v 8.000061 z m 0,-16.000183 V 76.25 h 8.50008 v 1 h -8.00008 v -0.5 h 0.5 v 4.11084 z"
             style="fill:#000000;fill-opacity:1;fill-rule:nonzero;stroke:none"
             id="path106" />
        </g>
        <g
           id="g108"
           transform="scale(2.9650733)">
          <text
             xml:space="preserve"
             transform="translate(4.984375,162)"
             style="font-variant:normal;font-weight:normal;font-size:18px;font-family:'Liberation Sans';-inkscape-font-specification:LiberationSans;writing-mode:lr-tb;fill:#000000;fill-opacity:1;fill-rule:nonzero;stroke:none"
             id="text112"><tspan
               x="0 14.000977 19.995117 28.995117 39.005859 49.016602 58.016602 63.017578 69.011719 79.022461 84.023438 94.03418"
               y="0"
               sodipodi:role="line"
               id="tspan110">Orchestrator</tspan></text>
        </g>
      </g>
    </g>
  </g>
</svg>
