<?xml version="1.0" encoding="us-ascii" standalone="no"?><svg xmlns="http://www.w3.org/2000/svg" xmlns:xlink="http://www.w3.org/1999/xlink" contentStyleType="text/css" height="658px" preserveAspectRatio="none" style="width:656px;height:658px;background:#FFFFFF;" version="1.1" viewBox="0 0 656 658" width="656px" zoomAndPan="magnify"><defs/><g><text fill="#000000" font-family="Verdana" font-size="22" font-weight="bold" lengthAdjust="spacing" textLength="178" x="231.25" y="38.5181">Message Sender</text><!--cluster RUNNING--><g id="cluster_RUNNING"><path d="M174,136.9641 L630,136.9641 A12.5,12.5 0 0 1 642.5,149.4641 L642.5,161.032 L161.5,161.032 L161.5,149.4641 A12.5,12.5 0 0 1 174,136.9641 " fill="#FFFFFF" style="stroke:#FFFFFF;stroke-width:1.0;"/><path d="M161.5,161.032 L642.5,161.032 L642.5,632.4641 A12.5,12.5 0 0 1 630,644.9641 L174,644.9641 A12.5,12.5 0 0 1 161.5,632.4641 L161.5,161.032 " fill="#FFFFFF" style="stroke:#FFFFFF;stroke-width:1.0;"/><rect fill="none" height="508" rx="12.5" ry="12.5" style="stroke:#000000;stroke-width:1.0;" width="481" x="161.5" y="136.9641"/><line style="stroke:#000000;stroke-width:1.0;" x1="161.5" x2="642.5" y1="161.032" y2="161.032"/><text fill="#000000" font-family="Verdana" font-size="14" lengthAdjust="spacing" textLength="67" x="368.5" y="155.93">RUNNING</text></g><g id="RUNNING.IDLE"><rect fill="#FFFFFF" height="55.412" rx="12.5" ry="12.5" style="stroke:#000000;stroke-width:1.0;" width="128" x="207.5" y="182.9641"/><line style="stroke:#000000;stroke-width:1.0;" x1="207.5" x2="335.5" y1="212.032" y2="212.032"/><text fill="#000000" font-family="Verdana" font-size="14" lengthAdjust="spacing" textLength="30" x="256.5" y="202.93">IDLE</text><text fill="#000000" font-family="Verdana" font-size="12" lengthAdjust="spacing" textLength="108" x="212.5" y="229.8601">Awaiting password.</text></g><g id="RUNNING.START"><rect fill="#FFFFFF" height="55.412" rx="12.5" ry="12.5" style="stroke:#000000;stroke-width:1.0;" width="155" x="194" y="378.9641"/><line style="stroke:#000000;stroke-width:1.0;" x1="194" x2="349" y1="408.032" y2="408.032"/><text fill="#000000" font-family="Verdana" font-size="14" lengthAdjust="spacing" textLength="42" x="250.5" y="398.93">START</text><text fill="#000000" font-family="Verdana" font-size="12" lengthAdjust="spacing" textLength="135" x="199" y="425.8601">Transmit start delimiter.</text></g><g id="RUNNING.DATA"><rect fill="#FFFFFF" height="71.7561" rx="12.5" ry="12.5" style="stroke:#000000;stroke-width:1.0;" width="309" x="237" y="548.9641"/><line style="stroke:#000000;stroke-width:1.0;" x1="237" x2="546" y1="578.032" y2="578.032"/><text fill="#000000" font-family="Verdana" font-size="14" lengthAdjust="spacing" textLength="36" x="373.5" y="568.93">DATA</text><text fill="#000000" font-family="Verdana" font-size="12" lengthAdjust="spacing" textLength="134" x="242" y="595.8601">Transmit message byte.</text><text fill="#000000" font-family="Verdana" font-size="12" lengthAdjust="spacing" textLength="289" x="242" y="612.2042">Go to next byte if orchestrator reads from this node.</text></g><g id="RUNNING.STOP"><rect fill="#FFFFFF" height="55.412" rx="12.5" ry="12.5" style="stroke:#000000;stroke-width:1.0;" width="153" x="437" y="378.9641"/><line style="stroke:#000000;stroke-width:1.0;" x1="437" x2="590" y1="408.032" y2="408.032"/><text fill="#000000" font-family="Verdana" font-size="14" lengthAdjust="spacing" textLength="35" x="496" y="398.93">STOP</text><text fill="#000000" font-family="Verdana" font-size="12" lengthAdjust="spacing" textLength="133" x="442" y="425.8601">Transmit stop delimiter.</text></g><ellipse cx="271.5" cy="71.9641" fill="#FFFFFF" rx="10" ry="10" style="stroke:#000000;stroke-width:1.0;"/><g id="RESET"><rect fill="#FFFFFF" height="55.412" rx="12.5" ry="12.5" style="stroke:#000000;stroke-width:1.0;" width="61" x="12" y="182.9641"/><line style="stroke:#000000;stroke-width:1.0;" x1="12" x2="73" y1="212.032" y2="212.032"/><text fill="#000000" font-family="Verdana" font-size="14" lengthAdjust="spacing" textLength="41" x="22" y="202.93">RESET</text><text fill="#000000" font-family="Verdana" font-size="12" lengthAdjust="spacing" textLength="3" x="17" y="229.8601">&#160;</text></g><!--reverse link IDLE to IDLE--><g id="link_IDLE_IDLE"><path d="M341.7694,199.6872 C361.2594,199.9572 370.5,203.4941 370.5,210.4641 C370.5,217.4341 355.26,221.0541 335.77,221.3241 " fill="none" id="IDLE-backto-IDLE" style="stroke:#000000;stroke-width:1.0;"/><polygon fill="#000000" points="335.77,199.6041,344.7137,203.7284,340.7695,199.6734,344.8245,195.7292,335.77,199.6041" style="stroke:#000000;stroke-width:1.0;"/><text fill="#000000" font-family="Verdana" font-size="13" lengthAdjust="spacing" textLength="23" x="376.5" y="215.8611">else</text></g><!--link IDLE to START--><g id="link_IDLE_START"><path d="M271.5,238.0341 C271.5,275.0841 271.5,335.8641 271.5,372.9041 " fill="none" id="IDLE-to-START" style="stroke:#000000;stroke-width:1.0;"/><polygon fill="#000000" points="271.5,378.9041,275.5,369.9041,271.5,373.9041,267.5,369.9041,271.5,378.9041" style="stroke:#000000;stroke-width:1.0;"/><text fill="#000000" font-family="Verdana" font-size="13" lengthAdjust="spacing" textLength="157" x="272.5" y="313.8611">if password_valid_latch = 1</text></g><!--reverse link START to START--><g id="link_START_START"><path d="M355.0565,395.9186 C374.9965,396.5986 384,399.9741 384,406.4641 C384,412.9541 369,416.5341 349.06,417.2141 " fill="none" id="START-backto-START" style="stroke:#000000;stroke-width:1.0;"/><polygon fill="#000000" points="349.06,395.7141,357.9184,400.0185,354.0571,395.8845,358.1911,392.0232,349.06,395.7141" style="stroke:#000000;stroke-width:1.0;"/><text fill="#000000" font-family="Verdana" font-size="13" lengthAdjust="spacing" textLength="23" x="390" y="411.8611">else</text></g><!--link START to DATA--><g id="link_START_DATA"><path d="M243.61,434.1041 C236.28,442.8441 229.36,453.1141 225.5,463.9641 C217.31,486.9941 211.72,498.7741 225.5,518.9641 C233.7,530.9841 239.465,537.4803 251.615,545.4603 " fill="none" id="START-to-DATA" style="stroke:#000000;stroke-width:1.0;"/><polygon fill="#000000" points="256.63,548.7541,251.3033,540.47,252.4508,546.0092,246.9115,547.1567,256.63,548.7541" style="stroke:#000000;stroke-width:1.0;"/><text fill="#000000" font-family="Verdana" font-size="13" lengthAdjust="spacing" textLength="3" x="226.5" y="478.8611">&#160;</text><text fill="#000000" font-family="Verdana" font-size="13" lengthAdjust="spacing" textLength="85" x="226.5" y="496.5671">if orchestrator</text><text fill="#000000" font-family="Verdana" font-size="13" lengthAdjust="spacing" textLength="121" x="226.5" y="514.2731">reads from this note</text></g><!--reverse link STOP to DATA--><g id="link_STOP_DATA"><path d="M431.2051,428.4964 C412.2851,436.8864 399.74,446.5541 388.5,463.9641 C372.4,488.9141 375.15,523.2741 380.76,548.8341 " fill="none" id="STOP-backto-DATA" style="stroke:#000000;stroke-width:1.0;"/><polygon fill="#000000" points="436.69,426.0641,426.8411,426.0559,432.1193,428.091,430.0842,433.3691,436.69,426.0641" style="stroke:#000000;stroke-width:1.0;"/><text fill="#000000" font-family="Verdana" font-size="13" lengthAdjust="spacing" textLength="87" x="389.5" y="496.8611">if end of buffer</text></g><!--reverse link STOP to DATA--><g id="link_STOP_DATA"><path d="M509.9324,440.311 C506.4224,464.331 499.33,493.5841 481.5,518.9641 C473.63,530.1641 463.21,540.1441 452.25,548.7341 " fill="none" id="STOP-backto-DATA-1" style="stroke:#000000;stroke-width:1.0;"/><polygon fill="#000000" points="510.8,434.3741,505.5407,442.7012,510.077,439.3216,513.4566,443.8579,510.8,434.3741" style="stroke:#000000;stroke-width:1.0;"/><text fill="#000000" font-family="Verdana" font-size="13" lengthAdjust="spacing" textLength="3" x="505.5" y="478.8611">&#160;</text><text fill="#000000" font-family="Verdana" font-size="13" lengthAdjust="spacing" textLength="77" x="505.5" y="496.5671">if next byte =</text><text fill="#000000" font-family="Verdana" font-size="13" lengthAdjust="spacing" textLength="96" x="505.5" y="514.2731">start of padding</text></g><!--reverse link DATA to DATA--><g id="link_DATA_DATA"><path d="M552.1056,570.3929 C573.0256,572.9529 581,577.3241 581,584.9641 C581,592.6041 567.07,597.7041 546.15,600.2641 " fill="none" id="DATA-backto-DATA" style="stroke:#000000;stroke-width:1.0;"/><polygon fill="#000000" points="546.15,569.6641,554.5975,574.7277,551.113,570.2714,555.5692,566.7869,546.15,569.6641" style="stroke:#000000;stroke-width:1.0;"/><text fill="#000000" font-family="Verdana" font-size="13" lengthAdjust="spacing" textLength="23" x="587" y="590.3611">else</text></g><!--reverse link IDLE to STOP--><g id="link_IDLE_STOP"><path d="M341.2502,238.9293 C374.2902,253.8193 408.35,272.5241 438.5,298.9641 C464.51,321.7741 486.22,355.3641 499.48,378.6941 " fill="none" id="IDLE-backto-STOP" style="stroke:#000000;stroke-width:1.0;"/><polygon fill="#000000" points="335.78,236.4641,342.3418,243.8087,340.3385,238.5184,345.6287,236.5152,335.78,236.4641" style="stroke:#000000;stroke-width:1.0;"/></g><!--link *start* to IDLE--><g id="link_*start*_IDLE"><path d="M271.5,82.3441 C271.5,102.7641 271.5,145.8741 271.5,176.7241 " fill="none" id="*start*-to-IDLE" style="stroke:#000000;stroke-width:1.0;"/><polygon fill="#000000" points="271.5,182.7241,275.5,173.7241,271.5,177.7241,267.5,173.7241,271.5,182.7241" style="stroke:#000000;stroke-width:1.0;"/></g><!--reverse link RESET to RUNNING--><g id="link_RESET_RUNNING"><path d="M79.24,210.4641 C96.86,210.4641 113.1125,210.4641 131.7825,210.4641 C141.1175,210.4641 149.5569,210.4641 156.0738,210.4641 C157.703,210.4641 159.212,210.4641 160.5849,210.4641 C160.7565,210.4641 160.926,210.4641 161.0933,210.4641 C161.177,210.4641 161.2601,210.4641 161.3427,210.4641 " fill="none" id="RESET-backto-RUNNING" style="stroke:#000000;stroke-width:1.0;"/><polygon fill="#000000" points="73.24,210.4641,82.24,214.4641,78.24,210.4641,82.24,206.4641,73.24,210.4641" style="stroke:#000000;stroke-width:1.0;"/><text fill="#000000" font-family="Verdana" font-size="13" lengthAdjust="spacing" textLength="60" x="91.07" y="203.3611">if reset = 1</text></g><!--reverse link IDLE to RESET--><g id="link_IDLE_RESET"><path d="M259.2904,177.2599 C244.0604,139.9899 214.37,85.5441 171,101.4641 C127.06,117.5941 87.85,156.1341 64.62,182.7741 " fill="none" id="IDLE-backto-RESET" style="stroke:#000000;stroke-width:1.0;"/><polygon fill="#000000" points="261.56,182.8141,261.8583,172.9698,259.6686,178.1856,254.4528,175.996,261.56,182.8141" style="stroke:#000000;stroke-width:1.0;"/></g><!--SRC=[PP5HQy8m4CVVyobkhuCAUoqwA2WYR5LizxGEYUPgmz94adDkZ7tt9Qcrecztbxlx_-wV1sgmHJWeBZLZxbDgiCOXOoH98RoYStoFKA0MQ7q3SK9Ol-Nv8f_3BrjCNsPfTkAIfDx3WJjtCbQCM55cwp8jBTUkbGH-p188LD9dQ4TicfNPyDoULRO_XADApmsG0OtV52iWQp1srw0ZoybOiCY5WzgQ5gYH3hGH62INgsj5SxWM10YeaAZaEKOfeF9dzkN4bplceDRViVdYIegDuhHhO09FlZqsmTWFdCFBeYuDY-9nKAaRxahVWrEO3FsG72E2lo4GUBl1rB0zrhMt_RubBXyScbIwizW4U27yP_H3Opzr9hg0BbVThd0x-sFlZn-HEwPiFIjcPShwFuwETRK0Pj4XHIzYRJ3q7m00]--></g></svg>