<?xml version="1.0" encoding="us-ascii" standalone="no"?><svg xmlns="http://www.w3.org/2000/svg" xmlns:xlink="http://www.w3.org/1999/xlink" contentStyleType="text/css" height="660px" preserveAspectRatio="none" style="width:773px;height:660px;background:#FFFFFF;" version="1.1" viewBox="0 0 773 660" width="773px" zoomAndPan="magnify"><defs/><g><text fill="#000000" font-family="Verdana" font-size="22" font-weight="bold" lengthAdjust="spacing" textLength="178" x="289.75" y="38.5181">Message Sender</text><!--cluster RUNNING--><g id="cluster_RUNNING"><path d="M174,136.9641 L747,136.9641 A12.5,12.5 0 0 1 759.5,149.4641 L759.5,161.032 L161.5,161.032 L161.5,149.4641 A12.5,12.5 0 0 1 174,136.9641 " fill="#FFFFFF" style="stroke:#FFFFFF;stroke-width:1.0;"/><path d="M161.5,161.032 L759.5,161.032 L759.5,634.4641 A12.5,12.5 0 0 1 747,646.9641 L174,646.9641 A12.5,12.5 0 0 1 161.5,634.4641 L161.5,161.032 " fill="#FFFFFF" style="stroke:#FFFFFF;stroke-width:1.0;"/><rect fill="none" height="510" rx="12.5" ry="12.5" style="stroke:#000000;stroke-width:1.0;" width="598" x="161.5" y="136.9641"/><line style="stroke:#000000;stroke-width:1.0;" x1="161.5" x2="759.5" y1="161.032" y2="161.032"/><text fill="#000000" font-family="Verdana" font-size="14" lengthAdjust="spacing" textLength="67" x="427" y="155.93">RUNNING</text></g><g id="RUNNING.IDLE"><rect fill="#FFFFFF" height="55.412" rx="12.5" ry="12.5" style="stroke:#000000;stroke-width:1.0;" width="128" x="207.5" y="182.9641"/><line style="stroke:#000000;stroke-width:1.0;" x1="207.5" x2="335.5" y1="212.032" y2="212.032"/><text fill="#000000" font-family="Verdana" font-size="14" lengthAdjust="spacing" textLength="30" x="256.5" y="202.93">IDLE</text><text fill="#000000" font-family="Verdana" font-size="12" lengthAdjust="spacing" textLength="108" x="212.5" y="229.8601">Awaiting password.</text></g><g id="RUNNING.START"><rect fill="#FFFFFF" height="55.412" rx="12.5" ry="12.5" style="stroke:#000000;stroke-width:1.0;" width="155" x="194" y="378.9641"/><line style="stroke:#000000;stroke-width:1.0;" x1="194" x2="349" y1="408.032" y2="408.032"/><text fill="#000000" font-family="Verdana" font-size="14" lengthAdjust="spacing" textLength="42" x="250.5" y="398.93">START</text><text fill="#000000" font-family="Verdana" font-size="12" lengthAdjust="spacing" textLength="135" x="199" y="425.8601">Transmit start delimiter.</text></g><g id="RUNNING.DATA"><rect fill="#FFFFFF" height="71.7561" rx="12.5" ry="12.5" style="stroke:#000000;stroke-width:1.0;" width="309" x="354" y="550.9641"/><line style="stroke:#000000;stroke-width:1.0;" x1="354" x2="663" y1="580.032" y2="580.032"/><text fill="#000000" font-family="Verdana" font-size="14" lengthAdjust="spacing" textLength="36" x="490.5" y="570.93">DATA</text><text fill="#000000" font-family="Verdana" font-size="12" lengthAdjust="spacing" textLength="134" x="359" y="597.8601">Transmit message byte.</text><text fill="#000000" font-family="Verdana" font-size="12" lengthAdjust="spacing" textLength="289" x="359" y="614.2042">Go to next byte if orchestrator reads from this node.</text></g><g id="RUNNING.STOP"><rect fill="#FFFFFF" height="55.412" rx="12.5" ry="12.5" style="stroke:#000000;stroke-width:1.0;" width="153" x="437" y="378.9641"/><line style="stroke:#000000;stroke-width:1.0;" x1="437" x2="590" y1="408.032" y2="408.032"/><text fill="#000000" font-family="Verdana" font-size="14" lengthAdjust="spacing" textLength="35" x="496" y="398.93">STOP</text><text fill="#000000" font-family="Verdana" font-size="12" lengthAdjust="spacing" textLength="133" x="442" y="425.8601">Transmit stop delimiter.</text></g><ellipse cx="271.5" cy="71.9641" fill="#FFFFFF" rx="10" ry="10" style="stroke:#000000;stroke-width:1.0;"/><g id="RESET"><rect fill="#FFFFFF" height="55.412" rx="12.5" ry="12.5" style="stroke:#000000;stroke-width:1.0;" width="61" x="12" y="182.9641"/><line style="stroke:#000000;stroke-width:1.0;" x1="12" x2="73" y1="212.032" y2="212.032"/><text fill="#000000" font-family="Verdana" font-size="14" lengthAdjust="spacing" textLength="41" x="22" y="202.93">RESET</text><text fill="#000000" font-family="Verdana" font-size="12" lengthAdjust="spacing" textLength="3" x="17" y="229.8601">&#160;</text></g><!--reverse link IDLE to IDLE--><g id="link_IDLE_IDLE"><path d="M341.7694,199.6872 C361.2594,199.9572 370.5,203.4941 370.5,210.4641 C370.5,217.4341 355.26,221.0541 335.77,221.3241 " fill="none" id="IDLE-backto-IDLE" style="stroke:#000000;stroke-width:1.0;"/><polygon fill="#000000" points="335.77,199.6041,344.7137,203.7284,340.7695,199.6734,344.8245,195.7292,335.77,199.6041" style="stroke:#000000;stroke-width:1.0;"/><text fill="#000000" font-family="Verdana" font-size="13" lengthAdjust="spacing" textLength="23" x="376.5" y="215.8611">else</text></g><!--link IDLE to START--><g id="link_IDLE_START"><path d="M271.5,238.0341 C271.5,275.0841 271.5,335.8641 271.5,372.9041 " fill="none" id="IDLE-to-START" style="stroke:#000000;stroke-width:1.0;"/><polygon fill="#000000" points="271.5,378.9041,275.5,369.9041,271.5,373.9041,267.5,369.9041,271.5,378.9041" style="stroke:#000000;stroke-width:1.0;"/><text fill="#000000" font-family="Verdana" font-size="13" lengthAdjust="spacing" textLength="157" x="272.5" y="313.8611">if password_valid_latch = 1</text></g><!--reverse link START to START--><g id="link_START_START"><path d="M355.0565,395.9186 C374.9965,396.5986 384,399.9741 384,406.4641 C384,412.9541 369,416.5341 349.06,417.2141 " fill="none" id="START-backto-START" style="stroke:#000000;stroke-width:1.0;"/><polygon fill="#000000" points="349.06,395.7141,357.9184,400.0185,354.0571,395.8845,358.1911,392.0232,349.06,395.7141" style="stroke:#000000;stroke-width:1.0;"/><text fill="#000000" font-family="Verdana" font-size="13" lengthAdjust="spacing" textLength="23" x="390" y="411.8611">else</text></g><!--link START to DATA--><g id="link_START_DATA"><path d="M257.58,434.1841 C246.71,459.1841 236.35,496.2741 255.5,520.9641 C269.12,538.5241 303.5402,550.8301 348.0502,560.9801 " fill="none" id="START-to-DATA" style="stroke:#000000;stroke-width:1.0;"/><polygon fill="#000000" points="353.9,562.3141,346.0146,556.4132,349.0251,561.2024,344.2359,564.213,353.9,562.3141" style="stroke:#000000;stroke-width:1.0;"/><text fill="#000000" font-family="Verdana" font-size="13" lengthAdjust="spacing" textLength="87" x="332" y="478.8611">if tx_succes = 1</text><path d="M260.5,488.6701 L260.5,515.6701 L490.5,515.6701 L490.5,498.6701 L480.5,488.6701 L260.5,488.6701 " fill="#FFFFFF" style="stroke:#000000;stroke-width:1.0;"/><path d="M480.5,488.6701 L480.5,498.6701 L490.5,498.6701 L480.5,488.6701 " fill="#FFFFFF" style="stroke:#000000;stroke-width:1.0;"/><text fill="#000000" font-family="Verdana" font-size="13" lengthAdjust="spacing" textLength="209" x="266.5" y="507.5671">if orchestrator reads from this note</text></g><!--reverse link STOP to DATA--><g id="link_STOP_DATA"><path d="M508.0561,440.0486 C506.6561,449.4486 506.19,454.1841 505.5,463.9641 C503.44,493.2341 504.49,526.5441 505.88,550.9541 " fill="none" id="STOP-backto-DATA" style="stroke:#000000;stroke-width:1.0;"/><polygon fill="#000000" points="508.94,434.1141,503.6578,442.4267,508.2034,439.0596,511.5706,443.6052,508.94,434.1141" style="stroke:#000000;stroke-width:1.0;"/><text fill="#000000" font-family="Verdana" font-size="13" lengthAdjust="spacing" textLength="87" x="506.5" y="497.8611">if end of buffer</text></g><!--reverse link STOP to DATA--><g id="link_STOP_DATA"><path d="M575.4886,437.5429 C586.6886,445.5129 592.05,451.9341 598.5,463.9641 C610.47,486.2941 610.03,498.4041 598.5,520.9641 C592.62,532.4641 583.65,542.3941 573.62,550.7941 " fill="none" id="STOP-backto-DATA-1" style="stroke:#000000;stroke-width:1.0;"/><polygon fill="#000000" points="570.6,434.0641,575.6137,442.5413,574.6738,436.9631,580.252,436.0232,570.6,434.0641" style="stroke:#000000;stroke-width:1.0;"/><text fill="#000000" font-family="Verdana" font-size="13" lengthAdjust="spacing" textLength="77" x="617" y="488.8611">if next byte =</text><text fill="#000000" font-family="Verdana" font-size="13" lengthAdjust="spacing" textLength="96" x="607.5" y="506.5671">start of padding</text></g><!--reverse link DATA to DATA--><g id="link_DATA_DATA"><path d="M669.1031,572.0725 C690.0231,574.7025 698,579.1641 698,586.9641 C698,594.7641 684.07,599.9741 663.15,602.6041 " fill="none" id="DATA-backto-DATA" style="stroke:#000000;stroke-width:1.0;"/><polygon fill="#000000" points="663.15,571.3241,671.5808,576.4155,668.111,571.9478,672.5787,568.478,663.15,571.3241" style="stroke:#000000;stroke-width:1.0;"/><text fill="#000000" font-family="Verdana" font-size="13" lengthAdjust="spacing" textLength="23" x="704" y="592.3611">else</text></g><!--reverse link IDLE to STOP--><g id="link_IDLE_STOP"><path d="M341.2502,238.9293 C374.2902,253.8193 408.35,272.5241 438.5,298.9641 C464.51,321.7741 486.22,355.3641 499.48,378.6941 " fill="none" id="IDLE-backto-STOP" style="stroke:#000000;stroke-width:1.0;"/><polygon fill="#000000" points="335.78,236.4641,342.3418,243.8087,340.3385,238.5184,345.6287,236.5152,335.78,236.4641" style="stroke:#000000;stroke-width:1.0;"/></g><!--link *start* to IDLE--><g id="link_*start*_IDLE"><path d="M271.5,82.3441 C271.5,102.7641 271.5,145.8741 271.5,176.7241 " fill="none" id="*start*-to-IDLE" style="stroke:#000000;stroke-width:1.0;"/><polygon fill="#000000" points="271.5,182.7241,275.5,173.7241,271.5,177.7241,267.5,173.7241,271.5,182.7241" style="stroke:#000000;stroke-width:1.0;"/></g><!--reverse link RESET to RUNNING--><g id="link_RESET_RUNNING"><path d="M79.24,210.4641 C96.86,210.4641 113.1125,210.4641 131.7825,210.4641 C141.1175,210.4641 149.5569,210.4641 156.0738,210.4641 C157.703,210.4641 159.212,210.4641 160.5849,210.4641 C160.7565,210.4641 160.926,210.4641 161.0933,210.4641 C161.177,210.4641 161.2601,210.4641 161.3427,210.4641 " fill="none" id="RESET-backto-RUNNING" style="stroke:#000000;stroke-width:1.0;"/><polygon fill="#000000" points="73.24,210.4641,82.24,214.4641,78.24,210.4641,82.24,206.4641,73.24,210.4641" style="stroke:#000000;stroke-width:1.0;"/><text fill="#000000" font-family="Verdana" font-size="13" lengthAdjust="spacing" textLength="60" x="91.07" y="203.3611">if reset = 1</text></g><!--reverse link IDLE to RESET--><g id="link_IDLE_RESET"><path d="M259.2904,177.2599 C244.0604,139.9899 214.37,85.5441 171,101.4641 C127.06,117.5941 87.85,156.1341 64.62,182.7741 " fill="none" id="IDLE-backto-RESET" style="stroke:#000000;stroke-width:1.0;"/><polygon fill="#000000" points="261.56,182.8141,261.8583,172.9698,259.6686,178.1856,254.4528,175.996,261.56,182.8141" style="stroke:#000000;stroke-width:1.0;"/></g><!--SRC=[XL9VQy8m47_FfxYz3YhijUYWe8YmgMZtD8V4zcg3QIB9EHrZttsNj5KV1dkxkzpz_jpbWMfi48vQAYE4FoW3pdeKWXHfX5VqNkuHrcXATDn0aX1MR_FvR3w5Rp4RlqpIx2mLARE7e_J-R5qv4EiyM-LfxgJnZIBWCKTGebQSeHk8SPPdj-UcOzbz4GusPcg1B1YyKAo0gi2weaPFJf9ru52M7Yfd6w1QUJ2sn42vMDupskCz8K2G2ebEdcEK0cgssPSJBhUQcQotiVsKMfLRBQceOGHFt1rxOCZzNNZ5QTE04xq5qNJP-bDHeE-6ZMKpre1Mvi3f_xOe0FFc-p0WGtAAMjbiG0YljeBTgQhuFd-st1OvsfZs4ZQOB4k-MJyov9bE-TNGOjaYXHM97_7- -17znLIi9kj9deh-AyJ5jhN0wT0ZHTknTjlxBm00]--></g></svg>