<?xml version="1.0" encoding="us-ascii" standalone="no"?><svg xmlns="http://www.w3.org/2000/svg" xmlns:xlink="http://www.w3.org/1999/xlink" contentStyleType="text/css" height="608px" preserveAspectRatio="none" style="width:662px;height:608px;background:#FFFFFF;" version="1.1" viewBox="0 0 662 608" width="662px" zoomAndPan="magnify"><defs/><g><text fill="#000000" font-family="Verdana" font-size="22" font-weight="bold" lengthAdjust="spacing" textLength="208" x="219.5" y="35.4209">Message Sender</text><!--cluster RUNNING--><g id="cluster_RUNNING"><path d="M190.5,132.6094 L636.5,132.6094 A12.5,12.5 0 0 1 649,145.1094 L649,153.9063 L178,153.9063 L178,145.1094 A12.5,12.5 0 0 1 190.5,132.6094 " fill="#FFFFFF" style="stroke:#FFFFFF;stroke-width:1.0;"/><path d="M178,153.9063 L649,153.9063 L649,582.1094 A12.5,12.5 0 0 1 636.5,594.6094 L190.5,594.6094 A12.5,12.5 0 0 1 178,582.1094 L178,153.9063 " fill="#FFFFFF" style="stroke:#FFFFFF;stroke-width:1.0;"/><rect fill="none" height="462" rx="12.5" ry="12.5" style="stroke:#000000;stroke-width:1.0;" width="471" x="178" y="132.6094"/><line style="stroke:#000000;stroke-width:1.0;" x1="178" x2="649" y1="153.9063" y2="153.9063"/><text fill="#000000" font-family="Verdana" font-size="14" lengthAdjust="spacing" textLength="64" x="381.5" y="149.6045">RUNNING</text></g><g id="RUNNING.IDLE"><rect fill="#FFFFFF" height="50.2656" rx="12.5" ry="12.5" style="stroke:#000000;stroke-width:1.0;" width="137" x="222.5" y="175.6094"/><line style="stroke:#000000;stroke-width:1.0;" x1="222.5" x2="359.5" y1="201.9063" y2="201.9063"/><text fill="#000000" font-family="Verdana" font-size="14" lengthAdjust="spacing" textLength="32" x="275" y="193.6045">IDLE</text><text fill="#000000" font-family="Verdana" font-size="12" lengthAdjust="spacing" textLength="117" x="227.5" y="218.0449">Awaiting password.</text></g><g id="RUNNING.START"><rect fill="#FFFFFF" height="50.2656" rx="12.5" ry="12.5" style="stroke:#000000;stroke-width:1.0;" width="162" x="210" y="364.6094"/><line style="stroke:#000000;stroke-width:1.0;" x1="210" x2="372" y1="390.9063" y2="390.9063"/><text fill="#000000" font-family="Verdana" font-size="14" lengthAdjust="spacing" textLength="47" x="267.5" y="382.6045">START</text><text fill="#000000" font-family="Verdana" font-size="12" lengthAdjust="spacing" textLength="142" x="215" y="407.0449">Transmit start delimiter.</text></g><g id="RUNNING.DATA"><rect fill="#FFFFFF" height="64.2344" rx="12.5" ry="12.5" style="stroke:#000000;stroke-width:1.0;" width="338" x="214" y="506.6094"/><line style="stroke:#000000;stroke-width:1.0;" x1="214" x2="552" y1="532.9063" y2="532.9063"/><text fill="#000000" font-family="Verdana" font-size="14" lengthAdjust="spacing" textLength="40" x="363" y="524.6045">DATA</text><text fill="#000000" font-family="Verdana" font-size="12" lengthAdjust="spacing" textLength="145" x="219" y="549.0449">Transmit message byte.</text><text fill="#000000" font-family="Verdana" font-size="12" lengthAdjust="spacing" textLength="318" x="219" y="563.0137">Go to next byte if orchestrator reads from this node.</text></g><g id="RUNNING.STOP"><rect fill="#FFFFFF" height="50.2656" rx="12.5" ry="12.5" style="stroke:#000000;stroke-width:1.0;" width="162" x="463" y="364.6094"/><line style="stroke:#000000;stroke-width:1.0;" x1="463" x2="625" y1="390.9063" y2="390.9063"/><text fill="#000000" font-family="Verdana" font-size="14" lengthAdjust="spacing" textLength="38" x="525" y="382.6045">STOP</text><text fill="#000000" font-family="Verdana" font-size="12" lengthAdjust="spacing" textLength="142" x="468" y="407.0449">Transmit stop delimiter.</text></g><ellipse cx="291" cy="67.6094" fill="#FFFFFF" rx="10" ry="10" style="stroke:#000000;stroke-width:1.0;"/><g id="RESET"><rect fill="#FFFFFF" height="50.2656" rx="12.5" ry="12.5" style="stroke:#000000;stroke-width:1.0;" width="66" x="12" y="175.6094"/><line style="stroke:#000000;stroke-width:1.0;" x1="12" x2="78" y1="201.9063" y2="201.9063"/><text fill="#000000" font-family="Verdana" font-size="14" lengthAdjust="spacing" textLength="46" x="22" y="193.6045">RESET</text><text fill="#000000" font-family="Verdana" font-size="12" lengthAdjust="spacing" textLength="4" x="17" y="218.0449">&#160;</text></g><!--reverse link IDLE to IDLE--><g id="link_IDLE_IDLE"><path d="M365.6758,190.6449 C385.3378,191.0399 394.5,194.2814 394.5,200.6094 C394.5,206.9374 379.339,210.2994 359.677,210.6944 " fill="none" id="IDLE-backto-IDLE" style="stroke:#000000;stroke-width:1.0;"/><polygon fill="#000000" points="359.677,190.5244,368.5948,194.7043,364.676,190.6248,368.7555,186.706,359.677,190.5244" style="stroke:#000000;stroke-width:1.0;"/><text fill="#000000" font-family="Verdana" font-size="13" lengthAdjust="spacing" textLength="26" x="400.5" y="205.1763">else</text></g><!--link IDLE to START--><g id="link_IDLE_START"><path d="M291,225.6734 C291,261.4814 291,322.4164 291,358.3414 " fill="none" id="IDLE-to-START" style="stroke:#000000;stroke-width:1.0;"/><polygon fill="#000000" points="291,364.3414,295,355.3414,291,359.3414,287,355.3414,291,364.3414" style="stroke:#000000;stroke-width:1.0;"/><text fill="#000000" font-family="Verdana" font-size="13" lengthAdjust="spacing" textLength="175" x="292" y="299.6763">if password_valid_latch = 1</text></g><!--reverse link START to START--><g id="link_START_START"><path d="M378.0371,379.8477 C398.0611,380.5667 407,383.6764 407,389.6094 C407,395.5424 392.065,398.8674 372.041,399.5864 " fill="none" id="START-backto-START" style="stroke:#000000;stroke-width:1.0;"/><polygon fill="#000000" points="372.041,379.6324,380.8917,383.9528,377.0378,379.8118,381.1787,375.9579,372.041,379.6324" style="stroke:#000000;stroke-width:1.0;"/><text fill="#000000" font-family="Verdana" font-size="13" lengthAdjust="spacing" textLength="26" x="413" y="394.1763">else</text></g><!--link START to DATA--><g id="link_START_DATA"><path d="M303.915,414.7004 C313.463,432.1464 327.008,456.1584 340,476.6094 C346.253,486.4524 349.9584,492.0165 356.6294,501.4445 " fill="none" id="START-to-DATA" style="stroke:#000000;stroke-width:1.0;"/><polygon fill="#000000" points="360.095,506.3424,358.1618,496.6851,357.207,502.2608,351.6313,501.3059,360.095,506.3424" style="stroke:#000000;stroke-width:1.0;"/></g><!--reverse link STOP to DATA--><g id="link_STOP_DATA"><path d="M457.2107,414.4261 C418.6507,425.7651 385.469,437.0504 380,444.6094 C367.311,462.1464 368.728,486.8054 372.96,506.3254 " fill="none" id="STOP-backto-DATA" style="stroke:#000000;stroke-width:1.0;"/><polygon fill="#000000" points="462.967,412.7334,453.2041,411.4349,458.1701,414.144,455.461,419.1099,462.967,412.7334" style="stroke:#000000;stroke-width:1.0;"/><text fill="#000000" font-family="Verdana" font-size="13" lengthAdjust="spacing" textLength="96" x="381" y="465.1763">if end of buffer</text></g><!--reverse link STOP to DATA--><g id="link_STOP_DATA"><path d="M527.0192,419.9524 C515.6952,438.3684 501.543,458.4334 482,476.6094 C470.1,487.6774 455.895,497.8164 442.011,506.5164 " fill="none" id="STOP-backto-DATA-1" style="stroke:#000000;stroke-width:1.0;"/><polygon fill="#000000" points="530.162,414.8414,522.0404,420.4128,527.543,419.1006,528.8552,424.6031,530.162,414.8414" style="stroke:#000000;stroke-width:1.0;"/><text fill="#000000" font-family="Verdana" font-size="13" lengthAdjust="spacing" textLength="88" x="516" y="457.6763">if next byte =</text><text fill="#000000" font-family="Verdana" font-size="13" lengthAdjust="spacing" textLength="102" x="509" y="472.8091">start of padding</text></g><!--reverse link DATA to DATA--><g id="link_DATA_DATA"><path d="M558.1956,526.5556 C579.1816,528.8109 587,532.4014 587,538.6094 C587,544.8174 573.216,549.049 552.23,551.3043 " fill="none" id="DATA-backto-DATA" style="stroke:#000000;stroke-width:1.0;"/><polygon fill="#000000" points="552.23,525.9145,560.7511,530.8532,557.2014,526.4487,561.6059,522.899,552.23,525.9145" style="stroke:#000000;stroke-width:1.0;"/><text fill="#000000" font-family="Verdana" font-size="13" lengthAdjust="spacing" textLength="26" x="593" y="543.1763">else</text></g><!--reverse link IDLE to STOP--><g id="link_IDLE_STOP"><path d="M365.5314,224.9987 C402.7664,238.9137 442.266,257.8044 476,286.6094 C501.411,308.3074 521.229,341.7544 532.758,364.3794 " fill="none" id="IDLE-backto-STOP" style="stroke:#000000;stroke-width:1.0;"/><polygon fill="#000000" points="359.911,222.8984,366.9413,229.7958,364.5946,224.6487,369.7418,222.302,359.911,222.8984" style="stroke:#000000;stroke-width:1.0;"/></g><!--link *start* to IDLE--><g id="link_*start*_IDLE"><path d="M291,77.6134 C291,97.5564 291,140.0144 291,169.5044 " fill="none" id="*start*-to-IDLE" style="stroke:#000000;stroke-width:1.0;"/><polygon fill="#000000" points="291,175.5044,295,166.5044,291,170.5044,287,166.5044,291,175.5044" style="stroke:#000000;stroke-width:1.0;"/></g><!--reverse link RESET to RUNNING--><g id="link_RESET_RUNNING"><path d="M84.0582,200.6094 C103.9191,200.6094 123.3651,200.6094 144.5622,200.6094 C155.1607,200.6094 164.697,200.6094 171.9419,200.6094 C173.7531,200.6094 175.4212,200.6094 176.9267,200.6094 C177.1149,200.6094 177.3006,200.6094 177.4837,200.6094 C177.5752,200.6094 177.6661,200.6094 177.7564,200.6094 " fill="none" id="RESET-backto-RUNNING" style="stroke:#000000;stroke-width:1.0;"/><polygon fill="#000000" points="78.0582,200.6094,87.0582,204.6094,83.0582,200.6094,87.0582,196.6094,78.0582,200.6094" style="stroke:#000000;stroke-width:1.0;"/><text fill="#000000" font-family="Verdana" font-size="13" lengthAdjust="spacing" textLength="71" x="96.32" y="193.6763">if reset = 1</text></g><!--reverse link IDLE to RESET--><g id="link_IDLE_RESET"><path d="M278.3302,170.0459 C262.3822,135.0629 231.245,82.8994 187.5,97.1094 C140.389,112.4124 95.8387,149.7944 69.4737,175.1834 " fill="none" id="IDLE-backto-RESET" style="stroke:#000000;stroke-width:1.0;"/><polygon fill="#000000" points="280.819,175.5054,280.7254,165.657,278.745,170.9558,273.4461,168.9754,280.819,175.5054" style="stroke:#000000;stroke-width:1.0;"/></g><!--SRC=[RL5DRy8m3BtdLtZNIKNQjO99bK08QGDKkjEOK20kZPOcLMB6fcd_VKvA1uUTQh_OVX-zemPRXCv8ROK8xzg2Tm6584q6uHb3a4U43Lg5dWT84aBvibmkbdFu5elfqomlpbAJjaVeP0XdvzL8RAgYhFBAInjQJS1hda2XqToX7ubfKHNNv_R2ilyY76tjt04viFX92G5TW_E71WDvISw3Hwa2rDwrG8qEO9t2IBbQtpAwxfOG84g5p6IFgSe13TiSu8pXNZEJ3JPs7z9ejJEI3WrCu86dqmoCUVvI_jtfstWdUcCWVY0xfSEiBBhW4C7Li3_LDOVvxyZLzMHh-zXSLAGK1poiZ7adLJVigtL_AVeHF-Br_Ys9IQqePvjPbOlXlwKKUYnoUWn8oM32hY7z0W00]--></g></svg>