%TF.GenerationSoftware,Altium Limited,Altium Designer,23.10.1 (27)*%
G04 Layer_Physical_Order=1*
G04 Layer_Color=255*
%FSLAX45Y45*%
%MOMM*%
%TF.SameCoordinates,40B06F7F-77FB-44A8-8835-1C76E92FD704*%
%TF.FilePolarity,Positive*%
%TF.FileFunction,Copper,L1,Top,Signal*%
%TF.Part,Single*%
G01*
G75*
%TA.AperFunction,NonConductor*%
%ADD10C,0.25400*%
%TA.AperFunction,ComponentPad*%
%ADD11C,1.80000*%
%ADD12R,1.53000X1.53000*%
%ADD13C,1.53000*%
%ADD14C,1.60000*%
G36*
X6426200Y2590800D02*
X6427167Y2589833D01*
X6422306Y2578100D01*
X2552700D01*
Y12700000D01*
X6426200D01*
Y2590800D01*
D02*
G37*
%LPC*%
G36*
X3378200Y12623734D02*
X2794000D01*
Y12268200D01*
X3378200D01*
Y12623734D01*
D02*
G37*
G36*
X6000237Y12218500D02*
X5963163D01*
X5927353Y12208904D01*
X5895247Y12190368D01*
X5869032Y12164153D01*
X5861050Y12150327D01*
X5848350D01*
X5840368Y12164153D01*
X5814153Y12190368D01*
X5782047Y12208904D01*
X5746237Y12218500D01*
X5709163D01*
X5673353Y12208904D01*
X5641247Y12190368D01*
X5615032Y12164153D01*
X5607050Y12150327D01*
X5594350D01*
X5586368Y12164153D01*
X5560153Y12190368D01*
X5528047Y12208904D01*
X5492237Y12218500D01*
X5455163D01*
X5419353Y12208904D01*
X5387247Y12190368D01*
X5361032Y12164153D01*
X5353050Y12150327D01*
X5340350D01*
X5332368Y12164153D01*
X5306153Y12190368D01*
X5274047Y12208904D01*
X5238237Y12218500D01*
X5201163D01*
X5165353Y12208904D01*
X5133247Y12190368D01*
X5107032Y12164153D01*
X5099050Y12150327D01*
X5086350D01*
X5078368Y12164153D01*
X5052153Y12190368D01*
X5020047Y12208904D01*
X4984237Y12218500D01*
X4947163D01*
X4911353Y12208904D01*
X4879247Y12190368D01*
X4853032Y12164153D01*
X4845050Y12150327D01*
X4832350D01*
X4824368Y12164153D01*
X4798153Y12190368D01*
X4766047Y12208904D01*
X4730237Y12218500D01*
X4693163D01*
X4657353Y12208904D01*
X4625247Y12190368D01*
X4599032Y12164153D01*
X4591050Y12150327D01*
X4578350D01*
X4570368Y12164153D01*
X4544153Y12190368D01*
X4512047Y12208904D01*
X4476237Y12218500D01*
X4439163D01*
X4403353Y12208904D01*
X4371247Y12190368D01*
X4345032Y12164153D01*
X4337050Y12150327D01*
X4324350D01*
X4316368Y12164153D01*
X4290153Y12190368D01*
X4258047Y12208904D01*
X4222237Y12218500D01*
X4185163D01*
X4149353Y12208904D01*
X4117247Y12190368D01*
X4091032Y12164153D01*
X4072496Y12132047D01*
X4062900Y12096237D01*
Y12059163D01*
X4072496Y12023353D01*
X4091032Y11991247D01*
X4117247Y11965032D01*
X4149353Y11946496D01*
X4185163Y11936900D01*
X4222237D01*
X4258047Y11946496D01*
X4290153Y11965032D01*
X4316368Y11991247D01*
X4324350Y12005073D01*
X4337050D01*
X4345032Y11991247D01*
X4371247Y11965032D01*
X4403353Y11946496D01*
X4439163Y11936900D01*
X4476237D01*
X4512047Y11946496D01*
X4544153Y11965032D01*
X4570368Y11991247D01*
X4578350Y12005073D01*
X4591050D01*
X4599032Y11991247D01*
X4625247Y11965032D01*
X4657353Y11946496D01*
X4693163Y11936900D01*
X4730237D01*
X4766047Y11946496D01*
X4798153Y11965032D01*
X4824368Y11991247D01*
X4832350Y12005073D01*
X4845050D01*
X4853032Y11991247D01*
X4879247Y11965032D01*
X4911353Y11946496D01*
X4947163Y11936900D01*
X4984237D01*
X5020047Y11946496D01*
X5052153Y11965032D01*
X5078368Y11991247D01*
X5086350Y12005073D01*
X5099050D01*
X5107032Y11991247D01*
X5133247Y11965032D01*
X5165353Y11946496D01*
X5201163Y11936900D01*
X5238237D01*
X5274047Y11946496D01*
X5306153Y11965032D01*
X5332368Y11991247D01*
X5340350Y12005073D01*
X5353050D01*
X5361032Y11991247D01*
X5387247Y11965032D01*
X5419353Y11946496D01*
X5455163Y11936900D01*
X5492237D01*
X5528047Y11946496D01*
X5560153Y11965032D01*
X5586368Y11991247D01*
X5594350Y12005073D01*
X5607050D01*
X5615032Y11991247D01*
X5641247Y11965032D01*
X5673353Y11946496D01*
X5709163Y11936900D01*
X5746237D01*
X5782047Y11946496D01*
X5814153Y11965032D01*
X5840368Y11991247D01*
X5848350Y12005073D01*
X5861050D01*
X5869032Y11991247D01*
X5895247Y11965032D01*
X5927353Y11946496D01*
X5963163Y11936900D01*
X6000237D01*
X6036047Y11946496D01*
X6068153Y11965032D01*
X6094368Y11991247D01*
X6112904Y12023353D01*
X6122500Y12059163D01*
Y12096237D01*
X6112904Y12132047D01*
X6094368Y12164153D01*
X6068153Y12190368D01*
X6036047Y12208904D01*
X6000237Y12218500D01*
D02*
G37*
G36*
X3099976Y12170400D02*
X3098800D01*
Y12077700D01*
X3191500D01*
Y12078876D01*
X3184317Y12105683D01*
X3170441Y12129717D01*
X3150817Y12149341D01*
X3126783Y12163217D01*
X3099976Y12170400D01*
D02*
G37*
G36*
X2845976D02*
X2844800D01*
Y12077700D01*
X2937500D01*
Y12078876D01*
X2930317Y12105683D01*
X2916441Y12129717D01*
X2896817Y12149341D01*
X2872783Y12163217D01*
X2845976Y12170400D01*
D02*
G37*
G36*
X3353976D02*
X3352800D01*
Y12077700D01*
X3445500D01*
Y12078876D01*
X3438317Y12105683D01*
X3424441Y12129717D01*
X3404817Y12149341D01*
X3380783Y12163217D01*
X3353976Y12170400D01*
D02*
G37*
G36*
X2819400D02*
X2818224D01*
X2791417Y12163217D01*
X2767383Y12149341D01*
X2747759Y12129717D01*
X2733883Y12105683D01*
X2726700Y12078876D01*
Y12077700D01*
X2819400D01*
Y12170400D01*
D02*
G37*
G36*
X3073400D02*
X3072224D01*
X3045417Y12163217D01*
X3021383Y12149341D01*
X3001759Y12129717D01*
X2987883Y12105683D01*
X2980700Y12078876D01*
Y12077700D01*
X3073400D01*
Y12170400D01*
D02*
G37*
G36*
X3327400D02*
X3326224D01*
X3299417Y12163217D01*
X3275383Y12149341D01*
X3255759Y12129717D01*
X3241883Y12105683D01*
X3234700Y12078876D01*
Y12077700D01*
X3327400D01*
Y12170400D01*
D02*
G37*
G36*
X3445500Y12052300D02*
X3352800D01*
Y11959600D01*
X3353976D01*
X3380783Y11966783D01*
X3404817Y11980659D01*
X3424441Y12000283D01*
X3438317Y12024317D01*
X3445500Y12051124D01*
Y12052300D01*
D02*
G37*
G36*
X3327400D02*
X3234700D01*
Y12051124D01*
X3241883Y12024317D01*
X3255759Y12000283D01*
X3275383Y11980659D01*
X3299417Y11966783D01*
X3326224Y11959600D01*
X3327400D01*
Y12052300D01*
D02*
G37*
G36*
X3191500D02*
X3098800D01*
Y11959600D01*
X3099976D01*
X3126783Y11966783D01*
X3150817Y11980659D01*
X3170441Y12000283D01*
X3184317Y12024317D01*
X3191500Y12051124D01*
Y12052300D01*
D02*
G37*
G36*
X3073400D02*
X2980700D01*
Y12051124D01*
X2987883Y12024317D01*
X3001759Y12000283D01*
X3021383Y11980659D01*
X3045417Y11966783D01*
X3072224Y11959600D01*
X3073400D01*
Y12052300D01*
D02*
G37*
G36*
X2937500D02*
X2844800D01*
Y11959600D01*
X2845976D01*
X2872783Y11966783D01*
X2896817Y11980659D01*
X2916441Y12000283D01*
X2930317Y12024317D01*
X2937500Y12051124D01*
Y12052300D01*
D02*
G37*
G36*
X2819400D02*
X2726700D01*
Y12051124D01*
X2733883Y12024317D01*
X2747759Y12000283D01*
X2767383Y11980659D01*
X2791417Y11966783D01*
X2818224Y11959600D01*
X2819400D01*
Y12052300D01*
D02*
G37*
G36*
X6000237Y11202500D02*
X5963163D01*
X5927353Y11192904D01*
X5895247Y11174368D01*
X5869032Y11148153D01*
X5861050Y11134327D01*
X5848350D01*
X5840368Y11148153D01*
X5814153Y11174368D01*
X5782047Y11192904D01*
X5746237Y11202500D01*
X5709163D01*
X5673353Y11192904D01*
X5641247Y11174368D01*
X5615032Y11148153D01*
X5607050Y11134327D01*
X5594350D01*
X5586368Y11148153D01*
X5560153Y11174368D01*
X5528047Y11192904D01*
X5492237Y11202500D01*
X5455163D01*
X5419353Y11192904D01*
X5387247Y11174368D01*
X5361032Y11148153D01*
X5353050Y11134327D01*
X5340350D01*
X5332368Y11148153D01*
X5306153Y11174368D01*
X5274047Y11192904D01*
X5238237Y11202500D01*
X5201163D01*
X5165353Y11192904D01*
X5133247Y11174368D01*
X5107032Y11148153D01*
X5099050Y11134327D01*
X5086350D01*
X5078368Y11148153D01*
X5052153Y11174368D01*
X5020047Y11192904D01*
X4984237Y11202500D01*
X4947163D01*
X4911353Y11192904D01*
X4879247Y11174368D01*
X4853032Y11148153D01*
X4845050Y11134327D01*
X4832350D01*
X4824368Y11148153D01*
X4798153Y11174368D01*
X4766047Y11192904D01*
X4730237Y11202500D01*
X4693163D01*
X4657353Y11192904D01*
X4625247Y11174368D01*
X4599032Y11148153D01*
X4591050Y11134327D01*
X4578350D01*
X4570368Y11148153D01*
X4544153Y11174368D01*
X4512047Y11192904D01*
X4476237Y11202500D01*
X4439163D01*
X4403353Y11192904D01*
X4371247Y11174368D01*
X4345032Y11148153D01*
X4337050Y11134327D01*
X4324350D01*
X4316368Y11148153D01*
X4290153Y11174368D01*
X4258047Y11192904D01*
X4222237Y11202500D01*
X4185163D01*
X4149353Y11192904D01*
X4117247Y11174368D01*
X4091032Y11148153D01*
X4072496Y11116047D01*
X4062900Y11080237D01*
Y11043163D01*
X4072496Y11007353D01*
X4091032Y10975247D01*
X4117247Y10949032D01*
X4149353Y10930496D01*
X4185163Y10920900D01*
X4222237D01*
X4258047Y10930496D01*
X4290153Y10949032D01*
X4316368Y10975247D01*
X4324350Y10989073D01*
X4337050D01*
X4345032Y10975247D01*
X4371247Y10949032D01*
X4403353Y10930496D01*
X4439163Y10920900D01*
X4476237D01*
X4512047Y10930496D01*
X4544153Y10949032D01*
X4570368Y10975247D01*
X4578350Y10989073D01*
X4591050D01*
X4599032Y10975247D01*
X4625247Y10949032D01*
X4657353Y10930496D01*
X4693163Y10920900D01*
X4730237D01*
X4766047Y10930496D01*
X4798153Y10949032D01*
X4824368Y10975247D01*
X4832350Y10989073D01*
X4845050D01*
X4853032Y10975247D01*
X4879247Y10949032D01*
X4911353Y10930496D01*
X4947163Y10920900D01*
X4984237D01*
X5020047Y10930496D01*
X5052153Y10949032D01*
X5078368Y10975247D01*
X5086350Y10989073D01*
X5099050D01*
X5107032Y10975247D01*
X5133247Y10949032D01*
X5165353Y10930496D01*
X5201163Y10920900D01*
X5238237D01*
X5274047Y10930496D01*
X5306153Y10949032D01*
X5332368Y10975247D01*
X5340350Y10989073D01*
X5353050D01*
X5361032Y10975247D01*
X5387247Y10949032D01*
X5419353Y10930496D01*
X5455163Y10920900D01*
X5492237D01*
X5528047Y10930496D01*
X5560153Y10949032D01*
X5586368Y10975247D01*
X5594350Y10989073D01*
X5607050D01*
X5615032Y10975247D01*
X5641247Y10949032D01*
X5673353Y10930496D01*
X5709163Y10920900D01*
X5746237D01*
X5782047Y10930496D01*
X5814153Y10949032D01*
X5840368Y10975247D01*
X5848350Y10989073D01*
X5861050D01*
X5869032Y10975247D01*
X5895247Y10949032D01*
X5927353Y10930496D01*
X5963163Y10920900D01*
X6000237D01*
X6036047Y10930496D01*
X6068153Y10949032D01*
X6094368Y10975247D01*
X6112904Y11007353D01*
X6122500Y11043163D01*
Y11080237D01*
X6112904Y11116047D01*
X6094368Y11148153D01*
X6068153Y11174368D01*
X6036047Y11192904D01*
X6000237Y11202500D01*
D02*
G37*
G36*
X4013200Y11188700D02*
X2997200D01*
Y10845800D01*
X4013200D01*
Y11188700D01*
D02*
G37*
G36*
X5998920Y10811500D02*
X5964480D01*
X5931213Y10802586D01*
X5901387Y10785366D01*
X5877034Y10761013D01*
X5861773Y10734579D01*
X5857728Y10733454D01*
X5851672D01*
X5847627Y10734579D01*
X5832366Y10761013D01*
X5808013Y10785366D01*
X5778187Y10802586D01*
X5744920Y10811500D01*
X5710480D01*
X5677213Y10802586D01*
X5647387Y10785366D01*
X5623034Y10761013D01*
X5607773Y10734579D01*
X5603728Y10733454D01*
X5597672D01*
X5593627Y10734579D01*
X5578366Y10761013D01*
X5554013Y10785366D01*
X5524187Y10802586D01*
X5490920Y10811500D01*
X5456480D01*
X5423213Y10802586D01*
X5393387Y10785366D01*
X5369034Y10761013D01*
X5353773Y10734579D01*
X5349728Y10733454D01*
X5343672D01*
X5339627Y10734579D01*
X5324366Y10761013D01*
X5300013Y10785366D01*
X5270187Y10802586D01*
X5236920Y10811500D01*
X5202480D01*
X5169213Y10802586D01*
X5139387Y10785366D01*
X5115034Y10761013D01*
X5099773Y10734579D01*
X5095728Y10733454D01*
X5089672D01*
X5085627Y10734579D01*
X5070366Y10761013D01*
X5046013Y10785366D01*
X5016187Y10802586D01*
X4982920Y10811500D01*
X4948480D01*
X4915213Y10802586D01*
X4885387Y10785366D01*
X4861034Y10761013D01*
X4845773Y10734579D01*
X4841728Y10733454D01*
X4835672D01*
X4831627Y10734579D01*
X4816366Y10761013D01*
X4792013Y10785366D01*
X4762187Y10802586D01*
X4728920Y10811500D01*
X4694480D01*
X4661213Y10802586D01*
X4631387Y10785366D01*
X4607034Y10761013D01*
X4591773Y10734579D01*
X4587728Y10733454D01*
X4581672D01*
X4577627Y10734579D01*
X4562366Y10761013D01*
X4538013Y10785366D01*
X4508187Y10802586D01*
X4474920Y10811500D01*
X4440480D01*
X4407213Y10802586D01*
X4377387Y10785366D01*
X4353034Y10761013D01*
X4337773Y10734579D01*
X4333728Y10733454D01*
X4327672D01*
X4323627Y10734579D01*
X4308366Y10761013D01*
X4284013Y10785366D01*
X4254187Y10802586D01*
X4220920Y10811500D01*
X4186480D01*
X4153213Y10802586D01*
X4123387Y10785366D01*
X4099034Y10761013D01*
X4083773Y10734579D01*
X4079728Y10733454D01*
X4073672D01*
X4069627Y10734579D01*
X4054366Y10761013D01*
X4030013Y10785366D01*
X4000187Y10802586D01*
X3966920Y10811500D01*
X3932480D01*
X3899213Y10802586D01*
X3869387Y10785366D01*
X3845034Y10761013D01*
X3829773Y10734579D01*
X3825728Y10733454D01*
X3819672D01*
X3815627Y10734579D01*
X3800366Y10761013D01*
X3776013Y10785366D01*
X3746187Y10802586D01*
X3712920Y10811500D01*
X3678480D01*
X3645213Y10802586D01*
X3615387Y10785366D01*
X3591034Y10761013D01*
X3575773Y10734579D01*
X3571728Y10733454D01*
X3565672D01*
X3561627Y10734579D01*
X3546366Y10761013D01*
X3522013Y10785366D01*
X3492187Y10802586D01*
X3458920Y10811500D01*
X3424480D01*
X3391213Y10802586D01*
X3361387Y10785366D01*
X3337034Y10761013D01*
X3321773Y10734579D01*
X3317728Y10733454D01*
X3311672D01*
X3307627Y10734579D01*
X3292366Y10761013D01*
X3268013Y10785366D01*
X3238187Y10802586D01*
X3204920Y10811500D01*
X3170480D01*
X3137213Y10802586D01*
X3107387Y10785366D01*
X3083034Y10761013D01*
X3065814Y10731187D01*
X3056900Y10697920D01*
Y10663480D01*
X3065814Y10630213D01*
X3083034Y10600387D01*
X3107387Y10576034D01*
X3137213Y10558814D01*
X3170480Y10549900D01*
X3204920D01*
X3238187Y10558814D01*
X3268013Y10576034D01*
X3292366Y10600387D01*
X3307627Y10626821D01*
X3311672Y10627946D01*
X3317728D01*
X3321773Y10626821D01*
X3337034Y10600387D01*
X3361387Y10576034D01*
X3391213Y10558814D01*
X3424480Y10549900D01*
X3458920D01*
X3492187Y10558814D01*
X3522013Y10576034D01*
X3546366Y10600387D01*
X3561627Y10626821D01*
X3565672Y10627946D01*
X3571728D01*
X3575773Y10626821D01*
X3591034Y10600387D01*
X3615387Y10576034D01*
X3645213Y10558814D01*
X3678480Y10549900D01*
X3712920D01*
X3746187Y10558814D01*
X3776013Y10576034D01*
X3800366Y10600387D01*
X3815627Y10626821D01*
X3819672Y10627946D01*
X3825728D01*
X3829773Y10626821D01*
X3845034Y10600387D01*
X3869387Y10576034D01*
X3899213Y10558814D01*
X3932480Y10549900D01*
X3966920D01*
X4000187Y10558814D01*
X4030013Y10576034D01*
X4054366Y10600387D01*
X4069627Y10626821D01*
X4073672Y10627946D01*
X4079728D01*
X4083773Y10626821D01*
X4099034Y10600387D01*
X4123387Y10576034D01*
X4153213Y10558814D01*
X4186480Y10549900D01*
X4220920D01*
X4254187Y10558814D01*
X4284013Y10576034D01*
X4308366Y10600387D01*
X4323627Y10626821D01*
X4327672Y10627946D01*
X4333728D01*
X4337773Y10626821D01*
X4353034Y10600387D01*
X4377387Y10576034D01*
X4407213Y10558814D01*
X4440480Y10549900D01*
X4474920D01*
X4508187Y10558814D01*
X4538013Y10576034D01*
X4562366Y10600387D01*
X4577627Y10626821D01*
X4581672Y10627946D01*
X4587728D01*
X4591773Y10626821D01*
X4607034Y10600387D01*
X4631387Y10576034D01*
X4661213Y10558814D01*
X4694480Y10549900D01*
X4728920D01*
X4762187Y10558814D01*
X4792013Y10576034D01*
X4816366Y10600387D01*
X4831627Y10626821D01*
X4835672Y10627946D01*
X4841728D01*
X4845773Y10626821D01*
X4861034Y10600387D01*
X4885387Y10576034D01*
X4915213Y10558814D01*
X4948480Y10549900D01*
X4982920D01*
X5016187Y10558814D01*
X5046013Y10576034D01*
X5070366Y10600387D01*
X5085627Y10626821D01*
X5089672Y10627946D01*
X5095728D01*
X5099773Y10626821D01*
X5115034Y10600387D01*
X5139387Y10576034D01*
X5169213Y10558814D01*
X5202480Y10549900D01*
X5236920D01*
X5270187Y10558814D01*
X5300013Y10576034D01*
X5324366Y10600387D01*
X5339627Y10626821D01*
X5343672Y10627946D01*
X5349728D01*
X5353773Y10626821D01*
X5369034Y10600387D01*
X5393387Y10576034D01*
X5423213Y10558814D01*
X5456480Y10549900D01*
X5490920D01*
X5524187Y10558814D01*
X5554013Y10576034D01*
X5578366Y10600387D01*
X5593627Y10626821D01*
X5597672Y10627946D01*
X5603728D01*
X5607773Y10626821D01*
X5623034Y10600387D01*
X5647387Y10576034D01*
X5677213Y10558814D01*
X5710480Y10549900D01*
X5744920D01*
X5778187Y10558814D01*
X5808013Y10576034D01*
X5832366Y10600387D01*
X5847627Y10626821D01*
X5851672Y10627946D01*
X5857728D01*
X5861773Y10626821D01*
X5877034Y10600387D01*
X5901387Y10576034D01*
X5931213Y10558814D01*
X5964480Y10549900D01*
X5998920D01*
X6032187Y10558814D01*
X6062013Y10576034D01*
X6086366Y10600387D01*
X6103586Y10630213D01*
X6112500Y10663480D01*
Y10697920D01*
X6103586Y10731187D01*
X6086366Y10761013D01*
X6062013Y10785366D01*
X6032187Y10802586D01*
X5998920Y10811500D01*
D02*
G37*
G36*
X4038600Y10147300D02*
X2997200D01*
Y9817100D01*
X4038600D01*
Y10147300D01*
D02*
G37*
G36*
X5998920Y9757400D02*
X5964480D01*
X5931213Y9748486D01*
X5901387Y9731266D01*
X5877034Y9706913D01*
X5861773Y9680479D01*
X5857728Y9679354D01*
X5851672D01*
X5847627Y9680479D01*
X5832366Y9706913D01*
X5808013Y9731266D01*
X5778187Y9748486D01*
X5744920Y9757400D01*
X5710480D01*
X5677213Y9748486D01*
X5647387Y9731266D01*
X5623034Y9706913D01*
X5607773Y9680479D01*
X5603728Y9679354D01*
X5597672D01*
X5593627Y9680479D01*
X5578366Y9706913D01*
X5554013Y9731266D01*
X5524187Y9748486D01*
X5490920Y9757400D01*
X5456480D01*
X5423213Y9748486D01*
X5393387Y9731266D01*
X5369034Y9706913D01*
X5353773Y9680479D01*
X5349728Y9679354D01*
X5343672D01*
X5339627Y9680479D01*
X5324366Y9706913D01*
X5300013Y9731266D01*
X5270187Y9748486D01*
X5236920Y9757400D01*
X5202480D01*
X5169213Y9748486D01*
X5139387Y9731266D01*
X5115034Y9706913D01*
X5099773Y9680479D01*
X5095728Y9679354D01*
X5089672D01*
X5085627Y9680479D01*
X5070366Y9706913D01*
X5046013Y9731266D01*
X5016187Y9748486D01*
X4982920Y9757400D01*
X4948480D01*
X4915213Y9748486D01*
X4885387Y9731266D01*
X4861034Y9706913D01*
X4845773Y9680479D01*
X4841728Y9679354D01*
X4835672D01*
X4831627Y9680479D01*
X4816366Y9706913D01*
X4792013Y9731266D01*
X4762187Y9748486D01*
X4728920Y9757400D01*
X4694480D01*
X4661213Y9748486D01*
X4631387Y9731266D01*
X4607034Y9706913D01*
X4591773Y9680479D01*
X4587728Y9679354D01*
X4581672D01*
X4577627Y9680479D01*
X4562366Y9706913D01*
X4538013Y9731266D01*
X4508187Y9748486D01*
X4474920Y9757400D01*
X4440480D01*
X4407213Y9748486D01*
X4377387Y9731266D01*
X4353034Y9706913D01*
X4337773Y9680479D01*
X4333728Y9679354D01*
X4327672D01*
X4323627Y9680479D01*
X4308366Y9706913D01*
X4284013Y9731266D01*
X4254187Y9748486D01*
X4220920Y9757400D01*
X4186480D01*
X4153213Y9748486D01*
X4123387Y9731266D01*
X4099034Y9706913D01*
X4083773Y9680479D01*
X4079728Y9679354D01*
X4073672D01*
X4069627Y9680479D01*
X4054366Y9706913D01*
X4030013Y9731266D01*
X4000187Y9748486D01*
X3966920Y9757400D01*
X3932480D01*
X3899213Y9748486D01*
X3869387Y9731266D01*
X3845034Y9706913D01*
X3829773Y9680479D01*
X3825728Y9679354D01*
X3819672D01*
X3815627Y9680479D01*
X3800366Y9706913D01*
X3776013Y9731266D01*
X3746187Y9748486D01*
X3712920Y9757400D01*
X3678480D01*
X3645213Y9748486D01*
X3615387Y9731266D01*
X3591034Y9706913D01*
X3575773Y9680479D01*
X3571728Y9679354D01*
X3565672D01*
X3561627Y9680479D01*
X3546366Y9706913D01*
X3522013Y9731266D01*
X3492187Y9748486D01*
X3458920Y9757400D01*
X3424480D01*
X3391213Y9748486D01*
X3361387Y9731266D01*
X3337034Y9706913D01*
X3321773Y9680479D01*
X3317728Y9679354D01*
X3311672D01*
X3307627Y9680479D01*
X3292366Y9706913D01*
X3268013Y9731266D01*
X3238187Y9748486D01*
X3204920Y9757400D01*
X3170480D01*
X3137213Y9748486D01*
X3107387Y9731266D01*
X3083034Y9706913D01*
X3065814Y9677087D01*
X3056900Y9643820D01*
Y9609380D01*
X3065814Y9576113D01*
X3083034Y9546287D01*
X3107387Y9521934D01*
X3137213Y9504714D01*
X3170480Y9495800D01*
X3204920D01*
X3238187Y9504714D01*
X3268013Y9521934D01*
X3292366Y9546287D01*
X3307627Y9572721D01*
X3311672Y9573846D01*
X3317728D01*
X3321773Y9572721D01*
X3337034Y9546287D01*
X3361387Y9521934D01*
X3391213Y9504714D01*
X3424480Y9495800D01*
X3458920D01*
X3492187Y9504714D01*
X3522013Y9521934D01*
X3546366Y9546287D01*
X3561627Y9572721D01*
X3565672Y9573846D01*
X3571728D01*
X3575773Y9572721D01*
X3591034Y9546287D01*
X3615387Y9521934D01*
X3645213Y9504714D01*
X3678480Y9495800D01*
X3712920D01*
X3746187Y9504714D01*
X3776013Y9521934D01*
X3800366Y9546287D01*
X3815627Y9572721D01*
X3819672Y9573846D01*
X3825728D01*
X3829773Y9572721D01*
X3845034Y9546287D01*
X3869387Y9521934D01*
X3899213Y9504714D01*
X3932480Y9495800D01*
X3966920D01*
X4000187Y9504714D01*
X4030013Y9521934D01*
X4054366Y9546287D01*
X4069627Y9572721D01*
X4073672Y9573846D01*
X4079728D01*
X4083773Y9572721D01*
X4099034Y9546287D01*
X4123387Y9521934D01*
X4153213Y9504714D01*
X4186480Y9495800D01*
X4220920D01*
X4254187Y9504714D01*
X4284013Y9521934D01*
X4308366Y9546287D01*
X4323627Y9572721D01*
X4327672Y9573846D01*
X4333728D01*
X4337773Y9572721D01*
X4353034Y9546287D01*
X4377387Y9521934D01*
X4407213Y9504714D01*
X4440480Y9495800D01*
X4474920D01*
X4508187Y9504714D01*
X4538013Y9521934D01*
X4562366Y9546287D01*
X4577627Y9572721D01*
X4581672Y9573846D01*
X4587728D01*
X4591773Y9572721D01*
X4607034Y9546287D01*
X4631387Y9521934D01*
X4661213Y9504714D01*
X4694480Y9495800D01*
X4728920D01*
X4762187Y9504714D01*
X4792013Y9521934D01*
X4816366Y9546287D01*
X4831627Y9572721D01*
X4835672Y9573846D01*
X4841728D01*
X4845773Y9572721D01*
X4861034Y9546287D01*
X4885387Y9521934D01*
X4915213Y9504714D01*
X4948480Y9495800D01*
X4982920D01*
X5016187Y9504714D01*
X5046013Y9521934D01*
X5070366Y9546287D01*
X5085627Y9572721D01*
X5089672Y9573846D01*
X5095728D01*
X5099773Y9572721D01*
X5115034Y9546287D01*
X5139387Y9521934D01*
X5169213Y9504714D01*
X5202480Y9495800D01*
X5236920D01*
X5270187Y9504714D01*
X5300013Y9521934D01*
X5324366Y9546287D01*
X5339627Y9572721D01*
X5343672Y9573846D01*
X5349728D01*
X5353773Y9572721D01*
X5369034Y9546287D01*
X5393387Y9521934D01*
X5423213Y9504714D01*
X5456480Y9495800D01*
X5490920D01*
X5524187Y9504714D01*
X5554013Y9521934D01*
X5578366Y9546287D01*
X5593627Y9572721D01*
X5597672Y9573846D01*
X5603728D01*
X5607773Y9572721D01*
X5623034Y9546287D01*
X5647387Y9521934D01*
X5677213Y9504714D01*
X5710480Y9495800D01*
X5744920D01*
X5778187Y9504714D01*
X5808013Y9521934D01*
X5832366Y9546287D01*
X5847627Y9572721D01*
X5851672Y9573846D01*
X5857728D01*
X5861773Y9572721D01*
X5877034Y9546287D01*
X5901387Y9521934D01*
X5931213Y9504714D01*
X5964480Y9495800D01*
X5998920D01*
X6032187Y9504714D01*
X6062013Y9521934D01*
X6086366Y9546287D01*
X6103586Y9576113D01*
X6112500Y9609380D01*
Y9643820D01*
X6103586Y9677087D01*
X6086366Y9706913D01*
X6062013Y9731266D01*
X6032187Y9748486D01*
X5998920Y9757400D01*
D02*
G37*
G36*
X4000500Y9055034D02*
X2997200D01*
Y8699500D01*
X4000500D01*
Y9055034D01*
D02*
G37*
G36*
X5998920Y8677900D02*
X5964480D01*
X5931213Y8668986D01*
X5901387Y8651766D01*
X5877034Y8627413D01*
X5861773Y8600979D01*
X5857728Y8599854D01*
X5851672D01*
X5847627Y8600979D01*
X5832366Y8627413D01*
X5808013Y8651766D01*
X5778187Y8668986D01*
X5744920Y8677900D01*
X5710480D01*
X5677213Y8668986D01*
X5647387Y8651766D01*
X5623034Y8627413D01*
X5607773Y8600979D01*
X5603728Y8599854D01*
X5597672D01*
X5593627Y8600979D01*
X5578366Y8627413D01*
X5554013Y8651766D01*
X5524187Y8668986D01*
X5490920Y8677900D01*
X5456480D01*
X5423213Y8668986D01*
X5393387Y8651766D01*
X5369034Y8627413D01*
X5353773Y8600979D01*
X5349728Y8599854D01*
X5343672D01*
X5339627Y8600979D01*
X5324366Y8627413D01*
X5300013Y8651766D01*
X5270187Y8668986D01*
X5236920Y8677900D01*
X5202480D01*
X5169213Y8668986D01*
X5139387Y8651766D01*
X5115034Y8627413D01*
X5099773Y8600979D01*
X5095728Y8599854D01*
X5089672D01*
X5085627Y8600979D01*
X5070366Y8627413D01*
X5046013Y8651766D01*
X5016187Y8668986D01*
X4982920Y8677900D01*
X4948480D01*
X4915213Y8668986D01*
X4885387Y8651766D01*
X4861034Y8627413D01*
X4845773Y8600979D01*
X4841728Y8599854D01*
X4835672D01*
X4831627Y8600979D01*
X4816366Y8627413D01*
X4792013Y8651766D01*
X4762187Y8668986D01*
X4728920Y8677900D01*
X4694480D01*
X4661213Y8668986D01*
X4631387Y8651766D01*
X4607034Y8627413D01*
X4591773Y8600979D01*
X4587728Y8599854D01*
X4581672D01*
X4577627Y8600979D01*
X4562366Y8627413D01*
X4538013Y8651766D01*
X4508187Y8668986D01*
X4474920Y8677900D01*
X4440480D01*
X4407213Y8668986D01*
X4377387Y8651766D01*
X4353034Y8627413D01*
X4337773Y8600979D01*
X4333728Y8599854D01*
X4327672D01*
X4323627Y8600979D01*
X4308366Y8627413D01*
X4284013Y8651766D01*
X4254187Y8668986D01*
X4220920Y8677900D01*
X4186480D01*
X4153213Y8668986D01*
X4123387Y8651766D01*
X4099034Y8627413D01*
X4083773Y8600979D01*
X4079728Y8599854D01*
X4073672D01*
X4069627Y8600979D01*
X4054366Y8627413D01*
X4030013Y8651766D01*
X4000187Y8668986D01*
X3966920Y8677900D01*
X3932480D01*
X3899213Y8668986D01*
X3869387Y8651766D01*
X3845034Y8627413D01*
X3829773Y8600979D01*
X3825728Y8599854D01*
X3819672D01*
X3815627Y8600979D01*
X3800366Y8627413D01*
X3776013Y8651766D01*
X3746187Y8668986D01*
X3712920Y8677900D01*
X3678480D01*
X3645213Y8668986D01*
X3615387Y8651766D01*
X3591034Y8627413D01*
X3575773Y8600979D01*
X3571728Y8599854D01*
X3565672D01*
X3561627Y8600979D01*
X3546366Y8627413D01*
X3522013Y8651766D01*
X3492187Y8668986D01*
X3458920Y8677900D01*
X3424480D01*
X3391213Y8668986D01*
X3361387Y8651766D01*
X3337034Y8627413D01*
X3321773Y8600979D01*
X3317728Y8599854D01*
X3311672D01*
X3307627Y8600979D01*
X3292366Y8627413D01*
X3268013Y8651766D01*
X3238187Y8668986D01*
X3204920Y8677900D01*
X3170480D01*
X3137213Y8668986D01*
X3107387Y8651766D01*
X3083034Y8627413D01*
X3065814Y8597587D01*
X3056900Y8564320D01*
Y8529880D01*
X3065814Y8496613D01*
X3083034Y8466787D01*
X3107387Y8442434D01*
X3137213Y8425214D01*
X3170480Y8416300D01*
X3204920D01*
X3238187Y8425214D01*
X3268013Y8442434D01*
X3292366Y8466787D01*
X3307627Y8493221D01*
X3311672Y8494346D01*
X3317728D01*
X3321773Y8493221D01*
X3337034Y8466787D01*
X3361387Y8442434D01*
X3391213Y8425214D01*
X3424480Y8416300D01*
X3458920D01*
X3492187Y8425214D01*
X3522013Y8442434D01*
X3546366Y8466787D01*
X3561627Y8493221D01*
X3565672Y8494346D01*
X3571728D01*
X3575773Y8493221D01*
X3591034Y8466787D01*
X3615387Y8442434D01*
X3645213Y8425214D01*
X3678480Y8416300D01*
X3712920D01*
X3746187Y8425214D01*
X3776013Y8442434D01*
X3800366Y8466787D01*
X3815627Y8493221D01*
X3819672Y8494346D01*
X3825728D01*
X3829773Y8493221D01*
X3845034Y8466787D01*
X3869387Y8442434D01*
X3899213Y8425214D01*
X3932480Y8416300D01*
X3966920D01*
X4000187Y8425214D01*
X4030013Y8442434D01*
X4054366Y8466787D01*
X4069627Y8493221D01*
X4073672Y8494346D01*
X4079728D01*
X4083773Y8493221D01*
X4099034Y8466787D01*
X4123387Y8442434D01*
X4153213Y8425214D01*
X4186480Y8416300D01*
X4220920D01*
X4254187Y8425214D01*
X4284013Y8442434D01*
X4308366Y8466787D01*
X4323627Y8493221D01*
X4327672Y8494346D01*
X4333728D01*
X4337773Y8493221D01*
X4353034Y8466787D01*
X4377387Y8442434D01*
X4407213Y8425214D01*
X4440480Y8416300D01*
X4474920D01*
X4508187Y8425214D01*
X4538013Y8442434D01*
X4562366Y8466787D01*
X4577627Y8493221D01*
X4581672Y8494346D01*
X4587728D01*
X4591773Y8493221D01*
X4607034Y8466787D01*
X4631387Y8442434D01*
X4661213Y8425214D01*
X4694480Y8416300D01*
X4728920D01*
X4762187Y8425214D01*
X4792013Y8442434D01*
X4816366Y8466787D01*
X4831627Y8493221D01*
X4835672Y8494346D01*
X4841728D01*
X4845773Y8493221D01*
X4861034Y8466787D01*
X4885387Y8442434D01*
X4915213Y8425214D01*
X4948480Y8416300D01*
X4982920D01*
X5016187Y8425214D01*
X5046013Y8442434D01*
X5070366Y8466787D01*
X5085627Y8493221D01*
X5089672Y8494346D01*
X5095728D01*
X5099773Y8493221D01*
X5115034Y8466787D01*
X5139387Y8442434D01*
X5169213Y8425214D01*
X5202480Y8416300D01*
X5236920D01*
X5270187Y8425214D01*
X5300013Y8442434D01*
X5324366Y8466787D01*
X5339627Y8493221D01*
X5343672Y8494346D01*
X5349728D01*
X5353773Y8493221D01*
X5369034Y8466787D01*
X5393387Y8442434D01*
X5423213Y8425214D01*
X5456480Y8416300D01*
X5490920D01*
X5524187Y8425214D01*
X5554013Y8442434D01*
X5578366Y8466787D01*
X5593627Y8493221D01*
X5597672Y8494346D01*
X5603728D01*
X5607773Y8493221D01*
X5623034Y8466787D01*
X5647387Y8442434D01*
X5677213Y8425214D01*
X5710480Y8416300D01*
X5744920D01*
X5778187Y8425214D01*
X5808013Y8442434D01*
X5832366Y8466787D01*
X5847627Y8493221D01*
X5851672Y8494346D01*
X5857728D01*
X5861773Y8493221D01*
X5877034Y8466787D01*
X5901387Y8442434D01*
X5931213Y8425214D01*
X5964480Y8416300D01*
X5998920D01*
X6032187Y8425214D01*
X6062013Y8442434D01*
X6086366Y8466787D01*
X6103586Y8496613D01*
X6112500Y8529880D01*
Y8564320D01*
X6103586Y8597587D01*
X6086366Y8627413D01*
X6062013Y8651766D01*
X6032187Y8668986D01*
X5998920Y8677900D01*
D02*
G37*
G36*
X5942762Y7226234D02*
X3200400D01*
Y6870700D01*
X5942762D01*
Y7226234D01*
D02*
G37*
G36*
X5690316Y6731300D02*
X5689600D01*
Y6642100D01*
X5778800D01*
Y6642816D01*
X5771856Y6668732D01*
X5758440Y6691968D01*
X5739468Y6710940D01*
X5716232Y6724356D01*
X5690316Y6731300D01*
D02*
G37*
G36*
X5664200D02*
X5663484D01*
X5637568Y6724356D01*
X5614332Y6710940D01*
X5595360Y6691968D01*
X5581944Y6668732D01*
X5575000Y6642816D01*
Y6642100D01*
X5664200D01*
Y6731300D01*
D02*
G37*
G36*
X3492800D02*
X3403600D01*
Y6642100D01*
X3492800D01*
Y6731300D01*
D02*
G37*
G36*
X3378200D02*
X3289000D01*
Y6642100D01*
X3378200D01*
Y6731300D01*
D02*
G37*
G36*
X5778800Y6616700D02*
X5689600D01*
Y6527500D01*
X5690316D01*
X5716232Y6534444D01*
X5739468Y6547860D01*
X5758440Y6566832D01*
X5771856Y6590068D01*
X5778800Y6615984D01*
Y6616700D01*
D02*
G37*
G36*
X5664200D02*
X5575000D01*
Y6615984D01*
X5581944Y6590068D01*
X5595360Y6566832D01*
X5614332Y6547860D01*
X5637568Y6534444D01*
X5663484Y6527500D01*
X5664200D01*
Y6616700D01*
D02*
G37*
G36*
X3492800D02*
X3403600D01*
Y6527500D01*
X3492800D01*
Y6616700D01*
D02*
G37*
G36*
X3378200D02*
X3289000D01*
Y6527500D01*
X3378200D01*
Y6616700D01*
D02*
G37*
G36*
X5693659Y6502700D02*
X5660141D01*
X5627764Y6494025D01*
X5598736Y6477265D01*
X5575035Y6453564D01*
X5558275Y6424536D01*
X5549600Y6392159D01*
Y6358641D01*
X5558275Y6326264D01*
X5575035Y6297236D01*
X5598736Y6273535D01*
X5627764Y6256775D01*
X5635322Y6254750D01*
Y6242050D01*
X5627764Y6240025D01*
X5598736Y6223265D01*
X5575035Y6199564D01*
X5558275Y6170536D01*
X5549600Y6138159D01*
Y6104641D01*
X5558275Y6072264D01*
X5575035Y6043236D01*
X5598736Y6019535D01*
X5627764Y6002775D01*
X5660141Y5994100D01*
X5693659D01*
X5726036Y6002775D01*
X5755064Y6019535D01*
X5778765Y6043236D01*
X5795525Y6072264D01*
X5804200Y6104641D01*
Y6138159D01*
X5795525Y6170536D01*
X5778765Y6199564D01*
X5755064Y6223265D01*
X5726036Y6240025D01*
X5718478Y6242050D01*
Y6254750D01*
X5726036Y6256775D01*
X5755064Y6273535D01*
X5778765Y6297236D01*
X5795525Y6326264D01*
X5804200Y6358641D01*
Y6392159D01*
X5795525Y6424536D01*
X5778765Y6453564D01*
X5755064Y6477265D01*
X5726036Y6494025D01*
X5693659Y6502700D01*
D02*
G37*
G36*
X5690316Y5969300D02*
X5689600D01*
Y5880100D01*
X5778800D01*
Y5880816D01*
X5771856Y5906732D01*
X5758440Y5929968D01*
X5739468Y5948940D01*
X5716232Y5962356D01*
X5690316Y5969300D01*
D02*
G37*
G36*
X5664200D02*
X5663484D01*
X5637568Y5962356D01*
X5614332Y5948940D01*
X5595360Y5929968D01*
X5581944Y5906732D01*
X5575000Y5880816D01*
Y5880100D01*
X5664200D01*
Y5969300D01*
D02*
G37*
G36*
X5778800Y5854700D02*
X5689600D01*
Y5765500D01*
X5690316D01*
X5716232Y5772444D01*
X5739468Y5785860D01*
X5758440Y5804832D01*
X5771856Y5828068D01*
X5778800Y5853984D01*
Y5854700D01*
D02*
G37*
G36*
X5664200D02*
X5575000D01*
Y5853984D01*
X5581944Y5828068D01*
X5595360Y5804832D01*
X5614332Y5785860D01*
X5637568Y5772444D01*
X5663484Y5765500D01*
X5664200D01*
Y5854700D01*
D02*
G37*
G36*
X3407659Y6502700D02*
X3374141D01*
X3341764Y6494025D01*
X3312736Y6477265D01*
X3289035Y6453564D01*
X3272275Y6424536D01*
X3263600Y6392159D01*
Y6358641D01*
X3272275Y6326264D01*
X3289035Y6297236D01*
X3312736Y6273535D01*
X3341764Y6256775D01*
X3349322Y6254750D01*
Y6242050D01*
X3341764Y6240025D01*
X3312736Y6223265D01*
X3289035Y6199564D01*
X3272275Y6170536D01*
X3263600Y6138159D01*
Y6104641D01*
X3272275Y6072264D01*
X3289035Y6043236D01*
X3312736Y6019535D01*
X3341764Y6002775D01*
X3349322Y6000750D01*
Y5988050D01*
X3341764Y5986025D01*
X3312736Y5969265D01*
X3289035Y5945564D01*
X3272275Y5916536D01*
X3263600Y5884159D01*
Y5850641D01*
X3272275Y5818264D01*
X3289035Y5789236D01*
X3312736Y5765535D01*
X3341764Y5748775D01*
X3349322Y5746750D01*
Y5734050D01*
X3341764Y5732025D01*
X3312736Y5715265D01*
X3289035Y5691564D01*
X3272275Y5662536D01*
X3263600Y5630159D01*
Y5596641D01*
X3272275Y5564264D01*
X3289035Y5535236D01*
X3312736Y5511535D01*
X3341764Y5494775D01*
X3374141Y5486100D01*
X3407659D01*
X3440036Y5494775D01*
X3469064Y5511535D01*
X3492765Y5535236D01*
X3509525Y5564264D01*
X3518200Y5596641D01*
Y5630159D01*
X3509525Y5662536D01*
X3492765Y5691564D01*
X3469064Y5715265D01*
X3440036Y5732025D01*
X3432478Y5734050D01*
Y5746750D01*
X3440036Y5748775D01*
X3469064Y5765535D01*
X3492765Y5789236D01*
X3509525Y5818264D01*
X3518200Y5850641D01*
Y5884159D01*
X3509525Y5916536D01*
X3492765Y5945564D01*
X3469064Y5969265D01*
X3440036Y5986025D01*
X3432478Y5988050D01*
Y6000750D01*
X3440036Y6002775D01*
X3469064Y6019535D01*
X3492765Y6043236D01*
X3509525Y6072264D01*
X3518200Y6104641D01*
Y6138159D01*
X3509525Y6170536D01*
X3492765Y6199564D01*
X3469064Y6223265D01*
X3440036Y6240025D01*
X3432478Y6242050D01*
Y6254750D01*
X3440036Y6256775D01*
X3469064Y6273535D01*
X3492765Y6297236D01*
X3509525Y6326264D01*
X3518200Y6358641D01*
Y6392159D01*
X3509525Y6424536D01*
X3492765Y6453564D01*
X3469064Y6477265D01*
X3440036Y6494025D01*
X3407659Y6502700D01*
D02*
G37*
G36*
X3404316Y5461300D02*
X3403600D01*
Y5372100D01*
X3492800D01*
Y5372816D01*
X3485856Y5398732D01*
X3472440Y5421968D01*
X3453468Y5440940D01*
X3430232Y5454356D01*
X3404316Y5461300D01*
D02*
G37*
G36*
X3378200D02*
X3377484D01*
X3351568Y5454356D01*
X3328332Y5440940D01*
X3309360Y5421968D01*
X3295944Y5398732D01*
X3289000Y5372816D01*
Y5372100D01*
X3378200D01*
Y5461300D01*
D02*
G37*
G36*
X3492800Y5346700D02*
X3403600D01*
Y5257500D01*
X3404316D01*
X3430232Y5264444D01*
X3453468Y5277860D01*
X3472440Y5296832D01*
X3485856Y5320068D01*
X3492800Y5345984D01*
Y5346700D01*
D02*
G37*
G36*
X3378200D02*
X3289000D01*
Y5345984D01*
X3295944Y5320068D01*
X3309360Y5296832D01*
X3328332Y5277860D01*
X3351568Y5264444D01*
X3377484Y5257500D01*
X3378200D01*
Y5346700D01*
D02*
G37*
G36*
X5693659Y5740700D02*
X5660141D01*
X5627764Y5732025D01*
X5598736Y5715265D01*
X5575035Y5691564D01*
X5558275Y5662536D01*
X5549600Y5630159D01*
Y5596641D01*
X5558275Y5564264D01*
X5575035Y5535236D01*
X5598736Y5511535D01*
X5627764Y5494775D01*
X5635322Y5492750D01*
Y5480050D01*
X5627764Y5478025D01*
X5598736Y5461265D01*
X5575035Y5437564D01*
X5558275Y5408536D01*
X5549600Y5376159D01*
Y5342641D01*
X5558275Y5310264D01*
X5575035Y5281236D01*
X5598736Y5257535D01*
X5627764Y5240775D01*
X5660141Y5232100D01*
X5693659D01*
X5726036Y5240775D01*
X5755064Y5257535D01*
X5778765Y5281236D01*
X5795525Y5310264D01*
X5804200Y5342641D01*
Y5376159D01*
X5795525Y5408536D01*
X5778765Y5437564D01*
X5755064Y5461265D01*
X5726036Y5478025D01*
X5718478Y5480050D01*
Y5492750D01*
X5726036Y5494775D01*
X5755064Y5511535D01*
X5778765Y5535236D01*
X5795525Y5564264D01*
X5804200Y5596641D01*
Y5630159D01*
X5795525Y5662536D01*
X5778765Y5691564D01*
X5755064Y5715265D01*
X5726036Y5732025D01*
X5693659Y5740700D01*
D02*
G37*
G36*
X5690316Y5207300D02*
X5689600D01*
Y5118100D01*
X5778800D01*
Y5118816D01*
X5771856Y5144732D01*
X5758440Y5167968D01*
X5739468Y5186940D01*
X5716232Y5200356D01*
X5690316Y5207300D01*
D02*
G37*
G36*
X5664200D02*
X5663484D01*
X5637568Y5200356D01*
X5614332Y5186940D01*
X5595360Y5167968D01*
X5581944Y5144732D01*
X5575000Y5118816D01*
Y5118100D01*
X5664200D01*
Y5207300D01*
D02*
G37*
G36*
X5778800Y5092700D02*
X5689600D01*
Y5003500D01*
X5690316D01*
X5716232Y5010444D01*
X5739468Y5023860D01*
X5758440Y5042832D01*
X5771856Y5066068D01*
X5778800Y5091984D01*
Y5092700D01*
D02*
G37*
G36*
X5664200D02*
X5575000D01*
Y5091984D01*
X5581944Y5066068D01*
X5595360Y5042832D01*
X5614332Y5023860D01*
X5637568Y5010444D01*
X5663484Y5003500D01*
X5664200D01*
Y5092700D01*
D02*
G37*
G36*
X3407659Y5232700D02*
X3374141D01*
X3341764Y5224025D01*
X3312736Y5207265D01*
X3289035Y5183564D01*
X3272275Y5154536D01*
X3263600Y5122159D01*
Y5088641D01*
X3272275Y5056264D01*
X3289035Y5027236D01*
X3312736Y5003535D01*
X3341764Y4986775D01*
X3374141Y4978100D01*
X3407659D01*
X3440036Y4986775D01*
X3469064Y5003535D01*
X3492765Y5027236D01*
X3509525Y5056264D01*
X3518200Y5088641D01*
Y5122159D01*
X3509525Y5154536D01*
X3492765Y5183564D01*
X3469064Y5207265D01*
X3440036Y5224025D01*
X3407659Y5232700D01*
D02*
G37*
G36*
X3404316Y4953300D02*
X3403600D01*
Y4864100D01*
X3492800D01*
Y4864816D01*
X3485856Y4890732D01*
X3472440Y4913968D01*
X3453468Y4932940D01*
X3430232Y4946356D01*
X3404316Y4953300D01*
D02*
G37*
G36*
X3378200D02*
X3377484D01*
X3351568Y4946356D01*
X3328332Y4932940D01*
X3309360Y4913968D01*
X3295944Y4890732D01*
X3289000Y4864816D01*
Y4864100D01*
X3378200D01*
Y4953300D01*
D02*
G37*
G36*
X3492800Y4838700D02*
X3403600D01*
Y4749500D01*
X3404316D01*
X3430232Y4756444D01*
X3453468Y4769860D01*
X3472440Y4788832D01*
X3485856Y4812068D01*
X3492800Y4837984D01*
Y4838700D01*
D02*
G37*
G36*
X3378200D02*
X3289000D01*
Y4837984D01*
X3295944Y4812068D01*
X3309360Y4788832D01*
X3328332Y4769860D01*
X3351568Y4756444D01*
X3377484Y4749500D01*
X3378200D01*
Y4838700D01*
D02*
G37*
G36*
X5693659Y4978700D02*
X5660141D01*
X5627764Y4970025D01*
X5598736Y4953265D01*
X5575035Y4929564D01*
X5558275Y4900536D01*
X5549600Y4868159D01*
Y4834641D01*
X5558275Y4802264D01*
X5575035Y4773236D01*
X5598736Y4749535D01*
X5627764Y4732775D01*
X5635322Y4730750D01*
Y4718050D01*
X5627764Y4716025D01*
X5598736Y4699265D01*
X5575035Y4675564D01*
X5558275Y4646536D01*
X5549600Y4614159D01*
Y4580641D01*
X5558275Y4548264D01*
X5575035Y4519236D01*
X5598736Y4495535D01*
X5627764Y4478775D01*
X5635322Y4476750D01*
Y4464050D01*
X5627764Y4462025D01*
X5598736Y4445265D01*
X5575035Y4421564D01*
X5558275Y4392536D01*
X5549600Y4360159D01*
Y4326641D01*
X5558275Y4294264D01*
X5575035Y4265236D01*
X5598736Y4241535D01*
X5627764Y4224775D01*
X5635322Y4222750D01*
Y4210050D01*
X5627764Y4208025D01*
X5598736Y4191265D01*
X5575035Y4167564D01*
X5558275Y4138536D01*
X5549600Y4106159D01*
Y4072641D01*
X5558275Y4040264D01*
X5575035Y4011236D01*
X5598736Y3987535D01*
X5627764Y3970775D01*
X5660141Y3962100D01*
X5693659D01*
X5726036Y3970775D01*
X5755064Y3987535D01*
X5778765Y4011236D01*
X5795525Y4040264D01*
X5804200Y4072641D01*
Y4106159D01*
X5795525Y4138536D01*
X5778765Y4167564D01*
X5755064Y4191265D01*
X5726036Y4208025D01*
X5718478Y4210050D01*
Y4222750D01*
X5726036Y4224775D01*
X5755064Y4241535D01*
X5778765Y4265236D01*
X5795525Y4294264D01*
X5804200Y4326641D01*
Y4360159D01*
X5795525Y4392536D01*
X5778765Y4421564D01*
X5755064Y4445265D01*
X5726036Y4462025D01*
X5718478Y4464050D01*
Y4476750D01*
X5726036Y4478775D01*
X5755064Y4495535D01*
X5778765Y4519236D01*
X5795525Y4548264D01*
X5804200Y4580641D01*
Y4614159D01*
X5795525Y4646536D01*
X5778765Y4675564D01*
X5755064Y4699265D01*
X5726036Y4716025D01*
X5718478Y4718050D01*
Y4730750D01*
X5726036Y4732775D01*
X5755064Y4749535D01*
X5778765Y4773236D01*
X5795525Y4802264D01*
X5804200Y4834641D01*
Y4868159D01*
X5795525Y4900536D01*
X5778765Y4929564D01*
X5755064Y4953265D01*
X5726036Y4970025D01*
X5693659Y4978700D01*
D02*
G37*
G36*
X3407659Y4724700D02*
X3374141D01*
X3341764Y4716025D01*
X3312736Y4699265D01*
X3289035Y4675564D01*
X3272275Y4646536D01*
X3263600Y4614159D01*
Y4580641D01*
X3272275Y4548264D01*
X3289035Y4519236D01*
X3312736Y4495535D01*
X3341764Y4478775D01*
X3349322Y4476750D01*
Y4464050D01*
X3341764Y4462025D01*
X3312736Y4445265D01*
X3289035Y4421564D01*
X3272275Y4392536D01*
X3263600Y4360159D01*
Y4326641D01*
X3272275Y4294264D01*
X3289035Y4265236D01*
X3312736Y4241535D01*
X3341764Y4224775D01*
X3349322Y4222750D01*
Y4210050D01*
X3341764Y4208025D01*
X3312736Y4191265D01*
X3289035Y4167564D01*
X3272275Y4138536D01*
X3263600Y4106159D01*
Y4072641D01*
X3272275Y4040264D01*
X3289035Y4011236D01*
X3312736Y3987535D01*
X3341764Y3970775D01*
X3374141Y3962100D01*
X3407659D01*
X3440036Y3970775D01*
X3469064Y3987535D01*
X3492765Y4011236D01*
X3509525Y4040264D01*
X3518200Y4072641D01*
Y4106159D01*
X3509525Y4138536D01*
X3492765Y4167564D01*
X3469064Y4191265D01*
X3440036Y4208025D01*
X3432478Y4210050D01*
Y4222750D01*
X3440036Y4224775D01*
X3469064Y4241535D01*
X3492765Y4265236D01*
X3509525Y4294264D01*
X3518200Y4326641D01*
Y4360159D01*
X3509525Y4392536D01*
X3492765Y4421564D01*
X3469064Y4445265D01*
X3440036Y4462025D01*
X3432478Y4464050D01*
Y4476750D01*
X3440036Y4478775D01*
X3469064Y4495535D01*
X3492765Y4519236D01*
X3509525Y4548264D01*
X3518200Y4580641D01*
Y4614159D01*
X3509525Y4646536D01*
X3492765Y4675564D01*
X3469064Y4699265D01*
X3440036Y4716025D01*
X3407659Y4724700D01*
D02*
G37*
G36*
X5690316Y3937300D02*
X5689600D01*
Y3848100D01*
X5778800D01*
Y3848816D01*
X5771856Y3874732D01*
X5758440Y3897968D01*
X5739468Y3916940D01*
X5716232Y3930356D01*
X5690316Y3937300D01*
D02*
G37*
G36*
X5664200D02*
X5663484D01*
X5637568Y3930356D01*
X5614332Y3916940D01*
X5595360Y3897968D01*
X5581944Y3874732D01*
X5575000Y3848816D01*
Y3848100D01*
X5664200D01*
Y3937300D01*
D02*
G37*
G36*
X3404316D02*
X3403600D01*
Y3848100D01*
X3492800D01*
Y3848816D01*
X3485856Y3874732D01*
X3472440Y3897968D01*
X3453468Y3916940D01*
X3430232Y3930356D01*
X3404316Y3937300D01*
D02*
G37*
G36*
X3378200D02*
X3377484D01*
X3351568Y3930356D01*
X3328332Y3916940D01*
X3309360Y3897968D01*
X3295944Y3874732D01*
X3289000Y3848816D01*
Y3848100D01*
X3378200D01*
Y3937300D01*
D02*
G37*
G36*
X5778800Y3822700D02*
X5689600D01*
Y3733500D01*
X5690316D01*
X5716232Y3740444D01*
X5739468Y3753860D01*
X5758440Y3772832D01*
X5771856Y3796068D01*
X5778800Y3821984D01*
Y3822700D01*
D02*
G37*
G36*
X5664200D02*
X5575000D01*
Y3821984D01*
X5581944Y3796068D01*
X5595360Y3772832D01*
X5614332Y3753860D01*
X5637568Y3740444D01*
X5663484Y3733500D01*
X5664200D01*
Y3822700D01*
D02*
G37*
G36*
X3492800D02*
X3403600D01*
Y3733500D01*
X3404316D01*
X3430232Y3740444D01*
X3453468Y3753860D01*
X3472440Y3772832D01*
X3485856Y3796068D01*
X3492800Y3821984D01*
Y3822700D01*
D02*
G37*
G36*
X3378200D02*
X3289000D01*
Y3821984D01*
X3295944Y3796068D01*
X3309360Y3772832D01*
X3328332Y3753860D01*
X3351568Y3740444D01*
X3377484Y3733500D01*
X3378200D01*
Y3822700D01*
D02*
G37*
G36*
X5693659Y3708700D02*
X5660141D01*
X5627764Y3700025D01*
X5598736Y3683265D01*
X5575035Y3659564D01*
X5558275Y3630536D01*
X5549600Y3598159D01*
Y3564641D01*
X5558275Y3532264D01*
X5575035Y3503236D01*
X5598736Y3479535D01*
X5627764Y3462775D01*
X5635322Y3460750D01*
Y3448050D01*
X5627764Y3446025D01*
X5598736Y3429265D01*
X5575035Y3405564D01*
X5558275Y3376536D01*
X5549600Y3344159D01*
Y3310641D01*
X5558275Y3278264D01*
X5575035Y3249236D01*
X5598736Y3225535D01*
X5627764Y3208775D01*
X5660141Y3200100D01*
X5693659D01*
X5726036Y3208775D01*
X5755064Y3225535D01*
X5778765Y3249236D01*
X5795525Y3278264D01*
X5804200Y3310641D01*
Y3344159D01*
X5795525Y3376536D01*
X5778765Y3405564D01*
X5755064Y3429265D01*
X5726036Y3446025D01*
X5718478Y3448050D01*
Y3460750D01*
X5726036Y3462775D01*
X5755064Y3479535D01*
X5778765Y3503236D01*
X5795525Y3532264D01*
X5804200Y3564641D01*
Y3598159D01*
X5795525Y3630536D01*
X5778765Y3659564D01*
X5755064Y3683265D01*
X5726036Y3700025D01*
X5693659Y3708700D01*
D02*
G37*
G36*
X3407659D02*
X3374141D01*
X3341764Y3700025D01*
X3312736Y3683265D01*
X3289035Y3659564D01*
X3272275Y3630536D01*
X3263600Y3598159D01*
Y3564641D01*
X3272275Y3532264D01*
X3289035Y3503236D01*
X3312736Y3479535D01*
X3341764Y3462775D01*
X3349322Y3460750D01*
Y3448050D01*
X3341764Y3446025D01*
X3312736Y3429265D01*
X3289035Y3405564D01*
X3272275Y3376536D01*
X3263600Y3344159D01*
Y3310641D01*
X3272275Y3278264D01*
X3289035Y3249236D01*
X3312736Y3225535D01*
X3341764Y3208775D01*
X3374141Y3200100D01*
X3407659D01*
X3440036Y3208775D01*
X3469064Y3225535D01*
X3492765Y3249236D01*
X3509525Y3278264D01*
X3518200Y3310641D01*
Y3344159D01*
X3509525Y3376536D01*
X3492765Y3405564D01*
X3469064Y3429265D01*
X3440036Y3446025D01*
X3432478Y3448050D01*
Y3460750D01*
X3440036Y3462775D01*
X3469064Y3479535D01*
X3492765Y3503236D01*
X3509525Y3532264D01*
X3518200Y3564641D01*
Y3598159D01*
X3509525Y3630536D01*
X3492765Y3659564D01*
X3469064Y3683265D01*
X3440036Y3700025D01*
X3407659Y3708700D01*
D02*
G37*
G36*
X5690316Y3175300D02*
X5689600D01*
Y3086100D01*
X5778800D01*
Y3086816D01*
X5771856Y3112732D01*
X5758440Y3135968D01*
X5739468Y3154940D01*
X5716232Y3168356D01*
X5690316Y3175300D01*
D02*
G37*
G36*
X5664200D02*
X5663484D01*
X5637568Y3168356D01*
X5614332Y3154940D01*
X5595360Y3135968D01*
X5581944Y3112732D01*
X5575000Y3086816D01*
Y3086100D01*
X5664200D01*
Y3175300D01*
D02*
G37*
G36*
X3404316D02*
X3403600D01*
Y3086100D01*
X3492800D01*
Y3086816D01*
X3485856Y3112732D01*
X3472440Y3135968D01*
X3453468Y3154940D01*
X3430232Y3168356D01*
X3404316Y3175300D01*
D02*
G37*
G36*
X3378200D02*
X3377484D01*
X3351568Y3168356D01*
X3328332Y3154940D01*
X3309360Y3135968D01*
X3295944Y3112732D01*
X3289000Y3086816D01*
Y3086100D01*
X3378200D01*
Y3175300D01*
D02*
G37*
G36*
X5778800Y3060700D02*
X5689600D01*
Y2971500D01*
X5690316D01*
X5716232Y2978444D01*
X5739468Y2991860D01*
X5758440Y3010832D01*
X5771856Y3034068D01*
X5778800Y3059984D01*
Y3060700D01*
D02*
G37*
G36*
X5664200D02*
X5575000D01*
Y3059984D01*
X5581944Y3034068D01*
X5595360Y3010832D01*
X5614332Y2991860D01*
X5637568Y2978444D01*
X5663484Y2971500D01*
X5664200D01*
Y3060700D01*
D02*
G37*
G36*
X3492800D02*
X3403600D01*
Y2971500D01*
X3404316D01*
X3430232Y2978444D01*
X3453468Y2991860D01*
X3472440Y3010832D01*
X3485856Y3034068D01*
X3492800Y3059984D01*
Y3060700D01*
D02*
G37*
G36*
X3378200D02*
X3289000D01*
Y3059984D01*
X3295944Y3034068D01*
X3309360Y3010832D01*
X3328332Y2991860D01*
X3351568Y2978444D01*
X3377484Y2971500D01*
X3378200D01*
Y3060700D01*
D02*
G37*
%LPD*%
D10*
X3073400Y8775700D02*
Y8928051D01*
X3174967Y8775700D01*
Y8928051D01*
X3251143Y8775700D02*
X3301926D01*
X3327318Y8801092D01*
Y8851875D01*
X3301926Y8877267D01*
X3251143D01*
X3225751Y8851875D01*
Y8801092D01*
X3251143Y8775700D01*
X3479669Y8928051D02*
Y8775700D01*
X3403493D01*
X3378101Y8801092D01*
Y8851875D01*
X3403493Y8877267D01*
X3479669D01*
X3606628Y8775700D02*
X3555844D01*
X3530452Y8801092D01*
Y8851875D01*
X3555844Y8877267D01*
X3606628D01*
X3632019Y8851875D01*
Y8826483D01*
X3530452D01*
X3835154Y8775700D02*
X3885937D01*
X3860545D01*
Y8928051D01*
X3835154Y8902659D01*
X2971767Y12471359D02*
X2946375Y12496751D01*
X2895592D01*
X2870200Y12471359D01*
Y12369792D01*
X2895592Y12344400D01*
X2946375D01*
X2971767Y12369792D01*
Y12420575D01*
X2920983D01*
X3022551Y12344400D02*
Y12496751D01*
X3124118Y12344400D01*
Y12496751D01*
X3174901D02*
Y12344400D01*
X3251077D01*
X3276469Y12369792D01*
Y12471359D01*
X3251077Y12496751D01*
X3174901D01*
X3073400Y9893300D02*
Y10045651D01*
X3174967Y9893300D01*
Y10045651D01*
X3251143Y9893300D02*
X3301926D01*
X3327318Y9918692D01*
Y9969475D01*
X3301926Y9994867D01*
X3251143D01*
X3225751Y9969475D01*
Y9918692D01*
X3251143Y9893300D01*
X3479669Y10045651D02*
Y9893300D01*
X3403493D01*
X3378101Y9918692D01*
Y9969475D01*
X3403493Y9994867D01*
X3479669D01*
X3606628Y9893300D02*
X3555844D01*
X3530452Y9918692D01*
Y9969475D01*
X3555844Y9994867D01*
X3606628D01*
X3632019Y9969475D01*
Y9944083D01*
X3530452D01*
X3936721Y9893300D02*
X3835154D01*
X3936721Y9994867D01*
Y10020259D01*
X3911329Y10045651D01*
X3860545D01*
X3835154Y10020259D01*
X3378167Y7099251D02*
X3276600D01*
Y6946900D01*
X3378167D01*
X3276600Y7023075D02*
X3327383D01*
X3530518Y7073859D02*
X3505126Y7099251D01*
X3454343D01*
X3428951Y7073859D01*
Y7048467D01*
X3454343Y7023075D01*
X3505126D01*
X3530518Y6997683D01*
Y6972292D01*
X3505126Y6946900D01*
X3454343D01*
X3428951Y6972292D01*
X3581301Y6946900D02*
Y7099251D01*
X3657477D01*
X3682869Y7073859D01*
Y7023075D01*
X3657477Y6997683D01*
X3581301D01*
X3733652Y7073859D02*
X3759044Y7099251D01*
X3809828D01*
X3835219Y7073859D01*
Y7048467D01*
X3809828Y7023075D01*
X3784436D01*
X3809828D01*
X3835219Y6997683D01*
Y6972292D01*
X3809828Y6946900D01*
X3759044D01*
X3733652Y6972292D01*
X3987570Y6946900D02*
X3886003D01*
X3987570Y7048467D01*
Y7073859D01*
X3962178Y7099251D01*
X3911395D01*
X3886003Y7073859D01*
X4038354Y7023075D02*
X4139921D01*
X4292272Y7073859D02*
X4266880Y7099251D01*
X4216096D01*
X4190704Y7073859D01*
Y6972292D01*
X4216096Y6946900D01*
X4266880D01*
X4292272Y6972292D01*
X4343055Y7073859D02*
X4368447Y7099251D01*
X4419230D01*
X4444622Y7073859D01*
Y7048467D01*
X4419230Y7023075D01*
X4393839D01*
X4419230D01*
X4444622Y6997683D01*
Y6972292D01*
X4419230Y6946900D01*
X4368447D01*
X4343055Y6972292D01*
X4495406Y7023075D02*
X4596973D01*
X4647757Y7099251D02*
Y6946900D01*
X4723932D01*
X4749324Y6972292D01*
Y7073859D01*
X4723932Y7099251D01*
X4647757D01*
X4876283Y6946900D02*
X4825499D01*
X4800107Y6972292D01*
Y7023075D01*
X4825499Y7048467D01*
X4876283D01*
X4901674Y7023075D01*
Y6997683D01*
X4800107D01*
X4952458Y7048467D02*
X5003241Y6946900D01*
X5054025Y7048467D01*
X5104809Y6946900D02*
Y7099251D01*
Y6997683D02*
X5180984Y7048467D01*
X5104809Y6997683D02*
X5180984Y6946900D01*
X5257159D02*
X5307943D01*
X5282551D01*
Y7048467D01*
X5257159D01*
X5409510Y7073859D02*
Y7048467D01*
X5384118D01*
X5434902D01*
X5409510D01*
Y6972292D01*
X5434902Y6946900D01*
X5511077D02*
Y7099251D01*
X5561861Y7048467D01*
X5612644Y7099251D01*
Y6946900D01*
X5663428Y7023075D02*
X5764995D01*
X5815779Y6946900D02*
X5866562D01*
X5841170D01*
Y7099251D01*
X5815779Y7073859D01*
X3073400Y10922000D02*
Y11074351D01*
X3174967Y10922000D01*
Y11074351D01*
X3251143Y10922000D02*
X3301926D01*
X3327318Y10947392D01*
Y10998175D01*
X3301926Y11023567D01*
X3251143D01*
X3225751Y10998175D01*
Y10947392D01*
X3251143Y10922000D01*
X3479669Y11074351D02*
Y10922000D01*
X3403493D01*
X3378101Y10947392D01*
Y10998175D01*
X3403493Y11023567D01*
X3479669D01*
X3606628Y10922000D02*
X3555844D01*
X3530452Y10947392D01*
Y10998175D01*
X3555844Y11023567D01*
X3606628D01*
X3632019Y10998175D01*
Y10972783D01*
X3530452D01*
X3835154Y11048959D02*
X3860545Y11074351D01*
X3911329D01*
X3936721Y11048959D01*
Y11023567D01*
X3911329Y10998175D01*
X3885937D01*
X3911329D01*
X3936721Y10972783D01*
Y10947392D01*
X3911329Y10922000D01*
X3860545D01*
X3835154Y10947392D01*
D11*
X4203700Y11061700D02*
D03*
Y12077700D02*
D03*
X5981700Y11061700D02*
D03*
Y12077700D02*
D03*
X5727700Y11061700D02*
D03*
Y12077700D02*
D03*
X5473700Y11061700D02*
D03*
Y12077700D02*
D03*
X5219700Y11061700D02*
D03*
Y12077700D02*
D03*
X4965700Y11061700D02*
D03*
Y12077700D02*
D03*
X4711700Y11061700D02*
D03*
Y12077700D02*
D03*
X4457700Y11061700D02*
D03*
Y12077700D02*
D03*
D12*
X3390900Y6629400D02*
D03*
D13*
Y6375400D02*
D03*
Y6121400D02*
D03*
Y5867400D02*
D03*
Y5613400D02*
D03*
Y5359400D02*
D03*
Y5105400D02*
D03*
Y4851400D02*
D03*
Y4597400D02*
D03*
Y4343400D02*
D03*
Y4089400D02*
D03*
Y3835400D02*
D03*
Y3581400D02*
D03*
Y3327400D02*
D03*
Y3073400D02*
D03*
X5676900D02*
D03*
Y3327400D02*
D03*
Y3581400D02*
D03*
Y3835400D02*
D03*
Y4089400D02*
D03*
Y4343400D02*
D03*
Y4597400D02*
D03*
Y4851400D02*
D03*
Y5105400D02*
D03*
Y5359400D02*
D03*
Y5613400D02*
D03*
Y5867400D02*
D03*
Y6121400D02*
D03*
Y6375400D02*
D03*
Y6629400D02*
D03*
D14*
X3187700Y8547100D02*
D03*
X3441700D02*
D03*
X3695700D02*
D03*
X5981700D02*
D03*
X5727700D02*
D03*
X5473700D02*
D03*
X5219700D02*
D03*
X4965700D02*
D03*
X4711700D02*
D03*
X4457700D02*
D03*
X4203700D02*
D03*
X3949700D02*
D03*
X2832100Y12065000D02*
D03*
X3086100D02*
D03*
X3340100D02*
D03*
X3187700Y9626600D02*
D03*
X3441700D02*
D03*
X3695700D02*
D03*
X5981700D02*
D03*
X5727700D02*
D03*
X5473700D02*
D03*
X5219700D02*
D03*
X4965700D02*
D03*
X4711700D02*
D03*
X4457700D02*
D03*
X4203700D02*
D03*
X3949700D02*
D03*
X3187700Y10680700D02*
D03*
X3441700D02*
D03*
X3695700D02*
D03*
X5981700D02*
D03*
X5727700D02*
D03*
X5473700D02*
D03*
X5219700D02*
D03*
X4965700D02*
D03*
X4711700D02*
D03*
X4457700D02*
D03*
X4203700D02*
D03*
X3949700D02*
D03*
%TF.MD5,eb271531b0dd07d689fb97dfd3211242*%
M02*
