%TF.GenerationSoftware,Altium Limited,Altium Designer,23.10.1 (27)*%
G04 Layer_Color=0*
%FSLAX45Y45*%
%MOMM*%
%TF.SameCoordinates,40B06F7F-77FB-44A8-8835-1C76E92FD704*%
%TF.FilePolarity,Positive*%
%TF.FileFunction,Plated,1,2,PTH,Drill*%
%TF.Part,Single*%
G01*
G75*
%TA.AperFunction,ComponentDrill*%
%ADD17C,0.80000*%
%ADD18C,1.02000*%
%ADD19C,1.00000*%
D17*
X4203700Y11061700D02*
D03*
Y12077700D02*
D03*
X5981700Y11061700D02*
D03*
Y12077700D02*
D03*
X5727700Y11061700D02*
D03*
Y12077700D02*
D03*
X5473700Y11061700D02*
D03*
Y12077700D02*
D03*
X5219700Y11061700D02*
D03*
Y12077700D02*
D03*
X4965700Y11061700D02*
D03*
Y12077700D02*
D03*
X4711700Y11061700D02*
D03*
Y12077700D02*
D03*
X4457700Y11061700D02*
D03*
Y12077700D02*
D03*
D18*
X3390900Y6629400D02*
D03*
Y6375400D02*
D03*
Y6121400D02*
D03*
Y5867400D02*
D03*
Y5613400D02*
D03*
Y5359400D02*
D03*
Y5105400D02*
D03*
Y4851400D02*
D03*
Y4597400D02*
D03*
Y4343400D02*
D03*
Y4089400D02*
D03*
Y3835400D02*
D03*
Y3581400D02*
D03*
Y3327400D02*
D03*
Y3073400D02*
D03*
X5676900D02*
D03*
Y3327400D02*
D03*
Y3581400D02*
D03*
Y3835400D02*
D03*
Y4089400D02*
D03*
Y4343400D02*
D03*
Y4597400D02*
D03*
Y4851400D02*
D03*
Y5105400D02*
D03*
Y5359400D02*
D03*
Y5613400D02*
D03*
Y5867400D02*
D03*
Y6121400D02*
D03*
Y6375400D02*
D03*
Y6629400D02*
D03*
D19*
X3187700Y8547100D02*
D03*
X3441700D02*
D03*
X3695700D02*
D03*
X5981700D02*
D03*
X5727700D02*
D03*
X5473700D02*
D03*
X5219700D02*
D03*
X4965700D02*
D03*
X4711700D02*
D03*
X4457700D02*
D03*
X4203700D02*
D03*
X3949700D02*
D03*
X2832100Y12065000D02*
D03*
X3086100D02*
D03*
X3340100D02*
D03*
X3187700Y9626600D02*
D03*
X3441700D02*
D03*
X3695700D02*
D03*
X5981700D02*
D03*
X5727700D02*
D03*
X5473700D02*
D03*
X5219700D02*
D03*
X4965700D02*
D03*
X4711700D02*
D03*
X4457700D02*
D03*
X4203700D02*
D03*
X3949700D02*
D03*
X3187700Y10680700D02*
D03*
X3441700D02*
D03*
X3695700D02*
D03*
X5981700D02*
D03*
X5727700D02*
D03*
X5473700D02*
D03*
X5219700D02*
D03*
X4965700D02*
D03*
X4711700D02*
D03*
X4457700D02*
D03*
X4203700D02*
D03*
X3949700D02*
D03*
%TF.MD5,2061af232bc4f28ff0e18fab9269e75f*%
M02*
