%TF.GenerationSoftware,Altium Limited,Altium Designer,23.10.1 (27)*%
G04 Layer_Color=0*
%FSLAX45Y45*%
%MOMM*%
%TF.SameCoordinates,40559D1A-9741-442B-B983-05AFCF4434A8*%
%TF.FilePolarity,Positive*%
%TF.FileFunction,Plated,1,2,PTH,Drill*%
%TF.Part,Single*%
G01*
G75*
%TA.AperFunction,ComponentDrill*%
%ADD16C,1.02000*%
%ADD17C,1.00000*%
D16*
X3149600Y6629400D02*
D03*
Y6375400D02*
D03*
Y6121400D02*
D03*
Y5867400D02*
D03*
Y5613400D02*
D03*
Y5359400D02*
D03*
Y5105400D02*
D03*
Y4851400D02*
D03*
Y4597400D02*
D03*
Y4343400D02*
D03*
Y4089400D02*
D03*
Y3835400D02*
D03*
Y3581400D02*
D03*
Y3327400D02*
D03*
Y3073400D02*
D03*
X5435600D02*
D03*
Y3327400D02*
D03*
Y3581400D02*
D03*
Y3835400D02*
D03*
Y4089400D02*
D03*
Y4343400D02*
D03*
Y4597400D02*
D03*
Y4851400D02*
D03*
Y5105400D02*
D03*
Y5359400D02*
D03*
Y5613400D02*
D03*
Y5867400D02*
D03*
Y6121400D02*
D03*
Y6375400D02*
D03*
Y6629400D02*
D03*
D17*
X2921000Y8547100D02*
D03*
X3175000D02*
D03*
X3429000D02*
D03*
X5715000D02*
D03*
X5461000D02*
D03*
X5207000D02*
D03*
X4953000D02*
D03*
X4699000D02*
D03*
X4445000D02*
D03*
X4191000D02*
D03*
X3937000D02*
D03*
X3683000D02*
D03*
X4025900Y11772900D02*
D03*
X4279900D02*
D03*
X4533900D02*
D03*
X2921000Y9601200D02*
D03*
X3175000D02*
D03*
X3429000D02*
D03*
X5715000D02*
D03*
X5461000D02*
D03*
X5207000D02*
D03*
X4953000D02*
D03*
X4699000D02*
D03*
X4445000D02*
D03*
X4191000D02*
D03*
X3937000D02*
D03*
X3683000D02*
D03*
X2933700Y10680700D02*
D03*
X3187700D02*
D03*
X3441700D02*
D03*
X5727700D02*
D03*
X5473700D02*
D03*
X5219700D02*
D03*
X4965700D02*
D03*
X4711700D02*
D03*
X4457700D02*
D03*
X4203700D02*
D03*
X3949700D02*
D03*
X3695700D02*
D03*
%TF.MD5,b617aefe282f67e5847861378b169037*%
M02*
