%TF.GenerationSoftware,Altium Limited,Altium Designer,23.10.1 (27)*%
G04 Layer_Physical_Order=2*
G04 Layer_Color=16711680*
%FSLAX45Y45*%
%MOMM*%
%TF.SameCoordinates,40559D1A-9741-442B-B983-05AFCF4434A8*%
%TF.FilePolarity,Positive*%
%TF.FileFunction,Copper,L2,Bot,Signal*%
%TF.Part,Single*%
G01*
G75*
%TA.AperFunction,ComponentPad*%
%ADD11R,1.53000X1.53000*%
%ADD12C,1.53000*%
%ADD13C,1.60000*%
%TA.AperFunction,Conductor*%
%ADD14C,0.50800*%
G36*
X6438900Y2590800D02*
X6439867Y2589833D01*
X6435006Y2578100D01*
X2552700D01*
Y12700000D01*
X6438900D01*
Y2590800D01*
D02*
G37*
%LPC*%
G36*
X4547776Y11878300D02*
X4546600D01*
Y11785600D01*
X4639300D01*
Y11786776D01*
X4632117Y11813583D01*
X4618241Y11837617D01*
X4598617Y11857241D01*
X4574583Y11871117D01*
X4547776Y11878300D01*
D02*
G37*
G36*
X4039776D02*
X4038600D01*
Y11785600D01*
X4131300D01*
Y11786776D01*
X4124117Y11813583D01*
X4110241Y11837617D01*
X4090617Y11857241D01*
X4066583Y11871117D01*
X4039776Y11878300D01*
D02*
G37*
G36*
X4293776D02*
X4292600D01*
Y11785600D01*
X4385300D01*
Y11786776D01*
X4378117Y11813583D01*
X4364241Y11837617D01*
X4344617Y11857241D01*
X4320583Y11871117D01*
X4293776Y11878300D01*
D02*
G37*
G36*
X4521200D02*
X4520024D01*
X4493217Y11871117D01*
X4469183Y11857241D01*
X4449559Y11837617D01*
X4435683Y11813583D01*
X4428500Y11786776D01*
Y11785600D01*
X4521200D01*
Y11878300D01*
D02*
G37*
G36*
X4013200D02*
X4012024D01*
X3985217Y11871117D01*
X3961183Y11857241D01*
X3941559Y11837617D01*
X3927683Y11813583D01*
X3920500Y11786776D01*
Y11785600D01*
X4013200D01*
Y11878300D01*
D02*
G37*
G36*
X4267200D02*
X4266024D01*
X4239217Y11871117D01*
X4215183Y11857241D01*
X4195559Y11837617D01*
X4181683Y11813583D01*
X4174500Y11786776D01*
Y11785600D01*
X4267200D01*
Y11878300D01*
D02*
G37*
G36*
X4639300Y11760200D02*
X4546600D01*
Y11667500D01*
X4547776D01*
X4574583Y11674683D01*
X4598617Y11688559D01*
X4618241Y11708183D01*
X4632117Y11732217D01*
X4639300Y11759024D01*
Y11760200D01*
D02*
G37*
G36*
X4521200D02*
X4428500D01*
Y11759024D01*
X4435683Y11732217D01*
X4449559Y11708183D01*
X4469183Y11688559D01*
X4493217Y11674683D01*
X4520024Y11667500D01*
X4521200D01*
Y11760200D01*
D02*
G37*
G36*
X4385300D02*
X4292600D01*
Y11667500D01*
X4293776D01*
X4320583Y11674683D01*
X4344617Y11688559D01*
X4364241Y11708183D01*
X4378117Y11732217D01*
X4385300Y11759024D01*
Y11760200D01*
D02*
G37*
G36*
X4267200D02*
X4174500D01*
Y11759024D01*
X4181683Y11732217D01*
X4195559Y11708183D01*
X4215183Y11688559D01*
X4239217Y11674683D01*
X4266024Y11667500D01*
X4267200D01*
Y11760200D01*
D02*
G37*
G36*
X4131300D02*
X4038600D01*
Y11667500D01*
X4039776D01*
X4066583Y11674683D01*
X4090617Y11688559D01*
X4110241Y11708183D01*
X4124117Y11732217D01*
X4131300Y11759024D01*
Y11760200D01*
D02*
G37*
G36*
X4013200D02*
X3920500D01*
Y11759024D01*
X3927683Y11732217D01*
X3941559Y11708183D01*
X3961183Y11688559D01*
X3985217Y11674683D01*
X4012024Y11667500D01*
X4013200D01*
Y11760200D01*
D02*
G37*
G36*
X5744920Y10811500D02*
X5710480D01*
X5677213Y10802586D01*
X5647387Y10785366D01*
X5623034Y10761013D01*
X5607773Y10734579D01*
X5603728Y10733454D01*
X5597672D01*
X5593627Y10734579D01*
X5578366Y10761013D01*
X5554013Y10785366D01*
X5524187Y10802586D01*
X5490920Y10811500D01*
X5456480D01*
X5423213Y10802586D01*
X5393387Y10785366D01*
X5369034Y10761013D01*
X5353773Y10734579D01*
X5349728Y10733454D01*
X5343672D01*
X5339627Y10734579D01*
X5324366Y10761013D01*
X5300013Y10785366D01*
X5270187Y10802586D01*
X5236920Y10811500D01*
X5202480D01*
X5169213Y10802586D01*
X5139387Y10785366D01*
X5115034Y10761013D01*
X5099773Y10734579D01*
X5095728Y10733454D01*
X5089672D01*
X5085627Y10734579D01*
X5070366Y10761013D01*
X5046013Y10785366D01*
X5016187Y10802586D01*
X4982920Y10811500D01*
X4948480D01*
X4915213Y10802586D01*
X4885387Y10785366D01*
X4861034Y10761013D01*
X4845773Y10734579D01*
X4841728Y10733454D01*
X4835672D01*
X4831627Y10734579D01*
X4816366Y10761013D01*
X4792013Y10785366D01*
X4762187Y10802586D01*
X4728920Y10811500D01*
X4694480D01*
X4661213Y10802586D01*
X4631387Y10785366D01*
X4607034Y10761013D01*
X4591773Y10734579D01*
X4587728Y10733454D01*
X4581672D01*
X4577627Y10734579D01*
X4562366Y10761013D01*
X4538013Y10785366D01*
X4508187Y10802586D01*
X4474920Y10811500D01*
X4440480D01*
X4407213Y10802586D01*
X4377387Y10785366D01*
X4353034Y10761013D01*
X4337773Y10734579D01*
X4333728Y10733454D01*
X4327672D01*
X4323627Y10734579D01*
X4308366Y10761013D01*
X4284013Y10785366D01*
X4254187Y10802586D01*
X4220920Y10811500D01*
X4186480D01*
X4153213Y10802586D01*
X4123387Y10785366D01*
X4099034Y10761013D01*
X4083773Y10734579D01*
X4079728Y10733454D01*
X4073672D01*
X4069627Y10734579D01*
X4054366Y10761013D01*
X4030013Y10785366D01*
X4000187Y10802586D01*
X3966920Y10811500D01*
X3932480D01*
X3899213Y10802586D01*
X3869387Y10785366D01*
X3845034Y10761013D01*
X3829773Y10734579D01*
X3825728Y10733454D01*
X3819672D01*
X3815627Y10734579D01*
X3800366Y10761013D01*
X3776013Y10785366D01*
X3746187Y10802586D01*
X3712920Y10811500D01*
X3678480D01*
X3645213Y10802586D01*
X3615387Y10785366D01*
X3591034Y10761013D01*
X3575773Y10734579D01*
X3571728Y10733454D01*
X3565672D01*
X3561627Y10734579D01*
X3546366Y10761013D01*
X3522013Y10785366D01*
X3492187Y10802586D01*
X3458920Y10811500D01*
X3424480D01*
X3391213Y10802586D01*
X3361387Y10785366D01*
X3337034Y10761013D01*
X3321773Y10734579D01*
X3317728Y10733454D01*
X3311672D01*
X3307627Y10734579D01*
X3292366Y10761013D01*
X3268013Y10785366D01*
X3238187Y10802586D01*
X3204920Y10811500D01*
X3170480D01*
X3137213Y10802586D01*
X3107387Y10785366D01*
X3083034Y10761013D01*
X3067773Y10734579D01*
X3063728Y10733454D01*
X3057672D01*
X3053627Y10734579D01*
X3038366Y10761013D01*
X3014013Y10785366D01*
X2984187Y10802586D01*
X2950920Y10811500D01*
X2916480D01*
X2883213Y10802586D01*
X2853387Y10785366D01*
X2829034Y10761013D01*
X2811814Y10731187D01*
X2802900Y10697920D01*
Y10663480D01*
X2811814Y10630213D01*
X2829034Y10600387D01*
X2844142Y10585279D01*
Y9707861D01*
X2840687Y9705866D01*
X2816334Y9681513D01*
X2799114Y9651687D01*
X2790200Y9618420D01*
Y9583980D01*
X2799114Y9550713D01*
X2816334Y9520887D01*
X2840687Y9496534D01*
X2844142Y9494539D01*
Y8653761D01*
X2840687Y8651766D01*
X2816334Y8627413D01*
X2799114Y8597587D01*
X2790200Y8564320D01*
Y8529880D01*
X2799114Y8496613D01*
X2816334Y8466787D01*
X2840687Y8442434D01*
X2870513Y8425214D01*
X2903780Y8416300D01*
X2938220D01*
X2942074Y8417333D01*
X3314042Y8045364D01*
Y6013535D01*
X3264319Y5963813D01*
X3233217D01*
X3227764Y5969265D01*
X3198736Y5986025D01*
X3191178Y5988050D01*
Y6000750D01*
X3198736Y6002775D01*
X3227764Y6019535D01*
X3251465Y6043236D01*
X3268225Y6072264D01*
X3276900Y6104641D01*
Y6138159D01*
X3268225Y6170536D01*
X3251465Y6199564D01*
X3227764Y6223265D01*
X3198736Y6240025D01*
X3191178Y6242050D01*
Y6254750D01*
X3198736Y6256775D01*
X3227764Y6273535D01*
X3251465Y6297236D01*
X3268225Y6326264D01*
X3276900Y6358641D01*
Y6392159D01*
X3268225Y6424536D01*
X3251465Y6453564D01*
X3227764Y6477265D01*
X3198736Y6494025D01*
X3166359Y6502700D01*
X3132841D01*
X3100464Y6494025D01*
X3071436Y6477265D01*
X3047735Y6453564D01*
X3030975Y6424536D01*
X3022300Y6392159D01*
Y6358641D01*
X3030975Y6326264D01*
X3047735Y6297236D01*
X3071436Y6273535D01*
X3100464Y6256775D01*
X3108022Y6254750D01*
Y6242050D01*
X3100464Y6240025D01*
X3071436Y6223265D01*
X3047735Y6199564D01*
X3030975Y6170536D01*
X3022300Y6138159D01*
Y6104641D01*
X3030975Y6072264D01*
X3047735Y6043236D01*
X3071436Y6019535D01*
X3100464Y6002775D01*
X3108022Y6000750D01*
Y5988050D01*
X3100464Y5986025D01*
X3071436Y5969265D01*
X3047735Y5945564D01*
X3030975Y5916536D01*
X3022300Y5884159D01*
Y5850641D01*
X3030975Y5818264D01*
X3047735Y5789236D01*
X3071436Y5765535D01*
X3100464Y5748775D01*
X3108022Y5746750D01*
Y5734050D01*
X3100464Y5732025D01*
X3071436Y5715265D01*
X3047735Y5691564D01*
X3030975Y5662536D01*
X3022300Y5630159D01*
Y5596641D01*
X3030975Y5564264D01*
X3047735Y5535236D01*
X3071436Y5511535D01*
X3100464Y5494775D01*
X3132841Y5486100D01*
X3166359D01*
X3198736Y5494775D01*
X3227764Y5511535D01*
X3251465Y5535236D01*
X3252220Y5536542D01*
X3378200D01*
X3398092Y5539161D01*
X3416629Y5546839D01*
X3432547Y5559053D01*
X3597647Y5724153D01*
X3606142Y5735225D01*
X3618842Y5730914D01*
Y4908636D01*
X3384464Y4674258D01*
X3252220D01*
X3251465Y4675564D01*
X3227764Y4699265D01*
X3198736Y4716025D01*
X3166359Y4724700D01*
X3132841D01*
X3100464Y4716025D01*
X3071436Y4699265D01*
X3047735Y4675564D01*
X3030975Y4646536D01*
X3022300Y4614159D01*
Y4580641D01*
X3030975Y4548264D01*
X3047735Y4519236D01*
X3071436Y4495535D01*
X3100464Y4478775D01*
X3108022Y4476750D01*
Y4464050D01*
X3100464Y4462025D01*
X3071436Y4445265D01*
X3047735Y4421564D01*
X3030975Y4392536D01*
X3022300Y4360159D01*
Y4326641D01*
X3030975Y4294264D01*
X3047735Y4265236D01*
X3071436Y4241535D01*
X3100464Y4224775D01*
X3108022Y4222750D01*
Y4210050D01*
X3100464Y4208025D01*
X3071436Y4191265D01*
X3047735Y4167564D01*
X3030975Y4138536D01*
X3022300Y4106159D01*
Y4072641D01*
X3030975Y4040264D01*
X3047735Y4011236D01*
X3071436Y3987535D01*
X3100464Y3970775D01*
X3132841Y3962100D01*
X3166359D01*
X3198736Y3970775D01*
X3227764Y3987535D01*
X3251465Y4011236D01*
X3268225Y4040264D01*
X3276900Y4072641D01*
Y4106159D01*
X3268225Y4138536D01*
X3251465Y4167564D01*
X3227764Y4191265D01*
X3198736Y4208025D01*
X3191178Y4210050D01*
Y4222750D01*
X3198736Y4224775D01*
X3227764Y4241535D01*
X3251465Y4265236D01*
X3252220Y4266542D01*
X3365500D01*
X3385392Y4269161D01*
X3403929Y4276839D01*
X3419847Y4289053D01*
X3902447Y4771653D01*
X3910942Y4782725D01*
X3923642Y4778414D01*
Y4025900D01*
X3926261Y4006008D01*
X3933939Y3987471D01*
X3946153Y3971554D01*
X4644654Y3273053D01*
X4660571Y3260839D01*
X4679108Y3253161D01*
X4699000Y3250542D01*
X4699002Y3250542D01*
X5332980D01*
X5333735Y3249236D01*
X5357436Y3225535D01*
X5386464Y3208775D01*
X5418841Y3200100D01*
X5452359D01*
X5484736Y3208775D01*
X5513764Y3225535D01*
X5537465Y3249236D01*
X5554225Y3278264D01*
X5562900Y3310641D01*
Y3344159D01*
X5554225Y3376536D01*
X5537465Y3405564D01*
X5513764Y3429265D01*
X5484736Y3446025D01*
X5477178Y3448050D01*
Y3460750D01*
X5484736Y3462775D01*
X5513764Y3479535D01*
X5537465Y3503236D01*
X5554225Y3532264D01*
X5562900Y3564641D01*
Y3598159D01*
X5554225Y3630536D01*
X5537465Y3659564D01*
X5513764Y3683265D01*
X5484736Y3700025D01*
X5452359Y3708700D01*
X5418841D01*
X5386464Y3700025D01*
X5357436Y3683265D01*
X5333735Y3659564D01*
X5332980Y3658258D01*
X4845136D01*
X4242458Y4260936D01*
Y4446877D01*
X4255158Y4447710D01*
X4256461Y4437808D01*
X4264139Y4419271D01*
X4276353Y4403354D01*
X4644654Y4035053D01*
X4660571Y4022839D01*
X4679108Y4015161D01*
X4699000Y4012542D01*
X5332980D01*
X5333735Y4011236D01*
X5357436Y3987535D01*
X5386464Y3970775D01*
X5418841Y3962100D01*
X5452359D01*
X5484736Y3970775D01*
X5513764Y3987535D01*
X5537465Y4011236D01*
X5554225Y4040264D01*
X5562900Y4072641D01*
Y4106159D01*
X5554225Y4138536D01*
X5537465Y4167564D01*
X5513764Y4191265D01*
X5484736Y4208025D01*
X5477178Y4210050D01*
Y4222750D01*
X5484736Y4224775D01*
X5513764Y4241535D01*
X5537465Y4265236D01*
X5554225Y4294264D01*
X5562900Y4326641D01*
Y4360159D01*
X5554225Y4392536D01*
X5537465Y4421564D01*
X5513764Y4445265D01*
X5484736Y4462025D01*
X5477178Y4464050D01*
Y4476750D01*
X5484736Y4478775D01*
X5513764Y4495535D01*
X5537465Y4519236D01*
X5554225Y4548264D01*
X5562900Y4580641D01*
Y4614159D01*
X5554225Y4646536D01*
X5537465Y4675564D01*
X5513764Y4699265D01*
X5484736Y4716025D01*
X5477178Y4718050D01*
Y4730750D01*
X5484736Y4732775D01*
X5513764Y4749535D01*
X5537465Y4773236D01*
X5554225Y4802264D01*
X5562900Y4834641D01*
Y4868159D01*
X5554225Y4900536D01*
X5537465Y4929564D01*
X5513764Y4953265D01*
X5484736Y4970025D01*
X5452359Y4978700D01*
X5418841D01*
X5386464Y4970025D01*
X5357436Y4953265D01*
X5333735Y4929564D01*
X5332980Y4928258D01*
X5193571D01*
X4940958Y5180871D01*
Y5540414D01*
X4953658Y5544725D01*
X4962153Y5533653D01*
X5190753Y5305053D01*
X5206671Y5292839D01*
X5225208Y5285161D01*
X5245100Y5282542D01*
X5332980D01*
X5333735Y5281236D01*
X5357436Y5257535D01*
X5386464Y5240775D01*
X5418841Y5232100D01*
X5452359D01*
X5484736Y5240775D01*
X5513764Y5257535D01*
X5537465Y5281236D01*
X5554225Y5310264D01*
X5562900Y5342641D01*
Y5376159D01*
X5554225Y5408536D01*
X5537465Y5437564D01*
X5513764Y5461265D01*
X5484736Y5478025D01*
X5477178Y5480050D01*
Y5492750D01*
X5484736Y5494775D01*
X5513764Y5511535D01*
X5537465Y5535236D01*
X5554225Y5564264D01*
X5562900Y5596641D01*
Y5630159D01*
X5554225Y5662536D01*
X5537465Y5691564D01*
X5513764Y5715265D01*
X5484736Y5732025D01*
X5452359Y5740700D01*
X5418841D01*
X5386464Y5732025D01*
X5357436Y5715265D01*
X5349132Y5706961D01*
X5271158Y5784936D01*
Y7994564D01*
X5693926Y8417333D01*
X5697780Y8416300D01*
X5732220D01*
X5765487Y8425214D01*
X5795313Y8442434D01*
X5819666Y8466787D01*
X5836886Y8496613D01*
X5845800Y8529880D01*
Y8564320D01*
X5836886Y8597587D01*
X5819666Y8627413D01*
X5795313Y8651766D01*
X5791858Y8653761D01*
Y9494539D01*
X5795313Y9496534D01*
X5819666Y9520887D01*
X5836886Y9550713D01*
X5845800Y9583980D01*
Y9618420D01*
X5836886Y9651687D01*
X5819666Y9681513D01*
X5798208Y9702971D01*
Y10570373D01*
X5808013Y10576034D01*
X5832366Y10600387D01*
X5849586Y10630213D01*
X5858500Y10663480D01*
Y10697920D01*
X5849586Y10731187D01*
X5832366Y10761013D01*
X5808013Y10785366D01*
X5778187Y10802586D01*
X5744920Y10811500D01*
D02*
G37*
G36*
X5449016Y6731300D02*
X5448300D01*
Y6642100D01*
X5537500D01*
Y6642816D01*
X5530556Y6668732D01*
X5517140Y6691968D01*
X5498168Y6710940D01*
X5474932Y6724356D01*
X5449016Y6731300D01*
D02*
G37*
G36*
X5422900D02*
X5422184D01*
X5396268Y6724356D01*
X5373032Y6710940D01*
X5354060Y6691968D01*
X5340644Y6668732D01*
X5333700Y6642816D01*
Y6642100D01*
X5422900D01*
Y6731300D01*
D02*
G37*
G36*
X3251500D02*
X3162300D01*
Y6642100D01*
X3251500D01*
Y6731300D01*
D02*
G37*
G36*
X3136900D02*
X3047700D01*
Y6642100D01*
X3136900D01*
Y6731300D01*
D02*
G37*
G36*
X5537500Y6616700D02*
X5448300D01*
Y6527500D01*
X5449016D01*
X5474932Y6534444D01*
X5498168Y6547860D01*
X5517140Y6566832D01*
X5530556Y6590068D01*
X5537500Y6615984D01*
Y6616700D01*
D02*
G37*
G36*
X5422900D02*
X5333700D01*
Y6615984D01*
X5340644Y6590068D01*
X5354060Y6566832D01*
X5373032Y6547860D01*
X5396268Y6534444D01*
X5422184Y6527500D01*
X5422900D01*
Y6616700D01*
D02*
G37*
G36*
X3251500D02*
X3162300D01*
Y6527500D01*
X3251500D01*
Y6616700D01*
D02*
G37*
G36*
X3136900D02*
X3047700D01*
Y6527500D01*
X3136900D01*
Y6616700D01*
D02*
G37*
G36*
X5452359Y6502700D02*
X5418841D01*
X5386464Y6494025D01*
X5357436Y6477265D01*
X5333735Y6453564D01*
X5316975Y6424536D01*
X5308300Y6392159D01*
Y6358641D01*
X5316975Y6326264D01*
X5333735Y6297236D01*
X5357436Y6273535D01*
X5386464Y6256775D01*
X5394022Y6254750D01*
Y6242050D01*
X5386464Y6240025D01*
X5357436Y6223265D01*
X5333735Y6199564D01*
X5316975Y6170536D01*
X5308300Y6138159D01*
Y6104641D01*
X5316975Y6072264D01*
X5333735Y6043236D01*
X5357436Y6019535D01*
X5386464Y6002775D01*
X5418841Y5994100D01*
X5452359D01*
X5484736Y6002775D01*
X5513764Y6019535D01*
X5537465Y6043236D01*
X5554225Y6072264D01*
X5562900Y6104641D01*
Y6138159D01*
X5554225Y6170536D01*
X5537465Y6199564D01*
X5513764Y6223265D01*
X5484736Y6240025D01*
X5477178Y6242050D01*
Y6254750D01*
X5484736Y6256775D01*
X5513764Y6273535D01*
X5537465Y6297236D01*
X5554225Y6326264D01*
X5562900Y6358641D01*
Y6392159D01*
X5554225Y6424536D01*
X5537465Y6453564D01*
X5513764Y6477265D01*
X5484736Y6494025D01*
X5452359Y6502700D01*
D02*
G37*
G36*
X5449016Y5969300D02*
X5448300D01*
Y5880100D01*
X5537500D01*
Y5880816D01*
X5530556Y5906732D01*
X5517140Y5929968D01*
X5498168Y5948940D01*
X5474932Y5962356D01*
X5449016Y5969300D01*
D02*
G37*
G36*
X5422900D02*
X5422184D01*
X5396268Y5962356D01*
X5373032Y5948940D01*
X5354060Y5929968D01*
X5340644Y5906732D01*
X5333700Y5880816D01*
Y5880100D01*
X5422900D01*
Y5969300D01*
D02*
G37*
G36*
X5537500Y5854700D02*
X5448300D01*
Y5765500D01*
X5449016D01*
X5474932Y5772444D01*
X5498168Y5785860D01*
X5517140Y5804832D01*
X5530556Y5828068D01*
X5537500Y5853984D01*
Y5854700D01*
D02*
G37*
G36*
X5422900D02*
X5333700D01*
Y5853984D01*
X5340644Y5828068D01*
X5354060Y5804832D01*
X5373032Y5785860D01*
X5396268Y5772444D01*
X5422184Y5765500D01*
X5422900D01*
Y5854700D01*
D02*
G37*
G36*
X3163016Y5461300D02*
X3162300D01*
Y5372100D01*
X3251500D01*
Y5372816D01*
X3244556Y5398732D01*
X3231140Y5421968D01*
X3212168Y5440940D01*
X3188932Y5454356D01*
X3163016Y5461300D01*
D02*
G37*
G36*
X3136900D02*
X3136184D01*
X3110268Y5454356D01*
X3087032Y5440940D01*
X3068060Y5421968D01*
X3054644Y5398732D01*
X3047700Y5372816D01*
Y5372100D01*
X3136900D01*
Y5461300D01*
D02*
G37*
G36*
X3251500Y5346700D02*
X3162300D01*
Y5257500D01*
X3163016D01*
X3188932Y5264444D01*
X3212168Y5277860D01*
X3231140Y5296832D01*
X3244556Y5320068D01*
X3251500Y5345984D01*
Y5346700D01*
D02*
G37*
G36*
X3136900D02*
X3047700D01*
Y5345984D01*
X3054644Y5320068D01*
X3068060Y5296832D01*
X3087032Y5277860D01*
X3110268Y5264444D01*
X3136184Y5257500D01*
X3136900D01*
Y5346700D01*
D02*
G37*
G36*
X5449016Y5207300D02*
X5448300D01*
Y5118100D01*
X5537500D01*
Y5118816D01*
X5530556Y5144732D01*
X5517140Y5167968D01*
X5498168Y5186940D01*
X5474932Y5200356D01*
X5449016Y5207300D01*
D02*
G37*
G36*
X5422900D02*
X5422184D01*
X5396268Y5200356D01*
X5373032Y5186940D01*
X5354060Y5167968D01*
X5340644Y5144732D01*
X5333700Y5118816D01*
Y5118100D01*
X5422900D01*
Y5207300D01*
D02*
G37*
G36*
X5537500Y5092700D02*
X5448300D01*
Y5003500D01*
X5449016D01*
X5474932Y5010444D01*
X5498168Y5023860D01*
X5517140Y5042832D01*
X5530556Y5066068D01*
X5537500Y5091984D01*
Y5092700D01*
D02*
G37*
G36*
X5422900D02*
X5333700D01*
Y5091984D01*
X5340644Y5066068D01*
X5354060Y5042832D01*
X5373032Y5023860D01*
X5396268Y5010444D01*
X5422184Y5003500D01*
X5422900D01*
Y5092700D01*
D02*
G37*
G36*
X3166359Y5232700D02*
X3132841D01*
X3100464Y5224025D01*
X3071436Y5207265D01*
X3047735Y5183564D01*
X3030975Y5154536D01*
X3022300Y5122159D01*
Y5088641D01*
X3030975Y5056264D01*
X3047735Y5027236D01*
X3071436Y5003535D01*
X3100464Y4986775D01*
X3132841Y4978100D01*
X3166359D01*
X3198736Y4986775D01*
X3227764Y5003535D01*
X3251465Y5027236D01*
X3268225Y5056264D01*
X3276900Y5088641D01*
Y5122159D01*
X3268225Y5154536D01*
X3251465Y5183564D01*
X3227764Y5207265D01*
X3198736Y5224025D01*
X3166359Y5232700D01*
D02*
G37*
G36*
X3163016Y4953300D02*
X3162300D01*
Y4864100D01*
X3251500D01*
Y4864816D01*
X3244556Y4890732D01*
X3231140Y4913968D01*
X3212168Y4932940D01*
X3188932Y4946356D01*
X3163016Y4953300D01*
D02*
G37*
G36*
X3136900D02*
X3136184D01*
X3110268Y4946356D01*
X3087032Y4932940D01*
X3068060Y4913968D01*
X3054644Y4890732D01*
X3047700Y4864816D01*
Y4864100D01*
X3136900D01*
Y4953300D01*
D02*
G37*
G36*
X3251500Y4838700D02*
X3162300D01*
Y4749500D01*
X3163016D01*
X3188932Y4756444D01*
X3212168Y4769860D01*
X3231140Y4788832D01*
X3244556Y4812068D01*
X3251500Y4837984D01*
Y4838700D01*
D02*
G37*
G36*
X3136900D02*
X3047700D01*
Y4837984D01*
X3054644Y4812068D01*
X3068060Y4788832D01*
X3087032Y4769860D01*
X3110268Y4756444D01*
X3136184Y4749500D01*
X3136900D01*
Y4838700D01*
D02*
G37*
G36*
X5449016Y3937300D02*
X5448300D01*
Y3848100D01*
X5537500D01*
Y3848816D01*
X5530556Y3874732D01*
X5517140Y3897968D01*
X5498168Y3916940D01*
X5474932Y3930356D01*
X5449016Y3937300D01*
D02*
G37*
G36*
X5422900D02*
X5422184D01*
X5396268Y3930356D01*
X5373032Y3916940D01*
X5354060Y3897968D01*
X5340644Y3874732D01*
X5333700Y3848816D01*
Y3848100D01*
X5422900D01*
Y3937300D01*
D02*
G37*
G36*
X3163016D02*
X3162300D01*
Y3848100D01*
X3251500D01*
Y3848816D01*
X3244556Y3874732D01*
X3231140Y3897968D01*
X3212168Y3916940D01*
X3188932Y3930356D01*
X3163016Y3937300D01*
D02*
G37*
G36*
X3136900D02*
X3136184D01*
X3110268Y3930356D01*
X3087032Y3916940D01*
X3068060Y3897968D01*
X3054644Y3874732D01*
X3047700Y3848816D01*
Y3848100D01*
X3136900D01*
Y3937300D01*
D02*
G37*
G36*
X5537500Y3822700D02*
X5448300D01*
Y3733500D01*
X5449016D01*
X5474932Y3740444D01*
X5498168Y3753860D01*
X5517140Y3772832D01*
X5530556Y3796068D01*
X5537500Y3821984D01*
Y3822700D01*
D02*
G37*
G36*
X5422900D02*
X5333700D01*
Y3821984D01*
X5340644Y3796068D01*
X5354060Y3772832D01*
X5373032Y3753860D01*
X5396268Y3740444D01*
X5422184Y3733500D01*
X5422900D01*
Y3822700D01*
D02*
G37*
G36*
X3251500D02*
X3162300D01*
Y3733500D01*
X3163016D01*
X3188932Y3740444D01*
X3212168Y3753860D01*
X3231140Y3772832D01*
X3244556Y3796068D01*
X3251500Y3821984D01*
Y3822700D01*
D02*
G37*
G36*
X3136900D02*
X3047700D01*
Y3821984D01*
X3054644Y3796068D01*
X3068060Y3772832D01*
X3087032Y3753860D01*
X3110268Y3740444D01*
X3136184Y3733500D01*
X3136900D01*
Y3822700D01*
D02*
G37*
G36*
X3166359Y3708700D02*
X3132841D01*
X3100464Y3700025D01*
X3071436Y3683265D01*
X3047735Y3659564D01*
X3030975Y3630536D01*
X3022300Y3598159D01*
Y3564641D01*
X3030975Y3532264D01*
X3047735Y3503236D01*
X3071436Y3479535D01*
X3100464Y3462775D01*
X3108022Y3460750D01*
Y3448050D01*
X3100464Y3446025D01*
X3071436Y3429265D01*
X3047735Y3405564D01*
X3030975Y3376536D01*
X3022300Y3344159D01*
Y3310641D01*
X3030975Y3278264D01*
X3047735Y3249236D01*
X3071436Y3225535D01*
X3100464Y3208775D01*
X3132841Y3200100D01*
X3166359D01*
X3198736Y3208775D01*
X3227764Y3225535D01*
X3251465Y3249236D01*
X3268225Y3278264D01*
X3276900Y3310641D01*
Y3344159D01*
X3268225Y3376536D01*
X3251465Y3405564D01*
X3227764Y3429265D01*
X3198736Y3446025D01*
X3191178Y3448050D01*
Y3460750D01*
X3198736Y3462775D01*
X3227764Y3479535D01*
X3251465Y3503236D01*
X3268225Y3532264D01*
X3276900Y3564641D01*
Y3598159D01*
X3268225Y3630536D01*
X3251465Y3659564D01*
X3227764Y3683265D01*
X3198736Y3700025D01*
X3166359Y3708700D01*
D02*
G37*
G36*
X5449016Y3175300D02*
X5448300D01*
Y3086100D01*
X5537500D01*
Y3086816D01*
X5530556Y3112732D01*
X5517140Y3135968D01*
X5498168Y3154940D01*
X5474932Y3168356D01*
X5449016Y3175300D01*
D02*
G37*
G36*
X5422900D02*
X5422184D01*
X5396268Y3168356D01*
X5373032Y3154940D01*
X5354060Y3135968D01*
X5340644Y3112732D01*
X5333700Y3086816D01*
Y3086100D01*
X5422900D01*
Y3175300D01*
D02*
G37*
G36*
X3163016D02*
X3162300D01*
Y3086100D01*
X3251500D01*
Y3086816D01*
X3244556Y3112732D01*
X3231140Y3135968D01*
X3212168Y3154940D01*
X3188932Y3168356D01*
X3163016Y3175300D01*
D02*
G37*
G36*
X3136900D02*
X3136184D01*
X3110268Y3168356D01*
X3087032Y3154940D01*
X3068060Y3135968D01*
X3054644Y3112732D01*
X3047700Y3086816D01*
Y3086100D01*
X3136900D01*
Y3175300D01*
D02*
G37*
G36*
X5537500Y3060700D02*
X5448300D01*
Y2971500D01*
X5449016D01*
X5474932Y2978444D01*
X5498168Y2991860D01*
X5517140Y3010832D01*
X5530556Y3034068D01*
X5537500Y3059984D01*
Y3060700D01*
D02*
G37*
G36*
X5422900D02*
X5333700D01*
Y3059984D01*
X5340644Y3034068D01*
X5354060Y3010832D01*
X5373032Y2991860D01*
X5396268Y2978444D01*
X5422184Y2971500D01*
X5422900D01*
Y3060700D01*
D02*
G37*
G36*
X3251500D02*
X3162300D01*
Y2971500D01*
X3163016D01*
X3188932Y2978444D01*
X3212168Y2991860D01*
X3231140Y3010832D01*
X3244556Y3034068D01*
X3251500Y3059984D01*
Y3060700D01*
D02*
G37*
G36*
X3136900D02*
X3047700D01*
Y3059984D01*
X3054644Y3034068D01*
X3068060Y3010832D01*
X3087032Y2991860D01*
X3110268Y2978444D01*
X3136184Y2971500D01*
X3136900D01*
Y3060700D01*
D02*
G37*
%LPD*%
G36*
X5607773Y10626821D02*
X5623034Y10600387D01*
X5644492Y10578929D01*
Y9711527D01*
X5634687Y9705866D01*
X5610334Y9681513D01*
X5595073Y9655079D01*
X5591028Y9653954D01*
X5584972D01*
X5580927Y9655079D01*
X5565666Y9681513D01*
X5544208Y9702971D01*
Y10570373D01*
X5554013Y10576034D01*
X5578366Y10600387D01*
X5593627Y10626821D01*
X5597672Y10627946D01*
X5603728D01*
X5607773Y10626821D01*
D02*
G37*
G36*
X5353773D02*
X5369034Y10600387D01*
X5390492Y10578929D01*
Y9711527D01*
X5380687Y9705866D01*
X5356334Y9681513D01*
X5341073Y9655079D01*
X5337028Y9653954D01*
X5330972D01*
X5326927Y9655079D01*
X5311666Y9681513D01*
X5290208Y9702971D01*
Y10570373D01*
X5300013Y10576034D01*
X5324366Y10600387D01*
X5339627Y10626821D01*
X5343672Y10627946D01*
X5349728D01*
X5353773Y10626821D01*
D02*
G37*
G36*
X5099773D02*
X5115034Y10600387D01*
X5136492Y10578929D01*
Y9711527D01*
X5126687Y9705866D01*
X5102334Y9681513D01*
X5087073Y9655079D01*
X5083028Y9653954D01*
X5076972D01*
X5072927Y9655079D01*
X5057666Y9681513D01*
X5036208Y9702971D01*
Y10570373D01*
X5046013Y10576034D01*
X5070366Y10600387D01*
X5085627Y10626821D01*
X5089672Y10627946D01*
X5095728D01*
X5099773Y10626821D01*
D02*
G37*
G36*
X4845773D02*
X4861034Y10600387D01*
X4882492Y10578929D01*
Y9711527D01*
X4872687Y9705866D01*
X4848334Y9681513D01*
X4833073Y9655079D01*
X4829028Y9653954D01*
X4822972D01*
X4818927Y9655079D01*
X4803666Y9681513D01*
X4782208Y9702971D01*
Y10570373D01*
X4792013Y10576034D01*
X4816366Y10600387D01*
X4831627Y10626821D01*
X4835672Y10627946D01*
X4841728D01*
X4845773Y10626821D01*
D02*
G37*
G36*
X4591773D02*
X4607034Y10600387D01*
X4628492Y10578929D01*
Y9711527D01*
X4618687Y9705866D01*
X4594334Y9681513D01*
X4579073Y9655079D01*
X4575028Y9653954D01*
X4568972D01*
X4564927Y9655079D01*
X4549666Y9681513D01*
X4528208Y9702971D01*
Y10570373D01*
X4538013Y10576034D01*
X4562366Y10600387D01*
X4577627Y10626821D01*
X4581672Y10627946D01*
X4587728D01*
X4591773Y10626821D01*
D02*
G37*
G36*
X4337773D02*
X4353034Y10600387D01*
X4374492Y10578929D01*
Y9711527D01*
X4364687Y9705866D01*
X4340334Y9681513D01*
X4325073Y9655079D01*
X4321028Y9653954D01*
X4314972D01*
X4310927Y9655079D01*
X4295666Y9681513D01*
X4274208Y9702971D01*
Y10570373D01*
X4284013Y10576034D01*
X4308366Y10600387D01*
X4323627Y10626821D01*
X4327672Y10627946D01*
X4333728D01*
X4337773Y10626821D01*
D02*
G37*
G36*
X4083773D02*
X4099034Y10600387D01*
X4120492Y10578929D01*
Y9711527D01*
X4110687Y9705866D01*
X4086334Y9681513D01*
X4071073Y9655079D01*
X4067028Y9653954D01*
X4060972D01*
X4056927Y9655079D01*
X4041666Y9681513D01*
X4020208Y9702971D01*
Y10570373D01*
X4030013Y10576034D01*
X4054366Y10600387D01*
X4069627Y10626821D01*
X4073672Y10627946D01*
X4079728D01*
X4083773Y10626821D01*
D02*
G37*
G36*
X3829773D02*
X3845034Y10600387D01*
X3866492Y10578929D01*
Y9711527D01*
X3856687Y9705866D01*
X3832334Y9681513D01*
X3817073Y9655079D01*
X3813028Y9653954D01*
X3806972D01*
X3802927Y9655079D01*
X3787666Y9681513D01*
X3766208Y9702971D01*
Y10570373D01*
X3776013Y10576034D01*
X3800366Y10600387D01*
X3815627Y10626821D01*
X3819672Y10627946D01*
X3825728D01*
X3829773Y10626821D01*
D02*
G37*
G36*
X3575773D02*
X3591034Y10600387D01*
X3612492Y10578929D01*
Y9711527D01*
X3602687Y9705866D01*
X3578334Y9681513D01*
X3563073Y9655079D01*
X3559028Y9653954D01*
X3552972D01*
X3548927Y9655079D01*
X3533666Y9681513D01*
X3512208Y9702971D01*
Y10570373D01*
X3522013Y10576034D01*
X3546366Y10600387D01*
X3561627Y10626821D01*
X3565672Y10627946D01*
X3571728D01*
X3575773Y10626821D01*
D02*
G37*
G36*
X3321773D02*
X3337034Y10600387D01*
X3358492Y10578929D01*
Y9711527D01*
X3348687Y9705866D01*
X3324334Y9681513D01*
X3309073Y9655079D01*
X3305028Y9653954D01*
X3298972D01*
X3294927Y9655079D01*
X3279666Y9681513D01*
X3258208Y9702971D01*
Y10570373D01*
X3268013Y10576034D01*
X3292366Y10600387D01*
X3307627Y10626821D01*
X3311672Y10627946D01*
X3317728D01*
X3321773Y10626821D01*
D02*
G37*
G36*
X3067773D02*
X3083034Y10600387D01*
X3104492Y10578929D01*
Y9711527D01*
X3094687Y9705866D01*
X3070334Y9681513D01*
X3055073Y9655079D01*
X3051028Y9653954D01*
X3044972D01*
X3040927Y9655079D01*
X3025666Y9681513D01*
X3001313Y9705866D01*
X2997858Y9707861D01*
Y10566707D01*
X3014013Y10576034D01*
X3038366Y10600387D01*
X3053627Y10626821D01*
X3057672Y10627946D01*
X3063728D01*
X3067773Y10626821D01*
D02*
G37*
G36*
X5595073Y9547321D02*
X5610334Y9520887D01*
X5634687Y9496534D01*
X5638142Y9494539D01*
Y8653761D01*
X5634687Y8651766D01*
X5610334Y8627413D01*
X5595073Y8600979D01*
X5591028Y8599854D01*
X5584972D01*
X5580927Y8600979D01*
X5565666Y8627413D01*
X5541313Y8651766D01*
X5537858Y8653761D01*
Y9494539D01*
X5541313Y9496534D01*
X5565666Y9520887D01*
X5580927Y9547321D01*
X5584972Y9548446D01*
X5591028D01*
X5595073Y9547321D01*
D02*
G37*
G36*
X5341073D02*
X5356334Y9520887D01*
X5380687Y9496534D01*
X5384142Y9494539D01*
Y8653761D01*
X5380687Y8651766D01*
X5356334Y8627413D01*
X5341073Y8600979D01*
X5337028Y8599854D01*
X5330972D01*
X5326927Y8600979D01*
X5311666Y8627413D01*
X5287313Y8651766D01*
X5283858Y8653761D01*
Y9494539D01*
X5287313Y9496534D01*
X5311666Y9520887D01*
X5326927Y9547321D01*
X5330972Y9548446D01*
X5337028D01*
X5341073Y9547321D01*
D02*
G37*
G36*
X5087073D02*
X5102334Y9520887D01*
X5126687Y9496534D01*
X5130142Y9494539D01*
Y8653761D01*
X5126687Y8651766D01*
X5102334Y8627413D01*
X5087073Y8600979D01*
X5083028Y8599854D01*
X5076972D01*
X5072927Y8600979D01*
X5057666Y8627413D01*
X5033313Y8651766D01*
X5029858Y8653761D01*
Y9494539D01*
X5033313Y9496534D01*
X5057666Y9520887D01*
X5072927Y9547321D01*
X5076972Y9548446D01*
X5083028D01*
X5087073Y9547321D01*
D02*
G37*
G36*
X4833073D02*
X4848334Y9520887D01*
X4872687Y9496534D01*
X4876142Y9494539D01*
Y8653761D01*
X4872687Y8651766D01*
X4848334Y8627413D01*
X4833073Y8600979D01*
X4829028Y8599854D01*
X4822972D01*
X4818927Y8600979D01*
X4803666Y8627413D01*
X4779313Y8651766D01*
X4775858Y8653761D01*
Y9494539D01*
X4779313Y9496534D01*
X4803666Y9520887D01*
X4818927Y9547321D01*
X4822972Y9548446D01*
X4829028D01*
X4833073Y9547321D01*
D02*
G37*
G36*
X4579073D02*
X4594334Y9520887D01*
X4618687Y9496534D01*
X4622142Y9494539D01*
Y8653761D01*
X4618687Y8651766D01*
X4594334Y8627413D01*
X4579073Y8600979D01*
X4575028Y8599854D01*
X4568972D01*
X4564927Y8600979D01*
X4549666Y8627413D01*
X4525313Y8651766D01*
X4521858Y8653761D01*
Y9494539D01*
X4525313Y9496534D01*
X4549666Y9520887D01*
X4564927Y9547321D01*
X4568972Y9548446D01*
X4575028D01*
X4579073Y9547321D01*
D02*
G37*
G36*
X4325073D02*
X4340334Y9520887D01*
X4364687Y9496534D01*
X4368142Y9494539D01*
Y8653761D01*
X4364687Y8651766D01*
X4340334Y8627413D01*
X4325073Y8600979D01*
X4321028Y8599854D01*
X4314972D01*
X4310927Y8600979D01*
X4295666Y8627413D01*
X4271313Y8651766D01*
X4267858Y8653761D01*
Y9494539D01*
X4271313Y9496534D01*
X4295666Y9520887D01*
X4310927Y9547321D01*
X4314972Y9548446D01*
X4321028D01*
X4325073Y9547321D01*
D02*
G37*
G36*
X4071073D02*
X4086334Y9520887D01*
X4110687Y9496534D01*
X4114142Y9494539D01*
Y8653761D01*
X4110687Y8651766D01*
X4086334Y8627413D01*
X4071073Y8600979D01*
X4067028Y8599854D01*
X4060972D01*
X4056927Y8600979D01*
X4041666Y8627413D01*
X4017313Y8651766D01*
X4013858Y8653761D01*
Y9494539D01*
X4017313Y9496534D01*
X4041666Y9520887D01*
X4056927Y9547321D01*
X4060972Y9548446D01*
X4067028D01*
X4071073Y9547321D01*
D02*
G37*
G36*
X3817073D02*
X3832334Y9520887D01*
X3856687Y9496534D01*
X3860142Y9494539D01*
Y8653761D01*
X3856687Y8651766D01*
X3832334Y8627413D01*
X3817073Y8600979D01*
X3813028Y8599854D01*
X3806972D01*
X3802927Y8600979D01*
X3787666Y8627413D01*
X3763313Y8651766D01*
X3759858Y8653761D01*
Y9494539D01*
X3763313Y9496534D01*
X3787666Y9520887D01*
X3802927Y9547321D01*
X3806972Y9548446D01*
X3813028D01*
X3817073Y9547321D01*
D02*
G37*
G36*
X3563073D02*
X3578334Y9520887D01*
X3602687Y9496534D01*
X3606142Y9494539D01*
Y8653761D01*
X3602687Y8651766D01*
X3578334Y8627413D01*
X3563073Y8600979D01*
X3559028Y8599854D01*
X3552972D01*
X3548927Y8600979D01*
X3533666Y8627413D01*
X3509313Y8651766D01*
X3505858Y8653761D01*
Y9494539D01*
X3509313Y9496534D01*
X3533666Y9520887D01*
X3548927Y9547321D01*
X3552972Y9548446D01*
X3559028D01*
X3563073Y9547321D01*
D02*
G37*
G36*
X3309073D02*
X3324334Y9520887D01*
X3348687Y9496534D01*
X3352142Y9494539D01*
Y8653761D01*
X3348687Y8651766D01*
X3324334Y8627413D01*
X3309073Y8600979D01*
X3305028Y8599854D01*
X3298972D01*
X3294927Y8600979D01*
X3279666Y8627413D01*
X3255313Y8651766D01*
X3251858Y8653761D01*
Y9494539D01*
X3255313Y9496534D01*
X3279666Y9520887D01*
X3294927Y9547321D01*
X3298972Y9548446D01*
X3305028D01*
X3309073Y9547321D01*
D02*
G37*
G36*
X3055073D02*
X3070334Y9520887D01*
X3094687Y9496534D01*
X3098142Y9494539D01*
Y8653761D01*
X3094687Y8651766D01*
X3070334Y8627413D01*
X3055073Y8600979D01*
X3051028Y8599854D01*
X3044972D01*
X3040927Y8600979D01*
X3025666Y8627413D01*
X3001313Y8651766D01*
X2997858Y8653761D01*
Y9494539D01*
X3001313Y9496534D01*
X3025666Y9520887D01*
X3040927Y9547321D01*
X3044972Y9548446D01*
X3051028D01*
X3055073Y9547321D01*
D02*
G37*
G36*
X4480919Y8408162D02*
X4454153Y8381397D01*
X4441939Y8365479D01*
X4434261Y8346943D01*
X4431642Y8327050D01*
Y4737100D01*
X4434261Y4717208D01*
X4441939Y4698671D01*
X4454153Y4682753D01*
X4847853Y4289053D01*
X4863771Y4276839D01*
X4882308Y4269161D01*
X4902200Y4266542D01*
X5332980D01*
X5333735Y4265236D01*
X5357436Y4241535D01*
X5386464Y4224775D01*
X5394022Y4222750D01*
Y4210050D01*
X5386464Y4208025D01*
X5357436Y4191265D01*
X5333735Y4167564D01*
X5332980Y4166258D01*
X4730836D01*
X4407558Y4489536D01*
Y8400964D01*
X4423926Y8417333D01*
X4427780Y8416300D01*
X4462220D01*
X4474345Y8419549D01*
X4480919Y8408162D01*
D02*
G37*
G36*
X3466442Y5934114D02*
Y5810336D01*
X3346364Y5690258D01*
X3252220D01*
X3251465Y5691564D01*
X3227764Y5715265D01*
X3198736Y5732025D01*
X3191178Y5734050D01*
Y5746750D01*
X3198736Y5748775D01*
X3227764Y5765535D01*
X3251465Y5789236D01*
X3263510Y5810097D01*
X3296155D01*
X3316047Y5812716D01*
X3334584Y5820394D01*
X3350502Y5832608D01*
X3445246Y5927353D01*
X3445247Y5927353D01*
X3453742Y5938425D01*
X3466442Y5934114D01*
D02*
G37*
G36*
X5443780Y8416300D02*
X5458913D01*
X5463774Y8404567D01*
X5139953Y8080747D01*
X5127739Y8064829D01*
X5120061Y8046292D01*
X5117442Y8026400D01*
Y5753100D01*
X5120061Y5733208D01*
X5127739Y5714671D01*
X5139953Y5698753D01*
X5273278Y5565429D01*
X5289196Y5553214D01*
X5307733Y5545536D01*
X5327625Y5542918D01*
X5329299D01*
X5333735Y5535236D01*
X5357436Y5511535D01*
X5386464Y5494775D01*
X5394022Y5492750D01*
Y5480050D01*
X5386464Y5478025D01*
X5357436Y5461265D01*
X5333735Y5437564D01*
X5332980Y5436258D01*
X5276936D01*
X5093358Y5619836D01*
Y8070764D01*
X5439926Y8417333D01*
X5443780Y8416300D01*
D02*
G37*
G36*
X4935780D02*
X4950913D01*
X4955774Y8404567D01*
X4809753Y8258547D01*
X4797539Y8242629D01*
X4789861Y8224092D01*
X4787242Y8204200D01*
Y5149035D01*
X4789861Y5129143D01*
X4797539Y5110606D01*
X4809753Y5094689D01*
X5107389Y4797053D01*
X5123306Y4784839D01*
X5141843Y4777161D01*
X5161735Y4774542D01*
X5332980D01*
X5333735Y4773236D01*
X5357436Y4749535D01*
X5386464Y4732775D01*
X5394022Y4730750D01*
Y4718050D01*
X5386464Y4716025D01*
X5357436Y4699265D01*
X5333735Y4675564D01*
X5332980Y4674258D01*
X5022936D01*
X4763158Y4934036D01*
Y8248564D01*
X4931926Y8417333D01*
X4935780Y8416300D01*
D02*
G37*
G36*
X4614653Y8306550D02*
X4612061Y8300292D01*
X4609442Y8280400D01*
Y4902200D01*
X4612061Y4882308D01*
X4619739Y4863771D01*
X4631953Y4847853D01*
X4936753Y4543053D01*
X4952671Y4530839D01*
X4971208Y4523161D01*
X4991100Y4520542D01*
X5332980D01*
X5333735Y4519236D01*
X5357436Y4495535D01*
X5386464Y4478775D01*
X5394022Y4476750D01*
Y4464050D01*
X5386464Y4462025D01*
X5357436Y4445265D01*
X5333735Y4421564D01*
X5332980Y4420258D01*
X4934036D01*
X4585358Y4768936D01*
Y8295215D01*
X4603886Y8313744D01*
X4614653Y8306550D01*
D02*
G37*
G36*
X4091361Y4209208D02*
X4099039Y4190671D01*
X4111253Y4174754D01*
X4758954Y3527053D01*
X4774871Y3514839D01*
X4793408Y3507161D01*
X4813300Y3504542D01*
X5332980D01*
X5333735Y3503236D01*
X5357436Y3479535D01*
X5386464Y3462775D01*
X5394022Y3460750D01*
Y3448050D01*
X5386464Y3446025D01*
X5357436Y3429265D01*
X5333735Y3405564D01*
X5332980Y3404258D01*
X4730836D01*
X4077358Y4057736D01*
Y4218277D01*
X4090058Y4219110D01*
X4091361Y4209208D01*
D02*
G37*
D11*
X3149600Y6629400D02*
D03*
D12*
Y6375400D02*
D03*
Y6121400D02*
D03*
Y5867400D02*
D03*
Y5613400D02*
D03*
Y5359400D02*
D03*
Y5105400D02*
D03*
Y4851400D02*
D03*
Y4597400D02*
D03*
Y4343400D02*
D03*
Y4089400D02*
D03*
Y3835400D02*
D03*
Y3581400D02*
D03*
Y3327400D02*
D03*
Y3073400D02*
D03*
X5435600D02*
D03*
Y3327400D02*
D03*
Y3581400D02*
D03*
Y3835400D02*
D03*
Y4089400D02*
D03*
Y4343400D02*
D03*
Y4597400D02*
D03*
Y4851400D02*
D03*
Y5105400D02*
D03*
Y5359400D02*
D03*
Y5613400D02*
D03*
Y5867400D02*
D03*
Y6121400D02*
D03*
Y6375400D02*
D03*
Y6629400D02*
D03*
D13*
X2921000Y8547100D02*
D03*
X3175000D02*
D03*
X3429000D02*
D03*
X5715000D02*
D03*
X5461000D02*
D03*
X5207000D02*
D03*
X4953000D02*
D03*
X4699000D02*
D03*
X4445000D02*
D03*
X4191000D02*
D03*
X3937000D02*
D03*
X3683000D02*
D03*
X4025900Y11772900D02*
D03*
X4279900D02*
D03*
X4533900D02*
D03*
X2921000Y9601200D02*
D03*
X3175000D02*
D03*
X3429000D02*
D03*
X5715000D02*
D03*
X5461000D02*
D03*
X5207000D02*
D03*
X4953000D02*
D03*
X4699000D02*
D03*
X4445000D02*
D03*
X4191000D02*
D03*
X3937000D02*
D03*
X3683000D02*
D03*
X2933700Y10680700D02*
D03*
X3187700D02*
D03*
X3441700D02*
D03*
X5727700D02*
D03*
X5473700D02*
D03*
X5219700D02*
D03*
X4965700D02*
D03*
X4711700D02*
D03*
X4457700D02*
D03*
X4203700D02*
D03*
X3949700D02*
D03*
X3695700D02*
D03*
D14*
X4000500Y4025900D02*
Y8462742D01*
X4699000Y3327400D02*
X5435600D01*
X4000500Y4025900D02*
X4699000Y3327400D01*
X4165600Y4229100D02*
X4813300Y3581400D01*
X4165600Y4229100D02*
Y8462742D01*
X4813300Y3581400D02*
X5435600D01*
X4170106Y8496656D02*
X4191000Y8517550D01*
X4170106Y8467247D02*
Y8496656D01*
X4165600Y8462742D02*
X4170106Y8467247D01*
X4191000Y8517550D02*
Y9601200D01*
X4699000Y4089400D02*
X5435600D01*
X4330700Y4457700D02*
X4699000Y4089400D01*
X4330700Y4457700D02*
Y8432800D01*
X4445000Y8547100D01*
X5194300Y5753100D02*
Y8026400D01*
X5327625Y5619775D02*
X5429225D01*
X5194300Y5753100D02*
X5327625Y5619775D01*
X5429225D02*
X5435600Y5613400D01*
X5016500Y5588000D02*
X5245100Y5359400D01*
X5435600D01*
X5016500Y5588000D02*
Y8102600D01*
X4864100Y5149035D02*
Y8204200D01*
Y5149035D02*
X5161735Y4851400D01*
X5435600D01*
X4902200Y4343400D02*
X5435600D01*
X4508500Y4737100D02*
Y8327050D01*
Y4737100D02*
X4902200Y4343400D01*
X5016500Y8102600D02*
X5461000Y8547100D01*
X4864100Y8204200D02*
X5207000Y8547100D01*
X4686300Y8280400D02*
X4953000Y8547100D01*
X4686300Y4902200D02*
Y8280400D01*
Y4902200D02*
X4991100Y4597400D01*
X4508500Y8327050D02*
X4699000Y8517550D01*
X4445000Y8538942D02*
Y9601200D01*
X3937000Y8526242D02*
X4000500Y8462742D01*
X3937000Y8526242D02*
Y9601200D01*
X3416300Y4597400D02*
X3695700Y4876800D01*
X3429000Y8547100D02*
X3695700Y8280400D01*
Y4876800D02*
Y8280400D01*
X3378200Y5613400D02*
X3543300Y5778500D01*
X3175000Y8547100D02*
X3543300Y8178800D01*
Y5778500D02*
Y8178800D01*
X3296155Y5886955D02*
X3390900Y5981700D01*
Y8077200D01*
X2921000Y8547100D02*
X3390900Y8077200D01*
X4699000Y8517550D02*
Y9601200D01*
X5194300Y8026400D02*
X5715000Y8547100D01*
X3169155Y5886955D02*
X3296155D01*
X2921000Y8547100D02*
Y9601200D01*
X3149600Y5613400D02*
X3378200D01*
X3175000Y8547100D02*
Y9601200D01*
X2921000D02*
Y10668000D01*
X3149600Y5867400D02*
X3169155Y5886955D01*
X3149600Y4597400D02*
X3416300D01*
X3149600Y4343400D02*
X3365500D01*
X3848100Y4826000D02*
Y8382000D01*
X3365500Y4343400D02*
X3848100Y4826000D01*
X3683000Y8547100D02*
X3848100Y8382000D01*
X3429000Y8547100D02*
Y9601200D01*
X3683000Y8547100D02*
Y9601200D01*
X5207000Y8547100D02*
Y9601200D01*
X4953000Y8547100D02*
Y9601200D01*
X4991100Y4597400D02*
X5435600D01*
X5715000Y8547100D02*
Y9601200D01*
X5721350Y9607550D02*
Y10674350D01*
X5715000Y9601200D02*
X5721350Y9607550D01*
Y10674350D02*
X5727700Y10680700D01*
X5467350Y9607550D02*
Y10674350D01*
X5461000Y9601200D02*
X5467350Y9607550D01*
Y10674350D02*
X5473700Y10680700D01*
X5461000Y8547100D02*
Y9601200D01*
X5213350Y10674350D02*
X5219700Y10680700D01*
X5213350Y9607550D02*
Y10674350D01*
X5207000Y9601200D02*
X5213350Y9607550D01*
X4953000Y9601200D02*
X4959350Y9607550D01*
Y10674350D01*
X4965700Y10680700D01*
X4705350Y10674350D02*
X4711700Y10680700D01*
X4705350Y9607550D02*
Y10674350D01*
X4699000Y9601200D02*
X4705350Y9607550D01*
X4451350Y10674350D02*
X4457700Y10680700D01*
X4445000Y9601200D02*
X4451350Y9607550D01*
Y10674350D01*
X4197350Y9607550D02*
Y10674350D01*
X4203700Y10680700D01*
X4191000Y9601200D02*
X4197350Y9607550D01*
X3943350D02*
Y10674350D01*
X3937000Y9601200D02*
X3943350Y9607550D01*
Y10674350D02*
X3949700Y10680700D01*
X3689350Y9607550D02*
Y10674350D01*
X3695700Y10680700D01*
X3683000Y9601200D02*
X3689350Y9607550D01*
X3435350D02*
Y10674350D01*
X3429000Y9601200D02*
X3435350Y9607550D01*
Y10674350D02*
X3441700Y10680700D01*
X3175000Y9601200D02*
X3181350Y9607550D01*
Y10674350D02*
X3187700Y10680700D01*
X3181350Y9607550D02*
Y10674350D01*
X2921000Y10668000D02*
X2933700Y10680700D01*
%TF.MD5,ef36bd1aa3c37c50391675eabb1b6add*%
M02*
